<svg width="208" height="125" viewBox="0 0 208 125" fill="none" xmlns="http://www.w3.org/2000/svg">
<path d="M33.9801 66.9317L56.5192 16.8242C53.0421 18.8111 48.7578 19.8046 43.6663 19.8046H26.5292L31.3723 8.81443H48.882C52.4833 8.81443 55.5257 8.13143 58.0094 6.76543C60.493 5.39942 62.3557 3.41251 63.5976 0.804688H75.5191L45.9016 66.9317H70.3034L65.6466 77.7355H0.823486L5.48032 66.9317H33.9801Z" fill="#00AFFE"/>
<path d="M169.85 0.804688H185.125L184.193 3.03996L42.8121 123H27.3514L28.2828 120.951L169.85 0.804688Z" fill="#00AFFE"/>
<path d="M149.566 124.304C141.742 124.304 135.471 122.752 130.752 119.647C126.033 116.542 123.674 112.507 123.674 107.539C123.674 105.428 124.108 103.317 124.978 101.206L125.723 99.5295H137.458L136.899 101.206C136.278 102.696 135.968 104 135.968 105.118C135.968 107.85 137.272 110.085 139.879 111.824C142.487 113.438 146.026 114.245 150.497 114.245C155.713 114.245 159.873 113.376 162.977 111.637C166.206 109.775 168.69 106.918 170.428 103.069L171.918 99.7158C172.663 97.853 173.036 96.1766 173.036 94.6864C173.036 91.8302 171.794 89.5949 169.311 87.9806C166.827 86.3662 163.35 85.559 158.879 85.559H148.82L152.173 78.1081L185.889 56.1278H147.144L151.428 45.8828H207.31L202.84 56.1278L168.565 78.1081L170.428 78.4806C175.023 79.3499 178.562 81.2126 181.046 84.0688C183.654 86.8008 184.957 90.0917 184.957 93.9413C184.957 96.5491 184.337 99.2811 183.095 102.137L180.859 107.167C178.5 112.879 174.65 117.163 169.311 120.02C163.971 122.876 157.389 124.304 149.566 124.304Z" fill="#00AFFE"/>
</svg>
