<svg width="160" height="154" viewBox="0 0 160 154" fill="none" xmlns="http://www.w3.org/2000/svg">
<circle cx="75.5" cy="77.5" r="74.5" fill="#ED1B24"/>
<mask id="path-2-inside-1_137_616" fill="white">
<path fill-rule="evenodd" clip-rule="evenodd" d="M84.0827 153.358C128.047 150.858 161.737 114.532 159.331 72.2204C156.925 29.9093 119.335 -2.36403 75.3699 0.135973C31.4052 2.63597 -2.28472 38.9626 0.121251 81.2737C0.215244 82.9266 0.362937 84.5643 0.562611 86.1851C8.10145 83.3872 16.2061 80.8957 24.8765 78.7107L73.3486 67.1453C82.2929 64.9183 88.2083 62.4391 91.0947 59.7077C94.3305 56.5362 95.6538 52.3842 95.0645 47.2519L94.1806 39.5534L135.042 34.8618L136.266 45.5213C137.988 60.5235 135.158 72.4486 127.773 81.2964C120.784 90.0989 108.345 96.7271 90.4565 101.181L37.975 114.407C29.597 116.497 21.887 118.906 14.8451 121.632C30.1851 142.199 55.8165 154.965 84.0827 153.358Z"/>
</mask>
<path fill-rule="evenodd" clip-rule="evenodd" d="M84.0827 153.358C128.047 150.858 161.737 114.532 159.331 72.2204C156.925 29.9093 119.335 -2.36403 75.3699 0.135973C31.4052 2.63597 -2.28472 38.9626 0.121251 81.2737C0.215244 82.9266 0.362937 84.5643 0.562611 86.1851C8.10145 83.3872 16.2061 80.8957 24.8765 78.7107L73.3486 67.1453C82.2929 64.9183 88.2083 62.4391 91.0947 59.7077C94.3305 56.5362 95.6538 52.3842 95.0645 47.2519L94.1806 39.5534L135.042 34.8618L136.266 45.5213C137.988 60.5235 135.158 72.4486 127.773 81.2964C120.784 90.0989 108.345 96.7271 90.4565 101.181L37.975 114.407C29.597 116.497 21.887 118.906 14.8451 121.632C30.1851 142.199 55.8165 154.965 84.0827 153.358Z" fill="white"/>
<path d="M159.331 72.2204L165.324 71.8796L159.331 72.2204ZM84.0827 153.358L84.4235 159.351L84.4235 159.351L84.0827 153.358ZM75.3699 0.135973L75.0291 -5.8572L75.3699 0.135973ZM0.121251 81.2737L6.11443 80.9329L6.11443 80.9329L0.121251 81.2737ZM0.56261 86.1851L-5.39521 86.9191L-4.46689 94.4547L2.65127 91.8129L0.56261 86.1851ZM24.8765 78.7107L23.4833 72.8718L23.4464 72.8806L23.4096 72.8898L24.8765 78.7107ZM73.3486 67.1453L74.7418 72.9842L74.7704 72.9774L74.7989 72.9703L73.3486 67.1453ZM91.0947 59.7077L95.2207 64.0678L95.2589 64.0316L95.2965 63.9948L91.0947 59.7077ZM95.0645 47.2519L89.1009 47.9366L89.1009 47.9366L95.0645 47.2519ZM94.1806 39.5534L93.4959 33.5897L87.5322 34.2744L88.217 40.2381L94.1806 39.5534ZM135.042 34.8618L141.006 34.1771L140.321 28.2134L134.357 28.8981L135.042 34.8618ZM136.266 45.5213L130.302 46.206L130.302 46.206L136.266 45.5213ZM127.773 81.2964L123.165 77.4501L123.118 77.5063L123.072 77.5636L127.773 81.2964ZM90.4565 101.181L89.0062 95.356L88.9979 95.3581L88.9896 95.3602L90.4565 101.181ZM37.975 114.407L39.4283 120.231L39.4419 120.228L37.975 114.407ZM14.8451 121.632L12.6777 116.034L5.30905 118.888L10.0333 125.221L14.8451 121.632ZM153.338 72.5612C155.544 111.348 124.615 145.041 83.7419 147.365L84.4235 159.351C131.479 156.676 167.931 117.715 165.324 71.8796L153.338 72.5612ZM75.7107 6.12915C116.584 3.80493 151.133 33.7745 153.338 72.5612L165.324 71.8796C162.718 26.0441 122.085 -8.53298 75.0291 -5.8572L75.7107 6.12915ZM6.11443 80.9329C3.90886 42.1462 34.8373 8.45336 75.7107 6.12915L75.0291 -5.8572C27.9731 -3.18142 -8.47831 35.779 -5.87192 81.6145L6.11443 80.9329ZM6.52043 85.4512C6.33683 83.9608 6.20094 82.4543 6.11443 80.9329L-5.87192 81.6145C-5.77045 83.399 -5.61096 85.1677 -5.39521 86.9191L6.52043 85.4512ZM2.65127 91.8129C9.96545 89.0983 17.8606 86.6693 26.3434 84.5316L23.4096 72.8898C14.5515 75.1221 6.23745 77.676 -1.52605 80.5573L2.65127 91.8129ZM26.2696 84.5497L74.7418 72.9842L71.9554 61.3063L23.4833 72.8718L26.2696 84.5497ZM74.7989 72.9703C79.4515 71.8119 83.4812 70.5486 86.8137 69.152C90.0803 67.7829 93.0281 66.1426 95.2207 64.0678L86.9687 55.3476C86.2748 56.0042 84.8218 56.9693 82.1731 58.0794C79.5902 59.1619 76.1901 60.2517 71.8983 61.3202L74.7989 72.9703ZM95.2965 63.9948C100.052 59.3335 101.795 53.2472 101.028 46.5672L89.1009 47.9366C89.5125 51.5213 88.6087 53.7389 86.8928 55.4206L95.2965 63.9948ZM101.028 46.5672L100.144 38.8686L88.217 40.2381L89.1009 47.9366L101.028 46.5672ZM94.8654 45.517L135.727 40.8255L134.357 28.8981L93.4959 33.5897L94.8654 45.517ZM129.078 35.5465L130.302 46.206L142.23 44.8366L141.006 34.1771L129.078 35.5465ZM130.302 46.206C131.898 60.1067 129.197 70.222 123.165 77.4501L132.382 85.1427C141.118 74.6751 144.079 60.9403 142.23 44.8365L130.302 46.206ZM123.072 77.5636C117.286 84.851 106.366 91.0338 89.0062 95.356L91.9068 107.006C110.324 102.42 124.282 95.3468 132.475 85.0292L123.072 77.5636ZM88.9896 95.3602L36.5081 108.586L39.4419 120.228L91.9234 107.002L88.9896 95.3602ZM36.5217 108.583C27.9348 110.725 19.9829 113.206 12.6777 116.034L17.0125 127.23C23.7911 124.606 31.2591 122.269 39.4283 120.231L36.5217 108.583ZM83.7419 147.365C57.5057 148.857 33.8025 137.009 19.6569 118.043L10.0333 125.221C26.5676 147.389 54.1274 161.074 84.4235 159.351L83.7419 147.365Z" fill="white" mask="url(#path-2-inside-1_137_616)"/>
</svg>
