<svg width="187" height="187" viewBox="0 0 187 187" fill="none" xmlns="http://www.w3.org/2000/svg">
<path fill-rule="evenodd" clip-rule="evenodd" d="M5.86444 63.336L8.79667 53.7574C12.1199 55.3864 19.5481 57.0806 22.6758 50.8252C25.8036 44.5698 22.8062 37.6628 20.9165 34.9912L27.7584 27.5629C31.1467 29.2571 38.9008 31.6289 42.8104 27.5629C46.7201 23.4969 46.1336 17.0069 45.3517 14.2701L53.7574 9.38311C55.5819 11.7289 60.9902 15.9904 68.0275 14.2701C75.0649 12.5499 76.0423 5.21284 75.6513 1.75933L85.0344 0C85.8815 3.45351 89.1004 10.5169 95.1995 11.1424C101.298 11.768 106.081 5.14768 107.71 1.75933L117.484 3.71415C116.702 7.03733 116.898 14.3483 123.935 17.0069C130.973 19.6654 136.381 14.5959 138.205 11.7289L147.002 17.0069C145.047 20.3301 142.584 27.9538 148.37 31.8635C154.157 35.7731 160.816 33.4925 163.422 31.8635L169.873 39.8782C166.681 42.1588 161.624 48.4403 166.941 55.3213C172.258 62.2022 177.888 60.9251 180.038 59.4264L183.166 69.005C179.973 70.5036 173.9 75.3386 175.151 82.6887C176.402 90.0388 183.492 91.2247 186.88 90.8989L186.294 102.237C183.818 101.39 177.888 101.689 173.978 109.665C170.069 117.641 177.562 122.371 181.798 123.74L177.693 132.927C175.217 131.494 168.818 130.347 163.032 137.228C157.245 144.109 162.706 150.13 166.159 152.28L159.513 159.904C157.037 157.493 150.286 154 143.092 159.317C135.899 164.634 139.313 171.046 141.92 173.588L133.123 178.475C132.993 175.477 130.191 169.795 120.026 171.046C109.861 172.297 110.056 181.081 111.424 185.316L101.455 186.294C101.259 183.101 98.8354 176.52 90.7034 175.738C82.5714 174.956 79.6261 181.798 79.17 185.316L69.7869 183.166C70.4385 179.582 70.0996 172.141 63.5315 171.046C56.9633 169.952 50.8903 173.718 48.6749 175.738L39.8782 171.046C41.6376 166.615 43.866 157.128 38.7053 154.626C33.5446 152.124 26.1294 154.105 23.0668 155.408L16.8114 147.198C20.0043 145.308 25.2171 139.417 20.5256 130.973C15.834 122.528 9.18763 124.978 6.45089 127.258L3.1277 118.071C7.4283 117.419 15.2085 113.653 11.9244 103.801C8.64028 93.9484 2.60642 94.4827 0 95.9814V85.0344C3.06254 85.0996 9.73498 83.627 11.9244 77.2152C14.1138 70.8034 8.79667 65.2908 5.86444 63.336ZM43.9843 54.5392L77.2162 75.6512L87.3812 69.5913L89.1405 31.2769C80.5394 31.2769 59.4664 35.9294 43.9843 54.5392ZM101.072 70.5715L102.858 31.241C126.703 35.4156 141.221 51.3826 145.499 58.8443L111.386 76.3756L101.072 70.5715ZM143.561 131.553L109.858 111.201L99.8336 117.49L98.9441 155.834C107.543 155.639 128.505 150.51 143.561 131.553ZM117.345 89.1039L151.823 70.0937C160.711 92.6108 154.672 113.329 150.541 120.873L117.779 100.93L117.345 89.1039ZM84.3124 154.969L85.4859 115.616L75.0837 109.973L41.2469 128.033C45.6407 135.427 60.4051 151.166 84.3124 154.969ZM70.4926 97.9423L36.5237 117.847C27.0501 95.5695 32.5459 74.7007 36.478 67.0509L69.75 86.1313L70.4926 97.9423ZM93.4418 104.583C99.8115 104.583 104.975 99.4194 104.975 93.0496C104.975 86.6799 99.8115 81.5162 93.4418 81.5162C87.072 81.5162 81.9083 86.6799 81.9083 93.0496C81.9083 99.4194 87.072 104.583 93.4418 104.583Z" fill="#C1ECFF"/>
</svg>
