<svg width="357" height="356" viewBox="0 0 357 356" fill="none" xmlns="http://www.w3.org/2000/svg">
<path fill-rule="evenodd" clip-rule="evenodd" d="M11.2023 120.985L16.8034 102.688C23.1514 105.799 37.3409 109.035 43.3155 97.0864C49.29 85.1373 43.5644 71.9435 39.9548 66.8402L53.0241 52.6507C59.4965 55.8869 74.3084 60.4176 81.7766 52.6507C89.2448 44.8838 88.1246 32.4866 86.6309 27.2589L102.688 17.9236C106.173 22.4046 116.504 30.5449 129.946 27.2589C143.389 23.9729 145.256 9.95758 144.509 3.36068L162.433 0C164.051 6.5969 170.2 20.0894 181.85 21.2843C193.501 22.4792 202.637 9.83311 205.748 3.36068L224.419 7.09477C222.925 13.4427 223.299 27.4082 236.741 32.4866C250.184 37.565 260.515 27.8812 264 22.4046L280.804 32.4866C277.07 38.8346 272.365 53.3975 283.418 60.8657C294.47 68.3339 307.191 63.9774 312.17 60.8657L324.493 76.1755C318.394 80.5319 308.735 92.5308 318.891 105.675C329.048 118.819 339.802 116.379 343.91 113.516L349.884 131.813C343.785 134.676 332.185 143.912 334.575 157.952C336.964 171.992 350.507 174.258 356.979 173.635L355.859 195.293C351.129 193.675 339.802 194.247 332.334 209.483C324.866 224.718 339.18 233.754 347.271 236.368L339.429 253.918C334.699 251.18 322.476 248.989 311.423 262.133C300.37 275.277 310.801 286.778 317.398 290.886L304.702 305.449C299.972 300.843 287.077 294.172 273.336 304.328C259.594 314.485 266.116 326.733 271.095 331.587L254.292 340.923C254.043 335.197 248.69 324.343 229.273 326.733C209.856 329.123 210.229 345.901 212.843 353.992L193.799 355.859C193.426 349.76 188.796 337.188 173.262 335.695C157.728 334.201 152.102 347.271 151.231 353.992L133.307 349.884C134.552 343.039 133.905 328.824 121.358 326.733C108.811 324.642 97.2108 331.836 92.9789 335.695L76.1755 326.733C79.5361 318.269 83.793 300.146 73.935 295.367C64.077 290.587 49.9124 294.371 44.0623 296.86L32.1132 281.177C38.2122 277.568 48.1698 266.315 39.208 250.184C30.2461 234.053 17.5502 238.733 12.3225 243.089L5.97455 225.539C14.1895 224.294 29.0512 217.1 22.778 198.28C16.5047 179.46 4.97879 180.481 0 183.344V162.433C5.85008 162.557 18.5958 159.744 22.778 147.497C26.9601 135.249 16.8034 124.719 11.2023 120.985ZM84.0155 104.183L147.495 144.511L166.912 132.935L170.273 59.7471C153.843 59.7471 113.589 68.6342 84.0155 104.183ZM193.066 134.807L196.477 59.6774C242.027 67.6516 269.758 98.1519 277.931 112.405L212.767 145.894L193.066 134.807ZM274.228 251.295L209.85 212.417L190.7 224.431L189.001 297.676C205.427 297.303 245.468 287.505 274.228 251.295ZM224.151 170.208L290.01 133.895C306.988 176.907 295.452 216.483 287.562 230.895L224.98 192.799L224.151 170.208ZM161.052 296.024L163.294 220.851L143.424 210.072L78.7884 244.57C87.1814 258.694 115.384 288.76 161.052 296.024ZM134.653 187.089L69.7658 225.11C51.6693 182.557 62.1674 142.693 69.6785 128.08L133.235 164.528L134.653 187.089ZM178.49 199.775C190.657 199.775 200.521 189.911 200.521 177.744C200.521 165.576 190.657 155.713 178.49 155.713C166.322 155.713 156.459 165.576 156.459 177.744C156.459 189.911 166.322 199.775 178.49 199.775Z" fill="#C1ECFF"/>
</svg>
