<svg width="247" height="296" viewBox="0 0 247 296" fill="none" xmlns="http://www.w3.org/2000/svg">
<path d="M-38.0921 89.7908L-25.0879 107.439L-46.4519 113.941L-48 134.686L-30.0418 147.69L-48 160.075L-46.4519 181.439L-23.8494 188.251L-38.4017 206.209L-30.0418 223.858H-4.96235L-13.6318 246.77L0.920502 260.393L23.2134 252.343L21.3556 276.184L40.5523 285.782L58.8201 271.23L64.7029 292.594L86.3766 296L98.7615 277.113L111.766 296L131.891 294.142L139.013 271.23L156.971 285.782L175.238 275.255V253.582L197.531 261.632L211.464 247.699L204.033 224.167H226.946L236.544 206.519L223.54 189.18L243.046 182.368L246.762 161.004L230.351 148L246.762 135.615L243.665 114.87L224.778 106.201L237.163 89.7908L227.565 71.523H205.891L213.322 52.0167L196.603 35.6067L176.167 39.3222V20.1255L157.59 11.1464L139.013 24.7699L133.13 3.09623L113.933 0L99.6904 17.0293L87.3054 0L65.6318 3.09623L58.5105 24.7699L40.8619 11.1464L21.6653 19.8159L22.5941 43.3473L1.53975 35.6067L-13.6318 50.159L-5.89122 72.4519L-28.4937 71.523L-38.0921 89.7908Z" fill="#C1ECFF"/>
<circle cx="99.69" cy="147.69" r="112.751" fill="#C1ECFF" stroke="#00AFFE" stroke-width="3"/>
<circle cx="99.691" cy="147.691" r="78.6925" fill="#C1ECFF" stroke="#00AFFE" stroke-width="3"/>
<circle cx="99.3804" cy="148" r="68.4749" fill="#C1ECFF" stroke="#00AFFE" stroke-width="3"/>
<circle cx="99.3801" cy="148" r="22.6506" fill="#C1ECFF" stroke="#00AFFE" stroke-width="3"/>
</svg>
