<svg width="177" height="364" viewBox="0 0 177 364" fill="none" xmlns="http://www.w3.org/2000/svg">
<path fill-rule="evenodd" clip-rule="evenodd" d="M11.4579 123.745L17.1868 105.031C23.6796 108.213 38.193 111.523 44.3039 99.3017C50.4147 87.08 44.5585 73.5851 40.8665 68.3654L54.234 53.8521C60.8541 57.1622 76.004 61.7962 83.6426 53.8521C91.2812 45.908 90.1354 33.2279 88.6077 27.8809L105.031 18.3326C108.595 22.9158 119.162 31.2419 132.912 27.8809C146.661 24.5199 148.571 10.1848 147.807 3.43737L166.139 0C167.794 6.74743 174.084 20.5478 186 21.77C197.916 22.9922 207.261 10.0575 210.443 3.43737L229.54 7.25667C228.012 13.7495 228.394 28.0336 242.143 33.2279C255.893 38.4221 266.46 28.5174 270.024 22.9158L287.211 33.2279C283.392 39.7207 278.58 54.616 289.885 62.2546C301.19 69.8932 314.201 65.4373 319.293 62.2546L331.897 77.9137C325.659 82.3695 315.78 94.6422 326.168 108.086C336.557 121.53 347.556 119.035 351.757 116.107L357.868 134.821C351.63 137.749 339.765 147.196 342.209 161.556C344.653 175.917 358.505 178.234 365.125 177.597L363.979 199.749C359.141 198.094 347.556 198.68 339.918 214.263C332.279 229.845 346.92 239.088 355.195 241.762L347.174 259.712C342.336 256.911 329.835 254.671 318.529 268.115C307.224 281.559 317.893 293.322 324.64 297.523L311.655 312.419C306.817 307.708 293.628 300.884 279.573 311.273C265.518 321.661 272.189 334.189 277.281 339.154L260.094 348.702C259.84 342.846 254.365 331.744 234.505 334.189C214.645 336.633 215.026 353.794 217.7 362.069L198.222 363.979C197.84 357.741 193.104 344.883 177.215 343.355C161.327 341.827 155.573 355.195 154.682 362.069L136.349 357.868C137.622 350.866 136.96 336.327 124.127 334.189C111.294 332.05 99.4291 339.408 95.1005 343.355L77.9137 334.189C81.351 325.531 85.705 306.995 75.6221 302.106C65.5392 297.218 51.0513 301.088 45.0677 303.634L32.846 287.593C39.0841 283.901 49.2689 272.392 40.1026 255.893C30.9363 239.394 17.9507 244.18 12.6037 248.636L6.11088 230.686C14.5133 229.412 29.7141 222.054 23.2977 202.805C16.8813 183.555 5.0924 184.599 0 187.528V166.139C5.98357 166.267 19.0201 163.39 23.2977 150.862C27.5753 138.335 17.1868 127.565 11.4579 123.745ZM85.9343 106.559L150.862 147.807L170.723 135.967L174.16 61.1089C157.355 61.1089 116.183 70.1989 85.9343 106.559ZM197.472 137.882L200.961 61.0384C247.549 69.1945 275.914 100.391 284.273 114.969L217.622 149.222L197.472 137.882ZM280.487 257.029L214.639 217.264L195.053 229.552L193.315 304.469C210.116 304.087 251.071 294.065 280.487 257.029ZM229.267 174.091L296.628 136.949C313.994 180.943 302.195 221.422 294.125 236.162L230.114 197.198L229.267 174.091ZM164.728 302.777L167.02 225.888L146.697 214.863L80.5867 250.148C89.1712 264.595 118.018 295.346 164.728 302.777ZM137.726 191.357L71.3583 230.247C52.8489 186.722 63.5865 145.948 71.269 131.002L136.275 168.281L137.726 191.357ZM182.563 204.332C195.008 204.332 205.097 194.244 205.097 181.799C205.097 169.353 195.008 159.265 182.563 159.265C170.118 159.265 160.029 169.353 160.029 181.799C160.029 194.244 170.118 204.332 182.563 204.332Z" fill="#C1ECFF"/>
</svg>
