<svg width="223" height="224" viewBox="0 0 223 224" fill="none" xmlns="http://www.w3.org/2000/svg">
<path d="M7.48284 67.8132L17.3041 81.142L1.16919 86.0526L0 101.72L13.5626 111.541L0 120.895L1.16919 137.029L18.2394 142.174L7.249 155.737L13.5626 169.065H32.5036L25.9561 186.369L36.9465 196.658L53.7829 190.579L52.3799 208.584L66.8779 215.833L80.6744 204.843L85.1173 220.978L101.486 223.55L110.84 209.286L120.661 223.55L135.86 222.147L141.239 204.843L154.801 215.833L168.598 207.883V191.514L185.434 197.594L195.957 187.071L190.345 169.299H207.649L214.898 155.97L205.077 142.875L219.808 137.731L222.614 121.596L210.221 111.775L222.614 102.421L220.276 86.7542L206.012 80.2067L215.365 67.8132L208.116 54.0167H191.748L197.36 39.2849L184.733 26.8915L169.299 29.6975V15.1995L155.269 8.41819L141.239 18.7071L136.796 2.33839L122.298 0L111.541 12.8611L102.188 0L85.8188 2.33839L80.4405 18.7071L67.1117 8.41819L52.6137 14.9657L53.3152 32.7374L37.4142 26.8915L25.9561 37.8819L31.8021 54.7183L14.7318 54.0167L7.48284 67.8132Z" fill="#C1ECFF"/>
<circle cx="111.541" cy="111.54" r="84.7865" fill="#C1ECFF" stroke="#00AFFE" stroke-width="3"/>
<circle cx="111.541" cy="111.541" r="59.0642" fill="#C1ECFF" stroke="#00AFFE" stroke-width="3"/>
<circle cx="111.307" cy="111.774" r="51.3475" fill="#C1ECFF" stroke="#00AFFE" stroke-width="3"/>
<circle cx="111.308" cy="111.775" r="16.7394" fill="#C1ECFF" stroke="#00AFFE" stroke-width="3"/>
</svg>
