<svg width="176" height="175" viewBox="0 0 176 175" fill="none" xmlns="http://www.w3.org/2000/svg">
<path fill-rule="evenodd" clip-rule="evenodd" d="M5.83224 59.6035L8.57259 50.6517C11.6783 52.1741 18.6205 53.7574 21.5435 47.9114C24.4666 42.0653 21.6653 35.6103 19.8993 33.1135L26.2935 26.1713C29.4601 27.7546 36.7068 29.9713 40.3605 26.1713C44.0143 22.3714 43.4663 16.3061 42.7355 13.7484L50.5912 9.1812C52.2963 11.3735 57.3507 15.3561 63.9275 13.7484C70.5043 12.1408 71.4177 5.28383 71.0524 2.05631L79.8215 0.412109C80.6131 3.63962 83.6214 10.2408 89.3213 10.8254C95.0212 11.41 99.491 5.22293 101.013 2.05631L110.148 3.88321C109.417 6.98893 109.6 13.8215 116.177 16.3061C122.753 18.7907 127.808 14.0529 129.513 11.3735L137.734 16.3061C135.907 19.4118 133.605 26.5367 139.013 30.1905C144.42 33.8443 150.644 31.7129 153.08 30.1905L159.109 37.6808C156.125 39.8121 151.399 45.6825 156.368 52.1132C161.337 58.5439 166.599 57.3503 168.609 55.9497L171.532 64.9015C168.548 66.3021 162.872 70.8206 164.041 77.6897C165.21 84.5589 171.836 85.6672 175.003 85.3627L174.455 95.9587C172.141 95.167 166.599 95.4472 162.945 102.901C159.291 110.355 166.294 114.776 170.253 116.055L166.416 124.641C164.102 123.301 158.122 122.229 152.715 128.66C147.307 135.091 152.41 140.718 155.638 142.727L149.426 149.852C147.112 147.599 140.803 144.335 134.08 149.304C127.357 154.273 130.548 160.265 132.984 162.64L124.763 167.208C124.641 164.406 122.023 159.096 112.523 160.265C103.023 161.435 103.206 169.643 104.485 173.602L95.1674 174.515C94.9847 171.531 92.7193 165.381 85.1195 164.65C77.5196 163.919 74.7671 170.313 74.3408 173.602L65.5717 171.592C66.1806 168.243 65.864 161.288 59.7256 160.265C53.5873 159.242 47.9117 162.762 45.8412 164.65L37.6202 160.265C39.2644 156.124 41.3471 147.258 36.5241 144.919C31.7011 142.581 24.771 144.432 21.9089 145.65L16.0629 137.977C19.0468 136.211 23.9185 130.706 19.534 122.814C15.1494 114.922 8.93797 117.212 6.38031 119.343L3.27459 110.757C7.29376 110.148 14.5648 106.628 11.4956 97.4202C8.42643 88.2126 2.78742 88.712 0.351562 90.1126V79.882C3.2137 79.9429 9.4495 78.5667 11.4956 72.5744C13.5417 66.5822 8.57259 61.4304 5.83224 59.6035ZM41.4567 51.3823L72.5139 71.1128L82.0137 65.4494L83.658 29.6423C75.6196 29.6423 55.9257 33.9903 41.4567 51.3823ZM94.8092 66.3654L96.4779 29.6087C118.763 33.51 132.33 48.4322 136.329 55.4057L104.447 71.7898L94.8092 66.3654ZM134.517 123.357L103.02 104.337L93.6513 110.214L92.8201 146.049C100.856 145.867 120.447 141.073 134.517 123.357ZM110.016 83.6856L142.237 65.9195C150.544 86.9631 144.9 106.325 141.04 113.376L110.422 94.7381L110.016 83.6856ZM79.1453 145.24L80.2421 108.462L70.5205 103.188L38.898 120.066C43.0042 126.977 56.8025 141.686 79.1453 145.24ZM66.2306 91.9444L34.4846 110.546C25.631 89.727 30.7671 70.2237 34.4419 63.0745L65.5366 80.9063L66.2306 91.9444ZM87.6771 98.1511C93.63 98.1511 98.4558 93.3253 98.4558 87.3724C98.4558 81.4195 93.63 76.5937 87.6771 76.5937C81.7242 76.5937 76.8984 81.4195 76.8984 87.3724C76.8984 93.3253 81.7242 98.1511 87.6771 98.1511Z" fill="#C1ECFF"/>
</svg>
