<svg width="270" height="269" viewBox="0 0 270 269" fill="none" xmlns="http://www.w3.org/2000/svg">
<path fill-rule="evenodd" clip-rule="evenodd" d="M8.45258 91.2879L12.6789 77.482C17.4687 79.83 28.1753 82.2718 32.6833 73.2557C37.1914 64.2396 32.8712 54.2844 30.1475 50.4338L40.0089 39.7271C44.8926 42.169 56.0688 45.5876 61.7039 39.7271C67.3389 33.8667 66.4937 24.5125 65.3666 20.568L77.482 13.5241C80.1117 16.9052 87.9069 23.0474 98.05 20.568C108.193 18.0885 109.602 7.51341 109.038 2.53578L122.562 0C123.783 4.97763 128.423 15.1583 137.214 16.0599C146.004 16.9615 152.898 7.41949 155.246 2.53578L169.333 5.3533C168.206 10.1431 168.488 20.6807 178.631 24.5125C188.774 28.3443 196.57 21.0375 199.199 16.9052L211.878 24.5125C209.061 29.3023 205.51 40.2907 213.85 45.9257C222.19 51.5608 231.789 48.2737 235.545 45.9257L244.843 57.4776C240.241 60.7647 232.953 69.8184 240.617 79.736C248.281 89.6537 256.395 87.813 259.494 85.6529L264.002 99.4587C259.4 101.619 250.647 108.588 252.451 119.181C254.254 129.775 264.472 131.485 269.356 131.015L268.51 147.357C264.942 146.136 256.395 146.568 250.76 158.063C245.125 169.559 255.925 176.377 262.03 178.35L256.113 191.592C252.544 189.526 243.322 187.873 234.982 197.79C226.642 207.708 234.512 216.386 239.49 219.485L229.91 230.474C226.341 226.999 216.612 221.965 206.243 229.629C195.875 237.292 200.796 246.534 204.553 250.197L191.874 257.24C191.686 252.92 187.647 244.73 172.996 246.534C158.345 248.337 158.627 260.997 160.599 267.102L146.23 268.51C145.948 263.908 142.454 254.423 130.733 253.296C119.012 252.169 114.767 262.03 114.11 267.102L100.586 264.002C101.525 258.837 101.037 248.112 91.5697 246.534C82.1028 244.956 73.3496 250.384 70.1564 253.296L57.4776 246.534C60.0133 240.147 63.2253 226.473 55.7871 222.866C48.3488 219.26 37.661 222.115 33.2468 223.993L24.2307 212.16C28.8327 209.436 36.3461 200.946 29.584 188.774C22.822 176.603 13.2424 180.134 9.29784 183.421L4.50804 170.179C10.7066 169.24 21.9204 163.811 17.1869 149.611C12.4535 135.41 3.7567 136.181 0 138.341V122.562C4.41413 122.656 14.0313 120.534 17.1869 111.292C20.3426 102.051 12.6789 94.1054 8.45258 91.2879ZM63.394 78.6085L111.292 109.038L125.943 100.303L128.479 45.0799C116.082 45.0799 85.7088 51.7856 63.394 78.6085ZM145.678 101.717L148.251 45.0285C182.62 51.0454 203.545 74.0591 209.711 84.8139L160.542 110.082L145.678 101.717ZM206.916 189.612L158.34 160.278L143.891 169.342L142.609 224.609C155.003 224.328 185.216 216.934 206.916 189.612ZM169.13 128.428L218.823 101.029C231.634 133.483 222.93 163.345 216.976 174.219L169.755 145.474L169.13 128.428ZM121.52 223.361L123.212 166.64L108.219 158.507L59.4488 184.537C65.7817 195.194 87.062 217.88 121.52 223.361ZM101.602 141.166L52.6419 169.855C38.9873 137.746 46.9085 107.667 52.576 96.6413L100.532 124.142L101.602 141.166ZM134.679 150.738C143.86 150.738 151.302 143.296 151.302 134.115C151.302 124.934 143.86 117.491 134.679 117.491C125.498 117.491 118.055 124.934 118.055 134.115C118.055 143.296 125.498 150.738 134.679 150.738Z" fill="#C1ECFF"/>
</svg>
