<svg width="343" height="342" viewBox="0 0 343 342" fill="none" xmlns="http://www.w3.org/2000/svg">
<path fill-rule="evenodd" clip-rule="evenodd" d="M10.7636 116.247L16.1454 98.6663C22.2448 101.656 35.8787 104.766 41.6192 93.2845C47.3598 81.8034 41.8584 69.1262 38.3902 64.2228L50.9477 50.5889C57.1667 53.6984 71.3985 58.0517 78.5743 50.5889C85.75 43.1262 84.6736 31.2144 83.2385 26.1914L98.6663 17.2218C102.015 21.5272 111.941 29.3487 124.858 26.1914C137.774 23.0341 139.568 9.56764 138.85 3.22908L156.072 0C157.627 6.33856 163.535 19.3027 174.729 20.4508C185.923 21.599 194.702 9.44805 197.691 3.22908L215.631 6.81695C214.196 12.9163 214.554 26.3349 227.471 31.2144C240.387 36.0939 250.313 26.7894 253.662 21.5272L269.808 31.2144C266.22 37.3138 261.699 51.3065 272.319 58.4822C282.939 65.658 295.162 61.4721 299.946 58.4822L311.786 73.1925C305.925 77.3783 296.645 88.9073 306.404 101.537C316.163 114.166 326.496 111.822 330.442 109.071L336.183 126.652C330.323 129.402 319.177 138.276 321.473 151.767C323.769 165.257 336.781 167.434 343 166.836L341.924 187.645C337.379 186.091 326.496 186.641 319.32 201.279C312.144 215.918 325.898 224.6 333.672 227.112L326.137 243.975C321.592 241.344 309.848 239.239 299.228 251.868C288.608 264.498 298.63 275.548 304.969 279.495L292.77 293.487C288.225 289.062 275.835 282.652 262.632 292.411C249.428 302.17 255.695 313.938 260.479 318.603L244.334 327.572C244.094 322.071 238.952 311.642 220.295 313.938C201.638 316.235 201.997 332.356 204.508 340.13L186.21 341.924C185.851 336.063 181.403 323.984 166.477 322.549C151.551 321.114 146.146 333.672 145.309 340.13L128.087 336.183C129.283 329.605 128.661 315.948 116.606 313.938C104.55 311.929 93.4041 318.842 89.3379 322.549L73.1925 313.938C76.4215 305.806 80.5117 288.393 71.0397 283.8C61.5678 279.208 47.9578 282.843 42.3368 285.235L30.8556 270.166C36.7158 266.698 46.2835 255.887 37.6726 240.387C29.0617 224.887 16.863 229.384 11.84 233.57L5.74059 216.707C13.6339 215.511 27.9136 208.599 21.886 190.516C15.8584 172.433 4.78382 173.414 0 176.164V156.072C5.62099 156.192 17.8676 153.489 21.886 141.721C25.9044 129.953 16.1454 119.835 10.7636 116.247ZM80.7278 100.102L141.722 138.851L160.378 127.728L163.607 57.4063C147.821 57.4063 109.144 65.9454 80.7278 100.102ZM185.507 129.527L188.784 57.3397C232.55 65.0016 259.196 94.3076 267.048 108.003L204.436 140.18L185.507 129.527ZM263.491 241.453L201.634 204.098L183.234 215.641L181.602 286.019C197.384 285.66 235.858 276.246 263.491 241.453ZM215.375 163.542L278.655 128.651C294.968 169.979 283.884 208.005 276.303 221.852L216.171 185.248L215.375 163.542ZM154.747 284.43L156.9 212.201L137.808 201.843L75.7042 234.99C83.7685 248.562 110.867 277.45 154.747 284.43ZM129.382 179.762L67.035 216.295C49.6472 175.407 59.7342 137.105 66.9511 123.064L128.019 158.084L129.382 179.762ZM171.501 191.95C183.192 191.95 192.669 182.473 192.669 170.782C192.669 159.091 183.192 149.614 171.501 149.614C159.81 149.614 150.332 159.091 150.332 170.782C150.332 182.473 159.81 191.95 171.501 191.95Z" fill="#C1ECFF"/>
</svg>
