<svg width="204" height="446" viewBox="0 0 204 446" fill="none" xmlns="http://www.w3.org/2000/svg">
<path fill-rule="evenodd" clip-rule="evenodd" d="M-229.961 151.624L-222.941 128.693C-214.986 132.593 -197.203 136.648 -189.715 121.673C-182.227 106.698 -189.403 90.163 -193.927 83.7673L-177.548 65.9843C-169.436 70.0401 -150.873 75.7182 -141.514 65.9843C-132.154 56.2505 -133.558 40.7137 -135.43 34.1621L-115.307 22.4627C-110.939 28.0784 -97.9922 38.2803 -81.1451 34.1621C-64.298 30.0439 -61.9582 12.4793 -62.8941 4.21176L-40.4314 0C-38.4035 8.26754 -30.6975 25.177 -16.0967 26.6745C-1.49594 28.172 9.95381 12.3233 13.8536 4.21176L37.2523 8.8915C35.3804 16.8471 35.8484 34.3493 52.6954 40.7137C69.5425 47.0782 82.4898 34.942 86.8575 28.0784L107.916 40.7137C103.237 48.6693 97.3401 66.9203 111.192 76.2797C125.044 85.6392 140.986 80.1795 147.226 76.2797L162.669 95.4667C155.026 100.926 142.921 115.964 155.65 132.437C168.379 148.909 181.856 145.852 187.004 142.264L194.492 165.195C186.848 168.783 172.31 180.357 175.305 197.953C178.3 215.549 195.271 218.388 203.383 217.608L201.979 244.75C196.051 242.722 181.856 243.44 172.497 262.533C163.137 281.627 181.076 292.952 191.216 296.227L181.388 318.222C175.461 314.79 160.142 312.045 146.29 328.518C132.438 344.99 145.51 359.404 153.778 364.552L137.867 382.803C131.939 377.031 115.778 368.67 98.5569 381.399C81.3354 394.128 89.5094 409.477 95.749 415.561L74.6902 427.26C74.3782 420.085 67.6706 406.482 43.3359 409.477C19.0013 412.472 19.4693 433.5 22.7451 443.639L-1.12157 445.979C-1.58954 438.336 -7.39243 422.58 -26.8601 420.708C-46.3278 418.837 -53.3786 435.216 -54.4706 443.639L-76.9333 438.492C-75.3734 429.912 -76.1846 412.098 -91.9085 409.477C-107.632 406.856 -122.171 415.873 -127.475 420.708L-148.533 409.477C-144.322 398.87 -138.987 376.157 -151.341 370.167C-163.696 364.177 -181.447 368.919 -188.779 372.039L-203.754 352.384C-196.111 347.861 -183.631 333.759 -194.863 313.542C-206.094 293.326 -222.005 299.191 -228.557 304.651L-236.512 282.656C-226.217 281.096 -207.592 272.08 -215.454 248.494C-223.316 224.908 -237.76 226.187 -244 229.775V203.569C-236.668 203.725 -220.695 200.199 -215.454 184.85C-210.212 169.5 -222.941 156.303 -229.961 151.624ZM-138.706 130.565L-59.1508 181.106L-34.8161 166.599L-30.6044 74.8761C-51.1952 74.8761 -101.643 86.0138 -138.706 130.565ZM-2.03925 168.945L2.23529 74.7894C59.3197 84.783 94.0747 123.007 104.317 140.87L22.6501 182.84L-2.03925 168.945ZM99.6766 314.933L18.9946 266.21L-5.00453 281.266L-7.13379 373.061C13.4518 372.594 63.6336 360.314 99.6766 314.933ZM36.9177 213.312L119.455 167.803C140.733 221.708 126.276 271.306 116.387 289.367L37.9561 241.624L36.9177 213.312ZM-42.1615 370.989L-39.3521 276.779L-64.2546 263.269L-145.258 306.504C-134.74 324.205 -99.3945 361.884 -42.1615 370.989ZM-75.2453 234.468L-156.565 282.118C-179.245 228.787 -166.088 178.828 -156.675 160.515L-77.023 206.193L-75.2453 234.468ZM-20.3076 250.366C-5.05881 250.366 7.30281 238.004 7.30281 222.755C7.30281 207.507 -5.05881 195.145 -20.3076 195.145C-35.5565 195.145 -47.9181 207.507 -47.9181 222.755C-47.9181 238.004 -35.5565 250.366 -20.3076 250.366Z" fill="#C1ECFF"/>
</svg>
