<svg width="407" height="494" viewBox="0 0 407 494" fill="none" xmlns="http://www.w3.org/2000/svg">
<path d="M321.577 114.648C320.426 114.648 319.467 114.292 318.7 113.58C317.987 112.813 317.631 111.854 317.631 110.703C317.631 109.552 317.987 108.62 318.7 107.908C319.467 107.141 320.426 106.757 321.577 106.757C322.727 106.757 323.659 107.141 324.371 107.908C325.139 108.62 325.522 109.552 325.522 110.703C325.522 111.854 325.166 112.813 324.454 113.58C323.741 114.292 322.782 114.648 321.577 114.648Z" fill="#00AFFE"/>
<path d="M279.33 90.9042C278.179 90.9042 277.22 90.548 276.453 89.8356C275.74 89.0684 275.384 88.1094 275.384 86.9587C275.384 85.8079 275.74 84.8763 276.453 84.1639C277.22 83.3967 278.179 83.0131 279.33 83.0131C280.481 83.0131 281.412 83.3967 282.125 84.1639C282.892 84.8763 283.275 85.8079 283.275 86.9587C283.275 88.1094 282.919 89.0684 282.207 89.8356C281.494 90.548 280.535 90.9042 279.33 90.9042Z" fill="#00AFFE"/>
<path d="M226.248 75.9042C225.097 75.9042 224.138 75.548 223.371 74.8356C222.659 74.0684 222.303 73.1094 222.303 71.9587C222.303 70.8079 222.659 69.8763 223.371 69.1639C224.138 68.3967 225.097 68.0131 226.248 68.0131C227.399 68.0131 228.331 68.3967 229.043 69.1639C229.81 69.8763 230.194 70.8079 230.194 71.9587C230.194 73.1094 229.838 74.0684 229.125 74.8356C228.413 75.548 227.454 75.9042 226.248 75.9042Z" fill="#00AFFE"/>
<path d="M174.59 75.9042C173.439 75.9042 172.48 75.548 171.713 74.8356C171.001 74.0684 170.644 73.1094 170.644 71.9587C170.644 70.8079 171.001 69.8763 171.713 69.1639C172.48 68.3967 173.439 68.0131 174.59 68.0131C175.741 68.0131 176.672 68.3967 177.385 69.1639C178.152 69.8763 178.535 70.8079 178.535 71.9587C178.535 73.1094 178.179 74.0684 177.467 74.8356C176.754 75.548 175.795 75.9042 174.59 75.9042Z" fill="#00AFFE"/>
<path d="M130.259 88.8192C129.108 88.8192 128.149 88.463 127.382 87.7506C126.67 86.9835 126.313 86.0245 126.313 84.8737C126.313 83.7229 126.67 82.7913 127.382 82.079C128.149 81.3118 129.108 80.9282 130.259 80.9282C131.41 80.9282 132.341 81.3118 133.054 82.079C133.821 82.7913 134.204 83.7229 134.204 84.8737C134.204 86.0245 133.848 86.9835 133.136 87.7506C132.423 88.463 131.464 88.8192 130.259 88.8192Z" fill="#00AFFE"/>
<path d="M83.4423 114.648C82.2915 114.648 81.3325 114.292 80.5654 113.58C79.853 112.813 79.4968 111.854 79.4968 110.703C79.4968 109.552 79.853 108.62 80.5654 107.908C81.3325 107.141 82.2915 106.757 83.4423 106.757C84.5931 106.757 85.5247 107.141 86.2371 107.908C87.0042 108.62 87.3878 109.552 87.3878 110.703C87.3878 111.854 87.0316 112.813 86.3192 113.58C85.6069 114.292 84.6479 114.648 83.4423 114.648Z" fill="#00AFFE"/>
<path d="M46.3128 150.164C45.162 150.164 44.203 149.808 43.4358 149.095C42.7235 148.328 42.3673 147.369 42.3673 146.218C42.3673 145.068 42.7235 144.136 43.4358 143.424C44.203 142.656 45.162 142.273 46.3128 142.273C47.4636 142.273 48.3951 142.656 49.1075 143.424C49.8747 144.136 50.2583 145.068 50.2583 146.218C50.2583 147.369 49.9021 148.328 49.1897 149.095C48.4773 149.808 47.5184 150.164 46.3128 150.164Z" fill="#00AFFE"/>
<path d="M25.2443 200.208C24.0935 200.208 23.1345 199.852 22.3674 199.139C21.655 198.372 21.2988 197.413 21.2988 196.262C21.2988 195.112 21.655 194.18 22.3674 193.468C23.1345 192.7 24.0935 192.317 25.2443 192.317C26.3951 192.317 27.3267 192.7 28.0391 193.468C28.8062 194.18 29.1898 195.112 29.1898 196.262C29.1898 197.413 28.8336 198.372 28.1213 199.139C27.4089 199.852 26.4499 200.208 25.2443 200.208Z" fill="#00AFFE"/>
<path d="M12.3298 248.638C11.179 248.638 10.22 248.281 9.45281 247.569C8.74043 246.802 8.38424 245.843 8.38424 244.692C8.38424 243.541 8.74043 242.61 9.45281 241.897C10.22 241.13 11.179 240.747 12.3298 240.747C13.4805 240.747 14.4121 241.13 15.1245 241.897C15.8917 242.61 16.2753 243.541 16.2753 244.692C16.2753 245.843 15.9191 246.802 15.2067 247.569C14.4943 248.281 13.5353 248.638 12.3298 248.638Z" fill="#00AFFE"/>
<path d="M12.3298 301.911C11.179 301.911 10.22 301.555 9.45281 300.842C8.74043 300.075 8.38424 299.116 8.38424 297.965C8.38424 296.815 8.74043 295.883 9.45281 295.171C10.22 294.404 11.179 294.02 12.3298 294.02C13.4805 294.02 14.4121 294.404 15.1245 295.171C15.8917 295.883 16.2753 296.815 16.2753 297.965C16.2753 299.116 15.9191 300.075 15.2067 300.842C14.4943 301.555 13.5353 301.911 12.3298 301.911Z" fill="#00AFFE"/>
<path d="M25.2443 350.341C24.0935 350.341 23.1345 349.985 22.3674 349.272C21.655 348.505 21.2988 347.546 21.2988 346.395C21.2988 345.244 21.655 344.313 22.3674 343.6C23.1345 342.833 24.0935 342.45 25.2443 342.45C26.3951 342.45 27.3267 342.833 28.0391 343.6C28.8062 344.313 29.1898 345.244 29.1898 346.395C29.1898 347.546 28.8336 348.505 28.1213 349.272C27.4089 349.985 26.4499 350.341 25.2443 350.341Z" fill="#00AFFE"/>
<path d="M357.092 153.391C355.941 153.391 354.982 153.035 354.215 152.323C353.503 151.556 353.146 150.597 353.146 149.446C353.146 148.295 353.503 147.364 354.215 146.651C354.982 145.884 355.941 145.5 357.092 145.5C358.243 145.5 359.174 145.884 359.887 146.651C360.654 147.364 361.037 148.295 361.037 149.446C361.037 150.597 360.681 151.556 359.969 152.323C359.257 153.035 358.298 153.391 357.092 153.391Z" fill="#00AFFE"/>
<path d="M377.208 198.594C376.057 198.594 375.098 198.237 374.331 197.525C373.619 196.758 373.262 195.799 373.262 194.648C373.262 193.497 373.619 192.566 374.331 191.853C375.098 191.086 376.057 190.703 377.208 190.703C378.359 190.703 379.29 191.086 380.003 191.853C380.77 192.566 381.153 193.497 381.153 194.648C381.153 195.799 380.797 196.758 380.085 197.525C379.372 198.237 378.414 198.594 377.208 198.594Z" fill="#00AFFE"/>
<path d="M393.352 248.638C392.201 248.638 391.242 248.281 390.475 247.569C389.763 246.802 389.406 245.843 389.406 244.692C389.406 243.541 389.763 242.61 390.475 241.897C391.242 241.13 392.201 240.747 393.352 240.747C394.503 240.747 395.434 241.13 396.147 241.897C396.914 242.61 397.297 243.541 397.297 244.692C397.297 245.843 396.941 246.802 396.229 247.569C395.517 248.281 394.558 248.638 393.352 248.638Z" fill="#00AFFE"/>
<path d="M390.123 303.525C388.972 303.525 388.013 303.169 387.246 302.457C386.533 301.69 386.177 300.731 386.177 299.58C386.177 298.429 386.533 297.497 387.246 296.785C388.013 296.018 388.972 295.634 390.123 295.634C391.274 295.634 392.205 296.018 392.917 296.785C393.685 297.497 394.068 298.429 394.068 299.58C394.068 300.731 393.712 301.69 393 302.457C392.287 303.169 391.328 303.525 390.123 303.525Z" fill="#00AFFE"/>
<path d="M377.208 353.57C376.057 353.57 375.098 353.214 374.331 352.502C373.619 351.734 373.262 350.775 373.262 349.625C373.262 348.474 373.619 347.542 374.331 346.83C375.098 346.063 376.057 345.679 377.208 345.679C378.359 345.679 379.29 346.063 380.003 346.83C380.77 347.542 381.153 348.474 381.153 349.625C381.153 350.775 380.797 351.734 380.085 352.502C379.372 353.214 378.414 353.57 377.208 353.57Z" fill="#00AFFE"/>
<path d="M358.706 397.157C357.555 397.157 356.596 396.801 355.829 396.089C355.117 395.321 354.761 394.362 354.761 393.212C354.761 392.061 355.117 391.129 355.829 390.417C356.596 389.65 357.555 389.266 358.706 389.266C359.857 389.266 360.789 389.65 361.501 390.417C362.268 391.129 362.652 392.061 362.652 393.212C362.652 394.362 362.296 395.321 361.583 396.089C360.871 396.801 359.912 397.157 358.706 397.157Z" fill="#00AFFE"/>
<path d="M321.577 437.516C320.426 437.516 319.467 437.159 318.7 436.447C317.987 435.68 317.631 434.721 317.631 433.57C317.631 432.419 317.987 431.488 318.7 430.775C319.467 430.008 320.426 429.624 321.577 429.624C322.727 429.624 323.659 430.008 324.371 430.775C325.139 431.488 325.522 432.419 325.522 433.57C325.522 434.721 325.166 435.68 324.454 436.447C323.741 437.159 322.782 437.516 321.577 437.516Z" fill="#00AFFE"/>
<path d="M274.761 463.344C273.61 463.344 272.651 462.987 271.884 462.275C271.172 461.508 270.815 460.549 270.815 459.398C270.815 458.247 271.172 457.316 271.884 456.603C272.651 455.836 273.61 455.453 274.761 455.453C275.912 455.453 276.843 455.836 277.556 456.603C278.323 457.316 278.706 458.247 278.706 459.398C278.706 460.549 278.35 461.508 277.638 462.275C276.925 462.987 275.966 463.344 274.761 463.344Z" fill="#00AFFE"/>
<path d="M229.478 474.644C228.327 474.644 227.368 474.288 226.601 473.576C225.888 472.809 225.532 471.85 225.532 470.699C225.532 469.548 225.888 468.617 226.601 467.904C227.368 467.137 228.327 466.753 229.478 466.753C230.628 466.753 231.56 467.137 232.272 467.904C233.04 468.617 233.423 469.548 233.423 470.699C233.423 471.85 233.067 472.809 232.355 473.576C231.642 474.288 230.683 474.644 229.478 474.644Z" fill="#00AFFE"/>
<path d="M172.976 474.644C171.825 474.644 170.866 474.288 170.099 473.576C169.386 472.809 169.03 471.85 169.03 470.699C169.03 469.548 169.386 468.617 170.099 467.904C170.866 467.137 171.825 466.753 172.976 466.753C174.127 466.753 175.058 467.137 175.77 467.904C176.538 468.617 176.921 469.548 176.921 470.699C176.921 471.85 176.565 472.809 175.853 473.576C175.14 474.288 174.181 474.644 172.976 474.644Z" fill="#00AFFE"/>
<path d="M130.259 461.73C129.108 461.73 128.149 461.374 127.382 460.662C126.67 459.895 126.313 458.936 126.313 457.785C126.313 456.634 126.67 455.702 127.382 454.99C128.149 454.223 129.108 453.839 130.259 453.839C131.41 453.839 132.341 454.223 133.054 454.99C133.821 455.702 134.204 456.634 134.204 457.785C134.204 458.936 133.848 459.895 133.136 460.662C132.423 461.374 131.464 461.73 130.259 461.73Z" fill="#00AFFE"/>
<path d="M85.0564 435.901C83.9057 435.901 82.9467 435.545 82.1795 434.833C81.4671 434.065 81.1109 433.107 81.1109 431.956C81.1109 430.805 81.4671 429.873 82.1795 429.161C82.9467 428.394 83.9057 428.01 85.0564 428.01C86.2072 428.01 87.1388 428.394 87.8512 429.161C88.6184 429.873 89.002 430.805 89.002 431.956C89.002 433.107 88.6458 434.065 87.9334 434.833C87.221 435.545 86.262 435.901 85.0564 435.901Z" fill="#00AFFE"/>
<path d="M47.9269 397.157C46.7761 397.157 45.8172 396.801 45.05 396.089C44.3376 395.321 43.9814 394.362 43.9814 393.212C43.9814 392.061 44.3376 391.129 45.05 390.417C45.8172 389.65 46.7761 389.266 47.9269 389.266C49.0777 389.266 50.0093 389.65 50.7217 390.417C51.4889 391.129 51.8724 392.061 51.8724 393.212C51.8724 394.362 51.5163 395.321 50.8039 396.089C50.0915 396.801 49.1325 397.157 47.9269 397.157Z" fill="#00AFFE"/>
<path d="M25.2443 350.341C24.0935 350.341 23.1345 349.985 22.3674 349.272C21.655 348.505 21.2988 347.546 21.2988 346.395C21.2988 345.244 21.655 344.313 22.3674 343.6C23.1345 342.833 24.0935 342.45 25.2443 342.45C26.3951 342.45 27.3267 342.833 28.0391 343.6C28.8062 344.313 29.1898 345.244 29.1898 346.395C29.1898 347.546 28.8336 348.505 28.1213 349.272C27.4089 349.985 26.4499 350.341 25.2443 350.341Z" fill="#00AFFE"/>
<circle cx="202.618" cy="71.0307" r="8.07167" fill="#00AFFE"/>
<circle cx="257.506" cy="79.1029" r="8.07167" fill="#00AFFE"/>
<circle cx="299.56" cy="95.2465" r="8.07167" fill="#00AFFE"/>
<circle cx="339.918" cy="125.919" r="8.07167" fill="#00AFFE"/>
<circle cx="370.592" cy="167.891" r="8.07167" fill="#00AFFE"/>
<circle cx="385.865" cy="219.55" r="8.07167" fill="#00AFFE"/>
<circle cx="393.936" cy="272.824" r="8.07167" fill="#00AFFE"/>
<circle cx="385.865" cy="321.252" r="8.07167" fill="#00AFFE"/>
<circle cx="370.592" cy="372.912" r="8.07167" fill="#00AFFE"/>
<circle cx="339.918" cy="414.883" r="8.07167" fill="#00AFFE"/>
<circle cx="299.56" cy="445.557" r="8.07167" fill="#00AFFE"/>
<circle cx="255.891" cy="464.928" r="8.07167" fill="#00AFFE"/>
<circle cx="202.618" cy="473" r="8.07167" fill="#00AFFE"/>
<circle cx="155.058" cy="464.928" r="8.07167" fill="#00AFFE"/>
<circle cx="106.628" cy="445.557" r="8.07167" fill="#00AFFE"/>
<circle cx="64.6554" cy="414.883" r="8.07167" fill="#00AFFE"/>
<circle cx="38.7434" cy="372.912" r="8.07167" fill="#00AFFE"/>
<circle cx="17.7578" cy="321.252" r="8.07167" fill="#00AFFE"/>
<circle cx="9.68593" cy="272.824" r="8.07167" fill="#00AFFE"/>
<circle cx="17.7578" cy="219.55" r="8.07167" fill="#00AFFE"/>
<circle cx="38.7434" cy="167.891" r="8.07167" fill="#00AFFE"/>
<circle cx="64.6554" cy="125.919" r="8.07167" fill="#00AFFE"/>
<circle cx="106.628" cy="95.2465" r="8.07167" fill="#00AFFE"/>
<circle cx="155.058" cy="79.1029" r="8.07167" fill="#00AFFE"/>
</svg>
