<svg width="232" height="275" viewBox="0 0 232 275" fill="none" xmlns="http://www.w3.org/2000/svg">
<path d="M181.122 63.9938C180.483 63.9938 179.951 63.7962 179.526 63.401C179.13 62.9754 178.933 62.4435 178.933 61.8051C178.933 61.1667 179.13 60.65 179.526 60.2548C179.951 59.8292 180.483 59.6164 181.122 59.6164C181.76 59.6164 182.277 59.8292 182.672 60.2548C183.097 60.65 183.31 61.1667 183.31 61.8051C183.31 62.4435 183.113 62.9754 182.717 63.401C182.322 63.7962 181.79 63.9938 181.122 63.9938Z" fill="#ED1B24"/>
<path d="M155.84 49.5016C155.201 49.5016 154.669 49.304 154.244 48.9088C153.848 48.4832 153.651 47.9513 153.651 47.3129C153.651 46.6746 153.848 46.1578 154.244 45.7626C154.669 45.337 155.201 45.1243 155.84 45.1243C156.478 45.1243 156.995 45.337 157.39 45.7626C157.815 46.1578 158.028 46.6746 158.028 47.3129C158.028 47.9513 157.831 48.4832 157.435 48.9088C157.04 49.304 156.508 49.5016 155.84 49.5016Z" fill="#ED1B24"/>
<path d="M127.84 42.5016C127.201 42.5016 126.669 42.304 126.244 41.9088C125.848 41.4832 125.651 40.9513 125.651 40.3129C125.651 39.6746 125.848 39.1578 126.244 38.7626C126.669 38.337 127.201 38.1243 127.84 38.1243C128.478 38.1243 128.995 38.337 129.39 38.7626C129.815 39.1578 130.028 39.6746 130.028 40.3129C130.028 40.9513 129.831 41.4832 129.435 41.9088C129.04 42.304 128.508 42.5016 127.84 42.5016Z" fill="#ED1B24"/>
<path d="M100.84 42.5016C100.201 42.5016 99.6692 42.304 99.2437 41.9088C98.8485 41.4832 98.6509 40.9513 98.6509 40.3129C98.6509 39.6746 98.8485 39.1578 99.2437 38.7626C99.6692 38.337 100.201 38.1243 100.84 38.1243C101.478 38.1243 101.995 38.337 102.39 38.7626C102.815 39.1578 103.028 39.6746 103.028 40.3129C103.028 40.9513 102.831 41.4832 102.435 41.9088C102.04 42.304 101.508 42.5016 100.84 42.5016Z" fill="#ED1B24"/>
<path d="M74.8978 49.6656C74.2594 49.6656 73.7274 49.468 73.3019 49.0729C72.9067 48.6473 72.7091 48.1153 72.7091 47.477C72.7091 46.8386 72.9067 46.3219 73.3019 45.9267C73.7274 45.5011 74.2594 45.2883 74.8978 45.2883C75.5361 45.2883 76.0529 45.5011 76.4481 45.9267C76.8736 46.3219 77.0864 46.8386 77.0864 47.477C77.0864 48.1153 76.8888 48.6473 76.4937 49.0729C76.0985 49.468 75.5665 49.6656 74.8978 49.6656Z" fill="#ED1B24"/>
<path d="M48.928 63.9938C48.2897 63.9938 47.7577 63.7962 47.3322 63.401C46.937 62.9754 46.7394 62.4435 46.7394 61.8051C46.7394 61.1667 46.937 60.65 47.3322 60.2548C47.7577 59.8292 48.2897 59.6164 48.928 59.6164C49.5664 59.6164 50.0832 59.8292 50.4783 60.2548C50.9039 60.65 51.1167 61.1667 51.1167 61.8051C51.1167 62.4435 50.9191 62.9754 50.5239 63.401C50.1288 63.7962 49.5968 63.9938 48.928 63.9938Z" fill="#ED1B24"/>
<path d="M28.3316 83.6949C27.6933 83.6949 27.1613 83.4973 26.7357 83.1022C26.3405 82.6766 26.143 82.1446 26.143 81.5063C26.143 80.8679 26.3405 80.3511 26.7357 79.956C27.1613 79.5304 27.6933 79.3176 28.3316 79.3176C28.97 79.3176 29.4867 79.5304 29.8819 79.956C30.3075 80.3511 30.5203 80.8679 30.5203 81.5063C30.5203 82.1446 30.3227 82.6766 29.9275 83.1022C29.5323 83.4973 29.0004 83.6949 28.3316 83.6949Z" fill="#ED1B24"/>
<path d="M14.0029 111.455C13.3645 111.455 12.8326 111.257 12.407 110.862C12.0118 110.436 11.8142 109.904 11.8142 109.266C11.8142 108.628 12.0118 108.111 12.407 107.716C12.8326 107.29 13.3645 107.077 14.0029 107.077C14.6412 107.077 15.158 107.29 15.5532 107.716C15.9787 108.111 16.1915 108.628 16.1915 109.266C16.1915 109.904 15.9939 110.436 15.5988 110.862C15.2036 111.257 14.6716 111.455 14.0029 111.455Z" fill="#ED1B24"/>
<path d="M6.83954 138.32C6.20119 138.32 5.66922 138.122 5.24365 137.727C4.84848 137.302 4.65089 136.77 4.65089 136.131C4.65089 135.493 4.84848 134.976 5.24365 134.581C5.66922 134.155 6.20119 133.943 6.83954 133.943C7.4779 133.943 7.99467 134.155 8.38984 134.581C8.81541 134.976 9.0282 135.493 9.0282 136.131C9.0282 136.77 8.83061 137.302 8.43544 137.727C8.04026 138.122 7.5083 138.32 6.83954 138.32Z" fill="#ED1B24"/>
<path d="M6.83954 167.872C6.20119 167.872 5.66922 167.674 5.24365 167.279C4.84848 166.853 4.65089 166.321 4.65089 165.683C4.65089 165.045 4.84848 164.528 5.24365 164.133C5.66922 163.707 6.20119 163.494 6.83954 163.494C7.4779 163.494 7.99467 163.707 8.38984 164.133C8.81541 164.528 9.0282 165.045 9.0282 165.683C9.0282 166.321 8.83061 166.853 8.43544 167.279C8.04026 167.674 7.5083 167.872 6.83954 167.872Z" fill="#ED1B24"/>
<path d="M14.0029 194.737C13.3645 194.737 12.8326 194.539 12.407 194.144C12.0118 193.719 11.8142 193.187 11.8142 192.548C11.8142 191.91 12.0118 191.393 12.407 190.998C12.8326 190.572 13.3645 190.36 14.0029 190.36C14.6412 190.36 15.158 190.572 15.5532 190.998C15.9787 191.393 16.1915 191.91 16.1915 192.548C16.1915 193.187 15.9939 193.719 15.5988 194.144C15.2036 194.539 14.6716 194.737 14.0029 194.737Z" fill="#ED1B24"/>
<path d="M200.823 85.485C200.185 85.485 199.653 85.2874 199.228 84.8922C198.832 84.4666 198.635 83.9347 198.635 83.2963C198.635 82.658 198.832 82.1412 199.228 81.746C199.653 81.3204 200.185 81.1077 200.823 81.1077C201.462 81.1077 201.979 81.3204 202.374 81.746C202.799 82.1412 203.012 82.658 203.012 83.2963C203.012 83.9347 202.814 84.4666 202.419 84.8922C202.024 85.2874 201.492 85.485 200.823 85.485Z" fill="#ED1B24"/>
<path d="M215.152 110.56C214.514 110.56 213.982 110.363 213.556 109.967C213.161 109.542 212.963 109.01 212.963 108.372C212.963 107.733 213.161 107.216 213.556 106.821C213.982 106.396 214.514 106.183 215.152 106.183C215.79 106.183 216.307 106.396 216.702 106.821C217.128 107.216 217.341 107.733 217.341 108.372C217.341 109.01 217.143 109.542 216.748 109.967C216.353 110.363 215.821 110.56 215.152 110.56Z" fill="#ED1B24"/>
<path d="M224.106 138.32C223.467 138.32 222.935 138.122 222.51 137.727C222.115 137.302 221.917 136.77 221.917 136.131C221.917 135.493 222.115 134.976 222.51 134.581C222.935 134.155 223.467 133.943 224.106 133.943C224.744 133.943 225.261 134.155 225.656 134.581C226.082 134.976 226.294 135.493 226.294 136.131C226.294 136.77 226.097 137.302 225.702 137.727C225.306 138.122 224.774 138.32 224.106 138.32Z" fill="#ED1B24"/>
<path d="M222.315 168.767C221.677 168.767 221.145 168.57 220.719 168.174C220.324 167.749 220.127 167.217 220.127 166.579C220.127 165.94 220.324 165.423 220.719 165.028C221.145 164.603 221.677 164.39 222.315 164.39C222.954 164.39 223.47 164.603 223.866 165.028C224.291 165.423 224.504 165.94 224.504 166.579C224.504 167.217 224.306 167.749 223.911 168.174C223.516 168.57 222.984 168.767 222.315 168.767Z" fill="#ED1B24"/>
<path d="M215.152 196.528C214.514 196.528 213.982 196.33 213.556 195.935C213.161 195.51 212.963 194.978 212.963 194.339C212.963 193.701 213.161 193.184 213.556 192.789C213.982 192.363 214.514 192.151 215.152 192.151C215.79 192.151 216.307 192.363 216.702 192.789C217.128 193.184 217.341 193.701 217.341 194.339C217.341 194.978 217.143 195.51 216.748 195.935C216.353 196.33 215.821 196.528 215.152 196.528Z" fill="#ED1B24"/>
<path d="M201.719 220.707C201.081 220.707 200.549 220.509 200.123 220.114C199.728 219.688 199.53 219.156 199.53 218.518C199.53 217.88 199.728 217.363 200.123 216.968C200.549 216.542 201.081 216.329 201.719 216.329C202.357 216.329 202.874 216.542 203.269 216.968C203.695 217.363 203.908 217.88 203.908 218.518C203.908 219.156 203.71 219.688 203.315 220.114C202.92 220.509 202.388 220.707 201.719 220.707Z" fill="#ED1B24"/>
<path d="M181.122 243.094C180.483 243.094 179.951 242.897 179.526 242.502C179.13 242.076 178.933 241.544 178.933 240.906C178.933 240.267 179.13 239.751 179.526 239.355C179.951 238.93 180.483 238.717 181.122 238.717C181.76 238.717 182.277 238.93 182.672 239.355C183.097 239.751 183.31 240.267 183.31 240.906C183.31 241.544 183.113 242.076 182.717 242.502C182.322 242.897 181.79 243.094 181.122 243.094Z" fill="#ED1B24"/>
<path d="M155.153 257.421C154.514 257.421 153.982 257.224 153.557 256.829C153.162 256.403 152.964 255.871 152.964 255.233C152.964 254.594 153.162 254.078 153.557 253.683C153.982 253.257 154.514 253.044 155.153 253.044C155.791 253.044 156.308 253.257 156.703 253.683C157.129 254.078 157.341 254.594 157.341 255.233C157.341 255.871 157.144 256.403 156.749 256.829C156.353 257.224 155.822 257.421 155.153 257.421Z" fill="#ED1B24"/>
<path d="M127.393 263.691C126.755 263.691 126.223 263.493 125.797 263.098C125.402 262.673 125.204 262.141 125.204 261.502C125.204 260.864 125.402 260.347 125.797 259.952C126.223 259.526 126.755 259.314 127.393 259.314C128.031 259.314 128.548 259.526 128.943 259.952C129.369 260.347 129.582 260.864 129.582 261.502C129.582 262.141 129.384 262.673 128.989 263.098C128.594 263.493 128.062 263.691 127.393 263.691Z" fill="#ED1B24"/>
<path d="M100.763 263.691C100.125 263.691 99.5926 263.493 99.167 263.098C98.7718 262.673 98.5742 262.141 98.5742 261.502C98.5742 260.864 98.7718 260.347 99.167 259.952C99.5926 259.526 100.125 259.314 100.763 259.314C101.401 259.314 101.918 259.526 102.313 259.952C102.739 260.347 102.952 260.864 102.952 261.502C102.952 262.141 102.754 262.673 102.359 263.098C101.964 263.493 101.432 263.691 100.763 263.691Z" fill="#ED1B24"/>
<path d="M74.8978 256.527C74.2594 256.527 73.7274 256.329 73.3019 255.934C72.9067 255.509 72.7091 254.977 72.7091 254.338C72.7091 253.7 72.9067 253.183 73.3019 252.788C73.7274 252.362 74.2594 252.15 74.8978 252.15C75.5361 252.15 76.0529 252.362 76.4481 252.788C76.8736 253.183 77.0864 253.7 77.0864 254.338C77.0864 254.977 76.8888 255.509 76.4937 255.934C76.0985 256.329 75.5665 256.527 74.8978 256.527Z" fill="#ED1B24"/>
<path d="M49.8236 242.199C49.1852 242.199 48.6532 242.001 48.2277 241.606C47.8325 241.181 47.6349 240.649 47.6349 240.01C47.6349 239.372 47.8325 238.855 48.2277 238.46C48.6532 238.034 49.1852 237.822 49.8236 237.822C50.4619 237.822 50.9787 238.034 51.3738 238.46C51.7994 238.855 52.0122 239.372 52.0122 240.01C52.0122 240.649 51.8146 241.181 51.4194 241.606C51.0243 242.001 50.4923 242.199 49.8236 242.199Z" fill="#ED1B24"/>
<path d="M29.2261 220.707C28.5878 220.707 28.0558 220.509 27.6302 220.114C27.2351 219.688 27.0375 219.156 27.0375 218.518C27.0375 217.88 27.2351 217.363 27.6302 216.968C28.0558 216.542 28.5878 216.329 29.2261 216.329C29.8645 216.329 30.3813 216.542 30.7764 216.968C31.202 217.363 31.4148 217.88 31.4148 218.518C31.4148 219.156 31.2172 219.688 30.822 220.114C30.4269 220.509 29.8949 220.707 29.2261 220.707Z" fill="#ED1B24"/>
<path d="M14.0029 194.737C13.3645 194.737 12.8326 194.539 12.407 194.144C12.0118 193.719 11.8142 193.187 11.8142 192.548C11.8142 191.91 12.0118 191.393 12.407 190.998C12.8326 190.572 13.3645 190.36 14.0029 190.36C14.6412 190.36 15.158 190.572 15.5532 190.998C15.9787 191.393 16.1915 191.91 16.1915 192.548C16.1915 193.187 15.9939 193.719 15.5988 194.144C15.2036 194.539 14.6716 194.737 14.0029 194.737Z" fill="#ED1B24"/>
<circle cx="112.493" cy="39.4023" r="4.47751" fill="#ED1B24"/>
<circle cx="142.941" cy="43.8799" r="4.47751" fill="#ED1B24"/>
<circle cx="168.91" cy="52.8349" r="4.47751" fill="#ED1B24"/>
<circle cx="191.297" cy="69.8496" r="4.47751" fill="#ED1B24"/>
<circle cx="208.312" cy="93.1318" r="4.47751" fill="#ED1B24"/>
<circle cx="219.953" cy="121.789" r="4.47751" fill="#ED1B24"/>
<circle cx="224.431" cy="151.34" r="4.47751" fill="#ED1B24"/>
<circle cx="219.953" cy="178.205" r="4.47751" fill="#ED1B24"/>
<circle cx="208.312" cy="206.861" r="4.47751" fill="#ED1B24"/>
<circle cx="191.297" cy="230.144" r="4.47751" fill="#ED1B24"/>
<circle cx="168.91" cy="247.158" r="4.47751" fill="#ED1B24"/>
<circle cx="142.045" cy="257.904" r="4.47751" fill="#ED1B24"/>
<circle cx="112.493" cy="262.382" r="4.47751" fill="#ED1B24"/>
<circle cx="88.6545" cy="257.904" r="4.47751" fill="#ED1B24"/>
<circle cx="61.7893" cy="247.158" r="4.47751" fill="#ED1B24"/>
<circle cx="38.5062" cy="230.144" r="4.47751" fill="#ED1B24"/>
<circle cx="21.4918" cy="206.861" r="4.47751" fill="#ED1B24"/>
<circle cx="9.84982" cy="178.205" r="4.47751" fill="#ED1B24"/>
<circle cx="5.37301" cy="151.34" r="4.47751" fill="#ED1B24"/>
<circle cx="9.84982" cy="121.789" r="4.47751" fill="#ED1B24"/>
<circle cx="21.4918" cy="93.1318" r="4.47751" fill="#ED1B24"/>
<circle cx="38.5062" cy="69.8496" r="4.47751" fill="#ED1B24"/>
<circle cx="61.7893" cy="52.8349" r="4.47751" fill="#ED1B24"/>
<circle cx="88.6545" cy="43.8799" r="4.47751" fill="#ED1B24"/>
</svg>
