<svg width="1440" height="914" viewBox="0 0 1440 914" fill="none" xmlns="http://www.w3.org/2000/svg">
<g clip-path="url(#clip0_189_21210)">
<rect width="1440" height="914" fill="white"/>
<g clip-path="url(#clip1_189_21210)">
<rect width="1440" height="15069" transform="translate(0 -2026)" fill="#00AFFE"/>
<path d="M183.41 18.0858L175.722 28.5199L188.352 32.364L189.268 44.6287L178.65 52.3169L189.268 59.6391L188.352 72.2699L174.989 76.2971L183.593 86.9142L178.65 97.3483H163.823L168.949 110.894L160.345 118.949L147.165 114.189L148.263 128.285L136.914 133.959L126.114 125.356L122.636 137.986L109.822 140L102.5 128.834L94.8115 140L82.913 138.902L78.7027 125.356L68.0856 133.959L57.2854 127.735V114.922L44.1054 119.681L35.868 111.444L40.2613 97.5314H26.7153L21.0406 87.0973L28.7289 76.8462L17.1964 72.819L14.9998 60.1883L24.7017 52.5L14.9998 45.1778L16.8303 32.9132L27.9966 27.7877L20.6745 18.0858L26.3492 7.28556H39.163L34.7697 -4.24686L44.6546 -13.9487L56.7362 -11.7521V-23.1015L67.7195 -28.41L78.7027 -20.3556L82.1808 -33.1695L93.5301 -35L101.951 -24.932L109.273 -35L122.087 -33.1695L126.297 -20.3556L136.731 -28.41L148.08 -23.2845L147.531 -9.37239L159.979 -13.9487L168.949 -5.34519L164.372 7.83473L177.735 7.28556L183.41 18.0858Z" fill="#C1ECFF" stroke="#00AFFE" stroke-width="3"/>
<circle r="66.0471" transform="matrix(-1 0 0 1 101.95 52.3166)" fill="#C1ECFF" stroke="#00AFFE" stroke-width="3"/>
<circle r="45.9111" transform="matrix(-1 0 0 1 101.951 52.3173)" fill="#C1ECFF" stroke="#00AFFE" stroke-width="3"/>
<circle r="39.8703" transform="matrix(-1 0 0 1 102.133 52.5002)" fill="#C1ECFF" stroke="#00AFFE" stroke-width="3"/>
<circle r="12.7782" transform="matrix(-1 0 0 1 102.134 52.4999)" fill="#C1ECFF" stroke="#00AFFE" stroke-width="3"/>
<path fill-rule="evenodd" clip-rule="evenodd" d="M-88.2508 405.691L-81.8762 384.868C-74.6516 388.409 -58.5026 392.092 -51.703 378.493C-44.9035 364.894 -51.4197 349.878 -55.5278 344.07L-40.6537 327.921C-33.2875 331.604 -16.4302 336.761 -7.93075 327.921C0.568726 319.082 -0.706192 304.973 -2.40609 299.023L15.8678 288.399C19.8342 293.498 31.5918 302.763 46.8909 299.023C62.1899 295.283 64.3148 279.333 63.4648 271.825L83.8636 268C85.7051 275.508 92.703 290.864 105.962 292.224C119.221 293.583 129.619 279.191 133.161 271.825L154.409 276.075C152.709 283.299 153.134 299.193 168.433 304.973C183.732 310.752 195.49 299.731 199.456 293.498L218.58 304.973C214.331 312.197 208.976 328.771 221.555 337.271C234.134 345.77 248.612 340.812 254.278 337.271L268.302 354.695C261.361 359.653 250.368 373.308 261.928 388.268C273.487 403.227 285.726 400.45 290.401 397.192L297.2 418.016C290.259 421.274 277.057 431.785 279.776 447.764C282.496 463.743 297.909 466.321 305.275 465.613L304 490.261C298.617 488.42 285.726 489.071 277.227 506.41C268.727 523.749 285.018 534.034 294.226 537.008L285.301 556.982C279.918 553.866 266.007 551.372 253.428 566.332C240.849 581.291 252.72 594.38 260.228 599.055L245.779 615.629C240.396 610.387 225.72 602.794 210.081 614.354C194.442 625.913 201.865 639.852 207.531 645.377L188.407 656.001C188.124 649.485 182.033 637.132 159.934 639.852C137.835 642.572 138.26 661.667 141.235 670.875L119.561 673C119.136 666.059 113.867 651.751 96.1878 650.051C78.5089 648.352 72.106 663.226 71.1144 670.875L50.7156 666.2C52.1322 658.409 51.3956 642.232 37.1165 639.852C22.8374 637.472 9.63483 645.66 4.81847 650.051L-14.3054 639.852C-10.4806 630.219 -5.63589 609.594 -16.8552 604.154C-28.0745 598.715 -44.1952 603.021 -50.8531 605.854L-64.4523 588.005C-57.511 583.897 -46.1784 571.091 -56.3778 552.732C-66.5771 534.374 -81.0262 539.7 -86.9759 544.658L-94.2004 524.684C-84.851 523.268 -67.937 515.08 -75.0766 493.661C-82.2162 472.242 -95.3337 473.404 -101 476.662V452.864C-94.3421 453.005 -79.8363 449.804 -75.0766 435.865C-70.3169 421.925 -81.8762 409.941 -88.2508 405.691ZM-5.3812 386.568L66.8643 432.465L88.963 419.291L92.7878 335.996C74.0889 335.996 28.2767 346.11 -5.3812 386.568ZM118.728 421.421L122.61 335.917C174.449 344.993 206.011 379.705 215.311 395.926L141.149 434.039L118.728 421.421ZM211.098 553.996L137.829 509.75L116.035 523.422L114.102 606.782C132.796 606.358 178.367 595.207 211.098 553.996ZM154.106 461.712L229.059 420.384C248.382 469.336 235.253 514.377 226.273 530.779L155.049 487.422L154.106 461.712ZM82.2926 604.9L84.8439 519.347L62.2295 507.079L-11.3311 546.341C-1.77911 562.416 30.3185 596.633 82.2926 604.9ZM52.2487 480.923L-21.5991 524.195C-42.1945 475.765 -30.2468 430.397 -21.6985 413.766L50.6343 455.246L52.2487 480.923ZM102.138 495.361C115.986 495.361 127.212 484.136 127.212 470.288C127.212 456.44 115.986 445.214 102.138 445.214C88.2907 445.214 77.0649 456.44 77.0649 470.288C77.0649 484.136 88.2907 495.361 102.138 495.361Z" fill="#C1ECFF"/>
<path d="M-81.8762 384.868L-80.192 381.432L-84.2214 379.457L-85.5349 383.748L-81.8762 384.868ZM-88.2508 405.691L-91.9095 404.571L-92.7433 407.295L-90.3733 408.875L-88.2508 405.691ZM-55.5278 344.07L-58.3423 341.478L-60.4384 343.754L-58.6517 346.28L-55.5278 344.07ZM-40.6537 327.921L-38.9425 324.499L-41.5177 323.211L-43.4682 325.329L-40.6537 327.921ZM-7.93075 327.921L-5.1726 330.573L-5.1726 330.573L-7.93075 327.921ZM-2.40609 299.023L-4.32929 295.715L-6.90311 297.212L-6.08521 300.074L-2.40609 299.023ZM15.8678 288.399L18.8881 286.05L16.8353 283.41L13.9446 285.091L15.8678 288.399ZM46.8909 299.023L47.7994 302.74L47.7994 302.74L46.8909 299.023ZM63.4648 271.825L62.7597 268.064L59.2625 268.72L59.6628 272.255L63.4648 271.825ZM83.8636 268L87.5798 267.088L86.7172 263.572L83.1584 264.239L83.8636 268ZM105.962 292.224L105.572 296.03L105.572 296.03L105.962 292.224ZM133.161 271.825L133.911 268.073L130.999 267.49L129.712 270.167L133.161 271.825ZM154.409 276.075L158.134 276.951L159.04 273.099L155.16 272.322L154.409 276.075ZM168.433 304.973L167.081 308.552L167.081 308.552L168.433 304.973ZM199.456 293.498L201.425 290.217L198.229 288.3L196.228 291.444L199.456 293.498ZM218.58 304.973L221.878 306.913L223.802 303.643L220.549 301.692L218.58 304.973ZM254.278 337.271L257.259 334.872L255.13 332.226L252.25 334.026L254.278 337.271ZM268.302 354.695L270.526 357.808L273.824 355.453L271.283 352.295L268.302 354.695ZM261.928 388.268L264.955 385.928L264.955 385.928L261.928 388.268ZM290.401 397.192L294.038 396.004L292.439 391.107L288.213 394.053L290.401 397.192ZM297.2 418.016L298.826 421.479L301.887 420.043L300.838 416.828L297.2 418.016ZM279.776 447.764L283.549 447.122L283.549 447.122L279.776 447.764ZM305.275 465.613L309.096 465.81L309.325 461.379L304.909 461.804L305.275 465.613ZM304 490.261L302.761 493.882L307.559 495.523L307.821 490.459L304 490.261ZM277.227 506.41L280.662 508.094L280.662 508.094L277.227 506.41ZM294.226 537.008L297.719 538.569L299.458 534.678L295.402 533.367L294.226 537.008ZM285.301 556.982L283.384 560.294L287.061 562.422L288.795 558.543L285.301 556.982ZM260.228 599.055L263.112 601.569L266.065 598.182L262.25 595.806L260.228 599.055ZM245.779 615.629L243.109 618.37L246.006 621.19L248.663 618.143L245.779 615.629ZM207.531 645.377L209.389 648.722L213.882 646.225L210.202 642.637L207.531 645.377ZM188.407 656.001L184.584 656.167L184.853 662.353L190.265 659.346L188.407 656.001ZM159.934 639.852L160.401 643.65L160.401 643.65L159.934 639.852ZM141.235 670.875L141.608 674.683L146.337 674.22L144.876 669.699L141.235 670.875ZM119.561 673L115.742 673.234L115.985 677.195L119.935 676.808L119.561 673ZM96.1878 650.051L96.5541 646.243L96.554 646.243L96.1878 650.051ZM71.1144 670.875L70.2597 674.605L74.3672 675.546L74.909 671.367L71.1144 670.875ZM50.7156 666.2L46.951 665.516L46.2969 669.113L49.8609 669.93L50.7156 666.2ZM4.81847 650.051L3.01784 653.428L5.40079 654.698L7.39647 652.879L4.81847 650.051ZM-14.3054 639.852L-17.8616 638.44L-19.1238 641.619L-16.106 643.228L-14.3054 639.852ZM-50.8531 605.854L-53.8967 608.173L-52.0932 610.54L-49.3549 609.375L-50.8531 605.854ZM-64.4523 588.005L-66.4011 584.712L-70.1025 586.903L-67.4958 590.324L-64.4523 588.005ZM-56.3778 552.732L-59.7226 554.591L-59.7226 554.591L-56.3778 552.732ZM-86.9759 544.658L-90.5741 545.959L-88.7181 551.091L-84.5263 547.597L-86.9759 544.658ZM-94.2004 524.684L-94.7736 520.901L-99.385 521.6L-97.7986 525.986L-94.2004 524.684ZM-75.0766 493.661L-78.7066 494.871L-78.7066 494.871L-75.0766 493.661ZM-101 476.662H-104.826V483.276L-99.0927 479.979L-101 476.662ZM-101 452.864L-100.919 449.038L-104.826 448.955V452.864H-101ZM-75.0766 435.865L-71.4555 437.101L-71.4555 437.101L-75.0766 435.865ZM66.8643 432.465L64.8125 435.694L66.8006 436.957L68.8237 435.751L66.8643 432.465ZM-5.3812 386.568L-8.32269 384.12L-11.1048 387.465L-7.433 389.797L-5.3812 386.568ZM88.963 419.291L90.9223 422.577L92.6908 421.523L92.7853 419.466L88.963 419.291ZM92.7878 335.996L96.6101 336.171L96.7938 332.169H92.7878V335.996ZM122.61 335.917L123.27 332.148L118.985 331.398L118.788 335.744L122.61 335.917ZM118.728 421.421L114.906 421.248L114.799 423.601L116.852 424.756L118.728 421.421ZM215.311 395.926L217.06 399.33L220.623 397.499L218.631 394.023L215.311 395.926ZM141.149 434.039L139.272 437.374L141.067 438.384L142.898 437.443L141.149 434.039ZM137.829 509.75L139.807 506.474L137.791 505.257L135.796 506.509L137.829 509.75ZM211.098 553.996L214.094 556.376L216.8 552.969L213.076 550.72L211.098 553.996ZM116.035 523.422L114.002 520.181L112.258 521.275L112.21 523.333L116.035 523.422ZM114.102 606.782L110.276 606.694L110.184 610.699L114.189 610.608L114.102 606.782ZM229.059 420.384L232.618 418.979L231.021 414.933L227.211 417.034L229.059 420.384ZM154.106 461.712L152.258 458.361L150.195 459.499L150.282 461.852L154.106 461.712ZM226.273 530.779L224.283 534.047L227.705 536.13L229.629 532.616L226.273 530.779ZM155.049 487.422L151.225 487.563L151.3 489.62L153.059 490.691L155.049 487.422ZM84.8439 519.347L88.6685 519.461L88.7387 517.106L86.6684 515.983L84.8439 519.347ZM82.2926 604.9L81.6914 608.679L85.9875 609.363L86.1172 605.015L82.2926 604.9ZM62.2295 507.079L64.0541 503.715L62.2443 502.734L60.4279 503.703L62.2295 507.079ZM-11.3311 546.341L-13.1328 542.965L-16.667 544.851L-14.6205 548.295L-11.3311 546.341ZM-21.5991 524.195L-25.1203 525.693L-23.4179 529.696L-19.6646 527.497L-21.5991 524.195ZM52.2487 480.923L54.1832 484.225L56.2153 483.034L56.0675 480.683L52.2487 480.923ZM-21.6985 413.766L-19.795 410.447L-23.2702 408.454L-25.1016 412.017L-21.6985 413.766ZM50.6343 455.246L54.4531 455.006L54.3239 452.951L52.5378 451.927L50.6343 455.246ZM-85.5349 383.748L-91.9095 404.571L-84.592 406.812L-78.2174 385.988L-85.5349 383.748ZM-55.1254 376.782C-57.7793 382.09 -62.1027 384.012 -66.8522 384.288C-71.808 384.576 -76.9892 383.002 -80.192 381.432L-83.5604 388.304C-79.5386 390.275 -73.033 392.313 -66.4083 391.928C-59.5772 391.531 -52.4264 388.496 -48.2807 380.204L-55.1254 376.782ZM-58.6517 346.28C-56.8786 348.787 -54.4483 353.512 -53.2703 359.143C-52.0994 364.741 -52.2161 370.963 -55.1254 376.782L-48.2807 380.204C-44.3904 372.424 -44.3654 364.338 -45.7798 357.577C-47.1871 350.848 -50.0689 345.162 -52.4039 341.861L-58.6517 346.28ZM-43.4682 325.329L-58.3423 341.478L-52.7134 346.663L-37.8393 330.514L-43.4682 325.329ZM-10.6889 325.269C-13.7307 328.433 -18.5903 329.407 -24.3214 328.811C-29.9607 328.225 -35.5702 326.185 -38.9425 324.499L-42.3649 331.344C-38.371 333.341 -31.8688 335.72 -25.113 336.423C-18.4491 337.116 -10.6303 336.249 -5.1726 330.573L-10.6889 325.269ZM-6.08521 300.074C-5.35595 302.627 -4.67165 307.157 -5.15145 312.012C-5.63049 316.86 -7.22807 321.67 -10.6889 325.269L-5.1726 330.573C-0.133948 325.333 1.88074 318.669 2.46414 312.765C3.04678 306.868 2.24367 301.369 1.27303 297.972L-6.08521 300.074ZM13.9446 285.091L-4.32929 295.715L-0.482894 302.331L17.791 291.707L13.9446 285.091ZM45.9823 295.306C32.6927 298.555 22.3309 290.476 18.8881 286.05L12.8475 290.748C17.3375 296.521 30.4909 306.971 47.7994 302.74L45.9823 295.306ZM59.6628 272.255C60.0291 275.491 59.7412 280.658 57.7229 285.316C55.7669 289.829 52.2552 293.773 45.9823 295.306L47.7994 302.74C56.8256 300.534 62.0259 294.632 64.7446 288.358C67.401 282.229 67.7506 275.667 67.2669 271.394L59.6628 272.255ZM83.1584 264.239L62.7597 268.064L64.17 275.586L84.5687 271.761L83.1584 264.239ZM106.353 288.417C101.208 287.89 97.0054 284.628 93.7142 280.151C90.4276 275.68 88.4036 270.447 87.5798 267.088L80.1474 268.912C81.1651 273.06 83.5608 279.259 87.5484 284.684C91.5313 290.102 97.457 295.198 105.572 296.03L106.353 288.417ZM129.712 270.167C128.107 273.506 124.887 278.527 120.607 282.488C116.297 286.476 111.429 288.938 106.353 288.417L105.572 296.03C113.755 296.869 120.715 292.815 125.804 288.105C130.923 283.368 134.673 277.51 136.609 273.483L129.712 270.167ZM155.16 272.322L133.911 268.073L132.41 275.577L153.659 279.827L155.16 272.322ZM169.786 301.393C163.38 298.973 160.191 294.549 158.688 289.891C157.135 285.076 157.412 280.02 158.134 276.951L150.685 275.198C149.707 279.354 149.346 285.857 151.405 292.24C153.515 298.78 158.188 305.192 167.081 308.552L169.786 301.393ZM196.228 291.444C194.545 294.09 191.082 297.899 186.414 300.354C181.86 302.748 176.24 303.831 169.786 301.393L167.081 308.552C175.926 311.894 183.834 310.356 189.975 307.127C196.003 303.958 200.402 299.14 202.685 295.553L196.228 291.444ZM220.549 301.692L201.425 290.217L197.488 296.779L216.612 308.254L220.549 301.692ZM223.697 334.1C218.82 330.805 217.326 326.017 217.579 320.83C217.838 315.497 219.976 310.147 221.878 306.913L215.282 303.033C212.935 307.023 210.27 313.572 209.935 320.458C209.593 327.489 211.711 335.237 219.413 340.441L223.697 334.1ZM252.25 334.026C247.177 337.197 234.465 341.376 223.697 334.1L219.413 340.441C233.803 350.164 250.047 344.427 256.306 340.515L252.25 334.026ZM271.283 352.295L257.259 334.872L251.297 339.67L265.321 357.094L271.283 352.295ZM264.955 385.928C260.027 379.55 260.025 373.792 261.768 369.051C263.607 364.051 267.502 359.969 270.526 357.808L266.078 351.581C262.161 354.379 257.089 359.603 254.586 366.41C251.987 373.477 252.269 382.026 258.9 390.607L264.955 385.928ZM288.213 394.053C286.633 395.154 283.384 396.392 279.317 395.778C275.363 395.181 270.24 392.766 264.955 385.928L258.9 390.607C265.175 398.728 271.951 402.405 278.175 403.345C284.286 404.268 289.494 402.488 292.589 400.331L288.213 394.053ZM300.838 416.828L294.038 396.004L286.763 398.38L293.563 419.203L300.838 416.828ZM283.549 447.122C282.406 440.409 284.566 434.833 287.911 430.436C291.312 425.965 295.829 422.886 298.826 421.479L295.575 414.552C291.631 416.403 286.075 420.209 281.82 425.803C277.508 431.471 274.427 439.14 276.004 448.406L283.549 447.122ZM304.909 461.804C301.776 462.105 296.831 461.689 292.493 459.523C288.33 457.444 284.679 453.761 283.549 447.122L276.004 448.406C277.594 457.745 283.009 463.341 289.074 466.369C294.963 469.31 301.408 469.829 305.641 469.422L304.909 461.804ZM307.821 490.459L309.096 465.81L301.454 465.415L300.179 490.064L307.821 490.459ZM280.662 508.094C288.338 492.437 299.253 492.681 302.761 493.882L305.239 486.641C297.981 484.158 283.115 485.706 273.791 504.726L280.662 508.094ZM295.402 533.367C291.234 532.021 285.598 529.033 282.053 524.68C280.321 522.553 279.154 520.186 278.793 517.565C278.434 514.966 278.828 511.837 280.662 508.094L273.791 504.726C271.376 509.653 270.619 514.312 271.212 518.611C271.802 522.888 273.689 526.528 276.119 529.512C280.896 535.379 288.01 539.021 293.049 540.649L295.402 533.367ZM288.795 558.543L297.719 538.569L290.732 535.447L281.808 555.421L288.795 558.543ZM256.357 568.794C267.636 555.381 279.463 558.024 283.384 560.294L287.218 553.671C280.373 549.708 264.379 547.364 250.5 563.869L256.357 568.794ZM262.25 595.806C258.939 593.745 254.776 589.86 252.839 585.106C251.043 580.699 250.978 575.191 256.357 568.794L250.5 563.869C243.299 572.432 242.88 580.947 245.752 587.994C248.482 594.693 254.008 599.689 258.205 602.303L262.25 595.806ZM248.663 618.143L263.112 601.569L257.344 596.54L242.894 613.114L248.663 618.143ZM212.355 617.431C219.298 612.299 225.806 611.525 231.112 612.459C236.566 613.419 240.902 616.22 243.109 618.37L248.448 612.887C245.273 609.795 239.579 606.179 232.439 604.922C225.152 603.64 216.503 604.849 207.806 611.277L212.355 617.431ZM210.202 642.637C207.794 640.289 205.106 636.198 204.62 631.716C204.173 627.592 205.508 622.492 212.355 617.431L207.806 611.277C199.014 617.775 196.241 625.424 197.012 632.54C197.745 639.299 201.601 644.939 204.86 648.116L210.202 642.637ZM190.265 659.346L209.389 648.722L205.673 642.032L186.549 652.656L190.265 659.346ZM160.401 643.65C170.698 642.382 176.607 644.686 179.917 647.415C183.306 650.21 184.484 653.864 184.584 656.167L192.23 655.835C192.047 651.622 190.037 645.841 184.786 641.511C179.454 637.115 171.269 634.602 159.466 636.054L160.401 643.65ZM144.876 669.699C143.553 665.603 142.877 659.451 144.777 654.241C145.7 651.708 147.224 649.41 149.599 647.588C151.984 645.76 155.424 644.262 160.401 643.65L159.466 636.054C153.395 636.802 148.601 638.711 144.943 641.515C141.276 644.327 138.948 647.889 137.587 651.62C134.918 658.94 135.942 666.939 137.594 672.051L144.876 669.699ZM119.935 676.808L141.608 674.683L140.862 667.067L119.188 669.192L119.935 676.808ZM95.8216 653.86C103.556 654.604 108.346 658.036 111.311 661.892C114.37 665.87 115.57 670.427 115.742 673.234L123.381 672.766C123.127 668.632 121.481 662.564 117.378 657.228C113.183 651.771 106.498 647.199 96.5541 646.243L95.8216 653.86ZM74.909 671.367C75.3296 668.122 76.9396 663.257 80.2634 659.488C83.4395 655.886 88.2811 653.135 95.8216 653.86L96.554 646.243C86.4156 645.268 79.2163 649.104 74.5234 654.427C69.9781 659.582 67.8907 665.979 67.3198 670.383L74.909 671.367ZM49.8609 669.93L70.2597 674.605L71.9691 667.145L51.5704 662.471L49.8609 669.93ZM36.4874 643.626C41.901 644.529 44.7164 647.889 46.1761 652.219C47.7026 656.747 47.5815 662.049 46.951 665.516L54.4803 666.885C55.2664 662.561 55.4852 655.878 53.4278 649.775C51.3035 643.473 46.611 637.555 37.7455 636.078L36.4874 643.626ZM7.39647 652.879C9.47218 650.986 13.5902 648.087 18.8526 645.96C24.0995 643.84 30.2394 642.585 36.4874 643.626L37.7455 636.078C29.7144 634.739 22.1135 636.388 15.9853 638.865C9.87255 641.335 4.98112 644.725 2.24046 647.224L7.39647 652.879ZM-16.106 643.228L3.01784 653.428L6.61909 646.675L-12.5047 636.476L-16.106 643.228ZM-18.5245 607.597C-15.1398 609.238 -13.4858 613.499 -13.7619 620.275C-14.0258 626.751 -16.05 633.877 -17.8616 638.44L-10.7491 641.264C-8.73593 636.194 -6.42544 628.191 -6.11558 620.587C-5.81793 613.281 -7.35131 604.51 -15.1859 600.711L-18.5245 607.597ZM-49.3549 609.375C-46.3291 608.087 -40.9846 606.405 -35.1094 605.701C-29.1775 604.99 -23.1904 605.335 -18.5245 607.597L-15.1859 600.711C-21.7393 597.534 -29.4222 597.312 -36.02 598.103C-42.6744 598.9 -48.7191 600.788 -52.3513 602.333L-49.3549 609.375ZM-67.4958 590.324L-53.8967 608.173L-47.8095 603.535L-61.4087 585.686L-67.4958 590.324ZM-59.7226 554.591C-55.1656 562.793 -55.556 569.377 -57.5355 574.281C-59.5923 579.376 -63.5169 583.005 -66.4011 584.712L-62.5034 591.298C-58.4464 588.897 -53.234 584.069 -50.4391 577.145C-47.5668 570.029 -47.3906 561.03 -53.0329 550.874L-59.7226 554.591ZM-84.5263 547.597C-82.0656 545.547 -77.8929 543.503 -73.5035 543.771C-69.4299 544.019 -64.3217 546.312 -59.7226 554.591L-53.0329 550.874C-58.6332 540.794 -65.8493 536.571 -73.0375 536.132C-79.9098 535.713 -85.9365 538.811 -89.4254 541.718L-84.5263 547.597ZM-97.7986 525.986L-90.5741 545.959L-83.3777 543.356L-90.6022 523.383L-97.7986 525.986ZM-78.7066 494.871C-75.5356 504.384 -77.7942 510.3 -81.2724 514.084C-85.0098 518.151 -90.6606 520.278 -94.7736 520.901L-93.6272 528.467C-88.3908 527.674 -80.91 524.999 -75.6379 519.263C-70.1067 513.244 -67.478 504.357 -71.4466 492.451L-78.7066 494.871ZM-99.0927 479.979C-97.0751 478.819 -93.6163 477.998 -90.0291 479.453C-86.5234 480.876 -82.0567 484.821 -78.7066 494.871L-71.4466 492.451C-75.2361 481.083 -80.8979 474.899 -87.1524 472.362C-93.3254 469.858 -99.2586 471.247 -102.907 473.345L-99.0927 479.979ZM-104.826 452.864V476.662H-97.1737V452.864H-104.826ZM-78.6977 434.628C-80.6868 440.454 -84.6825 444.046 -89.0367 446.222C-93.4708 448.437 -98.1352 449.097 -100.919 449.038L-101.081 456.689C-97.2069 456.771 -91.2894 455.902 -85.6162 453.067C-79.8632 450.193 -74.2261 445.215 -71.4555 437.101L-78.6977 434.628ZM-90.3733 408.875C-87.5767 410.74 -83.5363 414.397 -80.7886 419.081C-78.0759 423.705 -76.7808 429.015 -78.6977 434.628L-71.4555 437.101C-68.6127 428.776 -70.7174 421.124 -74.1881 415.208C-77.6237 409.352 -82.5503 404.893 -86.1283 402.508L-90.3733 408.875ZM68.9162 429.235L-3.32939 383.338L-7.433 389.797L64.8125 435.694L68.9162 429.235ZM87.0036 416.004L64.905 429.178L68.8237 435.751L90.9223 422.577L87.0036 416.004ZM88.9654 335.82L85.1407 419.115L92.7853 419.466L96.6101 336.171L88.9654 335.82ZM-2.4397 389.015C30.3548 349.595 74.9934 339.822 92.7878 339.822V332.169C73.1844 332.169 26.1987 342.625 -8.32269 384.12L-2.4397 389.015ZM118.788 335.744L114.906 421.248L122.551 421.595L126.432 336.091L118.788 335.744ZM218.631 394.023C208.88 377.017 176.439 341.457 123.27 332.148L121.95 339.686C172.459 348.529 203.141 382.393 211.992 397.83L218.631 394.023ZM142.898 437.443L217.06 399.33L213.562 392.523L139.4 430.636L142.898 437.443ZM116.852 424.756L139.272 437.374L143.026 430.705L120.605 418.087L116.852 424.756ZM135.851 513.025L209.12 557.271L213.076 550.72L139.807 506.474L135.851 513.025ZM118.069 526.663L139.863 512.991L135.796 506.509L114.002 520.181L118.069 526.663ZM117.927 606.871L119.861 523.511L112.21 523.333L110.276 606.694L117.927 606.871ZM208.102 551.616C176.21 591.77 131.805 602.553 114.015 602.957L114.189 610.608C133.787 610.163 180.523 598.644 214.094 556.376L208.102 551.616ZM227.211 417.034L152.258 458.361L155.953 465.063L230.906 423.735L227.211 417.034ZM229.629 532.616C239.043 515.421 252.437 469.187 232.618 418.979L225.5 421.789C244.327 469.485 231.462 513.333 222.917 528.941L229.629 532.616ZM153.059 490.691L224.283 534.047L228.262 527.51L157.038 484.154L153.059 490.691ZM150.282 461.852L151.225 487.563L158.872 487.282L157.929 461.572L150.282 461.852ZM81.0192 519.233L78.4679 604.786L86.1172 605.015L88.6685 519.461L81.0192 519.233ZM60.405 510.442L83.0193 522.71L86.6684 515.983L64.0541 503.715L60.405 510.442ZM-9.52944 549.716L64.0312 510.454L60.4279 503.703L-13.1328 542.965L-9.52944 549.716ZM82.8937 601.122C32.2529 593.066 1.04827 559.683 -8.0417 544.386L-14.6205 548.295C-4.60648 565.148 28.384 600.199 81.6914 608.679L82.8937 601.122ZM-19.6646 527.497L54.1832 484.225L50.3143 477.622L-23.5335 520.894L-19.6646 527.497ZM-25.1016 412.017C-34.0634 429.452 -46.244 476.02 -25.1203 525.693L-18.0779 522.698C-38.145 475.51 -26.4302 431.341 -18.2954 415.515L-25.1016 412.017ZM52.5378 451.927L-19.795 410.447L-23.602 417.085L48.7308 458.566L52.5378 451.927ZM56.0675 480.683L54.4531 455.006L46.8155 455.487L48.4299 481.163L56.0675 480.683ZM123.385 470.288C123.385 482.022 113.873 491.535 102.138 491.535V499.188C118.099 499.188 131.038 486.249 131.038 470.288H123.385ZM102.138 449.041C113.873 449.041 123.385 458.553 123.385 470.288H131.038C131.038 454.327 118.099 441.388 102.138 441.388V449.041ZM80.8912 470.288C80.8912 458.553 90.4039 449.041 102.138 449.041V441.388C86.1775 441.388 73.2386 454.327 73.2386 470.288H80.8912ZM102.138 491.535C90.4039 491.535 80.8912 482.022 80.8912 470.288H73.2386C73.2386 486.249 86.1775 499.188 102.138 499.188V491.535Z" fill="#00AFFE"/>
<path d="M28.4194 768.05L-56.2588 755.758" stroke="white" stroke-width="8"/>
<path d="M-27.4991 1074.82L-2.92541 1055.66L-112.854 914.639L-26.293 847.163" stroke="white" stroke-width="8"/>
<path d="M119.649 1032.56L-60.3445 801.653L-196.053 907.44L-86.9871 1047.36L-112.225 1067.03L-25.5543 1077.77L64.0111 1192.67M64.0111 1192.67L248.203 1049.08L117.911 881.94L34.2939 872.379L-56.1344 756.374L-241.655 900.99L-22.1419 1182.59L64.0111 1192.67Z" stroke="white" stroke-width="8"/>
<path d="M-92.0587 1041.31L-5.83076 1052.39L64.2339 1142.27L199.5 1036.83L90.0886 896.472L113.998 877.835" stroke="white" stroke-width="8"/>
<path d="M94.1011 898.878L8.43969 888.064L33.8989 868.219" stroke="white" stroke-width="8"/>
<path d="M117.739 881.72L28.6911 767.485" stroke="white" stroke-width="8"/>
<circle cx="1365.41" cy="790.412" r="63.795" stroke="#00AFFE" stroke-width="15.2346"/>
<circle cx="1403.79" cy="595.56" r="32.8497" fill="#00AFFE"/>
<path d="M1329.34 152.751L1358 135.349L1361.15 140.533L1332.49 157.934L1320.03 162.159L1329.34 152.751Z" fill="#00AFFE" stroke="#00AFFE" stroke-width="2.36092"/>
<path d="M1366.3 125.777C1360.58 118.563 1354.85 120.208 1352.69 121.932C1350.6 124.537 1355.14 133.523 1357.67 137.69C1360.43 142.693 1367.18 152.531 1372.12 151.869C1377.06 151.207 1376.22 143.956 1375.18 140.413C1374.6 138.54 1372.01 132.99 1366.3 125.777Z" fill="#ED1B24" stroke="#ED1B24" stroke-width="5.9023"/>
<path d="M1401.7 107.147C1398.77 103.92 1393.25 98.1731 1391.94 99.3056C1390.74 100.339 1392.64 105.806 1393.95 108.099C1396.46 113.39 1402.69 124.161 1407.49 124.919C1412.29 125.677 1405.36 112.715 1401.7 107.147Z" fill="#ED1B24"/>
<path d="M1394.31 108.714C1394.2 108.527 1394.07 108.32 1393.95 108.099M1393.95 108.099C1392.64 105.806 1390.74 100.339 1391.94 99.3056C1393.25 98.1731 1398.77 103.92 1401.7 107.147C1405.36 112.715 1412.29 125.677 1407.49 124.919C1402.69 124.161 1396.46 113.39 1393.95 108.099Z" stroke="#ED1B24" stroke-width="5.9023"/>
<rect x="1366.29" y="124.475" width="36.3856" height="15.6957" transform="rotate(-31.2625 1366.29 124.475)" fill="#ED1B24"/>
<rect x="84" y="817" width="1462" height="1112" fill="#00AFFE"/>
<rect x="86" y="-1833" width="1323" height="14743" fill="white"/>
<rect x="1410" y="-1729" width="58" height="2169" fill="#00AFFE"/>
</g>
</g>
<defs>
<clipPath id="clip0_189_21210">
<rect width="1440" height="914" fill="white"/>
</clipPath>
<clipPath id="clip1_189_21210">
<rect width="1440" height="15069" fill="white" transform="translate(0 -2026)"/>
</clipPath>
</defs>
</svg>
