<svg width="1440" height="914" viewBox="0 0 1440 914" fill="none" xmlns="http://www.w3.org/2000/svg">
<g clip-path="url(#clip0_190_21211)">
<rect width="1440" height="914" fill="white"/>
<g clip-path="url(#clip1_190_21211)">
<rect width="1440" height="15069" transform="translate(0 -2941)" fill="#00AFFE"/>
<rect x="11" y="84" width="1462" height="918" fill="#00AFFE"/>
<path d="M-109.138 736.186L-100.132 748.409L-114.928 752.912L-116 767.279L-103.563 776.286L-116 784.863L-114.928 799.659L-99.2741 804.377L-109.353 816.814L-103.563 829.037H-86.1935L-92.1977 844.905L-82.1192 854.34L-66.6799 848.765L-67.9665 865.276L-54.6715 871.924L-42.0199 861.845L-37.9456 876.641L-22.9351 879L-14.3577 865.919L-5.35146 879L8.58683 877.713L13.5188 861.845L25.9561 871.924L38.6078 864.633V849.622L54.0471 855.198L63.6967 845.548L58.5502 829.251H74.4184L81.0659 817.028L72.0596 805.02L85.569 800.302L88.1423 785.506L76.7772 776.5L88.1423 767.923L85.9979 753.555L72.9174 747.551L81.4948 736.186L74.8473 723.535H59.8368L64.9833 710.025L53.4038 698.66L39.2511 701.233V687.938L26.3849 681.72L13.5188 691.155L9.44457 676.144L-3.85041 674L-13.7144 685.794L-22.2918 674L-37.3023 676.144L-42.2343 691.155L-54.4571 681.72L-67.7521 687.724L-67.1088 704.021L-81.6904 698.66L-92.1977 708.738L-86.8368 724.178L-102.491 723.535L-109.138 736.186Z" fill="#C1ECFF" stroke="#00AFFE" stroke-width="3"/>
<circle cx="-13.7142" cy="776.286" r="77.6266" fill="#C1ECFF" stroke="#00AFFE" stroke-width="3"/>
<circle cx="-13.7147" cy="776.286" r="54.0387" fill="#C1ECFF" stroke="#00AFFE" stroke-width="3"/>
<circle cx="-13.9288" cy="776.5" r="46.9623" fill="#C1ECFF" stroke="#00AFFE" stroke-width="3"/>
<circle cx="-13.9288" cy="776.5" r="15.2259" fill="#C1ECFF" stroke="#00AFFE" stroke-width="3"/>
<path fill-rule="evenodd" clip-rule="evenodd" d="M-65.4932 463.674L-60.7398 448.146C-55.3526 450.787 -43.3106 453.533 -38.2403 443.392C-33.17 433.252 -38.029 422.055 -41.0923 417.724L-30.0011 405.682C-24.5082 408.428 -11.9381 412.273 -5.60021 405.682C0.737663 399.091 -0.21302 388.57 -1.48059 384.133L12.1459 376.211C15.1035 380.014 23.8709 386.922 35.2791 384.133C46.6873 381.345 48.2718 369.451 47.638 363.852L62.8489 361C64.2221 366.598 69.4403 378.049 79.3274 379.063C89.2145 380.077 96.9678 369.345 99.6086 363.852L115.453 367.021C114.186 372.408 114.503 384.26 125.911 388.57C137.319 392.88 146.086 384.661 149.044 380.014L163.304 388.57C160.135 393.957 156.142 406.316 165.523 412.654C174.903 418.992 185.698 415.295 189.923 412.654L200.381 425.646C195.205 429.343 187.008 439.526 195.627 450.681C204.247 461.836 213.374 459.765 216.859 457.336L221.93 472.864C216.754 475.293 206.909 483.131 208.937 495.046C210.965 506.961 222.458 508.884 227.951 508.356L227 526.736C222.986 525.362 213.374 525.848 207.036 538.778C200.698 551.707 212.845 559.376 219.711 561.594L213.057 576.488C209.043 574.164 198.67 572.305 189.29 583.46C179.91 594.614 188.761 604.375 194.36 607.86L183.586 620.219C179.572 616.311 168.628 610.649 156.966 619.269C145.305 627.888 150.84 638.282 155.065 642.402L140.805 650.324C140.594 645.465 136.051 636.254 119.573 638.282C103.094 640.31 103.411 654.549 105.63 661.416L89.468 663C89.1511 657.824 85.2216 647.155 72.0388 645.888C58.856 644.62 54.0815 655.711 53.3421 661.416L38.1312 657.93C39.1875 652.12 38.6382 640.057 27.9905 638.282C17.3429 636.508 7.49807 642.613 3.9066 645.888L-10.3536 638.282C-7.50158 631.099 -3.88898 615.719 -12.255 611.663C-20.621 607.607 -32.6418 610.818 -37.6065 612.931L-47.7471 599.621C-42.5712 596.558 -34.1207 587.009 -41.7261 573.319C-49.3316 559.629 -60.106 563.601 -64.5425 567.298L-69.9297 552.404C-62.958 551.348 -50.3456 545.242 -55.6695 529.271C-60.9933 513.299 -70.7747 514.165 -75 516.595V498.849C-70.0353 498.955 -59.2187 496.567 -55.6695 486.173C-52.1203 475.779 -60.7398 466.843 -65.4932 463.674ZM-3.69839 449.413L50.1736 483.638L66.6521 473.814L69.5041 411.703C55.5608 411.703 21.3996 419.245 -3.69839 449.413ZM88.8474 475.403L91.7419 411.644C130.397 418.412 153.932 444.296 160.867 456.392L105.566 484.812L88.8474 475.403ZM157.725 574.261L103.09 541.268L86.8389 551.463L85.3971 613.623C99.3368 613.307 133.318 604.991 157.725 574.261ZM115.227 505.447L171.118 474.63C185.527 511.132 175.737 544.718 169.041 556.948L115.93 524.618L115.227 505.447ZM61.6774 612.22L63.5799 548.424L46.7168 539.276L-8.1358 568.553C-1.01305 580.54 22.9214 606.054 61.6774 612.22ZM39.2747 519.773L-15.7921 552.04C-31.1496 515.926 -22.2405 482.096 -15.8662 469.695L38.0709 500.626L39.2747 519.773ZM76.4761 530.539C86.802 530.539 95.1729 522.168 95.1729 511.842C95.1729 501.516 86.802 493.145 76.4761 493.145C66.1502 493.145 57.7794 501.516 57.7794 511.842C57.7794 522.168 66.1502 530.539 76.4761 530.539Z" fill="#C1ECFF"/>
<path d="M-60.7398 448.146L-59.4839 445.584L-62.4885 444.111L-63.468 447.311L-60.7398 448.146ZM-65.4932 463.674L-68.2214 462.838L-68.8432 464.869L-67.0759 466.048L-65.4932 463.674ZM-38.2403 443.392L-35.6883 444.668L-35.6883 444.668L-38.2403 443.392ZM-41.0923 417.724L-43.191 415.791L-44.7541 417.488L-43.4218 419.372L-41.0923 417.724ZM-30.0011 405.682L-28.7251 403.13L-30.6453 402.17L-32.0997 403.749L-30.0011 405.682ZM-5.60021 405.682L-3.54352 407.66L-3.54352 407.66L-5.60021 405.682ZM-1.48059 384.133L-2.91468 381.667L-4.83392 382.782L-4.22403 384.917L-1.48059 384.133ZM12.1459 376.211L14.398 374.459L12.8673 372.491L10.7118 373.744L12.1459 376.211ZM35.2791 384.133L35.9566 386.905L35.9566 386.905L35.2791 384.133ZM47.638 363.852L47.1122 361.048L44.5044 361.537L44.8029 364.173L47.638 363.852ZM62.8489 361L65.62 360.32L64.9768 357.698L62.3231 358.196L62.8489 361ZM79.3274 379.063L79.6185 376.225L79.6185 376.225L79.3274 379.063ZM99.6086 363.852L100.168 361.054L97.9967 360.62L97.0371 362.616L99.6086 363.852ZM115.453 367.021L118.231 367.674L118.907 364.802L116.013 364.223L115.453 367.021ZM125.911 388.57L126.919 385.901L126.919 385.901L125.911 388.57ZM149.044 380.014L150.512 377.567L148.129 376.137L146.637 378.482L149.044 380.014ZM163.304 388.57L165.764 390.016L167.198 387.578L164.772 386.123L163.304 388.57ZM165.523 412.654L163.925 415.018L163.925 415.018L165.523 412.654ZM189.923 412.654L192.146 410.865L190.558 408.892L188.411 410.234L189.923 412.654ZM200.381 425.646L202.039 427.968L204.498 426.212L202.604 423.857L200.381 425.646ZM216.859 457.336L219.572 456.45L218.379 452.799L215.228 454.995L216.859 457.336ZM221.93 472.864L223.142 475.446L225.425 474.375L224.642 471.978L221.93 472.864ZM208.937 495.046L206.124 495.525L206.124 495.525L208.937 495.046ZM227.951 508.356L230.8 508.503L230.971 505.199L227.678 505.516L227.951 508.356ZM227 526.736L226.076 529.435L229.654 530.659L229.849 526.883L227 526.736ZM207.036 538.778L204.474 537.522L204.474 537.522L207.036 538.778ZM219.711 561.594L222.316 562.758L223.613 559.856L220.589 558.879L219.711 561.594ZM213.057 576.488L211.627 578.957L214.369 580.545L215.662 577.652L213.057 576.488ZM189.29 583.46L187.106 581.623L187.106 581.623L189.29 583.46ZM194.36 607.86L196.511 609.735L198.713 607.21L195.868 605.438L194.36 607.86ZM183.586 620.219L181.595 622.264L183.755 624.367L185.736 622.094L183.586 620.219ZM156.966 619.269L155.27 616.974L155.27 616.974L156.966 619.269ZM155.065 642.402L156.451 644.896L159.801 643.035L157.057 640.359L155.065 642.402ZM140.805 650.324L137.954 650.448L138.155 655.06L142.19 652.818L140.805 650.324ZM119.573 638.282L119.224 635.45L119.224 635.45L119.573 638.282ZM105.63 661.416L105.908 664.255L109.434 663.909L108.345 660.538L105.63 661.416ZM89.468 663L86.6201 663.174L86.801 666.128L89.7464 665.84L89.468 663ZM72.0388 645.888L72.3119 643.048L72.3119 643.048L72.0388 645.888ZM53.3421 661.416L52.7047 664.197L55.7677 664.899L56.1716 661.782L53.3421 661.416ZM38.1312 657.93L35.324 657.419L34.8362 660.102L37.4938 660.711L38.1312 657.93ZM27.9905 638.282L28.4596 635.468L28.4596 635.468L27.9905 638.282ZM3.9066 645.888L2.56391 648.405L4.34082 649.353L5.82897 647.996L3.9066 645.888ZM-10.3536 638.282L-13.0055 637.229L-13.9466 639.6L-11.6963 640.8L-10.3536 638.282ZM-12.255 611.663L-13.4998 614.231L-13.4998 614.231L-12.255 611.663ZM-37.6065 612.931L-39.8761 614.66L-38.5312 616.425L-36.4893 615.556L-37.6065 612.931ZM-47.7471 599.621L-49.2003 597.166L-51.9604 598.799L-50.0167 601.35L-47.7471 599.621ZM-41.7261 573.319L-44.2203 574.705L-44.2203 574.705L-41.7261 573.319ZM-64.5425 567.298L-67.2256 568.268L-65.8417 572.095L-62.7159 569.49L-64.5425 567.298ZM-69.9297 552.404L-70.3571 549.583L-73.7957 550.104L-72.6128 553.374L-69.9297 552.404ZM-55.6695 529.271L-52.9627 528.368L-52.9627 528.368L-55.6695 529.271ZM-75 516.595H-77.8532V521.527L-73.5778 519.068L-75 516.595ZM-75 498.849L-74.9393 495.996L-77.8532 495.934V498.849H-75ZM-55.6695 486.173L-52.9693 487.095L-52.9693 487.095L-55.6695 486.173ZM50.1736 483.638L48.6436 486.046L50.126 486.988L51.6346 486.089L50.1736 483.638ZM-3.69839 449.413L-5.8918 447.589L-7.96636 450.082L-5.22838 451.822L-3.69839 449.413ZM66.6521 473.814L68.1131 476.265L69.4319 475.479L69.5023 473.945L66.6521 473.814ZM69.5041 411.703L72.3543 411.834L72.4914 408.85H69.5041V411.703ZM91.7419 411.644L92.2339 408.834L89.0387 408.275L88.8916 411.515L91.7419 411.644ZM88.8474 475.403L85.9971 475.273L85.9174 477.028L87.448 477.889L88.8474 475.403ZM160.867 456.392L162.172 458.93L164.829 457.564L163.343 454.973L160.867 456.392ZM105.566 484.812L104.167 487.298L105.505 488.051L106.87 487.35L105.566 484.812ZM103.09 541.268L104.565 538.825L103.062 537.918L101.574 538.851L103.09 541.268ZM157.725 574.261L159.959 576.036L161.977 573.496L159.2 571.819L157.725 574.261ZM86.8389 551.463L85.3226 549.046L84.0221 549.862L83.9865 551.397L86.8389 551.463ZM85.3971 613.623L82.5446 613.557L82.4753 616.543L85.4618 616.475L85.3971 613.623ZM171.118 474.63L173.772 473.582L172.581 470.565L169.74 472.131L171.118 474.63ZM115.227 505.447L113.849 502.948L112.311 503.796L112.376 505.551L115.227 505.447ZM169.041 556.948L167.557 559.385L170.109 560.939L171.543 558.318L169.041 556.948ZM115.93 524.618L113.079 524.723L113.135 526.257L114.447 527.056L115.93 524.618ZM63.5799 548.424L66.4318 548.509L66.4842 546.753L64.9404 545.916L63.5799 548.424ZM61.6774 612.22L61.2292 615.037L64.4327 615.547L64.5294 612.305L61.6774 612.22ZM46.7168 539.276L48.0774 536.768L46.7278 536.036L45.3734 536.759L46.7168 539.276ZM-8.1358 568.553L-9.47927 566.036L-12.1146 567.442L-10.5886 570.01L-8.1358 568.553ZM-15.7921 552.04L-18.4177 553.156L-17.1483 556.141L-14.3496 554.501L-15.7921 552.04ZM39.2747 519.773L40.7172 522.234L42.2325 521.346L42.1223 519.593L39.2747 519.773ZM-15.8662 469.695L-14.4468 467.22L-17.0382 465.734L-18.4038 468.39L-15.8662 469.695ZM38.0709 500.626L40.9185 500.447L40.8221 498.914L39.4902 498.151L38.0709 500.626ZM-63.468 447.311L-68.2214 462.838L-62.7649 464.509L-58.0115 448.981L-63.468 447.311ZM-40.7923 442.116C-42.7712 446.074 -45.9951 447.508 -49.5367 447.714C-53.2321 447.928 -57.0957 446.755 -59.4839 445.584L-61.9956 450.708C-58.9967 452.178 -54.1456 453.698 -49.2057 453.411C-44.1119 453.115 -38.7797 450.851 -35.6883 444.668L-40.7923 442.116ZM-43.4218 419.372C-42.0996 421.241 -40.2874 424.764 -39.409 428.964C-38.5359 433.138 -38.6229 437.778 -40.7923 442.116L-35.6883 444.668C-32.7874 438.867 -32.7688 432.838 -33.8234 427.795C-34.8728 422.778 -37.0217 418.538 -38.7629 416.076L-43.4218 419.372ZM-32.0997 403.749L-43.191 415.791L-38.9937 419.657L-27.9024 407.615L-32.0997 403.749ZM-7.65691 403.704C-9.92509 406.063 -13.5488 406.79 -17.8224 406.346C-22.0275 405.908 -26.2104 404.387 -28.7251 403.13L-31.2771 408.234C-28.2989 409.723 -23.4503 411.498 -18.4127 412.022C-13.4435 412.538 -7.61322 411.892 -3.54352 407.66L-7.65691 403.704ZM-4.22403 384.917C-3.68024 386.82 -3.16998 390.198 -3.52775 393.819C-3.88496 397.434 -5.07625 401.021 -7.65691 403.704L-3.54352 407.66C0.213697 403.752 1.71601 398.783 2.15103 394.38C2.58549 389.983 1.98663 385.883 1.26285 383.349L-4.22403 384.917ZM10.7118 373.744L-2.91468 381.667L-0.0465038 386.6L13.5799 378.678L10.7118 373.744ZM34.6016 381.362C24.6919 383.784 16.9652 377.76 14.398 374.459L9.89365 377.963C13.2418 382.267 23.05 390.06 35.9566 386.905L34.6016 381.362ZM44.8029 364.173C45.076 366.586 44.8613 370.439 43.3563 373.912C41.8978 377.278 39.2792 380.218 34.6016 381.362L35.9566 386.905C42.6872 385.26 46.565 380.859 48.5923 376.181C50.5731 371.61 50.8338 366.717 50.4731 363.531L44.8029 364.173ZM62.3231 358.196L47.1122 361.048L48.1638 366.656L63.3747 363.804L62.3231 358.196ZM79.6185 376.225C75.7824 375.831 72.6484 373.399 70.1943 370.061C67.7436 366.727 66.2343 362.825 65.62 360.32L60.0778 361.68C60.8367 364.773 62.6231 369.396 65.5966 373.441C68.5666 377.481 72.9852 381.281 79.0363 381.901L79.6185 376.225ZM97.0371 362.616C95.84 365.106 93.4391 368.85 90.2474 371.803C87.0341 374.777 83.4035 376.613 79.6185 376.225L79.0363 381.901C85.1383 382.527 90.328 379.504 94.1232 375.992C97.9403 372.459 100.736 368.091 102.18 365.088L97.0371 362.616ZM116.013 364.223L100.168 361.054L99.049 366.65L114.894 369.819L116.013 364.223ZM126.919 385.901C122.143 384.096 119.765 380.797 118.644 377.323C117.486 373.733 117.692 369.963 118.231 367.674L112.676 366.367C111.947 369.466 111.678 374.315 113.213 379.075C114.786 383.952 118.271 388.734 124.902 391.239L126.919 385.901ZM146.637 378.482C145.381 380.455 142.799 383.295 139.318 385.125C135.922 386.911 131.732 387.719 126.919 385.901L124.902 391.239C131.498 393.731 137.395 392.584 141.974 390.176C146.469 387.813 149.749 384.22 151.451 381.545L146.637 378.482ZM164.772 386.123L150.512 377.567L147.576 382.46L161.836 391.016L164.772 386.123ZM167.12 410.29C163.483 407.832 162.369 404.262 162.557 400.394C162.751 396.418 164.345 392.428 165.764 390.016L160.845 387.123C159.095 390.098 157.108 394.982 156.858 400.116C156.602 405.359 158.182 411.137 163.925 415.018L167.12 410.29ZM188.411 410.234C184.628 412.599 175.15 415.715 167.12 410.29L163.925 415.018C174.656 422.268 186.768 417.99 191.436 415.073L188.411 410.234ZM202.604 423.857L192.146 410.865L187.701 414.443L198.158 427.435L202.604 423.857ZM197.885 448.936C194.21 444.181 194.209 439.887 195.509 436.352C196.88 432.624 199.784 429.579 202.039 427.968L198.722 423.325C195.802 425.411 192.02 429.306 190.153 434.382C188.215 439.652 188.425 446.027 193.37 452.426L197.885 448.936ZM215.228 454.995C214.05 455.816 211.627 456.739 208.595 456.281C205.646 455.836 201.825 454.036 197.885 448.936L193.37 452.426C198.049 458.481 203.102 461.223 207.743 461.924C212.3 462.612 216.183 461.285 218.491 459.677L215.228 454.995ZM224.642 471.978L219.572 456.45L214.147 458.221L219.217 473.749L224.642 471.978ZM211.75 494.567C210.898 489.562 212.508 485.404 215.003 482.125C217.539 478.791 220.907 476.496 223.142 475.446L220.717 470.281C217.776 471.661 213.634 474.499 210.461 478.67C207.246 482.897 204.948 488.616 206.124 495.525L211.75 494.567ZM227.678 505.516C225.341 505.74 221.654 505.43 218.419 503.815C215.315 502.265 212.593 499.518 211.75 494.567L206.124 495.525C207.31 502.489 211.347 506.662 215.87 508.92C220.261 511.113 225.067 511.499 228.224 511.196L227.678 505.516ZM229.849 526.883L230.8 508.503L225.101 508.208L224.151 526.588L229.849 526.883ZM209.598 540.033C215.321 528.358 223.46 528.54 226.076 529.435L227.924 524.036C222.512 522.185 211.426 523.339 204.474 537.522L209.598 540.033ZM220.589 558.879C217.481 557.875 213.278 555.647 210.635 552.401C209.343 550.815 208.473 549.049 208.203 547.095C207.936 545.157 208.23 542.824 209.598 540.033L204.474 537.522C202.673 541.196 202.108 544.67 202.55 547.875C202.991 551.065 204.398 553.779 206.21 556.004C209.772 560.379 215.076 563.095 218.834 564.309L220.589 558.879ZM215.662 577.652L222.316 562.758L217.106 560.43L210.452 575.324L215.662 577.652ZM191.473 585.296C199.884 575.294 208.704 577.265 211.627 578.957L214.486 574.019C209.382 571.063 197.455 569.316 187.106 581.623L191.473 585.296ZM195.868 605.438C193.399 603.901 190.295 601.004 188.85 597.459C187.511 594.173 187.463 590.066 191.473 585.296L187.106 581.623C181.737 588.008 181.424 594.358 183.566 599.613C185.601 604.608 189.722 608.334 192.852 610.283L195.868 605.438ZM185.736 622.094L196.511 609.735L192.209 605.985L181.435 618.344L185.736 622.094ZM158.662 621.563C163.839 617.737 168.693 617.159 172.649 617.856C176.716 618.572 179.949 620.661 181.595 622.264L185.576 618.175C183.208 615.87 178.963 613.173 173.639 612.236C168.205 611.279 161.755 612.181 155.27 616.974L158.662 621.563ZM157.057 640.359C155.261 638.608 153.257 635.557 152.895 632.215C152.561 629.14 153.557 625.337 158.662 621.563L155.27 616.974C148.714 621.82 146.646 627.524 147.222 632.83C147.768 637.87 150.643 642.076 153.073 644.445L157.057 640.359ZM142.19 652.818L156.451 644.896L153.679 639.908L139.419 647.83L142.19 652.818ZM119.921 641.114C127.599 640.169 132.006 641.887 134.474 643.922C137.001 646.006 137.88 648.731 137.954 650.448L143.655 650.2C143.519 647.059 142.02 642.748 138.104 639.519C134.129 636.241 128.025 634.367 119.224 635.45L119.921 641.114ZM108.345 660.538C107.358 657.484 106.854 652.896 108.271 649.012C108.959 647.123 110.095 645.409 111.867 644.051C113.645 642.688 116.21 641.571 119.921 641.114L119.224 635.45C114.697 636.008 111.122 637.431 108.394 639.523C105.66 641.619 103.924 644.275 102.909 647.057C100.919 652.516 101.683 658.481 102.915 662.293L108.345 660.538ZM89.7464 665.84L105.908 664.255L105.351 658.576L89.1896 660.16L89.7464 665.84ZM71.7657 648.728C77.5334 649.282 81.1051 651.841 83.3161 654.717C85.5966 657.684 86.492 661.081 86.6201 663.174L92.3159 662.826C92.1271 659.743 90.8993 655.218 87.8401 651.239C84.7115 647.17 79.727 643.761 72.3119 643.048L71.7657 648.728ZM56.1716 661.782C56.4853 659.363 57.6858 655.735 60.1643 652.924C62.5327 650.238 66.143 648.187 71.7657 648.728L72.3119 643.048C64.7519 642.321 59.3835 645.181 55.8841 649.15C52.4947 652.994 50.9383 657.764 50.5125 661.049L56.1716 661.782ZM37.4938 660.711L52.7047 664.197L53.9794 658.634L38.7685 655.149L37.4938 660.711ZM27.5215 641.097C31.5583 641.769 33.6577 644.275 34.7461 647.504C35.8844 650.881 35.7941 654.834 35.324 657.419L40.9384 658.44C41.5246 655.216 41.6878 650.232 40.1536 645.681C38.5695 640.983 35.0704 636.57 28.4596 635.468L27.5215 641.097ZM5.82897 647.996C7.37678 646.585 10.4475 644.423 14.3715 642.837C18.2841 641.256 22.8625 640.32 27.5215 641.097L28.4596 635.468C22.471 634.47 16.8031 635.7 12.2335 637.546C7.67533 639.388 4.02789 641.916 1.98424 643.779L5.82897 647.996ZM-11.6963 640.8L2.56391 648.405L5.24929 643.37L-9.01093 635.765L-11.6963 640.8ZM-13.4998 614.231C-10.9758 615.454 -9.74253 618.632 -9.94839 623.684C-10.1451 628.513 -11.6546 633.827 -13.0055 637.229L-7.70179 639.335C-6.20062 635.554 -4.47774 629.587 -4.24668 623.916C-4.02473 618.469 -5.16814 611.928 -11.0102 609.096L-13.4998 614.231ZM-36.4893 615.556C-34.2331 614.596 -30.2478 613.342 -25.8667 612.817C-21.4435 612.286 -16.979 612.544 -13.4998 614.231L-11.0102 609.096C-15.8969 606.726 -21.6259 606.561 -26.5458 607.151C-31.5078 607.745 -36.0153 609.153 -38.7237 610.305L-36.4893 615.556ZM-50.0167 601.35L-39.8761 614.66L-35.337 611.202L-45.4776 597.892L-50.0167 601.35ZM-44.2203 574.705C-40.8222 580.821 -41.1133 585.73 -42.5894 589.387C-44.1232 593.187 -47.0496 595.893 -49.2003 597.166L-46.2939 602.077C-43.2687 600.286 -39.3819 596.686 -37.2978 591.523C-35.156 586.217 -35.0246 579.507 -39.232 571.933L-44.2203 574.705ZM-62.7159 569.49C-60.8811 567.961 -57.7696 566.437 -54.4964 566.636C-51.4588 566.822 -47.6498 568.532 -44.2203 574.705L-39.232 571.933C-43.408 564.417 -48.7888 561.267 -54.1489 560.94C-59.2735 560.628 -63.7674 562.938 -66.3691 565.106L-62.7159 569.49ZM-72.6128 553.374L-67.2256 568.268L-61.8594 566.328L-67.2466 551.434L-72.6128 553.374ZM-58.3763 530.173C-56.0117 537.267 -57.6959 541.678 -60.2895 544.5C-63.0764 547.532 -67.2901 549.118 -70.3571 549.583L-69.5023 555.225C-65.5976 554.633 -60.0193 552.639 -56.088 548.361C-51.9635 543.874 -50.0034 537.246 -52.9627 528.368L-58.3763 530.173ZM-73.5778 519.068C-72.0733 518.203 -69.4942 517.591 -66.8192 518.676C-64.2051 519.737 -60.8744 522.679 -58.3763 530.173L-52.9627 528.368C-55.7884 519.891 -60.0103 515.28 -64.6741 513.389C-69.2772 511.521 -73.7014 512.557 -76.4222 514.121L-73.5778 519.068ZM-77.8532 498.849V516.595H-72.1468V498.849H-77.8532ZM-58.3696 485.251C-59.8529 489.595 -62.8324 492.274 -66.0792 493.896C-69.3857 495.548 -72.8638 496.04 -74.9393 495.996L-75.0607 501.701C-72.1716 501.763 -67.759 501.114 -63.5287 499.001C-59.2387 496.857 -55.0352 493.145 -52.9693 487.095L-58.3696 485.251ZM-67.0759 466.048C-64.9905 467.438 -61.9777 470.165 -59.9288 473.658C-57.906 477.106 -56.9403 481.065 -58.3696 485.251L-52.9693 487.095C-50.8495 480.887 -52.4189 475.181 -55.0069 470.77C-57.5688 466.403 -61.2425 463.078 -63.9105 461.3L-67.0759 466.048ZM51.7036 481.23L-2.1684 447.005L-5.22838 451.822L48.6436 486.046L51.7036 481.23ZM65.191 471.363L48.7126 481.187L51.6346 486.089L68.1131 476.265L65.191 471.363ZM66.6539 411.572L63.8019 473.683L69.5023 473.945L72.3543 411.834L66.6539 411.572ZM-1.50497 451.238C22.9492 421.844 56.2352 414.556 69.5041 414.556V408.85C54.8863 408.85 19.8501 416.646 -5.8918 447.589L-1.50497 451.238ZM88.8916 411.515L85.9971 475.273L91.6976 475.532L94.5922 411.774L88.8916 411.515ZM163.343 454.973C156.072 442.292 131.881 415.775 92.2339 408.834L91.2499 414.455C128.914 421.049 151.792 446.3 158.392 457.811L163.343 454.973ZM106.87 487.35L162.172 458.93L159.563 453.854L104.262 482.274L106.87 487.35ZM87.448 477.889L104.167 487.298L106.965 482.325L90.2467 472.916L87.448 477.889ZM101.615 543.71L156.25 576.704L159.2 571.819L104.565 538.825L101.615 543.71ZM88.3552 553.88L104.607 543.685L101.574 538.851L85.3226 549.046L88.3552 553.88ZM88.2495 613.689L89.6914 551.529L83.9865 551.397L82.5446 613.557L88.2495 613.689ZM155.491 572.487C131.71 602.428 98.5978 610.469 85.3323 610.77L85.4618 616.475C100.076 616.144 134.926 607.554 159.959 576.036L155.491 572.487ZM169.74 472.131L113.849 502.948L116.605 507.945L172.496 477.128L169.74 472.131ZM171.543 558.318C178.563 545.497 188.55 511.021 173.772 473.582L168.464 475.677C182.503 511.243 172.91 543.939 166.538 555.578L171.543 558.318ZM114.447 527.056L167.557 559.385L170.524 554.511L117.414 522.181L114.447 527.056ZM112.376 505.551L113.079 524.723L118.782 524.514L118.078 505.342L112.376 505.551ZM60.7279 548.339L58.8255 612.135L64.5294 612.305L66.4318 548.509L60.7279 548.339ZM45.3563 541.784L62.2193 550.932L64.9404 545.916L48.0774 536.768L45.3563 541.784ZM-6.79232 571.07L48.0603 541.793L45.3734 536.759L-9.47927 566.036L-6.79232 571.07ZM62.1257 609.402C24.3639 603.395 1.09526 578.502 -5.68294 567.095L-10.5886 570.01C-3.12137 582.577 21.4789 608.714 61.2292 615.037L62.1257 609.402ZM-14.3496 554.501L40.7172 522.234L37.8322 517.311L-17.2345 549.578L-14.3496 554.501ZM-18.4038 468.39C-25.0864 481.391 -34.1693 516.116 -18.4177 553.156L-13.1664 550.923C-28.13 515.736 -19.3945 482.8 -13.3286 470.999L-18.4038 468.39ZM39.4902 498.151L-14.4468 467.22L-17.2856 472.17L36.6515 503.101L39.4902 498.151ZM42.1223 519.593L40.9185 500.447L35.2233 500.805L36.4271 519.952L42.1223 519.593ZM92.3196 511.842C92.3196 520.592 85.2262 527.685 76.4761 527.685V533.392C88.3778 533.392 98.0261 523.744 98.0261 511.842H92.3196ZM76.4761 495.998C85.2262 495.998 92.3196 503.092 92.3196 511.842H98.0261C98.0261 499.94 88.3778 490.292 76.4761 490.292V495.998ZM60.6326 511.842C60.6326 503.092 67.726 495.998 76.4761 495.998V490.292C64.5744 490.292 54.9261 499.94 54.9261 511.842H60.6326ZM76.4761 527.685C67.726 527.685 60.6326 520.592 60.6326 511.842H54.9261C54.9261 523.744 64.5744 533.392 76.4761 533.392V527.685Z" fill="#00AFFE"/>
<path d="M196.61 118.579L110.873 106.756L23.4264 174.923" stroke="white" stroke-width="8"/>
<path d="M-27.4991 159.816L-2.92541 140.661L-112.854 -0.361389L-26.293 -67.8374" stroke="white" stroke-width="8"/>
<path d="M119.649 117.557L-60.3445 -113.347L-196.053 -7.55984L-86.9871 132.355L-112.225 152.029L-25.5543 162.767L64.0111 277.666M64.0111 277.666L248.203 134.085L117.911 -33.0604L34.2939 -42.6206L-56.1344 -158.626L-241.655 -14.0099L-22.1419 267.591L64.0111 277.666Z" stroke="white" stroke-width="8"/>
<path d="M-92.0587 126.307L-5.83076 137.39L64.2339 227.272L199.5 121.83L90.0886 -18.5276L113.998 -37.1654" stroke="white" stroke-width="8"/>
<path d="M94.1011 -16.1221L8.43969 -26.9356L33.8989 -46.7815" stroke="white" stroke-width="8"/>
<circle cx="8.9015" cy="979.282" r="70.9036" transform="rotate(34.6613 8.9015 979.282)" stroke="#C1ECFF" stroke-width="18.9076"/>
<rect x="84" y="-98" width="1462" height="1112" fill="#00AFFE"/>
<rect x="86" y="-2748" width="1323" height="14743" fill="white"/>
<path d="M230.56 71.856H236.72L225.896 95.968H211.376L216.656 84H181.016L206.712 26.272H221.144L200.992 71.856H216.128L236.28 26.272H250.888L230.56 71.856ZM269.188 39.648L259.596 61.208L283.092 39.648H295.412L275.7 84H262.324L271.916 62.44L248.42 84H236.1L255.812 39.648H269.188ZM337.84 40C342.181 40.6453 345.642 42.3173 348.224 45.016C350.805 47.656 352.096 50.8533 352.096 54.608C352.096 56.9547 351.597 59.3013 350.6 61.648L348.312 67.192C345.73 73.2933 342.445 77.6347 338.456 80.216C334.525 82.7387 329.157 84 322.352 84H318.304L311.616 98.96H297.536L304.312 83.648C299.853 83.0027 296.304 81.3307 293.664 78.632C291.082 75.9333 289.792 72.7067 289.792 68.952C289.792 66.7227 290.32 64.376 291.376 61.912L293.664 56.72C296.362 50.5013 299.677 46.1013 303.608 43.52C307.538 40.9387 312.906 39.648 319.712 39.648H323.848L330.888 23.808H344.968L337.84 40ZM304.136 63.936C303.549 65.168 303.256 66.3707 303.256 67.544C303.256 69.0693 303.784 70.272 304.84 71.152C305.954 71.9733 307.568 72.4133 309.68 72.472L319.096 51.176H317.512C314.637 51.176 312.378 51.7333 310.736 52.848C309.093 53.9627 307.685 55.84 306.512 58.48L304.136 63.936ZM338.016 59.8C338.602 58.4507 338.896 57.1893 338.896 56.016C338.896 54.4907 338.338 53.3173 337.224 52.496C336.168 51.6747 334.613 51.2347 332.56 51.176L323.056 72.472H324.464C327.28 72.472 329.538 71.9147 331.24 70.8C333 69.6853 334.437 67.896 335.552 65.432L338.016 59.8ZM387.624 38.592C391.437 38.592 394.488 39.7653 396.776 42.112C399.064 44.4587 400.208 47.4213 400.208 51C400.208 53.5813 399.621 56.1627 398.448 58.744L393.696 69.392C391.232 74.9067 388.357 78.9253 385.072 81.448C381.786 83.912 377.768 85.144 373.016 85.144C370.61 85.144 368.44 84.8213 366.504 84.176C364.626 83.5307 363.072 82.592 361.84 81.36L354.008 98.96H339.927L366.328 39.648H376.976L376.712 42.288C380.173 39.824 383.81 38.592 387.624 38.592ZM384.808 57.776C385.336 56.72 385.6 55.7227 385.6 54.784C385.6 53.4347 385.13 52.3787 384.192 51.616C383.312 50.8533 382.109 50.472 380.584 50.472C378.589 50.472 376.624 51.1467 374.688 52.496L366.768 70.272C367.237 71.152 367.97 71.856 368.968 72.384C370.024 72.912 371.256 73.176 372.664 73.176C374.717 73.176 376.301 72.648 377.416 71.592C378.589 70.536 379.645 69.0107 380.584 67.016L384.808 57.776ZM437.278 72.032C435.459 76.3147 432.936 79.3947 429.71 81.272C426.483 83.0907 422.054 84 416.422 84H392.925L412.726 39.648H426.806L421.174 52.32H424.782C429.24 52.32 432.76 53.4053 435.342 55.576C437.923 57.7467 439.214 60.6213 439.214 64.2C439.214 66.3707 438.686 68.7467 437.63 71.328L437.278 72.032ZM468.518 39.648L448.718 84H434.726L454.526 39.648H468.518ZM424.958 68.6C425.31 67.6027 425.486 66.752 425.486 66.048C425.486 64.992 425.134 64.2 424.43 63.672C423.726 63.0853 422.699 62.792 421.35 62.792H416.51L411.67 73.528H418.358C419.766 73.528 421.027 73.1467 422.142 72.384C423.315 71.6213 424.166 70.5947 424.694 69.304L424.958 68.6ZM469.222 85.144C466.934 85.144 465.086 84.4987 463.678 83.208C462.329 81.8587 461.654 80.128 461.654 78.016C461.654 77.1947 461.713 76.5787 461.83 76.168C462.3 73.9973 463.326 72.2667 464.91 70.976C466.553 69.6853 468.46 69.04 470.63 69.04C472.918 69.04 474.737 69.6853 476.086 70.976C477.494 72.2667 478.198 73.9093 478.198 75.904C478.198 78.6027 477.318 80.832 475.558 82.592C473.857 84.2933 471.745 85.144 469.222 85.144ZM481.718 57.072C479.43 57.072 477.582 56.4267 476.174 55.136C474.825 53.7867 474.15 52.056 474.15 49.944C474.15 49.1227 474.209 48.5067 474.326 48.096C474.796 45.9253 475.822 44.1947 477.406 42.904C479.049 41.6133 480.956 40.968 483.126 40.968C485.414 40.968 487.233 41.6133 488.582 42.904C489.99 44.1947 490.694 45.8373 490.694 47.832C490.694 50.5307 489.814 52.76 488.054 54.52C486.353 56.2213 484.241 57.072 481.718 57.072Z" fill="white"/>
</g>
</g>
<defs>
<clipPath id="clip0_190_21211">
<rect width="1440" height="914" fill="white"/>
</clipPath>
<clipPath id="clip1_190_21211">
<rect width="1440" height="15069" fill="white" transform="translate(0 -2941)"/>
</clipPath>
</defs>
</svg>
