<svg width="208" height="414" viewBox="0 0 208 414" fill="none" xmlns="http://www.w3.org/2000/svg">
<path fill-rule="evenodd" clip-rule="evenodd" d="M208 0.00475588C207.528 0.00158697 207.056 0 206.583 0C203.129 0 199.695 0.0847687 196.283 0.252339L196.45 3.65346L196.617 7.05458C199.918 6.89247 203.241 6.81044 206.583 6.81044C207.056 6.81044 207.528 6.81208 208 6.81535V0.00475588ZM208 406.351C207.528 406.355 207.056 406.356 206.583 406.356C203.241 406.356 199.918 406.274 196.617 406.112L196.45 409.513L196.283 412.914C199.695 413.082 203.129 413.167 206.583 413.167C207.056 413.167 207.528 413.165 208 413.162V406.351ZM181.299 4.9628L180.879 1.58351C174.007 2.43644 167.239 3.62691 160.593 5.13782L161.348 8.45831L162.103 11.7788C168.528 10.318 175.072 9.16692 181.718 8.3421L181.299 4.9628ZM146.676 12.3803L145.673 9.12607C139.075 11.1591 132.618 13.5138 126.32 16.1718L127.644 19.309L128.968 22.4463C135.057 19.8765 141.3 17.6 147.679 15.6346L146.676 12.3803ZM113.873 25.7411L112.318 22.7121C106.191 25.8594 100.242 29.3038 94.4903 33.0264L96.3404 35.8851L98.1906 38.7439C103.753 35.1439 109.506 31.8131 115.429 28.77L113.873 25.7411ZM83.9007 44.6113L81.8426 41.8984C76.3652 46.0537 71.1016 50.476 66.0709 55.1458L68.3877 57.6415L70.7044 60.1372C75.5702 55.6203 80.6612 51.3431 85.9588 47.3242L83.9007 44.6113ZM57.6415 68.3877L55.1458 66.071C50.4759 71.1016 46.0537 76.3653 41.8984 81.8426L44.6113 83.9007L47.3242 85.9588C51.3431 80.6613 55.6203 75.5702 60.1372 70.7044L57.6415 68.3877ZM35.8851 96.3404L33.0264 94.4903C29.3038 100.242 25.8593 106.191 22.7121 112.318L25.7411 113.874L28.77 115.43C31.8131 109.506 35.1439 103.753 38.7439 98.1906L35.8851 96.3404ZM19.309 127.644L16.1718 126.32C13.5138 132.618 11.1591 139.075 9.12606 145.673L12.3803 146.676L15.6346 147.679C17.6 141.3 19.8765 135.057 22.4463 128.968L19.309 127.644ZM8.45831 161.348L5.13782 160.593C3.62691 167.239 2.43644 174.007 1.58351 180.879L4.9628 181.299L8.34209 181.718C9.16692 175.072 10.318 168.528 11.7788 162.103L8.45831 161.348ZM0 206.583C0 203.129 0.0847684 199.695 0.252338 196.283L3.65346 196.45L7.05458 196.617C6.89247 199.918 6.81044 203.241 6.81044 206.583C6.81044 209.926 6.89247 213.249 7.05458 216.55L3.65346 216.717L0.252339 216.884C0.0847687 213.472 0 210.037 0 206.583ZM4.9628 231.868L1.58351 232.288C2.43644 239.16 3.62691 245.927 5.13782 252.573L8.45831 251.818L11.7788 251.064C10.318 244.638 9.16692 238.095 8.3421 231.449L4.9628 231.868ZM12.3803 266.49L9.12607 267.493C11.1591 274.091 13.5138 280.549 16.1718 286.847L19.309 285.523L22.4463 284.199C19.8765 278.11 17.6 271.867 15.6346 265.488L12.3803 266.49ZM25.7411 299.293L22.7121 300.849C25.8594 306.976 29.3038 312.924 33.0264 318.676L35.8851 316.826L38.7439 314.976C35.1439 309.414 31.8131 303.661 28.77 297.737L25.7411 299.293ZM44.6113 329.266L41.8984 331.324C46.0537 336.801 50.476 342.065 55.1458 347.096L57.6415 344.779L60.1372 342.462C55.6203 337.596 51.3431 332.505 47.3242 327.208L44.6113 329.266ZM68.3877 355.525L66.071 358.021C71.1016 362.691 76.3653 367.113 81.8426 371.268L83.9007 368.555L85.9588 365.842C80.6613 361.824 75.5702 357.546 70.7044 353.029L68.3877 355.525ZM96.3404 377.281L94.4903 380.14C100.242 383.863 106.191 387.307 112.318 390.454L113.874 387.426L115.43 384.397C109.506 381.354 103.753 378.023 98.1906 374.423L96.3404 377.281ZM127.644 393.858L126.32 396.995C132.618 399.653 139.075 402.008 145.673 404.041L146.676 400.786L147.679 397.532C141.3 395.567 135.057 393.29 128.968 390.72L127.644 393.858ZM180.879 411.583C174.007 410.73 167.239 409.54 160.593 408.029L161.348 404.708L162.103 401.388C168.528 402.849 175.072 404 181.718 404.825L181.299 408.204L180.879 411.583Z" fill="#00AFFE"/>
</svg>
