<svg width="167" height="66" viewBox="0 0 167 66" fill="none" xmlns="http://www.w3.org/2000/svg">
<path d="M22.2483 26.6094H77.7299V36.6433H22.2483L1 31.9214L22.2483 26.6094Z" fill="#00AFFE" stroke="#00AFFE" stroke-width="2.36092"/>
<path d="M97.6794 20.1924C95.7906 5.08255 86.2683 2.48554 81.7432 3.07577C76.549 4.96448 75.2506 21.5697 75.2506 29.6362C74.8571 39.0798 75.9589 58.7935 83.5138 62.0988C91.0688 65.4041 96.1054 54.4258 97.6794 48.5235C98.4663 45.3756 99.5681 35.3023 97.6794 20.1924Z" fill="#ED1B24" stroke="#ED1B24" stroke-width="5.9023"/>
<path d="M163.757 24.2481C162.38 17.1653 159.508 4.29827 156.674 4.77046C154.091 5.20111 152.094 14.5714 151.97 18.9356C150.981 28.5761 150.536 49.1554 156.674 54.3495C162.813 59.5435 164.151 35.2657 163.757 24.2481Z" fill="#ED1B24"/>
<path d="M151.953 20.1162C151.953 19.7528 151.958 19.3565 151.97 18.9356M151.97 18.9356C152.094 14.5714 154.091 5.20111 156.674 4.77046C159.508 4.29827 162.38 17.1653 163.757 24.2481C164.151 35.2657 162.813 59.5435 156.674 54.3495C150.536 49.1554 150.981 28.5761 151.97 18.9356Z" stroke="#ED1B24" stroke-width="5.9023"/>
<rect x="98.7905" y="18.3457" width="60.2035" height="25.9701" fill="#ED1B24"/>
</svg>
