<svg width="156" height="162" viewBox="0 0 156 162" fill="none" xmlns="http://www.w3.org/2000/svg">
<path d="M17.2025 136.041L62.1202 89.6596L70.5082 97.783L25.5906 144.164L4.44075 158.104L17.2025 136.041Z" fill="#00AFFE" stroke="#00AFFE" stroke-width="2.7475"/>
<path d="M72.9058 67.7872C58.7452 57.1332 48.8649 62.9912 45.6948 67.2519C43.0686 73.1232 55.8989 87.6521 62.6423 94.1826C70.2184 102.157 87.5905 117.196 96.4701 113.556C105.35 109.917 100.25 96.8182 96.5898 90.7239C94.5954 87.5175 87.0664 78.4412 72.9058 67.7872Z" fill="#ED1B24" stroke="#ED1B24" stroke-width="6.86876"/>
<path d="M129.793 15.8323C122.757 11.2494 109.676 3.23341 107.777 5.98409C106.045 8.49283 112.261 17.7483 115.81 21.3849C123.068 30.017 139.912 47.0495 149.223 46.123C158.535 45.1965 139.322 24.4231 129.793 15.8323Z" fill="#ED1B24"/>
<path d="M116.782 22.3552C116.479 22.061 116.152 21.7356 115.81 21.3849M115.81 21.3849C112.261 17.7483 106.045 8.49283 107.777 5.98409C109.676 3.23341 122.757 11.2494 129.793 15.8323C139.322 24.4231 158.535 45.1965 149.223 46.123C139.912 47.0495 123.068 30.017 115.81 21.3849Z" stroke="#ED1B24" stroke-width="6.86876"/>
<rect x="72.2622" y="65.3633" width="70.0613" height="30.2225" transform="rotate(-45.9184 72.2622 65.3633)" fill="#ED1B24"/>
</svg>
