<svg width="104" height="83" viewBox="0 0 104 83" fill="none" xmlns="http://www.w3.org/2000/svg">
<path d="M19.3396 56.7506L48.0026 39.3489L51.1497 44.5327L22.4867 61.9343L10.0284 66.1594L19.3396 56.7506Z" fill="#00AFFE" stroke="#00AFFE" stroke-width="2.36092"/>
<path d="M56.2959 29.7768C50.581 22.5631 44.847 24.2081 42.6943 25.9323C40.6033 28.5372 45.1407 37.523 47.6707 41.6903C50.4294 46.6925 57.1818 56.5315 62.1215 55.8695C67.0612 55.2074 66.22 47.9561 65.1819 44.4132C64.6011 42.5401 62.0108 36.9905 56.2959 29.7768Z" fill="#ED1B24" stroke="#ED1B24" stroke-width="5.9023"/>
<path d="M91.7048 11.1467C88.7718 7.91957 83.2522 2.17305 81.9367 3.30559C80.7369 4.33851 82.6442 9.80572 83.9491 12.0991C86.4616 17.3899 92.6867 28.1611 97.487 28.9191C102.287 29.6772 95.3637 16.7152 91.7048 11.1467Z" fill="#ED1B24"/>
<path d="M84.3104 12.7145C84.1964 12.5268 84.075 12.3203 83.9491 12.0991M83.9491 12.0991C82.6442 9.80572 80.7369 4.33851 81.9367 3.30559C83.2522 2.17305 88.7718 7.91957 91.7048 11.1467C95.3637 16.7152 102.287 29.6772 97.487 28.9191C92.6867 28.1611 86.4616 17.3899 83.9491 12.0991Z" stroke="#ED1B24" stroke-width="5.9023"/>
<rect x="56.2913" y="28.4746" width="36.3856" height="15.6957" transform="rotate(-31.2625 56.2913 28.4746)" fill="#ED1B24"/>
</svg>
