<svg width="107" height="111" viewBox="0 0 107 111" fill="none" xmlns="http://www.w3.org/2000/svg">
<path d="M12.1542 92.9955L42.8092 61.3417L48.5338 66.8857L17.8789 98.5394L3.44474 108.053L12.1542 92.9955Z" fill="#00AFFE" stroke="#00AFFE" stroke-width="1.87509"/>
<path d="M50.1702 46.4156C40.506 39.1446 33.763 43.1425 31.5995 46.0503C29.8072 50.0573 38.5635 59.9728 43.1656 64.4297C48.3361 69.8721 60.192 80.1358 66.2521 77.6517C72.3121 75.1677 68.8316 66.2284 66.3338 62.0692C64.9727 59.881 59.8343 53.6866 50.1702 46.4156Z" fill="#ED1B24" stroke="#ED1B24" stroke-width="4.68771"/>
<path d="M88.9942 10.9575C84.1924 7.82983 75.2644 2.35916 73.9685 4.23641C72.7865 5.94855 77.0291 12.2651 79.4507 14.747C84.4041 20.6381 95.8996 32.2623 102.255 31.63C108.61 30.9977 95.4975 16.8205 88.9942 10.9575Z" fill="#ED1B24"/>
<path d="M80.1147 15.4092C79.9073 15.2084 79.6843 14.9864 79.4507 14.747M79.4507 14.747C77.0291 12.2651 72.7865 5.94855 73.9685 4.23641C75.2644 2.35916 84.1924 7.82983 88.9942 10.9575C95.4975 16.8205 108.61 30.9977 102.255 31.63C95.8996 32.2623 84.4041 20.6381 79.4507 14.747Z" stroke="#ED1B24" stroke-width="4.68771"/>
<rect x="49.7302" y="44.7607" width="47.8147" height="20.6259" transform="rotate(-45.9184 49.7302 44.7607)" fill="#ED1B24"/>
</svg>
