<svg width="53" height="46" viewBox="0 0 53 46" fill="none" xmlns="http://www.w3.org/2000/svg">
<path fill-rule="evenodd" clip-rule="evenodd" d="M52.13 35.3011C51.2329 36.0034 50.2663 36.5964 49.23 37.08C47.49 37.86 45.66 38.25 43.74 38.25C41.16 38.25 39.18 37.59 37.8 36.27C36.42 34.95 35.73 33.09 35.73 30.69C35.73 29.49 35.85 28.38 36.09 27.36L42.21 0H33.93L28.26 26.91C27.84 28.77 27.63 30.6 27.63 32.4C26.19 34.26 24.45 35.7 22.41 36.72C20.43 37.74 18.36 38.25 16.2 38.25C13.62 38.25 11.64 37.59 10.26 36.27C8.88 34.95 8.19 33.09 8.19 30.69C8.19 29.49 8.31 28.38 8.55 27.36L14.58 0H6.3L0.54 27.27C0.18 28.89 0 30.45 0 31.95C0 36.15 1.32 39.51 3.96 42.03C6.6 44.49 10.26 45.72 14.94 45.72C20.94 45.72 25.8 43.71 29.52 39.69C30.66 41.61 32.25 43.11 34.29 44.19C36.33 45.21 38.73 45.72 41.49 45.72C45.4545 45.72 49.0012 44.5648 52.13 42.2545V35.3011Z" fill="white"/>
</svg>
