<svg width="202" height="822" viewBox="0 0 202 822" fill="none" xmlns="http://www.w3.org/2000/svg">
<rect x="2.5" y="2.5" width="66.3608" height="66.3608" stroke="#C1ECFF" stroke-width="5"/>
<rect x="2.5" y="70.7803" width="66.3608" height="66.3608" stroke="#C1ECFF" stroke-width="5"/>
<rect x="2.5" y="138.547" width="66.3608" height="66.3608" stroke="#C1ECFF" stroke-width="5"/>
<rect x="2.5" y="206.315" width="66.3608" height="66.3608" stroke="#C1ECFF" stroke-width="5"/>
<rect x="70.2677" y="2.5" width="66.3608" height="66.3608" stroke="#C1ECFF" stroke-width="5"/>
<rect x="70.2677" y="70.7803" width="66.3608" height="66.3608" stroke="#C1ECFF" stroke-width="5"/>
<rect x="70.2677" y="138.547" width="66.3608" height="66.3608" stroke="#C1ECFF" stroke-width="5"/>
<rect x="70.2677" y="206.315" width="66.3608" height="66.3608" stroke="#C1ECFF" stroke-width="5"/>
<rect x="132.835" y="2.5" width="66.3608" height="66.3608" stroke="#C1ECFF" stroke-width="5"/>
<rect x="132.835" y="70.7803" width="66.3608" height="66.3608" stroke="#C1ECFF" stroke-width="5"/>
<rect x="132.835" y="138.547" width="66.3608" height="66.3608" stroke="#C1ECFF" stroke-width="5"/>
<rect x="132.835" y="206.315" width="66.3608" height="66.3608" stroke="#C1ECFF" stroke-width="5"/>
<rect x="2.5" y="275.5" width="66.3608" height="66.3608" stroke="#C1ECFF" stroke-width="5"/>
<rect x="2.5" y="343.78" width="66.3608" height="66.3608" stroke="#C1ECFF" stroke-width="5"/>
<rect x="2.5" y="411.547" width="66.3608" height="66.3608" stroke="#C1ECFF" stroke-width="5"/>
<rect x="2.5" y="479.315" width="66.3608" height="66.3608" stroke="#C1ECFF" stroke-width="5"/>
<rect x="70.2677" y="275.5" width="66.3608" height="66.3608" stroke="#C1ECFF" stroke-width="5"/>
<rect x="70.2677" y="343.78" width="66.3608" height="66.3608" stroke="#C1ECFF" stroke-width="5"/>
<rect x="70.2677" y="411.547" width="66.3608" height="66.3608" stroke="#C1ECFF" stroke-width="5"/>
<rect x="70.2677" y="479.315" width="66.3608" height="66.3608" stroke="#C1ECFF" stroke-width="5"/>
<rect x="132.835" y="275.5" width="66.3608" height="66.3608" stroke="#C1ECFF" stroke-width="5"/>
<rect x="132.835" y="343.78" width="66.3608" height="66.3608" stroke="#C1ECFF" stroke-width="5"/>
<rect x="132.835" y="411.547" width="66.3608" height="66.3608" stroke="#C1ECFF" stroke-width="5"/>
<rect x="132.835" y="479.315" width="66.3608" height="66.3608" stroke="#C1ECFF" stroke-width="5"/>
<rect x="2.5" y="548.5" width="66.3608" height="66.3608" stroke="#C1ECFF" stroke-width="5"/>
<rect x="2.5" y="616.78" width="66.3608" height="66.3608" stroke="#C1ECFF" stroke-width="5"/>
<rect x="2.5" y="684.547" width="66.3608" height="66.3608" stroke="#C1ECFF" stroke-width="5"/>
<rect x="2.5" y="752.315" width="66.3608" height="66.3608" stroke="#C1ECFF" stroke-width="5"/>
<rect x="70.2677" y="548.5" width="66.3608" height="66.3608" stroke="#C1ECFF" stroke-width="5"/>
<rect x="70.2677" y="616.78" width="66.3608" height="66.3608" stroke="#C1ECFF" stroke-width="5"/>
<rect x="70.2677" y="684.547" width="66.3608" height="66.3608" stroke="#C1ECFF" stroke-width="5"/>
<rect x="70.2677" y="752.315" width="66.3608" height="66.3608" stroke="#C1ECFF" stroke-width="5"/>
<rect x="132.835" y="548.5" width="66.3608" height="66.3608" stroke="#C1ECFF" stroke-width="5"/>
<rect x="132.835" y="616.78" width="66.3608" height="66.3608" stroke="#C1ECFF" stroke-width="5"/>
<rect x="132.835" y="684.547" width="66.3608" height="66.3608" stroke="#C1ECFF" stroke-width="5"/>
<rect x="132.835" y="752.315" width="66.3608" height="66.3608" stroke="#C1ECFF" stroke-width="5"/>
</svg>
