<svg width="265" height="817" viewBox="0 0 265 817" fill="none" xmlns="http://www.w3.org/2000/svg">
<rect x="2.5" y="2.5" width="260" height="270" stroke="#C1ECFF" stroke-width="5"/>
<rect x="2.5" y="2.5" width="66.3608" height="66.3608" stroke="#C1ECFF" stroke-width="5"/>
<rect x="2.5" y="70.7803" width="66.3608" height="66.3608" stroke="#C1ECFF" stroke-width="5"/>
<rect x="2.5" y="138.548" width="66.3608" height="66.3608" stroke="#C1ECFF" stroke-width="5"/>
<rect x="2.5" y="206.314" width="66.3608" height="66.3608" stroke="#C1ECFF" stroke-width="5"/>
<rect x="70.2676" y="2.5" width="66.3608" height="66.3608" stroke="#C1ECFF" stroke-width="5"/>
<rect x="70.2676" y="70.7803" width="66.3608" height="66.3608" stroke="#C1ECFF" stroke-width="5"/>
<rect x="70.2676" y="138.548" width="66.3608" height="66.3608" stroke="#C1ECFF" stroke-width="5"/>
<rect x="70.2676" y="206.314" width="66.3608" height="66.3608" stroke="#C1ECFF" stroke-width="5"/>
<rect x="132.835" y="2.5" width="66.3608" height="66.3608" stroke="#C1ECFF" stroke-width="5"/>
<rect x="132.835" y="70.7803" width="66.3608" height="66.3608" stroke="#C1ECFF" stroke-width="5"/>
<rect x="132.835" y="138.548" width="66.3608" height="66.3608" stroke="#C1ECFF" stroke-width="5"/>
<rect x="132.835" y="206.314" width="66.3608" height="66.3608" stroke="#C1ECFF" stroke-width="5"/>
<rect x="195.841" y="2.5" width="66.3608" height="66.3608" stroke="#C1ECFF" stroke-width="5"/>
<rect x="195.841" y="70.7803" width="66.3608" height="66.3608" stroke="#C1ECFF" stroke-width="5"/>
<rect x="195.841" y="138.548" width="66.3608" height="66.3608" stroke="#C1ECFF" stroke-width="5"/>
<rect x="195.841" y="206.314" width="66.3608" height="66.3608" stroke="#C1ECFF" stroke-width="5"/>
<rect x="2.5" y="272.5" width="260" height="270" stroke="#C1ECFF" stroke-width="5"/>
<rect x="2.5" y="272.5" width="66.3608" height="66.3608" stroke="#C1ECFF" stroke-width="5"/>
<rect x="2.5" y="340.78" width="66.3608" height="66.3608" stroke="#C1ECFF" stroke-width="5"/>
<rect x="2.5" y="408.548" width="66.3608" height="66.3608" stroke="#C1ECFF" stroke-width="5"/>
<rect x="2.5" y="476.314" width="66.3608" height="66.3608" stroke="#C1ECFF" stroke-width="5"/>
<rect x="70.2676" y="272.5" width="66.3608" height="66.3608" stroke="#C1ECFF" stroke-width="5"/>
<rect x="70.2676" y="340.78" width="66.3608" height="66.3608" stroke="#C1ECFF" stroke-width="5"/>
<rect x="70.2676" y="408.548" width="66.3608" height="66.3608" stroke="#C1ECFF" stroke-width="5"/>
<rect x="70.2676" y="476.314" width="66.3608" height="66.3608" stroke="#C1ECFF" stroke-width="5"/>
<rect x="132.835" y="272.5" width="66.3608" height="66.3608" stroke="#C1ECFF" stroke-width="5"/>
<rect x="132.835" y="340.78" width="66.3608" height="66.3608" stroke="#C1ECFF" stroke-width="5"/>
<rect x="132.835" y="408.548" width="66.3608" height="66.3608" stroke="#C1ECFF" stroke-width="5"/>
<rect x="132.835" y="476.314" width="66.3608" height="66.3608" stroke="#C1ECFF" stroke-width="5"/>
<rect x="195.841" y="272.5" width="66.3608" height="66.3608" stroke="#C1ECFF" stroke-width="5"/>
<rect x="195.841" y="340.78" width="66.3608" height="66.3608" stroke="#C1ECFF" stroke-width="5"/>
<rect x="195.841" y="408.548" width="66.3608" height="66.3608" stroke="#C1ECFF" stroke-width="5"/>
<rect x="195.841" y="476.314" width="66.3608" height="66.3608" stroke="#C1ECFF" stroke-width="5"/>
<rect x="2.5" y="543.5" width="260" height="270" stroke="#C1ECFF" stroke-width="5"/>
<rect x="2.5" y="543.5" width="66.3608" height="66.3608" stroke="#C1ECFF" stroke-width="5"/>
<rect x="2.5" y="611.78" width="66.3608" height="66.3608" stroke="#C1ECFF" stroke-width="5"/>
<rect x="2.5" y="679.548" width="66.3608" height="66.3608" stroke="#C1ECFF" stroke-width="5"/>
<rect x="2.5" y="747.314" width="66.3608" height="66.3608" stroke="#C1ECFF" stroke-width="5"/>
<rect x="70.2676" y="543.5" width="66.3608" height="66.3608" stroke="#C1ECFF" stroke-width="5"/>
<rect x="70.2676" y="611.78" width="66.3608" height="66.3608" stroke="#C1ECFF" stroke-width="5"/>
<rect x="70.2676" y="679.548" width="66.3608" height="66.3608" stroke="#C1ECFF" stroke-width="5"/>
<rect x="70.2676" y="747.314" width="66.3608" height="66.3608" stroke="#C1ECFF" stroke-width="5"/>
<rect x="132.835" y="543.5" width="66.3608" height="66.3608" stroke="#C1ECFF" stroke-width="5"/>
<rect x="132.835" y="611.78" width="66.3608" height="66.3608" stroke="#C1ECFF" stroke-width="5"/>
<rect x="132.835" y="679.548" width="66.3608" height="66.3608" stroke="#C1ECFF" stroke-width="5"/>
<rect x="132.835" y="747.314" width="66.3608" height="66.3608" stroke="#C1ECFF" stroke-width="5"/>
<rect x="195.841" y="543.5" width="66.3608" height="66.3608" stroke="#C1ECFF" stroke-width="5"/>
<rect x="195.841" y="611.78" width="66.3608" height="66.3608" stroke="#C1ECFF" stroke-width="5"/>
<rect x="195.841" y="679.548" width="66.3608" height="66.3608" stroke="#C1ECFF" stroke-width="5"/>
<rect x="195.841" y="747.314" width="66.3608" height="66.3608" stroke="#C1ECFF" stroke-width="5"/>
</svg>
