<svg width="1316" height="276" viewBox="0 0 1316 276" fill="none" xmlns="http://www.w3.org/2000/svg">
<rect x="2.5" y="2.5" width="260" height="270" stroke="#C1ECFF" stroke-width="5"/>
<rect x="2.5" y="2.5" width="66.3608" height="66.3608" stroke="#C1ECFF" stroke-width="5"/>
<rect x="2.5" y="70.7803" width="66.3608" height="66.3608" stroke="#C1ECFF" stroke-width="5"/>
<rect x="2.5" y="138.548" width="66.3608" height="66.3608" stroke="#C1ECFF" stroke-width="5"/>
<rect x="2.5" y="206.314" width="66.3608" height="66.3608" stroke="#C1ECFF" stroke-width="5"/>
<rect x="70.2676" y="2.5" width="66.3608" height="66.3608" stroke="#C1ECFF" stroke-width="5"/>
<rect x="70.2676" y="70.7803" width="66.3608" height="66.3608" stroke="#C1ECFF" stroke-width="5"/>
<rect x="70.2676" y="138.548" width="66.3608" height="66.3608" stroke="#C1ECFF" stroke-width="5"/>
<rect x="70.2676" y="206.314" width="66.3608" height="66.3608" stroke="#C1ECFF" stroke-width="5"/>
<rect x="132.835" y="2.5" width="66.3608" height="66.3608" stroke="#C1ECFF" stroke-width="5"/>
<rect x="132.835" y="70.7803" width="66.3608" height="66.3608" stroke="#C1ECFF" stroke-width="5"/>
<rect x="132.835" y="138.548" width="66.3608" height="66.3608" stroke="#C1ECFF" stroke-width="5"/>
<rect x="132.835" y="206.314" width="66.3608" height="66.3608" stroke="#C1ECFF" stroke-width="5"/>
<rect x="195.841" y="2.5" width="66.3608" height="66.3608" stroke="#C1ECFF" stroke-width="5"/>
<rect x="195.841" y="70.7803" width="66.3608" height="66.3608" stroke="#C1ECFF" stroke-width="5"/>
<rect x="195.841" y="138.548" width="66.3608" height="66.3608" stroke="#C1ECFF" stroke-width="5"/>
<rect x="195.841" y="206.314" width="66.3608" height="66.3608" stroke="#C1ECFF" stroke-width="5"/>
<rect x="265.5" y="2.5" width="260" height="270" stroke="#C1ECFF" stroke-width="5"/>
<rect x="265.5" y="2.5" width="66.3608" height="66.3608" stroke="#C1ECFF" stroke-width="5"/>
<rect x="265.5" y="70.7803" width="66.3608" height="66.3608" stroke="#C1ECFF" stroke-width="5"/>
<rect x="265.5" y="138.548" width="66.3608" height="66.3608" stroke="#C1ECFF" stroke-width="5"/>
<rect x="265.5" y="206.314" width="66.3608" height="66.3608" stroke="#C1ECFF" stroke-width="5"/>
<rect x="333.268" y="2.5" width="66.3608" height="66.3608" stroke="#C1ECFF" stroke-width="5"/>
<rect x="333.268" y="70.7803" width="66.3608" height="66.3608" stroke="#C1ECFF" stroke-width="5"/>
<rect x="333.268" y="138.548" width="66.3608" height="66.3608" stroke="#C1ECFF" stroke-width="5"/>
<rect x="333.268" y="206.314" width="66.3608" height="66.3608" stroke="#C1ECFF" stroke-width="5"/>
<rect x="395.835" y="2.5" width="66.3608" height="66.3608" stroke="#C1ECFF" stroke-width="5"/>
<rect x="395.835" y="70.7803" width="66.3608" height="66.3608" stroke="#C1ECFF" stroke-width="5"/>
<rect x="395.835" y="138.548" width="66.3608" height="66.3608" stroke="#C1ECFF" stroke-width="5"/>
<rect x="395.835" y="206.314" width="66.3608" height="66.3608" stroke="#C1ECFF" stroke-width="5"/>
<rect x="458.841" y="2.5" width="66.3608" height="66.3608" stroke="#C1ECFF" stroke-width="5"/>
<rect x="458.841" y="70.7803" width="66.3608" height="66.3608" stroke="#C1ECFF" stroke-width="5"/>
<rect x="458.841" y="138.548" width="66.3608" height="66.3608" stroke="#C1ECFF" stroke-width="5"/>
<rect x="458.841" y="206.314" width="66.3608" height="66.3608" stroke="#C1ECFF" stroke-width="5"/>
<rect x="528.5" y="2.5" width="260" height="270" stroke="#C1ECFF" stroke-width="5"/>
<rect x="528.5" y="2.5" width="66.3608" height="66.3608" stroke="#C1ECFF" stroke-width="5"/>
<rect x="528.5" y="70.7803" width="66.3608" height="66.3608" stroke="#C1ECFF" stroke-width="5"/>
<rect x="528.5" y="138.548" width="66.3608" height="66.3608" stroke="#C1ECFF" stroke-width="5"/>
<rect x="528.5" y="206.314" width="66.3608" height="66.3608" stroke="#C1ECFF" stroke-width="5"/>
<rect x="596.268" y="2.5" width="66.3608" height="66.3608" stroke="#C1ECFF" stroke-width="5"/>
<rect x="596.268" y="70.7803" width="66.3608" height="66.3608" stroke="#C1ECFF" stroke-width="5"/>
<rect x="596.268" y="138.548" width="66.3608" height="66.3608" stroke="#C1ECFF" stroke-width="5"/>
<rect x="596.268" y="206.314" width="66.3608" height="66.3608" stroke="#C1ECFF" stroke-width="5"/>
<rect x="658.835" y="2.5" width="66.3608" height="66.3608" stroke="#C1ECFF" stroke-width="5"/>
<rect x="658.835" y="70.7803" width="66.3608" height="66.3608" stroke="#C1ECFF" stroke-width="5"/>
<rect x="658.835" y="138.548" width="66.3608" height="66.3608" stroke="#C1ECFF" stroke-width="5"/>
<rect x="658.835" y="206.314" width="66.3608" height="66.3608" stroke="#C1ECFF" stroke-width="5"/>
<rect x="721.841" y="2.5" width="66.3608" height="66.3608" stroke="#C1ECFF" stroke-width="5"/>
<rect x="721.841" y="70.7803" width="66.3608" height="66.3608" stroke="#C1ECFF" stroke-width="5"/>
<rect x="721.841" y="138.548" width="66.3608" height="66.3608" stroke="#C1ECFF" stroke-width="5"/>
<rect x="721.841" y="206.314" width="66.3608" height="66.3608" stroke="#C1ECFF" stroke-width="5"/>
<rect x="791.5" y="2.5" width="260" height="270" stroke="#C1ECFF" stroke-width="5"/>
<rect x="791.5" y="2.5" width="66.3608" height="66.3608" stroke="#C1ECFF" stroke-width="5"/>
<rect x="791.5" y="70.7803" width="66.3608" height="66.3608" stroke="#C1ECFF" stroke-width="5"/>
<rect x="791.5" y="138.548" width="66.3608" height="66.3608" stroke="#C1ECFF" stroke-width="5"/>
<rect x="791.5" y="206.314" width="66.3608" height="66.3608" stroke="#C1ECFF" stroke-width="5"/>
<rect x="859.268" y="2.5" width="66.3608" height="66.3608" stroke="#C1ECFF" stroke-width="5"/>
<rect x="859.268" y="70.7803" width="66.3608" height="66.3608" stroke="#C1ECFF" stroke-width="5"/>
<rect x="859.268" y="138.548" width="66.3608" height="66.3608" stroke="#C1ECFF" stroke-width="5"/>
<rect x="859.268" y="206.314" width="66.3608" height="66.3608" stroke="#C1ECFF" stroke-width="5"/>
<rect x="921.835" y="2.5" width="66.3608" height="66.3608" stroke="#C1ECFF" stroke-width="5"/>
<rect x="921.835" y="70.7803" width="66.3608" height="66.3608" stroke="#C1ECFF" stroke-width="5"/>
<rect x="921.835" y="138.548" width="66.3608" height="66.3608" stroke="#C1ECFF" stroke-width="5"/>
<rect x="921.835" y="206.314" width="66.3608" height="66.3608" stroke="#C1ECFF" stroke-width="5"/>
<rect x="984.841" y="2.5" width="66.3608" height="66.3608" stroke="#C1ECFF" stroke-width="5"/>
<rect x="984.841" y="70.7803" width="66.3608" height="66.3608" stroke="#C1ECFF" stroke-width="5"/>
<rect x="984.841" y="138.548" width="66.3608" height="66.3608" stroke="#C1ECFF" stroke-width="5"/>
<rect x="984.841" y="206.314" width="66.3608" height="66.3608" stroke="#C1ECFF" stroke-width="5"/>
<rect x="1053.5" y="2.5" width="260" height="270" stroke="#C1ECFF" stroke-width="5"/>
<rect x="1053.5" y="2.5" width="66.3608" height="66.3608" stroke="#C1ECFF" stroke-width="5"/>
<rect x="1053.5" y="70.7803" width="66.3608" height="66.3608" stroke="#C1ECFF" stroke-width="5"/>
<rect x="1053.5" y="138.548" width="66.3608" height="66.3608" stroke="#C1ECFF" stroke-width="5"/>
<rect x="1053.5" y="206.314" width="66.3608" height="66.3608" stroke="#C1ECFF" stroke-width="5"/>
<rect x="1121.27" y="2.5" width="66.3608" height="66.3608" stroke="#C1ECFF" stroke-width="5"/>
<rect x="1121.27" y="70.7803" width="66.3608" height="66.3608" stroke="#C1ECFF" stroke-width="5"/>
<rect x="1121.27" y="138.548" width="66.3608" height="66.3608" stroke="#C1ECFF" stroke-width="5"/>
<rect x="1121.27" y="206.314" width="66.3608" height="66.3608" stroke="#C1ECFF" stroke-width="5"/>
<rect x="1183.84" y="2.5" width="66.3608" height="66.3608" stroke="#C1ECFF" stroke-width="5"/>
<rect x="1183.84" y="70.7803" width="66.3608" height="66.3608" stroke="#C1ECFF" stroke-width="5"/>
<rect x="1183.84" y="138.548" width="66.3608" height="66.3608" stroke="#C1ECFF" stroke-width="5"/>
<rect x="1183.84" y="206.314" width="66.3608" height="66.3608" stroke="#C1ECFF" stroke-width="5"/>
<rect x="1246.84" y="2.5" width="66.3608" height="66.3608" stroke="#C1ECFF" stroke-width="5"/>
<rect x="1246.84" y="70.7803" width="66.3608" height="66.3608" stroke="#C1ECFF" stroke-width="5"/>
<rect x="1246.84" y="138.548" width="66.3608" height="66.3608" stroke="#C1ECFF" stroke-width="5"/>
<rect x="1246.84" y="206.314" width="66.3608" height="66.3608" stroke="#C1ECFF" stroke-width="5"/>
</svg>
