<svg width="760" height="881" viewBox="0 0 760 881" fill="none" xmlns="http://www.w3.org/2000/svg">
<circle cx="316.162" cy="440.28" r="331.634" transform="rotate(-180 316.162 440.28)" stroke="#00AFFE" stroke-width="4.40802"/>
<circle cx="316" cy="440.118" r="364.796" transform="rotate(-180 316 440.118)" stroke="#00AFFE" stroke-width="4.40802"/>
<path d="M-125.818 440.059C-125.818 198.452 71.8853 2.55078 315.815 2.5508C559.745 2.55082 757.449 198.452 757.449 440.059C757.449 681.666 559.745 877.567 315.815 877.567C71.8852 877.567 -125.818 681.665 -125.818 440.059Z" stroke="#00AFFE" stroke-width="5.10241"/>
<path d="M85.5512 440.118C85.5512 314.528 188.477 212.669 315.5 212.669C442.523 212.669 545.449 314.528 545.449 440.118C545.449 565.709 442.523 667.567 315.5 667.567C188.477 667.567 85.5512 565.709 85.5512 440.118Z" stroke="#00AFFE" stroke-width="5.10241"/>
<path d="M680.031 435.276L679.909 433.644L695.447 432.482L695.569 434.115L680.031 435.276ZM656.121 437.063L655.999 435.431L671.538 434.27L671.66 435.902L656.121 437.063ZM632.211 438.851L632.089 437.218L647.628 436.057L647.75 437.689L632.211 438.851Z" fill="#00AFFE"/>
<path d="M680.031 435.276L679.081 435.347L679.152 436.297L680.102 436.226L680.031 435.276ZM679.909 433.644L679.838 432.694L678.888 432.765L678.959 433.715L679.909 433.644ZM695.447 432.482L696.397 432.411L696.326 431.462L695.376 431.533L695.447 432.482ZM695.569 434.115L695.64 435.064L696.59 434.993L696.519 434.044L695.569 434.115ZM680.98 435.205L680.858 433.573L678.959 433.715L679.081 435.347L680.98 435.205ZM679.98 434.594L695.518 433.432L695.376 431.533L679.838 432.694L679.98 434.594ZM694.498 432.553L694.62 434.186L696.519 434.044L696.397 432.411L694.498 432.553ZM695.498 433.165L679.96 434.327L680.102 436.226L695.64 435.064L695.498 433.165ZM656.121 437.063L655.171 437.134L655.242 438.084L656.192 438.013L656.121 437.063ZM655.999 435.431L655.928 434.482L654.978 434.553L655.049 435.502L655.999 435.431ZM671.538 434.27L672.487 434.199L672.416 433.249L671.467 433.32L671.538 434.27ZM671.66 435.902L671.731 436.851L672.68 436.78L672.609 435.831L671.66 435.902ZM657.07 436.992L656.948 435.36L655.049 435.502L655.171 437.134L657.07 436.992ZM656.07 436.381L671.609 435.219L671.467 433.32L655.928 434.482L656.07 436.381ZM670.588 434.341L670.71 435.973L672.609 435.831L672.487 434.199L670.588 434.341ZM671.589 434.952L656.05 436.114L656.192 438.013L671.731 436.851L671.589 434.952ZM632.211 438.851L631.262 438.922L631.332 439.871L632.282 439.8L632.211 438.851ZM632.089 437.218L632.018 436.269L631.069 436.34L631.14 437.289L632.089 437.218ZM647.628 436.057L648.577 435.986L648.506 435.036L647.557 435.107L647.628 436.057ZM647.75 437.689L647.821 438.639L648.77 438.568L648.699 437.618L647.75 437.689ZM633.161 438.78L633.039 437.148L631.14 437.289L631.262 438.922L633.161 438.78ZM632.16 438.168L647.699 437.006L647.557 435.107L632.018 436.269L632.16 438.168ZM646.678 436.128L646.8 437.76L648.699 437.618L648.577 435.986L646.678 436.128ZM647.679 436.74L632.14 437.901L632.282 439.8L647.821 438.639L647.679 436.74Z" fill="#00AFFE"/>
<path d="M661.323 318.663L660.762 317.125L675.401 311.785L675.962 313.322L661.323 318.663ZM638.799 326.881L638.238 325.343L652.876 320.003L653.437 321.54L638.799 326.881ZM616.275 335.099L615.714 333.561L630.352 328.22L630.913 329.758L616.275 335.099Z" fill="#00AFFE"/>
<path d="M661.323 318.663L660.429 318.989L660.755 319.884L661.65 319.558L661.323 318.663ZM660.762 317.125L660.436 316.231L659.541 316.557L659.868 317.452L660.762 317.125ZM675.401 311.785L676.295 311.458L675.969 310.564L675.074 310.89L675.401 311.785ZM675.962 313.322L676.288 314.217L677.182 313.89L676.856 312.996L675.962 313.322ZM662.218 318.337L661.657 316.799L659.868 317.452L660.429 318.989L662.218 318.337ZM661.089 318.02L675.727 312.679L675.074 310.89L660.436 316.231L661.089 318.02ZM674.506 312.111L675.067 313.649L676.856 312.996L676.295 311.458L674.506 312.111ZM675.635 312.428L660.997 317.769L661.65 319.558L676.288 314.217L675.635 312.428ZM638.799 326.881L637.905 327.207L638.231 328.102L639.125 327.775L638.799 326.881ZM638.238 325.343L637.912 324.449L637.017 324.775L637.344 325.67L638.238 325.343ZM652.876 320.003L653.771 319.676L653.445 318.782L652.55 319.108L652.876 320.003ZM653.437 321.54L653.764 322.435L654.658 322.108L654.332 321.214L653.437 321.54ZM639.694 326.555L639.133 325.017L637.344 325.67L637.905 327.207L639.694 326.555ZM638.564 326.238L653.203 320.897L652.55 319.108L637.912 324.449L638.564 326.238ZM651.982 320.329L652.543 321.867L654.332 321.214L653.771 319.676L651.982 320.329ZM653.111 320.646L638.473 325.986L639.125 327.775L653.764 322.435L653.111 320.646ZM616.275 335.099L615.38 335.425L615.707 336.32L616.601 335.993L616.275 335.099ZM615.714 333.561L615.388 332.667L614.493 332.993L614.819 333.888L615.714 333.561ZM630.352 328.22L631.247 327.894L630.92 327L630.026 327.326L630.352 328.22ZM630.913 329.758L631.24 330.653L632.134 330.326L631.808 329.432L630.913 329.758ZM617.169 334.772L616.608 333.235L614.819 333.888L615.38 335.425L617.169 334.772ZM616.04 334.456L630.679 329.115L630.026 327.326L615.388 332.667L616.04 334.456ZM629.458 328.547L630.019 330.084L631.808 329.432L631.247 327.894L629.458 328.547ZM630.587 328.864L615.949 334.204L616.601 335.993L631.24 330.653L630.587 328.864Z" fill="#00AFFE"/>
<path d="M592.09 204.196L591.016 202.961L602.779 192.741L603.853 193.977L592.09 204.196ZM573.99 219.921L572.916 218.685L584.679 208.466L585.753 209.701L573.99 219.921ZM555.89 235.646L554.817 234.41L566.58 224.191L567.653 225.426L555.89 235.646Z" fill="#00AFFE"/>
<path d="M592.09 204.196L591.371 204.821L591.995 205.539L592.714 204.915L592.09 204.196ZM591.016 202.961L590.392 202.242L589.673 202.866L590.297 203.585L591.016 202.961ZM602.779 192.741L603.498 192.117L602.874 191.398L602.155 192.022L602.779 192.741ZM603.853 193.977L604.477 194.695L605.196 194.071L604.571 193.352L603.853 193.977ZM592.808 203.572L591.735 202.336L590.297 203.585L591.371 204.821L592.808 203.572ZM591.641 203.679L603.404 193.46L602.155 192.022L590.392 202.242L591.641 203.679ZM602.06 193.366L603.134 194.601L604.571 193.352L603.498 192.117L602.06 193.366ZM603.228 193.258L591.465 203.477L592.714 204.915L604.477 194.695L603.228 193.258ZM573.99 219.921L573.271 220.545L573.896 221.264L574.614 220.64L573.99 219.921ZM572.916 218.685L572.292 217.967L571.573 218.591L572.198 219.31L572.916 218.685ZM584.679 208.466L585.398 207.841L584.774 207.123L584.055 207.747L584.679 208.466ZM585.753 209.701L586.377 210.42L587.096 209.796L586.472 209.077L585.753 209.701ZM574.709 219.297L573.635 218.061L572.198 219.31L573.271 220.545L574.709 219.297ZM573.541 219.404L585.304 209.185L584.055 207.747L572.292 217.967L573.541 219.404ZM583.961 209.09L585.034 210.326L586.472 209.077L585.398 207.841L583.961 209.09ZM585.128 208.983L573.365 219.202L574.614 220.64L586.377 210.42L585.128 208.983ZM555.89 235.646L555.171 236.27L555.796 236.989L556.515 236.365L555.89 235.646ZM554.817 234.41L554.192 233.691L553.473 234.316L554.098 235.035L554.817 234.41ZM566.58 224.191L567.299 223.566L566.674 222.847L565.955 223.472L566.58 224.191ZM567.653 225.426L568.278 226.145L568.996 225.521L568.372 224.802L567.653 225.426ZM556.609 235.021L555.536 233.786L554.098 235.035L555.171 236.27L556.609 235.021ZM555.441 235.129L567.204 224.909L565.955 223.472L554.192 233.691L555.441 235.129ZM565.861 224.815L566.934 226.051L568.372 224.802L567.299 223.566L565.861 224.815ZM567.029 224.708L555.266 234.927L556.515 236.365L568.278 226.145L567.029 224.708Z" fill="#00AFFE"/>
<path d="M496.603 126.273L495.211 125.413L503.396 112.154L504.789 113.014L496.603 126.273ZM484.008 146.675L482.616 145.815L490.801 132.556L492.194 133.416L484.008 146.675ZM471.413 167.077L470.021 166.217L478.206 152.958L479.599 153.818L471.413 167.077Z" fill="#00AFFE"/>
<path d="M496.603 126.273L496.103 127.083L496.913 127.583L497.414 126.773L496.603 126.273ZM495.211 125.413L494.4 124.913L493.9 125.723L494.71 126.223L495.211 125.413ZM503.396 112.154L503.896 111.344L503.086 110.844L502.586 111.654L503.396 112.154ZM504.789 113.014L505.599 113.514L506.099 112.704L505.289 112.204L504.789 113.014ZM497.103 125.463L495.711 124.603L494.71 126.223L496.103 127.083L497.103 125.463ZM496.021 125.913L504.206 112.654L502.586 111.654L494.4 124.913L496.021 125.913ZM502.896 112.964L504.289 113.824L505.289 112.204L503.896 111.344L502.896 112.964ZM503.979 112.514L495.793 125.773L497.414 126.773L505.599 113.514L503.979 112.514ZM484.008 146.675L483.508 147.485L484.318 147.985L484.819 147.175L484.008 146.675ZM482.616 145.815L481.805 145.315L481.305 146.125L482.115 146.625L482.616 145.815ZM490.801 132.556L491.301 131.746L490.491 131.245L489.991 132.056L490.801 132.556ZM492.194 133.416L493.004 133.916L493.504 133.106L492.694 132.605L492.194 133.416ZM484.509 145.865L483.116 145.005L482.115 146.625L483.508 147.485L484.509 145.865ZM483.426 146.315L491.611 133.056L489.991 132.056L481.805 145.315L483.426 146.315ZM490.301 133.366L491.694 134.226L492.694 132.605L491.301 131.746L490.301 133.366ZM491.384 132.915L483.198 146.175L484.819 147.175L493.004 133.916L491.384 132.915ZM471.413 167.077L470.913 167.887L471.723 168.387L472.224 167.577L471.413 167.077ZM470.021 166.217L469.21 165.717L468.71 166.527L469.52 167.027L470.021 166.217ZM478.206 152.958L478.706 152.148L477.896 151.647L477.396 152.458L478.206 152.958ZM479.599 153.818L480.409 154.318L480.909 153.508L480.099 153.007L479.599 153.818ZM471.914 166.266L470.521 165.407L469.52 167.027L470.913 167.887L471.914 166.266ZM470.831 166.717L479.016 153.458L477.396 152.458L469.21 165.717L470.831 166.717ZM477.706 153.768L479.099 154.628L480.099 153.007L478.706 152.148L477.706 153.768ZM478.789 153.317L470.603 166.577L472.224 167.577L480.409 154.318L478.789 153.317Z" fill="#00AFFE"/>
<path d="M386.619 82.3137L384.986 82.2036L386.034 66.6567L387.667 66.7668L386.619 82.3137ZM385.005 106.236L383.372 106.126L384.421 90.5788L386.054 90.6889L385.005 106.236ZM383.392 130.158L381.759 130.048L382.808 114.501L384.441 114.611L383.392 130.158Z" fill="#00AFFE"/>
<path d="M386.619 82.3137L386.555 83.2638L387.505 83.3278L387.569 82.3778L386.619 82.3137ZM384.986 82.2036L384.036 82.1396L383.972 83.0896L384.922 83.1536L384.986 82.2036ZM386.034 66.6567L386.098 65.7067L385.148 65.6426L385.084 66.5926L386.034 66.6567ZM387.667 66.7668L388.617 66.8309L388.681 65.8809L387.731 65.8168L387.667 66.7668ZM386.683 81.3637L385.05 81.2536L384.922 83.1536L386.555 83.2638L386.683 81.3637ZM385.936 82.2677L386.984 66.7207L385.084 66.5926L384.036 82.1396L385.936 82.2677ZM385.97 67.6067L387.603 67.7168L387.731 65.8168L386.098 65.7067L385.97 67.6067ZM386.717 66.7027L385.669 82.2497L387.569 82.3778L388.617 66.8309L386.717 66.7027ZM385.005 106.236L384.941 107.186L385.891 107.25L385.955 106.3L385.005 106.236ZM383.372 106.126L382.422 106.062L382.358 107.012L383.308 107.076L383.372 106.126ZM384.421 90.5788L384.485 89.6288L383.535 89.5647L383.471 90.5147L384.421 90.5788ZM386.054 90.6889L387.004 90.753L387.068 89.803L386.118 89.7389L386.054 90.6889ZM385.07 105.286L383.436 105.176L383.308 107.076L384.941 107.186L385.07 105.286ZM384.322 106.19L385.371 90.6429L383.471 90.5147L382.422 106.062L384.322 106.19ZM384.357 91.5288L385.99 91.6389L386.118 89.7389L384.485 89.6288L384.357 91.5288ZM385.104 90.6248L384.055 106.172L385.955 106.3L387.004 90.753L385.104 90.6248ZM383.392 130.158L383.328 131.108L384.278 131.172L384.342 130.222L383.392 130.158ZM381.759 130.048L380.809 129.984L380.745 130.934L381.695 130.998L381.759 130.048ZM382.808 114.501L382.872 113.551L381.922 113.487L381.858 114.437L382.808 114.501ZM384.441 114.611L385.391 114.675L385.455 113.725L384.505 113.661L384.441 114.611ZM383.456 129.208L381.823 129.098L381.695 130.998L383.328 131.108L383.456 129.208ZM382.709 130.112L383.758 114.565L381.858 114.437L380.809 129.984L382.709 130.112ZM382.743 115.451L384.377 115.561L384.505 113.661L382.872 113.551L382.743 115.451ZM383.491 114.547L382.442 130.094L384.342 130.222L385.391 114.675L383.491 114.547Z" fill="#00AFFE"/>
<path d="M248.962 80.8475L247.411 81.3688L242.449 66.5978L244 66.0765L248.962 80.8475ZM256.598 103.576L255.046 104.097L250.084 89.326L251.636 88.8047L256.598 103.576ZM264.233 126.304L262.682 126.825L257.719 112.054L259.271 111.533L264.233 126.304Z" fill="#00AFFE"/>
<path d="M248.962 80.8475L249.266 81.7501L250.168 81.4469L249.865 80.5443L248.962 80.8475ZM247.411 81.3688L246.508 81.672L246.812 82.5746L247.714 82.2714L247.411 81.3688ZM242.449 66.5978L242.145 65.6952L241.243 65.9984L241.546 66.901L242.449 66.5978ZM244 66.0765L244.903 65.7733L244.6 64.8707L243.697 65.1739L244 66.0765ZM248.659 79.9449L247.108 80.4662L247.714 82.2714L249.266 81.7501L248.659 79.9449ZM248.313 81.0656L243.351 66.2945L241.546 66.901L246.508 81.672L248.313 81.0656ZM242.752 67.5003L244.303 66.9791L243.697 65.1739L242.145 65.6952L242.752 67.5003ZM243.098 66.3797L248.06 81.1508L249.865 80.5443L244.903 65.7733L243.098 66.3797ZM256.598 103.576L256.901 104.478L257.804 104.175L257.5 103.273L256.598 103.576ZM255.046 104.097L254.144 104.4L254.447 105.303L255.35 105L255.046 104.097ZM250.084 89.326L249.781 88.4234L248.878 88.7266L249.181 89.6292L250.084 89.326ZM251.636 88.8047L252.538 88.5015L252.235 87.5989L251.332 87.9021L251.636 88.8047ZM256.295 102.673L254.743 103.194L255.35 105L256.901 104.478L256.295 102.673ZM255.949 103.794L250.987 89.0227L249.181 89.6292L254.144 104.4L255.949 103.794ZM250.387 90.2286L251.939 89.7073L251.332 87.9021L249.781 88.4234L250.387 90.2286ZM250.733 89.1079L255.695 103.879L257.5 103.273L252.538 88.5015L250.733 89.1079ZM264.233 126.304L264.536 127.207L265.439 126.903L265.136 126.001L264.233 126.304ZM262.682 126.825L261.779 127.128L262.082 128.031L262.985 127.728L262.682 126.825ZM257.719 112.054L257.416 111.152L256.514 111.455L256.817 112.357L257.719 112.054ZM259.271 111.533L260.174 111.23L259.87 110.327L258.968 110.63L259.271 111.533ZM263.93 125.401L262.378 125.923L262.985 127.728L264.536 127.207L263.93 125.401ZM263.584 126.522L258.622 111.751L256.817 112.357L261.779 127.128L263.584 126.522ZM258.023 112.957L259.574 112.436L258.968 110.63L257.416 111.152L258.023 112.957ZM258.368 111.836L263.331 126.607L265.136 126.001L260.174 111.23L258.368 111.836Z" fill="#00AFFE"/>
<path d="M141.676 124.029L140.499 125.166L129.668 113.963L130.845 112.826L141.676 124.029ZM158.341 141.267L157.164 142.404L146.333 131.201L147.51 130.064L158.341 141.267ZM175.005 158.505L173.829 159.643L162.998 148.44L164.175 147.302L175.005 158.505Z" fill="#00AFFE"/>
<path d="M141.676 124.029L142.337 124.713L143.022 124.052L142.36 123.367L141.676 124.029ZM140.499 125.166L139.814 125.828L140.476 126.513L141.161 125.851L140.499 125.166ZM129.668 113.963L129.007 113.279L128.322 113.941L128.984 114.625L129.668 113.963ZM130.845 112.826L131.53 112.164L130.868 111.479L130.183 112.141L130.845 112.826ZM141.014 123.344L139.837 124.482L141.161 125.851L142.337 124.713L141.014 123.344ZM141.183 124.505L130.353 113.302L128.984 114.625L139.814 125.828L141.183 124.505ZM130.33 114.648L131.507 113.51L130.183 112.141L129.007 113.279L130.33 114.648ZM130.161 113.488L140.991 124.691L142.36 123.367L131.53 112.164L130.161 113.488ZM158.341 141.267L159.002 141.951L159.687 141.29L159.025 140.605L158.341 141.267ZM157.164 142.404L156.479 143.066L157.141 143.751L157.826 143.089L157.164 142.404ZM146.333 131.201L145.671 130.517L144.987 131.179L145.649 131.863L146.333 131.201ZM147.51 130.064L148.195 129.402L147.533 128.717L146.848 129.379L147.51 130.064ZM157.679 140.582L156.502 141.72L157.826 143.089L159.002 141.951L157.679 140.582ZM157.848 141.743L147.018 130.54L145.649 131.863L156.479 143.066L157.848 141.743ZM146.995 131.886L148.172 130.748L146.848 129.379L145.671 130.517L146.995 131.886ZM146.825 130.726L157.656 141.929L159.025 140.605L148.195 129.402L146.825 130.726ZM175.005 158.505L175.667 159.189L176.352 158.528L175.69 157.843L175.005 158.505ZM173.829 159.643L173.144 160.304L173.806 160.989L174.49 160.327L173.829 159.643ZM162.998 148.44L162.336 147.755L161.652 148.417L162.314 149.101L162.998 148.44ZM164.175 147.302L164.859 146.64L164.198 145.956L163.513 146.617L164.175 147.302ZM174.344 157.82L173.167 158.958L174.49 160.327L175.667 159.189L174.344 157.82ZM174.513 158.981L163.683 147.778L162.314 149.101L173.144 160.304L174.513 158.981ZM163.66 149.124L164.837 147.986L163.513 146.617L162.336 147.755L163.66 149.124ZM163.49 147.964L174.321 159.167L175.69 157.843L164.859 146.64L163.49 147.964Z" fill="#00AFFE"/>
<path d="M47.3602 198.274L46.6081 199.728L32.7683 192.568L33.5205 191.114L47.3602 198.274ZM68.6554 209.292L67.9033 210.745L54.0635 203.585L54.8157 202.131L68.6554 209.292ZM89.9506 220.309L89.1985 221.763L75.3587 214.603L76.1109 213.149L89.9506 220.309Z" fill="#00AFFE"/>
<path d="M47.3602 198.274L48.2059 198.712L48.6434 197.866L47.7977 197.429L47.3602 198.274ZM46.6081 199.728L46.1705 200.574L47.0162 201.011L47.4537 200.166L46.6081 199.728ZM32.7683 192.568L31.9226 192.13L31.4851 192.976L32.3308 193.413L32.7683 192.568ZM33.5205 191.114L33.958 190.268L33.1123 189.831L32.6748 190.676L33.5205 191.114ZM46.5145 197.837L45.7624 199.29L47.4537 200.166L48.2059 198.712L46.5145 197.837ZM47.0456 198.882L33.2059 191.722L32.3308 193.413L46.1705 200.574L47.0456 198.882ZM33.614 193.005L34.3661 191.552L32.6748 190.676L31.9226 192.13L33.614 193.005ZM33.0829 191.96L46.9227 199.12L47.7977 197.429L33.958 190.268L33.0829 191.96ZM68.6554 209.292L69.5011 209.729L69.9386 208.884L69.0929 208.446L68.6554 209.292ZM67.9033 210.745L67.4657 211.591L68.3114 212.029L68.749 211.183L67.9033 210.745ZM54.0635 203.585L53.2179 203.148L52.7803 203.993L53.626 204.431L54.0635 203.585ZM54.8157 202.131L55.2532 201.286L54.4075 200.848L53.97 201.694L54.8157 202.131ZM67.8097 208.854L67.0576 210.308L68.749 211.183L69.5011 209.729L67.8097 208.854ZM68.3408 209.9L54.5011 202.74L53.626 204.431L67.4657 211.591L68.3408 209.9ZM54.9092 204.023L55.6613 202.569L53.97 201.694L53.2179 203.148L54.9092 204.023ZM54.3781 202.977L68.2179 210.137L69.0929 208.446L55.2532 201.286L54.3781 202.977ZM89.9506 220.309L90.7963 220.747L91.2338 219.901L90.3881 219.464L89.9506 220.309ZM89.1985 221.763L88.7609 222.609L89.6066 223.046L90.0442 222.2L89.1985 221.763ZM75.3587 214.603L74.5131 214.165L74.0755 215.011L74.9212 215.448L75.3587 214.603ZM76.1109 213.149L76.5484 212.303L75.7027 211.866L75.2652 212.711L76.1109 213.149ZM89.1049 219.872L88.3528 221.325L90.0442 222.2L90.7963 220.747L89.1049 219.872ZM89.636 220.917L75.7963 213.757L74.9212 215.448L88.7609 222.609L89.636 220.917ZM76.2044 215.04L76.9566 213.586L75.2652 212.711L74.5131 214.165L76.2044 215.04ZM75.6733 213.995L89.5131 221.155L90.3881 219.464L76.5484 212.303L75.6733 213.995Z" fill="#00AFFE"/>
<path d="M-47.2616 416.891L-47.3122 418.527L-62.8871 418.045L-62.8364 416.409L-47.2616 416.891ZM-23.2966 417.632L-23.3472 419.268L-38.9221 418.787L-38.8714 417.151L-23.2966 417.632ZM0.668364 418.374L0.617754 420.01L-14.9571 419.528L-14.9065 417.892L0.668364 418.374Z" fill="#00AFFE"/>
<path d="M-47.2616 416.891L-46.3099 416.921L-46.2805 415.969L-47.2322 415.939L-47.2616 416.891ZM-47.3122 418.527L-47.3417 419.479L-46.39 419.508L-46.3605 418.557L-47.3122 418.527ZM-62.8871 418.045L-63.8388 418.016L-63.8682 418.968L-62.9165 418.997L-62.8871 418.045ZM-62.8364 416.409L-62.807 415.458L-63.7587 415.428L-63.7882 416.38L-62.8364 416.409ZM-48.2133 416.862L-48.2639 418.498L-46.3605 418.557L-46.3099 416.921L-48.2133 416.862ZM-47.2828 417.575L-62.8576 417.094L-62.9165 418.997L-47.3417 419.479L-47.2828 417.575ZM-61.9353 418.075L-61.8847 416.439L-63.7882 416.38L-63.8388 418.016L-61.9353 418.075ZM-62.8659 417.361L-47.2911 417.843L-47.2322 415.939L-62.807 415.458L-62.8659 417.361ZM-23.2966 417.632L-22.3449 417.662L-22.3155 416.71L-23.2672 416.681L-23.2966 417.632ZM-23.3472 419.268L-23.3767 420.22L-22.425 420.25L-22.3955 419.298L-23.3472 419.268ZM-38.9221 418.787L-39.8738 418.757L-39.9032 419.709L-38.9515 419.738L-38.9221 418.787ZM-38.8714 417.151L-38.842 416.199L-39.7937 416.17L-39.8232 417.121L-38.8714 417.151ZM-24.2483 417.603L-24.2989 419.239L-22.3955 419.298L-22.3449 417.662L-24.2483 417.603ZM-23.3178 418.317L-38.8926 417.835L-38.9515 419.738L-23.3767 420.22L-23.3178 418.317ZM-37.9703 418.816L-37.9197 417.18L-39.8232 417.121L-39.8738 418.757L-37.9703 418.816ZM-38.9009 418.102L-23.3261 418.584L-23.2672 416.681L-38.842 416.199L-38.9009 418.102ZM0.668364 418.374L1.62007 418.403L1.64951 417.452L0.697805 417.422L0.668364 418.374ZM0.617754 420.01L0.588312 420.962L1.54002 420.991L1.56946 420.039L0.617754 420.01ZM-14.9571 419.528L-15.9088 419.499L-15.9382 420.45L-14.9865 420.48L-14.9571 419.528ZM-14.9065 417.892L-14.877 416.94L-15.8287 416.911L-15.8582 417.863L-14.9065 417.892ZM-0.283346 418.344L-0.333956 419.98L1.56946 420.039L1.62007 418.403L-0.283346 418.344ZM0.647195 419.058L-14.9276 418.576L-14.9865 420.48L0.588312 420.962L0.647195 419.058ZM-14.0054 419.557L-13.9547 417.921L-15.8582 417.863L-15.9088 419.499L-14.0054 419.557ZM-14.9359 418.844L0.638923 419.326L0.697805 417.422L-14.877 416.94L-14.9359 418.844Z" fill="#00AFFE"/>
<path d="M-66.9442 291.156L-67.4585 292.71L-82.2517 287.814L-81.7375 286.26L-66.9442 291.156ZM-44.1818 298.688L-44.6961 300.242L-59.4893 295.347L-58.9751 293.793L-44.1818 298.688ZM-21.4194 306.221L-21.9337 307.775L-36.7269 302.88L-36.2127 301.326L-21.4194 306.221ZM1.343 313.754L0.828765 315.308L-13.9645 310.412L-13.4503 308.858L1.343 313.754ZM24.1054 321.287L23.5912 322.841L8.79791 317.945L9.31215 316.391L24.1054 321.287Z" fill="#00AFFE"/>
<path d="M-66.9442 291.156L-66.0403 291.455L-65.7411 290.551L-66.6451 290.252L-66.9442 291.156ZM-67.4585 292.71L-67.7576 293.614L-66.8537 293.913L-66.5545 293.009L-67.4585 292.71ZM-82.2517 287.814L-83.1557 287.515L-83.4548 288.419L-82.5509 288.718L-82.2517 287.814ZM-81.7375 286.26L-81.4384 285.356L-82.3423 285.057L-82.6415 285.961L-81.7375 286.26ZM-67.8482 290.856L-68.3624 292.41L-66.5545 293.009L-66.0403 291.455L-67.8482 290.856ZM-67.1593 291.806L-81.9526 286.91L-82.5509 288.718L-67.7576 293.614L-67.1593 291.806ZM-81.3478 288.113L-80.8335 286.559L-82.6415 285.961L-83.1557 287.515L-81.3478 288.113ZM-82.0366 287.164L-67.2434 292.06L-66.6451 290.252L-81.4384 285.356L-82.0366 287.164ZM-44.1818 298.688L-43.2779 298.988L-42.9787 298.084L-43.8827 297.784L-44.1818 298.688ZM-44.6961 300.242L-44.9952 301.146L-44.0913 301.445L-43.7921 300.542L-44.6961 300.242ZM-59.4893 295.347L-60.3933 295.048L-60.6924 295.952L-59.7885 296.251L-59.4893 295.347ZM-58.9751 293.793L-58.6759 292.889L-59.5799 292.59L-59.879 293.494L-58.9751 293.793ZM-45.0858 298.389L-45.6 299.943L-43.7921 300.542L-43.2779 298.988L-45.0858 298.389ZM-44.3969 299.338L-59.1902 294.443L-59.7885 296.251L-44.9952 301.146L-44.3969 299.338ZM-58.5854 295.646L-58.0711 294.092L-59.879 293.494L-60.3933 295.048L-58.5854 295.646ZM-59.2742 294.697L-44.481 299.592L-43.8827 297.784L-58.6759 292.889L-59.2742 294.697ZM-21.4194 306.221L-20.5155 306.52L-20.2163 305.616L-21.1203 305.317L-21.4194 306.221ZM-21.9337 307.775L-22.2328 308.679L-21.3288 308.978L-21.0297 308.074L-21.9337 307.775ZM-36.7269 302.88L-37.6309 302.58L-37.93 303.484L-37.0261 303.784L-36.7269 302.88ZM-36.2127 301.326L-35.9135 300.422L-36.8175 300.123L-37.1166 301.027L-36.2127 301.326ZM-22.3234 305.922L-22.8376 307.476L-21.0297 308.074L-20.5155 306.52L-22.3234 305.922ZM-21.6345 306.871L-36.4278 301.976L-37.0261 303.784L-22.2328 308.679L-21.6345 306.871ZM-35.823 303.179L-35.3087 301.625L-37.1166 301.027L-37.6309 302.58L-35.823 303.179ZM-36.5118 302.23L-21.7186 307.125L-21.1203 305.317L-35.9135 300.422L-36.5118 302.23ZM1.343 313.754L2.24696 314.053L2.5461 313.149L1.64215 312.85L1.343 313.754ZM0.828765 315.308L0.529619 316.212L1.43357 316.511L1.73272 315.607L0.828765 315.308ZM-13.9645 310.412L-14.8684 310.113L-15.1676 311.017L-14.2636 311.316L-13.9645 310.412ZM-13.4503 308.858L-13.1511 307.955L-14.0551 307.655L-14.3542 308.559L-13.4503 308.858ZM0.439053 313.455L-0.0751866 315.009L1.73272 315.607L2.24696 314.053L0.439053 313.455ZM1.12791 314.404L-13.6654 309.508L-14.2636 311.316L0.529619 316.212L1.12791 314.404ZM-13.0605 310.712L-12.5463 309.158L-14.3542 308.559L-14.8684 310.113L-13.0605 310.712ZM-13.7494 309.762L1.04386 314.658L1.64215 312.85L-13.1511 307.955L-13.7494 309.762ZM24.1054 321.287L25.0094 321.586L25.3085 320.682L24.4046 320.383L24.1054 321.287ZM23.5912 322.841L23.292 323.745L24.196 324.044L24.4951 323.14L23.5912 322.841ZM8.79791 317.945L7.89396 317.646L7.59481 318.55L8.49877 318.849L8.79791 317.945ZM9.31215 316.391L9.6113 315.487L8.70735 315.188L8.4082 316.092L9.31215 316.391ZM23.2015 320.988L22.6872 322.542L24.4951 323.14L25.0094 321.586L23.2015 320.988ZM23.8903 321.937L9.09706 317.041L8.49877 318.849L23.292 323.745L23.8903 321.937ZM9.70186 318.244L10.2161 316.69L8.4082 316.092L7.89396 317.646L9.70186 318.244ZM9.01301 317.295L23.8063 322.191L24.4046 320.383L9.6113 315.487L9.01301 317.295Z" fill="#00AFFE"/>
<path d="M-67.306 588.086L-66.7163 589.613L-81.2521 595.227L-81.8418 593.7L-67.306 588.086ZM-44.9398 579.448L-44.3501 580.975L-58.8859 586.589L-59.4756 585.062L-44.9398 579.448ZM-22.5735 570.81L-21.9838 572.337L-36.5196 577.951L-37.1093 576.424L-22.5735 570.81ZM-0.207248 562.171L0.382464 563.698L-14.1533 569.312L-14.743 567.785L-0.207248 562.171ZM22.159 553.533L22.7487 555.06L8.21292 560.674L7.6232 559.147L22.159 553.533Z" fill="#00AFFE"/>
<path d="M-67.306 588.086L-66.4178 587.743L-66.7609 586.855L-67.6491 587.198L-67.306 588.086ZM-66.7163 589.613L-66.3733 590.501L-65.485 590.158L-65.8281 589.27L-66.7163 589.613ZM-81.2521 595.227L-82.1403 595.57L-81.7973 596.459L-80.9091 596.116L-81.2521 595.227ZM-81.8418 593.7L-82.1849 592.812L-83.0731 593.155L-82.73 594.043L-81.8418 593.7ZM-68.1942 588.429L-67.6045 589.956L-65.8281 589.27L-66.4178 587.743L-68.1942 588.429ZM-67.0594 588.725L-81.5952 594.339L-80.9091 596.116L-66.3733 590.501L-67.0594 588.725ZM-80.3639 594.884L-80.9536 593.357L-82.73 594.043L-82.1403 595.57L-80.3639 594.884ZM-81.4988 594.589L-66.963 588.975L-67.6491 587.198L-82.1849 592.812L-81.4988 594.589ZM-44.9398 579.448L-44.0515 579.105L-44.3946 578.217L-45.2828 578.56L-44.9398 579.448ZM-44.3501 580.975L-44.007 581.863L-43.1188 581.52L-43.4618 580.632L-44.3501 580.975ZM-58.8859 586.589L-59.7741 586.932L-59.431 587.82L-58.5428 587.477L-58.8859 586.589ZM-59.4756 585.062L-59.8186 584.174L-60.7068 584.517L-60.3638 585.405L-59.4756 585.062ZM-45.828 579.791L-45.2383 581.318L-43.4618 580.632L-44.0515 579.105L-45.828 579.791ZM-44.6931 580.087L-59.2289 585.701L-58.5428 587.477L-44.007 581.863L-44.6931 580.087ZM-57.9976 586.246L-58.5873 584.719L-60.3638 585.405L-59.7741 586.932L-57.9976 586.246ZM-59.1325 585.95L-44.5967 580.336L-45.2828 578.56L-59.8186 584.174L-59.1325 585.95ZM-22.5735 570.81L-21.6853 570.467L-22.0283 569.578L-22.9166 569.921L-22.5735 570.81ZM-21.9838 572.337L-21.6407 573.225L-20.7525 572.882L-21.0956 571.993L-21.9838 572.337ZM-36.5196 577.951L-37.4078 578.294L-37.0648 579.182L-36.1765 578.839L-36.5196 577.951ZM-37.1093 576.424L-37.4524 575.536L-38.3406 575.879L-37.9975 576.767L-37.1093 576.424ZM-23.4617 571.153L-22.872 572.68L-21.0956 571.993L-21.6853 570.467L-23.4617 571.153ZM-22.3268 571.448L-36.8626 577.062L-36.1765 578.839L-21.6407 573.225L-22.3268 571.448ZM-35.6314 577.608L-36.2211 576.081L-37.9975 576.767L-37.4078 578.294L-35.6314 577.608ZM-36.7663 577.312L-22.2305 571.698L-22.9166 569.921L-37.4524 575.536L-36.7663 577.312ZM-0.207248 562.171L0.680972 561.828L0.337921 560.94L-0.550298 561.283L-0.207248 562.171ZM0.382464 563.698L0.725515 564.586L1.61373 564.243L1.27068 563.355L0.382464 563.698ZM-14.1533 569.312L-15.0416 569.655L-14.6985 570.544L-13.8103 570.2L-14.1533 569.312ZM-14.743 567.785L-15.0861 566.897L-15.9743 567.24L-15.6313 568.128L-14.743 567.785ZM-1.09547 562.514L-0.505755 564.041L1.27068 563.355L0.680972 561.828L-1.09547 562.514ZM0.0394137 562.81L-14.4964 568.424L-13.8103 570.2L0.725515 564.586L0.0394137 562.81ZM-13.2651 568.969L-13.8548 567.442L-15.6313 568.128L-15.0416 569.655L-13.2651 568.969ZM-14.4 568.674L0.135803 563.06L-0.550298 561.283L-15.0861 566.897L-14.4 568.674ZM22.159 553.533L23.0472 553.19L22.7042 552.302L21.816 552.645L22.159 553.533ZM22.7487 555.06L23.0918 555.948L23.98 555.605L23.6369 554.717L22.7487 555.06ZM8.21292 560.674L7.3247 561.017L7.66775 561.905L8.55597 561.562L8.21292 560.674ZM7.6232 559.147L7.28015 558.259L6.39193 558.602L6.73498 559.49L7.6232 559.147ZM21.2708 553.876L21.8605 555.403L23.6369 554.717L23.0472 553.19L21.2708 553.876ZM22.4057 554.172L7.86987 559.786L8.55597 561.562L23.0918 555.948L22.4057 554.172ZM9.10114 560.331L8.51142 558.804L6.73498 559.49L7.3247 561.017L9.10114 560.331ZM7.96625 560.035L22.5021 554.421L21.816 552.645L7.28015 558.259L7.96625 560.035Z" fill="#00AFFE"/>
<path d="M492.15 736.079L493.481 735.125L502.558 747.791L501.228 748.744L492.15 736.079ZM478.183 716.591L479.513 715.637L488.591 728.303L487.26 729.256L478.183 716.591Z" fill="#00AFFE"/>
<path d="M492.15 736.079L491.595 735.305L490.822 735.86L491.376 736.634L492.15 736.079ZM493.481 735.125L494.254 734.571L493.7 733.797L492.926 734.351L493.481 735.125ZM502.558 747.791L503.113 748.565L503.887 748.01L503.332 747.236L502.558 747.791ZM501.228 748.744L500.454 749.299L501.008 750.073L501.782 749.518L501.228 748.744ZM492.705 736.853L494.035 735.899L492.926 734.351L491.595 735.305L492.705 736.853ZM492.707 735.68L501.784 748.345L503.332 747.236L494.254 734.571L492.707 735.68ZM502.003 747.017L500.673 747.97L501.782 749.518L503.113 748.565L502.003 747.017ZM502.001 748.189L492.924 735.524L491.376 736.634L500.454 749.299L502.001 748.189ZM478.183 716.591L477.628 715.817L476.854 716.372L477.409 717.145L478.183 716.591ZM479.513 715.637L480.287 715.083L479.732 714.309L478.959 714.863L479.513 715.637ZM488.591 728.303L489.145 729.076L489.919 728.522L489.364 727.748L488.591 728.303ZM487.26 729.256L486.486 729.811L487.041 730.585L487.815 730.03L487.26 729.256ZM478.737 717.365L480.068 716.411L478.959 714.863L477.628 715.817L478.737 717.365ZM478.739 716.192L487.817 728.857L489.364 727.748L480.287 715.083L478.739 716.192ZM488.036 727.529L486.706 728.482L487.815 730.03L489.145 729.076L488.036 727.529ZM488.034 728.701L478.957 716.036L477.409 717.145L486.486 729.811L488.034 728.701Z" fill="#00AFFE"/>
<path d="M582.082 661.083L583.023 659.744L595.775 668.698L594.835 670.038L582.082 661.083ZM562.46 647.306L563.4 645.966L576.153 654.92L575.212 656.26L562.46 647.306Z" fill="#00AFFE"/>
<path d="M582.082 661.083L581.303 660.536L580.756 661.316L581.535 661.863L582.082 661.083ZM583.023 659.744L583.57 658.965L582.791 658.418L582.244 659.197L583.023 659.744ZM595.775 668.698L596.555 669.245L597.102 668.466L596.323 667.919L595.775 668.698ZM594.835 670.038L594.288 670.817L595.067 671.364L595.614 670.585L594.835 670.038ZM582.862 661.631L583.802 660.291L582.244 659.197L581.303 660.536L582.862 661.631ZM582.476 660.523L595.228 669.477L596.323 667.919L583.57 658.965L582.476 660.523ZM594.996 668.151L594.056 669.491L595.614 670.585L596.555 669.245L594.996 668.151ZM595.382 669.258L582.629 660.304L581.535 661.863L594.288 670.817L595.382 669.258ZM562.46 647.306L561.681 646.759L561.133 647.538L561.913 648.085L562.46 647.306ZM563.4 645.966L563.947 645.187L563.168 644.64L562.621 645.419L563.4 645.966ZM576.153 654.92L576.932 655.467L577.479 654.688L576.7 654.141L576.153 654.92ZM575.212 656.26L574.665 657.039L575.445 657.586L575.992 656.807L575.212 656.26ZM563.239 647.853L564.18 646.513L562.621 645.419L561.681 646.759L563.239 647.853ZM562.853 646.745L575.606 655.7L576.7 654.141L563.947 645.187L562.853 646.745ZM575.374 654.373L574.433 655.713L575.992 656.807L576.932 655.467L575.374 654.373ZM575.76 655.481L563.007 646.526L561.913 648.085L574.665 657.039L575.76 655.481Z" fill="#00AFFE"/>
<path d="M644.971 549.621L645.333 548.025L660.53 551.469L660.168 553.066L644.971 549.621ZM621.588 544.321L621.95 542.725L637.147 546.169L636.785 547.766L621.588 544.321Z" fill="#00AFFE"/>
<path d="M644.971 549.621L644.043 549.411L643.832 550.339L644.761 550.55L644.971 549.621ZM645.333 548.025L645.544 547.096L644.615 546.886L644.405 547.814L645.333 548.025ZM660.53 551.469L661.459 551.68L661.669 550.751L660.741 550.541L660.53 551.469ZM660.168 553.066L659.958 553.994L660.886 554.205L661.097 553.276L660.168 553.066ZM645.9 549.832L646.262 548.235L644.405 547.814L644.043 549.411L645.9 549.832ZM645.123 548.954L660.32 552.398L660.741 550.541L645.544 547.096L645.123 548.954ZM659.601 551.259L659.24 552.855L661.097 553.276L661.459 551.68L659.601 551.259ZM660.379 552.137L645.182 548.693L644.761 550.55L659.958 553.994L660.379 552.137ZM621.588 544.321L620.659 544.111L620.449 545.04L621.378 545.25L621.588 544.321ZM621.95 542.725L622.16 541.796L621.232 541.586L621.021 542.515L621.95 542.725ZM637.147 546.169L638.075 546.38L638.286 545.451L637.357 545.241L637.147 546.169ZM636.785 547.766L636.574 548.694L637.503 548.905L637.713 547.976L636.785 547.766ZM622.517 544.532L622.878 542.936L621.021 542.515L620.659 544.111L622.517 544.532ZM621.739 543.654L636.936 547.098L637.357 545.241L622.16 541.796L621.739 543.654ZM636.218 545.959L635.856 547.555L637.713 547.976L638.075 546.38L636.218 545.959ZM636.995 546.837L621.798 543.393L621.378 545.25L636.574 548.694L636.995 546.837Z" fill="#00AFFE"/>
<path d="M140.395 757.971L141.724 758.927L132.63 771.58L131.301 770.625L140.395 757.971ZM154.388 738.502L155.717 739.457L146.623 752.11L145.294 751.155L154.388 738.502ZM168.381 719.032L169.71 719.988L160.616 732.641L159.287 731.686L168.381 719.032Z" fill="#00AFFE"/>
<path d="M140.395 757.971L140.951 757.198L140.178 756.642L139.622 757.416L140.395 757.971ZM141.724 758.927L142.497 759.482L143.053 758.709L142.28 758.153L141.724 758.927ZM132.63 771.58L132.074 772.353L132.848 772.909L133.403 772.136L132.63 771.58ZM131.301 770.625L130.528 770.069L129.972 770.842L130.745 771.398L131.301 770.625ZM139.839 758.745L141.168 759.7L142.28 758.153L140.951 757.198L139.839 758.745ZM140.951 758.371L131.857 771.024L133.403 772.136L142.497 759.482L140.951 758.371ZM133.186 770.807L131.857 769.851L130.745 771.398L132.074 772.353L133.186 770.807ZM132.074 771.18L141.168 758.527L139.622 757.416L130.528 770.069L132.074 771.18ZM154.388 738.502L154.944 737.729L154.171 737.173L153.615 737.946L154.388 738.502ZM155.717 739.457L156.491 740.013L157.046 739.24L156.273 738.684L155.717 739.457ZM146.623 752.11L146.068 752.884L146.841 753.439L147.396 752.666L146.623 752.11ZM145.294 751.155L144.521 750.599L143.965 751.373L144.738 751.928L145.294 751.155ZM153.832 739.275L155.162 740.23L156.273 738.684L154.944 737.729L153.832 739.275ZM154.944 738.901L145.85 751.555L147.396 752.666L156.491 740.013L154.944 738.901ZM147.179 751.337L145.85 750.382L144.738 751.928L146.068 752.884L147.179 751.337ZM146.067 751.711L155.161 739.058L153.615 737.946L144.521 750.599L146.067 751.711ZM168.381 719.032L168.937 718.259L168.164 717.703L167.608 718.477L168.381 719.032ZM169.71 719.988L170.484 720.543L171.039 719.77L170.266 719.214L169.71 719.988ZM160.616 732.641L160.061 733.414L160.834 733.97L161.39 733.196L160.616 732.641ZM159.287 731.686L158.514 731.13L157.958 731.903L158.732 732.459L159.287 731.686ZM167.826 719.805L169.155 720.761L170.266 719.214L168.937 718.259L167.826 719.805ZM168.937 719.432L159.843 732.085L161.39 733.196L170.484 720.543L168.937 719.432ZM161.172 731.868L159.843 730.912L158.732 732.459L160.061 733.414L161.172 731.868ZM160.06 732.241L169.155 719.588L167.608 718.477L158.514 731.13L160.06 732.241Z" fill="#00AFFE"/>
<path d="M266.335 777.134L267.971 777.125L268.052 792.707L266.415 792.716L266.335 777.134ZM266.211 753.158L267.848 753.149L267.928 768.731L266.291 768.74L266.211 753.158Z" fill="#00AFFE"/>
<path d="M266.335 777.134L266.33 776.182L265.377 776.186L265.382 777.139L266.335 777.134ZM267.971 777.125L268.923 777.12L268.919 776.168L267.966 776.173L267.971 777.125ZM268.052 792.707L268.057 793.659L269.009 793.655L269.004 792.702L268.052 792.707ZM266.415 792.716L265.463 792.721L265.468 793.673L266.42 793.668L266.415 792.716ZM266.339 778.086L267.976 778.077L267.966 776.173L266.33 776.182L266.339 778.086ZM267.019 777.13L267.1 792.712L269.004 792.702L268.923 777.12L267.019 777.13ZM268.047 791.755L266.41 791.764L266.42 793.668L268.057 793.659L268.047 791.755ZM267.367 792.711L267.287 777.129L265.382 777.139L265.463 792.721L267.367 792.711ZM266.211 753.158L266.206 752.205L265.254 752.21L265.259 753.162L266.211 753.158ZM267.848 753.149L268.8 753.144L268.795 752.192L267.843 752.197L267.848 753.149ZM267.928 768.731L267.933 769.683L268.885 769.678L268.88 768.726L267.928 768.731ZM266.291 768.74L265.339 768.745L265.344 769.697L266.296 769.692L266.291 768.74ZM266.216 754.11L267.853 754.101L267.843 752.197L266.206 752.205L266.216 754.11ZM266.895 753.154L266.976 768.736L268.88 768.726L268.8 753.144L266.895 753.154ZM267.923 767.779L266.286 767.787L266.296 769.692L267.933 769.683L267.923 767.779ZM267.243 768.735L267.163 753.153L265.259 753.162L265.339 768.745L267.243 768.735Z" fill="#00AFFE"/>
<path d="M393.209 795.325L394.762 794.806L399.7 809.585L398.148 810.104L393.209 795.325ZM385.61 772.584L387.163 772.066L392.101 786.845L390.549 787.363L385.61 772.584ZM378.011 749.844L379.563 749.325L384.502 764.104L382.95 764.623L378.011 749.844Z" fill="#00AFFE"/>
<path d="M393.209 795.325L392.908 794.422L392.004 794.723L392.306 795.627L393.209 795.325ZM394.762 794.806L395.665 794.504L395.363 793.601L394.46 793.903L394.762 794.806ZM399.7 809.585L400.002 810.488L400.905 810.186L400.603 809.283L399.7 809.585ZM398.148 810.104L397.245 810.405L397.547 811.309L398.45 811.007L398.148 810.104ZM393.511 796.228L395.064 795.709L394.46 793.903L392.908 794.422L393.511 796.228ZM393.859 795.108L398.797 809.887L400.603 809.283L395.665 794.504L393.859 795.108ZM399.399 808.682L397.846 809.201L398.45 811.007L400.002 810.488L399.399 808.682ZM399.051 809.802L394.112 795.023L392.306 795.627L397.245 810.405L399.051 809.802ZM385.61 772.584L385.308 771.681L384.405 771.983L384.707 772.886L385.61 772.584ZM387.163 772.066L388.066 771.764L387.764 770.861L386.861 771.163L387.163 772.066ZM392.101 786.845L392.403 787.748L393.306 787.446L393.004 786.543L392.101 786.845ZM390.549 787.363L389.646 787.665L389.948 788.568L390.851 788.266L390.549 787.363ZM385.912 773.487L387.464 772.969L386.861 771.163L385.308 771.681L385.912 773.487ZM386.259 772.367L391.198 787.146L393.004 786.543L388.066 771.764L386.259 772.367ZM391.799 785.941L390.247 786.46L390.851 788.266L392.403 787.748L391.799 785.941ZM391.452 787.062L386.513 772.283L384.707 772.886L389.646 787.665L391.452 787.062ZM378.011 749.844L377.709 748.941L376.806 749.243L377.108 750.146L378.011 749.844ZM379.563 749.325L380.466 749.023L380.165 748.12L379.262 748.422L379.563 749.325ZM384.502 764.104L384.804 765.007L385.707 764.705L385.405 763.802L384.502 764.104ZM382.95 764.623L382.047 764.925L382.348 765.828L383.251 765.526L382.95 764.623ZM378.313 750.747L379.865 750.228L379.262 748.422L377.709 748.941L378.313 750.747ZM378.66 749.627L383.599 764.406L385.405 763.802L380.466 749.023L378.66 749.627ZM384.2 763.201L382.648 763.72L383.251 765.526L384.804 765.007L384.2 763.201ZM383.853 764.321L378.914 749.542L377.108 750.146L382.047 764.925L383.853 764.321Z" fill="#00AFFE"/>
<path d="M45.5269 680.081L46.6777 681.245L35.5969 692.201L34.4461 691.037L45.5269 680.081ZM62.577 663.224L63.7278 664.388L52.647 675.344L51.4962 674.18L62.577 663.224ZM79.6271 646.367L80.7779 647.531L69.6971 658.487L68.5463 657.323L79.6271 646.367Z" fill="#00AFFE"/>
<path d="M45.5269 680.081L46.204 679.412L45.5346 678.735L44.8575 679.404L45.5269 680.081ZM46.6777 681.245L47.3472 681.923L48.0243 681.253L47.3548 680.576L46.6777 681.245ZM35.5969 692.201L34.9198 692.87L35.5892 693.547L36.2663 692.878L35.5969 692.201ZM34.4461 691.037L33.7767 690.36L33.0996 691.029L33.769 691.706L34.4461 691.037ZM44.8498 680.751L46.0006 681.915L47.3548 680.576L46.204 679.412L44.8498 680.751ZM46.0083 680.568L34.9274 691.524L36.2663 692.878L47.3472 681.923L46.0083 680.568ZM36.274 691.531L35.1232 690.368L33.769 691.706L34.9198 692.87L36.274 691.531ZM35.1155 691.714L46.1964 680.759L44.8575 679.404L33.7767 690.36L35.1155 691.714ZM62.577 663.224L63.2541 662.555L62.5847 661.878L61.9076 662.547L62.577 663.224ZM63.7278 664.388L64.3973 665.065L65.0744 664.396L64.4049 663.719L63.7278 664.388ZM52.647 675.344L51.9699 676.013L52.6393 676.69L53.3164 676.021L52.647 675.344ZM51.4962 674.18L50.8268 673.503L50.1497 674.172L50.8191 674.849L51.4962 674.18ZM61.8999 663.894L63.0507 665.058L64.4049 663.719L63.2541 662.555L61.8999 663.894ZM63.0584 663.711L51.9775 674.667L53.3164 676.021L64.3973 665.065L63.0584 663.711ZM53.3241 674.674L52.1733 673.51L50.8191 674.849L51.9699 676.013L53.3241 674.674ZM52.1656 674.857L63.2465 663.901L61.9076 662.547L50.8268 673.503L52.1656 674.857ZM79.6271 646.367L80.3042 645.698L79.6348 645.021L78.9577 645.69L79.6271 646.367ZM80.7779 647.531L81.4474 648.208L82.1245 647.539L81.455 646.862L80.7779 647.531ZM69.6971 658.487L69.02 659.156L69.6894 659.833L70.3665 659.164L69.6971 658.487ZM68.5463 657.323L67.8769 656.645L67.1997 657.315L67.8692 657.992L68.5463 657.323ZM78.95 647.037L80.1008 648.201L81.455 646.862L80.3042 645.698L78.95 647.037ZM80.1085 646.854L69.0276 657.809L70.3665 659.164L81.4474 648.208L80.1085 646.854ZM70.3742 657.817L69.2234 656.653L67.8692 657.992L69.02 659.156L70.3742 657.817ZM69.2157 658L80.2966 647.044L78.9577 645.69L67.8769 656.645L69.2157 658Z" fill="#00AFFE"/>
</svg>
