<svg width="146" height="259" viewBox="0 0 146 259" fill="none" xmlns="http://www.w3.org/2000/svg">
<path fill-rule="evenodd" clip-rule="evenodd" d="M145.049 0.941099C139.908 0.31977 134.674 0 129.365 0C57.9187 0 0 57.9187 0 129.365C0 200.811 57.9187 258.73 129.365 258.73C134.674 258.73 139.908 258.41 145.049 257.789V0.941099Z" fill="#00AFFE"/>
<path fill-rule="evenodd" clip-rule="evenodd" d="M145 38.2173L142.71 37.7593C141.081 41.1477 136.298 47.768 130.199 47.1424C124.1 46.5169 120.882 39.4535 120.034 36L110.651 37.7593C111.042 41.2128 110.065 48.5499 103.028 50.2701C95.9902 51.9904 90.5819 47.7289 88.7574 45.3831L80.3517 50.2701C81.1336 53.0069 81.7201 59.4969 77.8104 63.5629C73.9008 67.6289 66.1467 65.2571 62.7584 63.5629L55.9165 70.9912C57.8062 73.6628 60.8036 80.5698 57.6758 86.8252C54.5481 93.0806 47.1199 91.3864 43.7967 89.7574L40.8644 99.336C43.7967 101.291 49.1138 106.803 46.9244 113.215C44.735 119.627 38.0625 121.1 35 121.034V131.981C37.6064 130.483 43.6403 129.948 46.9244 139.801C50.2085 149.653 42.4283 153.419 38.1277 154.071L41.4509 163.258C44.1876 160.978 50.834 158.528 55.5256 166.973C60.2171 175.417 55.0043 181.308 51.8114 183.198L58.0668 191.408C61.1294 190.105 68.5446 188.124 73.7053 190.626C78.866 193.128 76.6376 202.615 74.8782 207.046L83.6749 211.738C85.8903 209.718 91.9633 205.952 98.5315 207.046C105.1 208.141 105.438 215.582 104.787 219.166L114.17 221.316C114.626 217.798 117.571 210.956 125.703 211.738C133.835 212.52 136.259 219.101 136.455 222.294L145 221.456V189.954C140.486 191.236 136.617 191.774 133.944 191.834L134.834 153.49L144.858 147.201L145 147.286V111.596L136.072 106.571L137.858 67.241C140.34 67.6756 142.721 68.2379 145 68.9051V38.2173ZM112.216 111.651L78.9843 90.5392C94.4664 71.9294 115.539 67.2769 124.141 67.2769L122.381 105.591L112.216 111.651ZM120.486 151.616L119.312 190.969C95.4051 187.166 80.6407 171.427 76.2469 164.033L110.084 145.973L120.486 151.616ZM71.5237 153.847L105.493 133.942L104.75 122.131L71.478 103.051C67.5459 110.701 62.0501 131.57 71.5237 153.847ZM139.975 129.05C139.975 135.419 134.811 140.583 128.442 140.583C122.072 140.583 116.908 135.419 116.908 129.05C116.908 122.68 122.072 117.516 128.442 117.516C134.811 117.516 139.975 122.68 139.975 129.05Z" fill="#C1ECFF"/>
</svg>
