<svg width="434" height="68" viewBox="0 0 434 68" fill="none" xmlns="http://www.w3.org/2000/svg">
<path fill-rule="evenodd" clip-rule="evenodd" d="M434 0H0V67.176H434V0Z" fill="white"/>
<path d="M10 0V16.8587" stroke="#00AFFE" stroke-width="1.64475"/>
<path d="M72.2 0V16.8587" stroke="#00AFFE" stroke-width="1.64475"/>
<path d="M134.4 0V16.8587" stroke="#00AFFE" stroke-width="1.64475"/>
<path d="M196.6 0V16.8587" stroke="#00AFFE" stroke-width="1.64475"/>
<path d="M258.8 0V16.8587" stroke="#00AFFE" stroke-width="1.64475"/>
<path d="M321 0V16.8587" stroke="#00AFFE" stroke-width="1.64475"/>
<path d="M383.2 0V16.8587" stroke="#00AFFE" stroke-width="1.64475"/>
<path d="M22.4399 0V16.8587" stroke="#00AFFE" stroke-width="1.64475"/>
<path d="M84.6401 0V16.8587" stroke="#00AFFE" stroke-width="1.64475"/>
<path d="M146.84 0V16.8587" stroke="#00AFFE" stroke-width="1.64475"/>
<path d="M209.04 0V16.8587" stroke="#00AFFE" stroke-width="1.64475"/>
<path d="M271.24 0V16.8587" stroke="#00AFFE" stroke-width="1.64475"/>
<path d="M333.44 0V16.8587" stroke="#00AFFE" stroke-width="1.64475"/>
<path d="M395.64 0V16.8587" stroke="#00AFFE" stroke-width="1.64475"/>
<path d="M34.8801 0V16.8587" stroke="#00AFFE" stroke-width="1.64475"/>
<path d="M97.0801 0V16.8587" stroke="#00AFFE" stroke-width="1.64475"/>
<path d="M159.28 0V16.8587" stroke="#00AFFE" stroke-width="1.64475"/>
<path d="M221.48 0V16.8587" stroke="#00AFFE" stroke-width="1.64475"/>
<path d="M283.68 0V16.8587" stroke="#00AFFE" stroke-width="1.64475"/>
<path d="M345.88 0V16.8587" stroke="#00AFFE" stroke-width="1.64475"/>
<path d="M408.08 0V16.8587" stroke="#00AFFE" stroke-width="1.64475"/>
<path d="M47.3201 0V16.8587" stroke="#00AFFE" stroke-width="1.64475"/>
<path d="M109.52 0V16.8587" stroke="#00AFFE" stroke-width="1.64475"/>
<path d="M171.72 0V16.8587" stroke="#00AFFE" stroke-width="1.64475"/>
<path d="M233.92 0V16.8587" stroke="#00AFFE" stroke-width="1.64475"/>
<path d="M296.12 0V16.8587" stroke="#00AFFE" stroke-width="1.64475"/>
<path d="M358.32 0V16.8587" stroke="#00AFFE" stroke-width="1.64475"/>
<path d="M420.52 0V16.8587" stroke="#00AFFE" stroke-width="1.64475"/>
<path d="M59.76 0L59.76 31.2502" stroke="#00AFFE" stroke-width="1.64475"/>
<path d="M121.96 0L121.96 31.2502" stroke="#00AFFE" stroke-width="1.64475"/>
<path d="M184.16 0L184.16 31.2502" stroke="#00AFFE" stroke-width="1.64475"/>
<path d="M246.36 0L246.36 31.2502" stroke="#00AFFE" stroke-width="1.64475"/>
<path d="M308.56 0L308.56 31.2502" stroke="#00AFFE" stroke-width="1.64475"/>
<path d="M59.76 0L59.76 31.2502" stroke="#00AFFE" stroke-width="1.64475"/>
<path d="M121.96 0L121.96 31.2502" stroke="#00AFFE" stroke-width="1.64475"/>
<path d="M184.16 0L184.16 31.2502" stroke="#00AFFE" stroke-width="1.64475"/>
<path d="M246.36 0L246.36 31.2502" stroke="#00AFFE" stroke-width="1.64475"/>
<path d="M308.56 0L308.56 31.2502" stroke="#00AFFE" stroke-width="1.64475"/>
<path d="M370.76 0L370.76 31.2502" stroke="#00AFFE" stroke-width="1.64475"/>
<path d="M432.96 0L432.96 31.2502" stroke="#00AFFE" stroke-width="1.64475"/>
<path d="M370.76 0L370.76 31.2502" stroke="#00AFFE" stroke-width="1.64475"/>
</svg>
