<svg width="622" height="68" viewBox="0 0 622 68" fill="none" xmlns="http://www.w3.org/2000/svg">
<rect width="622" height="67.176" fill="#ED1B24"/>
<path d="M12.4399 0V16.8587" stroke="white" stroke-width="1.64475"/>
<path d="M74.6401 0V16.8587" stroke="white" stroke-width="1.64475"/>
<path d="M136.84 0V16.8587" stroke="white" stroke-width="1.64475"/>
<path d="M199.04 0V16.8587" stroke="white" stroke-width="1.64475"/>
<path d="M261.24 0V16.8587" stroke="white" stroke-width="1.64475"/>
<path d="M323.44 0V16.8587" stroke="white" stroke-width="1.64475"/>
<path d="M385.64 0V16.8587" stroke="white" stroke-width="1.64475"/>
<path d="M447.84 0V16.8587" stroke="white" stroke-width="1.64475"/>
<path d="M510.04 0V16.8587" stroke="white" stroke-width="1.64475"/>
<path d="M572.24 0V16.8587" stroke="white" stroke-width="1.64475"/>
<path d="M24.8799 0V16.8587" stroke="white" stroke-width="1.64475"/>
<path d="M87.0801 0V16.8587" stroke="white" stroke-width="1.64475"/>
<path d="M149.28 0V16.8587" stroke="white" stroke-width="1.64475"/>
<path d="M211.48 0V16.8587" stroke="white" stroke-width="1.64475"/>
<path d="M273.68 0V16.8587" stroke="white" stroke-width="1.64475"/>
<path d="M335.88 0V16.8587" stroke="white" stroke-width="1.64475"/>
<path d="M398.08 0V16.8587" stroke="white" stroke-width="1.64475"/>
<path d="M460.28 0V16.8587" stroke="white" stroke-width="1.64475"/>
<path d="M522.48 0V16.8587" stroke="white" stroke-width="1.64475"/>
<path d="M584.68 0V16.8587" stroke="white" stroke-width="1.64475"/>
<path d="M37.3198 0V16.8587" stroke="white" stroke-width="1.64475"/>
<path d="M99.52 0V16.8587" stroke="white" stroke-width="1.64475"/>
<path d="M161.72 0V16.8587" stroke="white" stroke-width="1.64475"/>
<path d="M223.92 0V16.8587" stroke="white" stroke-width="1.64475"/>
<path d="M286.12 0V16.8587" stroke="white" stroke-width="1.64475"/>
<path d="M348.32 0V16.8587" stroke="white" stroke-width="1.64475"/>
<path d="M410.52 0V16.8587" stroke="white" stroke-width="1.64475"/>
<path d="M472.72 0V16.8587" stroke="white" stroke-width="1.64475"/>
<path d="M534.92 0V16.8587" stroke="white" stroke-width="1.64475"/>
<path d="M597.12 0V16.8587" stroke="white" stroke-width="1.64475"/>
<path d="M49.7598 0V16.8587" stroke="white" stroke-width="1.64475"/>
<path d="M111.96 0V16.8587" stroke="white" stroke-width="1.64475"/>
<path d="M174.16 0V16.8587" stroke="white" stroke-width="1.64475"/>
<path d="M236.36 0V16.8587" stroke="white" stroke-width="1.64475"/>
<path d="M298.56 0V16.8587" stroke="white" stroke-width="1.64475"/>
<path d="M360.76 0V16.8587" stroke="white" stroke-width="1.64475"/>
<path d="M422.96 0V16.8587" stroke="white" stroke-width="1.64475"/>
<path d="M485.16 0V16.8587" stroke="white" stroke-width="1.64475"/>
<path d="M547.36 0V16.8587" stroke="white" stroke-width="1.64475"/>
<path d="M609.56 0V16.8587" stroke="white" stroke-width="1.64475"/>
<path d="M62.2002 0L62.2002 31.2502" stroke="white" stroke-width="1.64475"/>
<path d="M124.4 0L124.4 31.2502" stroke="white" stroke-width="1.64475"/>
<path d="M186.6 0L186.6 31.2502" stroke="white" stroke-width="1.64475"/>
<path d="M248.8 0L248.8 31.2502" stroke="white" stroke-width="1.64475"/>
<path d="M311 0L311 31.2502" stroke="white" stroke-width="1.64475"/>
<path d="M62.2002 0L62.2002 31.2502" stroke="white" stroke-width="1.64475"/>
<path d="M124.4 0L124.4 31.2502" stroke="white" stroke-width="1.64475"/>
<path d="M186.6 0L186.6 31.2502" stroke="white" stroke-width="1.64475"/>
<path d="M248.8 0L248.8 31.2502" stroke="white" stroke-width="1.64475"/>
<path d="M311 0L311 31.2502" stroke="white" stroke-width="1.64475"/>
<path d="M373.2 0L373.2 31.2502" stroke="white" stroke-width="1.64475"/>
<path d="M435.4 0L435.4 31.2502" stroke="white" stroke-width="1.64475"/>
<path d="M497.6 0L497.6 31.2502" stroke="white" stroke-width="1.64475"/>
<path d="M559.8 0L559.8 31.2502" stroke="white" stroke-width="1.64475"/>
<path d="M373.2 0L373.2 31.2502" stroke="white" stroke-width="1.64475"/>
<path d="M435.4 0L435.4 31.2502" stroke="white" stroke-width="1.64475"/>
<path d="M497.6 0L497.6 31.2502" stroke="white" stroke-width="1.64475"/>
<path d="M559.8 0L559.8 31.2502" stroke="white" stroke-width="1.64475"/>
</svg>
