<svg width="1354" height="73" viewBox="0 0 1354 73" fill="none" xmlns="http://www.w3.org/2000/svg">
<rect width="675.926" height="73" fill="white"/>
<path d="M13.5178 0V18.3203" stroke="#00AFFE" stroke-width="3"/>
<path d="M81.1118 0V18.3203" stroke="#00AFFE" stroke-width="3"/>
<path d="M148.704 0V18.3203" stroke="#00AFFE" stroke-width="3"/>
<path d="M216.295 0V18.3203" stroke="#00AFFE" stroke-width="3"/>
<path d="M283.889 0V18.3203" stroke="#00AFFE" stroke-width="3"/>
<path d="M351.481 0V18.3203" stroke="#00AFFE" stroke-width="3"/>
<path d="M419.075 0V18.3203" stroke="#00AFFE" stroke-width="3"/>
<path d="M486.667 0V18.3203" stroke="#00AFFE" stroke-width="3"/>
<path d="M554.258 0V18.3203" stroke="#00AFFE" stroke-width="3"/>
<path d="M621.852 0V18.3203" stroke="#00AFFE" stroke-width="3"/>
<path d="M27.0381 0V18.3203" stroke="#00AFFE" stroke-width="3"/>
<path d="M94.6296 0V18.3203" stroke="#00AFFE" stroke-width="3"/>
<path d="M162.221 0V18.3203" stroke="#00AFFE" stroke-width="3"/>
<path d="M229.815 0V18.3203" stroke="#00AFFE" stroke-width="3"/>
<path d="M297.407 0V18.3203" stroke="#00AFFE" stroke-width="3"/>
<path d="M365.001 0V18.3203" stroke="#00AFFE" stroke-width="3"/>
<path d="M432.593 0V18.3203" stroke="#00AFFE" stroke-width="3"/>
<path d="M500.184 0V18.3203" stroke="#00AFFE" stroke-width="3"/>
<path d="M567.778 0V18.3203" stroke="#00AFFE" stroke-width="3"/>
<path d="M635.37 0V18.3203" stroke="#00AFFE" stroke-width="3"/>
<path d="M40.5559 0V18.3203" stroke="#00AFFE" stroke-width="3"/>
<path d="M108.148 0V18.3203" stroke="#00AFFE" stroke-width="3"/>
<path d="M175.741 0V18.3203" stroke="#00AFFE" stroke-width="3"/>
<path d="M243.333 0V18.3203" stroke="#00AFFE" stroke-width="3"/>
<path d="M310.925 0V18.3203" stroke="#00AFFE" stroke-width="3"/>
<path d="M378.519 0V18.3203" stroke="#00AFFE" stroke-width="3"/>
<path d="M446.111 0V18.3203" stroke="#00AFFE" stroke-width="3"/>
<path d="M513.705 0V18.3203" stroke="#00AFFE" stroke-width="3"/>
<path d="M581.296 0V18.3203" stroke="#00AFFE" stroke-width="3"/>
<path d="M648.888 0V18.3203" stroke="#00AFFE" stroke-width="3"/>
<path d="M54.0737 0V18.3203" stroke="#00AFFE" stroke-width="3"/>
<path d="M121.668 0V18.3203" stroke="#00AFFE" stroke-width="3"/>
<path d="M189.26 0V18.3203" stroke="#00AFFE" stroke-width="3"/>
<path d="M256.851 0V18.3203" stroke="#00AFFE" stroke-width="3"/>
<path d="M324.445 0V18.3203" stroke="#00AFFE" stroke-width="3"/>
<path d="M392.037 0V18.3203" stroke="#00AFFE" stroke-width="3"/>
<path d="M459.631 0V18.3203" stroke="#00AFFE" stroke-width="3"/>
<path d="M527.222 0V18.3203" stroke="#00AFFE" stroke-width="3"/>
<path d="M594.814 0V18.3203" stroke="#00AFFE" stroke-width="3"/>
<path d="M662.408 0V18.3203" stroke="#00AFFE" stroke-width="3"/>
<path d="M67.5918 0L67.5918 33.9595" stroke="#00AFFE" stroke-width="3"/>
<path d="M135.186 0L135.186 33.9595" stroke="#00AFFE" stroke-width="3"/>
<path d="M202.777 0L202.777 33.9595" stroke="#00AFFE" stroke-width="3"/>
<path d="M270.371 0L270.371 33.9595" stroke="#00AFFE" stroke-width="3"/>
<path d="M337.963 0L337.963 33.9595" stroke="#00AFFE" stroke-width="3"/>
<path d="M67.5918 0L67.5918 33.9595" stroke="#00AFFE" stroke-width="3"/>
<path d="M135.186 0L135.186 33.9595" stroke="#00AFFE" stroke-width="3"/>
<path d="M202.777 0L202.777 33.9595" stroke="#00AFFE" stroke-width="3"/>
<path d="M270.371 0L270.371 33.9595" stroke="#00AFFE" stroke-width="3"/>
<path d="M337.963 0L337.963 33.9595" stroke="#00AFFE" stroke-width="3"/>
<path d="M405.555 0L405.555 33.9595" stroke="#00AFFE" stroke-width="3"/>
<path d="M473.148 0L473.148 33.9595" stroke="#00AFFE" stroke-width="3"/>
<path d="M540.74 0L540.74 33.9595" stroke="#00AFFE" stroke-width="3"/>
<path d="M608.334 0L608.334 33.9595" stroke="#00AFFE" stroke-width="3"/>
<path d="M405.555 0L405.555 33.9595" stroke="#00AFFE" stroke-width="3"/>
<path d="M473.148 0L473.148 33.9595" stroke="#00AFFE" stroke-width="3"/>
<path d="M540.74 0L540.74 33.9595" stroke="#00AFFE" stroke-width="3"/>
<path d="M608.334 0L608.334 33.9595" stroke="#00AFFE" stroke-width="3"/>
<path d="M675.926 0L675.926 33.9595" stroke="#00AFFE" stroke-width="3"/>
<rect x="609.638" width="675.926" height="73" fill="white"/>
<path d="M623.156 0V18.3203" stroke="#00AFFE" stroke-width="3"/>
<path d="M690.75 0V18.3203" stroke="#00AFFE" stroke-width="3"/>
<path d="M758.342 0V18.3203" stroke="#00AFFE" stroke-width="3"/>
<path d="M825.933 0V18.3203" stroke="#00AFFE" stroke-width="3"/>
<path d="M893.527 0V18.3203" stroke="#00AFFE" stroke-width="3"/>
<path d="M961.119 0V18.3203" stroke="#00AFFE" stroke-width="3"/>
<path d="M1028.71 0V18.3203" stroke="#00AFFE" stroke-width="3"/>
<path d="M1096.3 0V18.3203" stroke="#00AFFE" stroke-width="3"/>
<path d="M1163.9 0V18.3203" stroke="#00AFFE" stroke-width="3"/>
<path d="M1231.49 0V18.3203" stroke="#00AFFE" stroke-width="3"/>
<path d="M636.676 0V18.3203" stroke="#00AFFE" stroke-width="3"/>
<path d="M704.268 0V18.3203" stroke="#00AFFE" stroke-width="3"/>
<path d="M771.859 0V18.3203" stroke="#00AFFE" stroke-width="3"/>
<path d="M839.453 0V18.3203" stroke="#00AFFE" stroke-width="3"/>
<path d="M907.045 0V18.3203" stroke="#00AFFE" stroke-width="3"/>
<path d="M974.639 0V18.3203" stroke="#00AFFE" stroke-width="3"/>
<path d="M1042.23 0V18.3203" stroke="#00AFFE" stroke-width="3"/>
<path d="M1109.82 0V18.3203" stroke="#00AFFE" stroke-width="3"/>
<path d="M1177.42 0V18.3203" stroke="#00AFFE" stroke-width="3"/>
<path d="M1245.01 0V18.3203" stroke="#00AFFE" stroke-width="3"/>
<path d="M650.194 0V18.3203" stroke="#00AFFE" stroke-width="3"/>
<path d="M717.786 0V18.3203" stroke="#00AFFE" stroke-width="3"/>
<path d="M785.379 0V18.3203" stroke="#00AFFE" stroke-width="3"/>
<path d="M852.971 0V18.3203" stroke="#00AFFE" stroke-width="3"/>
<path d="M920.563 0V18.3203" stroke="#00AFFE" stroke-width="3"/>
<path d="M988.157 0V18.3203" stroke="#00AFFE" stroke-width="3"/>
<path d="M1055.75 0V18.3203" stroke="#00AFFE" stroke-width="3"/>
<path d="M1123.34 0V18.3203" stroke="#00AFFE" stroke-width="3"/>
<path d="M1190.93 0V18.3203" stroke="#00AFFE" stroke-width="3"/>
<path d="M1258.53 0V18.3203" stroke="#00AFFE" stroke-width="3"/>
<path d="M663.712 0V18.3203" stroke="#00AFFE" stroke-width="3"/>
<path d="M731.306 0V18.3203" stroke="#00AFFE" stroke-width="3"/>
<path d="M798.897 0V18.3203" stroke="#00AFFE" stroke-width="3"/>
<path d="M866.489 0V18.3203" stroke="#00AFFE" stroke-width="3"/>
<path d="M934.083 0V18.3203" stroke="#00AFFE" stroke-width="3"/>
<path d="M1001.67 0V18.3203" stroke="#00AFFE" stroke-width="3"/>
<path d="M1069.27 0V18.3203" stroke="#00AFFE" stroke-width="3"/>
<path d="M1136.86 0V18.3203" stroke="#00AFFE" stroke-width="3"/>
<path d="M1204.45 0V18.3203" stroke="#00AFFE" stroke-width="3"/>
<path d="M1272.05 0V18.3203" stroke="#00AFFE" stroke-width="3"/>
<path d="M677.23 0L677.23 33.9595" stroke="#00AFFE" stroke-width="3"/>
<path d="M744.823 0L744.823 33.9595" stroke="#00AFFE" stroke-width="3"/>
<path d="M812.415 0L812.415 33.9595" stroke="#00AFFE" stroke-width="3"/>
<path d="M880.009 0L880.009 33.9595" stroke="#00AFFE" stroke-width="3"/>
<path d="M947.601 0L947.601 33.9595" stroke="#00AFFE" stroke-width="3"/>
<path d="M677.23 0L677.23 33.9595" stroke="#00AFFE" stroke-width="3"/>
<path d="M744.823 0L744.823 33.9595" stroke="#00AFFE" stroke-width="3"/>
<path d="M812.415 0L812.415 33.9595" stroke="#00AFFE" stroke-width="3"/>
<path d="M880.009 0L880.009 33.9595" stroke="#00AFFE" stroke-width="3"/>
<path d="M947.601 0L947.601 33.9595" stroke="#00AFFE" stroke-width="3"/>
<path d="M1015.19 0L1015.19 33.9595" stroke="#00AFFE" stroke-width="3"/>
<path d="M1082.79 0L1082.79 33.9595" stroke="#00AFFE" stroke-width="3"/>
<path d="M1150.38 0L1150.38 33.9595" stroke="#00AFFE" stroke-width="3"/>
<path d="M1217.97 0L1217.97 33.9595" stroke="#00AFFE" stroke-width="3"/>
<path d="M1015.19 0L1015.19 33.9595" stroke="#00AFFE" stroke-width="3"/>
<path d="M1082.79 0L1082.79 33.9595" stroke="#00AFFE" stroke-width="3"/>
<path d="M1150.38 0L1150.38 33.9595" stroke="#00AFFE" stroke-width="3"/>
<path d="M1217.97 0L1217.97 33.9595" stroke="#00AFFE" stroke-width="3"/>
<path d="M1285.56 0L1285.56 33.9595" stroke="#00AFFE" stroke-width="3"/>
<rect x="1219.27" width="675.926" height="73" fill="white"/>
<path d="M1232.79 0V18.3203" stroke="#00AFFE" stroke-width="3"/>
<path d="M1300.39 0V18.3203" stroke="#00AFFE" stroke-width="3"/>
<path d="M1246.31 0V18.3203" stroke="#00AFFE" stroke-width="3"/>
<path d="M1313.9 0V18.3203" stroke="#00AFFE" stroke-width="3"/>
<path d="M1259.83 0V18.3203" stroke="#00AFFE" stroke-width="3"/>
<path d="M1327.42 0V18.3203" stroke="#00AFFE" stroke-width="3"/>
<path d="M1273.35 0V18.3203" stroke="#00AFFE" stroke-width="3"/>
<path d="M1340.94 0V18.3203" stroke="#00AFFE" stroke-width="3"/>
<path d="M1286.87 0L1286.87 33.9595" stroke="#00AFFE" stroke-width="3"/>
<path d="M1354.46 0L1354.46 33.9595" stroke="#00AFFE" stroke-width="3"/>
<path d="M1286.87 0L1286.87 33.9595" stroke="#00AFFE" stroke-width="3"/>
<path d="M1354.46 0L1354.46 33.9595" stroke="#00AFFE" stroke-width="3"/>
</svg>
