<svg width="1021" height="73" viewBox="0 0 1021 73" fill="none" xmlns="http://www.w3.org/2000/svg">
<rect x="-265.362" width="675.926" height="73" fill="#C1ECFF"/>
<path d="M18.5271 0V18.3203" stroke="#00AFFE" stroke-width="3"/>
<path d="M86.1189 0V18.3203" stroke="#00AFFE" stroke-width="3"/>
<path d="M153.713 0V18.3203" stroke="#00AFFE" stroke-width="3"/>
<path d="M221.304 0V18.3203" stroke="#00AFFE" stroke-width="3"/>
<path d="M288.896 0V18.3203" stroke="#00AFFE" stroke-width="3"/>
<path d="M356.49 0V18.3203" stroke="#00AFFE" stroke-width="3"/>
<path d="M32.0449 0V18.3203" stroke="#00AFFE" stroke-width="3"/>
<path d="M99.6389 0V18.3203" stroke="#00AFFE" stroke-width="3"/>
<path d="M167.23 0V18.3203" stroke="#00AFFE" stroke-width="3"/>
<path d="M234.822 0V18.3203" stroke="#00AFFE" stroke-width="3"/>
<path d="M302.416 0V18.3203" stroke="#00AFFE" stroke-width="3"/>
<path d="M370.008 0V18.3203" stroke="#00AFFE" stroke-width="3"/>
<path d="M45.563 0V18.3203" stroke="#00AFFE" stroke-width="3"/>
<path d="M113.157 0V18.3203" stroke="#00AFFE" stroke-width="3"/>
<path d="M180.749 0V18.3203" stroke="#00AFFE" stroke-width="3"/>
<path d="M248.342 0V18.3203" stroke="#00AFFE" stroke-width="3"/>
<path d="M315.934 0V18.3203" stroke="#00AFFE" stroke-width="3"/>
<path d="M383.526 0V18.3203" stroke="#00AFFE" stroke-width="3"/>
<path d="M59.083 0V18.3203" stroke="#00AFFE" stroke-width="3"/>
<path d="M126.675 0V18.3203" stroke="#00AFFE" stroke-width="3"/>
<path d="M194.269 0V18.3203" stroke="#00AFFE" stroke-width="3"/>
<path d="M261.86 0V18.3203" stroke="#00AFFE" stroke-width="3"/>
<path d="M329.452 0V18.3203" stroke="#00AFFE" stroke-width="3"/>
<path d="M397.046 0V18.3203" stroke="#00AFFE" stroke-width="3"/>
<path d="M5.00903 0L5.00903 33.9595" stroke="#00AFFE" stroke-width="3"/>
<path d="M72.6008 0L72.6008 33.9595" stroke="#00AFFE" stroke-width="3"/>
<path d="M5.00903 0L5.00903 33.9595" stroke="#00AFFE" stroke-width="3"/>
<path d="M72.6008 0L72.6008 33.9595" stroke="#00AFFE" stroke-width="3"/>
<path d="M140.193 0L140.193 33.9595" stroke="#00AFFE" stroke-width="3"/>
<path d="M207.786 0L207.786 33.9595" stroke="#00AFFE" stroke-width="3"/>
<path d="M275.378 0L275.378 33.9595" stroke="#00AFFE" stroke-width="3"/>
<path d="M342.972 0L342.972 33.9595" stroke="#00AFFE" stroke-width="3"/>
<path d="M140.193 0L140.193 33.9595" stroke="#00AFFE" stroke-width="3"/>
<path d="M207.786 0L207.786 33.9595" stroke="#00AFFE" stroke-width="3"/>
<path d="M275.378 0L275.378 33.9595" stroke="#00AFFE" stroke-width="3"/>
<path d="M342.972 0L342.972 33.9595" stroke="#00AFFE" stroke-width="3"/>
<path d="M410.564 0L410.564 33.9595" stroke="#00AFFE" stroke-width="3"/>
<rect x="344.274" width="675.926" height="73" fill="#C1ECFF"/>
<path d="M357.792 0V18.3203" stroke="#00AFFE" stroke-width="3"/>
<path d="M425.386 0V18.3203" stroke="#00AFFE" stroke-width="3"/>
<path d="M492.978 0V18.3203" stroke="#00AFFE" stroke-width="3"/>
<path d="M560.569 0V18.3203" stroke="#00AFFE" stroke-width="3"/>
<path d="M628.163 0V18.3203" stroke="#00AFFE" stroke-width="3"/>
<path d="M695.755 0V18.3203" stroke="#00AFFE" stroke-width="3"/>
<path d="M763.349 0V18.3203" stroke="#00AFFE" stroke-width="3"/>
<path d="M830.94 0V18.3203" stroke="#00AFFE" stroke-width="3"/>
<path d="M898.532 0V18.3203" stroke="#00AFFE" stroke-width="3"/>
<path d="M966.126 0V18.3203" stroke="#00AFFE" stroke-width="3"/>
<path d="M371.312 0V18.3203" stroke="#00AFFE" stroke-width="3"/>
<path d="M438.904 0V18.3203" stroke="#00AFFE" stroke-width="3"/>
<path d="M506.495 0V18.3203" stroke="#00AFFE" stroke-width="3"/>
<path d="M574.089 0V18.3203" stroke="#00AFFE" stroke-width="3"/>
<path d="M641.681 0V18.3203" stroke="#00AFFE" stroke-width="3"/>
<path d="M709.275 0V18.3203" stroke="#00AFFE" stroke-width="3"/>
<path d="M776.867 0V18.3203" stroke="#00AFFE" stroke-width="3"/>
<path d="M844.458 0V18.3203" stroke="#00AFFE" stroke-width="3"/>
<path d="M912.052 0V18.3203" stroke="#00AFFE" stroke-width="3"/>
<path d="M979.644 0V18.3203" stroke="#00AFFE" stroke-width="3"/>
<path d="M384.83 0V18.3203" stroke="#00AFFE" stroke-width="3"/>
<path d="M452.422 0V18.3203" stroke="#00AFFE" stroke-width="3"/>
<path d="M520.015 0V18.3203" stroke="#00AFFE" stroke-width="3"/>
<path d="M587.607 0V18.3203" stroke="#00AFFE" stroke-width="3"/>
<path d="M655.199 0V18.3203" stroke="#00AFFE" stroke-width="3"/>
<path d="M722.793 0V18.3203" stroke="#00AFFE" stroke-width="3"/>
<path d="M790.385 0V18.3203" stroke="#00AFFE" stroke-width="3"/>
<path d="M857.978 0V18.3203" stroke="#00AFFE" stroke-width="3"/>
<path d="M925.57 0V18.3203" stroke="#00AFFE" stroke-width="3"/>
<path d="M993.162 0V18.3203" stroke="#00AFFE" stroke-width="3"/>
<path d="M398.348 0V18.3203" stroke="#00AFFE" stroke-width="3"/>
<path d="M465.942 0V18.3203" stroke="#00AFFE" stroke-width="3"/>
<path d="M533.533 0V18.3203" stroke="#00AFFE" stroke-width="3"/>
<path d="M601.125 0V18.3203" stroke="#00AFFE" stroke-width="3"/>
<path d="M668.719 0V18.3203" stroke="#00AFFE" stroke-width="3"/>
<path d="M736.311 0V18.3203" stroke="#00AFFE" stroke-width="3"/>
<path d="M803.905 0V18.3203" stroke="#00AFFE" stroke-width="3"/>
<path d="M871.496 0V18.3203" stroke="#00AFFE" stroke-width="3"/>
<path d="M939.088 0V18.3203" stroke="#00AFFE" stroke-width="3"/>
<path d="M1006.68 0V18.3203" stroke="#00AFFE" stroke-width="3"/>
<path d="M411.866 0L411.866 33.9595" stroke="#00AFFE" stroke-width="3"/>
<path d="M479.459 0L479.459 33.9595" stroke="#00AFFE" stroke-width="3"/>
<path d="M547.051 0L547.051 33.9595" stroke="#00AFFE" stroke-width="3"/>
<path d="M614.645 0L614.645 33.9595" stroke="#00AFFE" stroke-width="3"/>
<path d="M682.237 0L682.237 33.9595" stroke="#00AFFE" stroke-width="3"/>
<path d="M411.866 0L411.866 33.9595" stroke="#00AFFE" stroke-width="3"/>
<path d="M479.459 0L479.459 33.9595" stroke="#00AFFE" stroke-width="3"/>
<path d="M547.051 0L547.051 33.9595" stroke="#00AFFE" stroke-width="3"/>
<path d="M614.645 0L614.645 33.9595" stroke="#00AFFE" stroke-width="3"/>
<path d="M682.237 0L682.237 33.9595" stroke="#00AFFE" stroke-width="3"/>
<path d="M749.829 0L749.829 33.9595" stroke="#00AFFE" stroke-width="3"/>
<path d="M817.422 0L817.422 33.9595" stroke="#00AFFE" stroke-width="3"/>
<path d="M885.014 0L885.014 33.9595" stroke="#00AFFE" stroke-width="3"/>
<path d="M952.608 0L952.608 33.9595" stroke="#00AFFE" stroke-width="3"/>
<path d="M749.829 0L749.829 33.9595" stroke="#00AFFE" stroke-width="3"/>
<path d="M817.422 0L817.422 33.9595" stroke="#00AFFE" stroke-width="3"/>
<path d="M885.014 0L885.014 33.9595" stroke="#00AFFE" stroke-width="3"/>
<path d="M952.608 0L952.608 33.9595" stroke="#00AFFE" stroke-width="3"/>
</svg>
