<svg width="549" height="73" viewBox="0 0 549 73" fill="none" xmlns="http://www.w3.org/2000/svg">
<rect width="549" height="73" fill="#C1ECFF"/>
<path d="M13.5178 0V18.3203" stroke="#00AFFE" stroke-width="3"/>
<path d="M81.1118 0V18.3203" stroke="#00AFFE" stroke-width="3"/>
<path d="M148.704 0V18.3203" stroke="#00AFFE" stroke-width="3"/>
<path d="M216.295 0V18.3203" stroke="#00AFFE" stroke-width="3"/>
<path d="M283.889 0V18.3203" stroke="#00AFFE" stroke-width="3"/>
<path d="M351.481 0V18.3203" stroke="#00AFFE" stroke-width="3"/>
<path d="M419.075 0V18.3203" stroke="#00AFFE" stroke-width="3"/>
<path d="M486.667 0V18.3203" stroke="#00AFFE" stroke-width="3"/>
<path d="M27.0381 0V18.3203" stroke="#00AFFE" stroke-width="3"/>
<path d="M94.6296 0V18.3203" stroke="#00AFFE" stroke-width="3"/>
<path d="M162.222 0V18.3203" stroke="#00AFFE" stroke-width="3"/>
<path d="M229.815 0V18.3203" stroke="#00AFFE" stroke-width="3"/>
<path d="M297.407 0V18.3203" stroke="#00AFFE" stroke-width="3"/>
<path d="M365.001 0V18.3203" stroke="#00AFFE" stroke-width="3"/>
<path d="M432.593 0V18.3203" stroke="#00AFFE" stroke-width="3"/>
<path d="M500.185 0V18.3203" stroke="#00AFFE" stroke-width="3"/>
<path d="M40.5559 0V18.3203" stroke="#00AFFE" stroke-width="3"/>
<path d="M108.148 0V18.3203" stroke="#00AFFE" stroke-width="3"/>
<path d="M175.741 0V18.3203" stroke="#00AFFE" stroke-width="3"/>
<path d="M243.333 0V18.3203" stroke="#00AFFE" stroke-width="3"/>
<path d="M310.925 0V18.3203" stroke="#00AFFE" stroke-width="3"/>
<path d="M378.519 0V18.3203" stroke="#00AFFE" stroke-width="3"/>
<path d="M446.11 0V18.3203" stroke="#00AFFE" stroke-width="3"/>
<path d="M513.705 0V18.3203" stroke="#00AFFE" stroke-width="3"/>
<path d="M54.0737 0V18.3203" stroke="#00AFFE" stroke-width="3"/>
<path d="M121.668 0V18.3203" stroke="#00AFFE" stroke-width="3"/>
<path d="M189.26 0V18.3203" stroke="#00AFFE" stroke-width="3"/>
<path d="M256.851 0V18.3203" stroke="#00AFFE" stroke-width="3"/>
<path d="M324.445 0V18.3203" stroke="#00AFFE" stroke-width="3"/>
<path d="M392.037 0V18.3203" stroke="#00AFFE" stroke-width="3"/>
<path d="M459.631 0V18.3203" stroke="#00AFFE" stroke-width="3"/>
<path d="M527.223 0V18.3203" stroke="#00AFFE" stroke-width="3"/>
<path d="M67.5918 0L67.5918 33.9595" stroke="#00AFFE" stroke-width="3"/>
<path d="M135.186 0L135.186 33.9595" stroke="#00AFFE" stroke-width="3"/>
<path d="M202.777 0L202.777 33.9595" stroke="#00AFFE" stroke-width="3"/>
<path d="M270.371 0L270.371 33.9595" stroke="#00AFFE" stroke-width="3"/>
<path d="M337.963 0L337.963 33.9595" stroke="#00AFFE" stroke-width="3"/>
<path d="M405.555 0L405.555 33.9595" stroke="#00AFFE" stroke-width="3"/>
<path d="M473.148 0L473.148 33.9595" stroke="#00AFFE" stroke-width="3"/>
<path d="M540.74 0L540.74 33.9595" stroke="#00AFFE" stroke-width="3"/>
</svg>
