<svg width="429" height="86" viewBox="0 0 429 86" fill="none" xmlns="http://www.w3.org/2000/svg">
<rect x="-365" width="793.891" height="85.7402" fill="#ED1B24"/>
<path d="M47.8242 0V21.5176" stroke="white" stroke-width="3"/>
<path d="M127.214 0V21.5176" stroke="white" stroke-width="3"/>
<path d="M206.601 0V21.5176" stroke="white" stroke-width="3"/>
<path d="M285.989 0V21.5176" stroke="white" stroke-width="3"/>
<path d="M365.379 0V21.5176" stroke="white" stroke-width="3"/>
<path d="M63.7009 0V21.5176" stroke="white" stroke-width="3"/>
<path d="M143.091 0V21.5176" stroke="white" stroke-width="3"/>
<path d="M222.478 0V21.5176" stroke="white" stroke-width="3"/>
<path d="M301.868 0V21.5176" stroke="white" stroke-width="3"/>
<path d="M381.258 0V21.5176" stroke="white" stroke-width="3"/>
<path d="M0.1875 0L0.1875 21.5176" stroke="white" stroke-width="3"/>
<path d="M79.5779 0V21.5176" stroke="white" stroke-width="3"/>
<path d="M158.968 0V21.5176" stroke="white" stroke-width="3"/>
<path d="M238.358 0V21.5176" stroke="white" stroke-width="3"/>
<path d="M317.745 0V21.5176" stroke="white" stroke-width="3"/>
<path d="M397.135 0V21.5176" stroke="white" stroke-width="3"/>
<path d="M16.0684 0V21.5176" stroke="white" stroke-width="3"/>
<path d="M95.4568 0V21.5176" stroke="white" stroke-width="3"/>
<path d="M174.847 0V21.5176" stroke="white" stroke-width="3"/>
<path d="M254.235 0V21.5176" stroke="white" stroke-width="3"/>
<path d="M333.622 0V21.5176" stroke="white" stroke-width="3"/>
<path d="M413.014 0V21.5176" stroke="white" stroke-width="3"/>
<path d="M31.9453 0L31.9453 39.8863" stroke="white" stroke-width="3"/>
<path d="M31.9453 0L31.9453 39.8863" stroke="white" stroke-width="3"/>
<path d="M111.333 0L111.333 39.8863" stroke="white" stroke-width="3"/>
<path d="M190.724 0L190.724 39.8863" stroke="white" stroke-width="3"/>
<path d="M270.112 0L270.112 39.8863" stroke="white" stroke-width="3"/>
<path d="M349.502 0L349.502 39.8863" stroke="white" stroke-width="3"/>
<path d="M111.333 0L111.333 39.8863" stroke="white" stroke-width="3"/>
<path d="M190.724 0L190.724 39.8863" stroke="white" stroke-width="3"/>
<path d="M270.112 0L270.112 39.8863" stroke="white" stroke-width="3"/>
<path d="M349.502 0L349.502 39.8863" stroke="white" stroke-width="3"/>
</svg>
