<svg width="582" height="86" viewBox="0 0 582 86" fill="none" xmlns="http://www.w3.org/2000/svg">
<rect width="793.891" height="85.7402" fill="#ED1B24"/>
<path d="M15.8767 0L15.8767 21.5176" stroke="white" stroke-width="3"/>
<path d="M95.2668 0V21.5176" stroke="white" stroke-width="3"/>
<path d="M174.655 0V21.5176" stroke="white" stroke-width="3"/>
<path d="M254.043 0V21.5176" stroke="white" stroke-width="3"/>
<path d="M333.434 0V21.5176" stroke="white" stroke-width="3"/>
<path d="M412.824 0V21.5176" stroke="white" stroke-width="3"/>
<path d="M492.214 0V21.5176" stroke="white" stroke-width="3"/>
<path d="M571.601 0V21.5176" stroke="white" stroke-width="3"/>
<path d="M31.7576 0V21.5176" stroke="white" stroke-width="3"/>
<path d="M111.144 0V21.5176" stroke="white" stroke-width="3"/>
<path d="M190.532 0V21.5176" stroke="white" stroke-width="3"/>
<path d="M269.924 0V21.5176" stroke="white" stroke-width="3"/>
<path d="M349.311 0V21.5176" stroke="white" stroke-width="3"/>
<path d="M428.701 0V21.5176" stroke="white" stroke-width="3"/>
<path d="M508.091 0V21.5176" stroke="white" stroke-width="3"/>
<path d="M47.6343 0V21.5176" stroke="white" stroke-width="3"/>
<path d="M127.023 0V21.5176" stroke="white" stroke-width="3"/>
<path d="M206.413 0V21.5176" stroke="white" stroke-width="3"/>
<path d="M285.801 0V21.5176" stroke="white" stroke-width="3"/>
<path d="M365.188 0V21.5176" stroke="white" stroke-width="3"/>
<path d="M444.578 0V21.5176" stroke="white" stroke-width="3"/>
<path d="M523.968 0V21.5176" stroke="white" stroke-width="3"/>
<path d="M63.5112 0V21.5176" stroke="white" stroke-width="3"/>
<path d="M142.902 0V21.5176" stroke="white" stroke-width="3"/>
<path d="M222.29 0V21.5176" stroke="white" stroke-width="3"/>
<path d="M301.678 0V21.5176" stroke="white" stroke-width="3"/>
<path d="M381.068 0V21.5176" stroke="white" stroke-width="3"/>
<path d="M460.457 0V21.5176" stroke="white" stroke-width="3"/>
<path d="M539.847 0V21.5176" stroke="white" stroke-width="3"/>
<path d="M79.3882 0L79.3882 39.8863" stroke="white" stroke-width="3"/>
<path d="M158.778 0L158.778 39.8863" stroke="white" stroke-width="3"/>
<path d="M238.167 0L238.167 39.8863" stroke="white" stroke-width="3"/>
<path d="M317.557 0L317.557 39.8863" stroke="white" stroke-width="3"/>
<path d="M396.945 0L396.945 39.8863" stroke="white" stroke-width="3"/>
<path d="M79.3882 0L79.3882 39.8863" stroke="white" stroke-width="3"/>
<path d="M158.778 0L158.778 39.8863" stroke="white" stroke-width="3"/>
<path d="M238.167 0L238.167 39.8863" stroke="white" stroke-width="3"/>
<path d="M317.557 0L317.557 39.8863" stroke="white" stroke-width="3"/>
<path d="M396.945 0L396.945 39.8863" stroke="white" stroke-width="3"/>
<path d="M476.333 0L476.333 39.8863" stroke="white" stroke-width="3"/>
<path d="M555.724 0L555.724 39.8863" stroke="white" stroke-width="3"/>
<path d="M476.333 0L476.333 39.8863" stroke="white" stroke-width="3"/>
<path d="M555.724 0L555.724 39.8863" stroke="white" stroke-width="3"/>
</svg>
