<svg width="244" height="97" viewBox="0 0 244 97" fill="none" xmlns="http://www.w3.org/2000/svg">
<path fill-rule="evenodd" clip-rule="evenodd" d="M11.9192 26.8147H7.08919V47.5188H0V0.412842H7.08919V19.2804H11.9192V0.412842H19.0077V47.5188H11.9192V26.8147Z" fill="#00AFFE"/>
<path fill-rule="evenodd" clip-rule="evenodd" d="M31.4346 48.139H30.0381C24.3258 48.139 21.2795 45.0321 21.2795 39.1961V29.7454H28.3883V37.9917C28.3883 40.1481 29.0862 41.289 30.7367 41.289C32.45 41.289 33.0851 40.1481 33.0851 37.2301V36.1519C33.0851 32.7911 32.7675 31.5859 30.1658 28.2244L25.5953 22.3891C22.549 18.4564 21.6606 15.4122 21.6606 10.7186V9.19682C21.6606 2.91727 24.8332 0 30.4826 0H31.8156C37.7177 0 40.0026 2.59994 40.0026 8.18209V15.9199H33.0851V9.13335C33.0851 7.54741 32.7675 6.34228 31.0535 6.34228C29.3402 6.34228 28.9591 7.42048 28.9591 9.64035V10.5289C28.9591 13.193 29.4672 14.6513 31.8784 17.759L36.4482 23.6577C39.685 27.8436 40.7004 30.2546 40.7004 35.5814V37.1046C40.7004 44.0166 37.7177 48.139 31.4346 48.139Z" fill="#00AFFE"/>
<path fill-rule="evenodd" clip-rule="evenodd" d="M59.1264 0.412842V7.25014H50.0765V19.5972H57.1777V26.752H50.0765V40.3648H59.503V47.5188H42.9746V0.412842H59.1264Z" fill="#00AFFE"/>
<path fill-rule="evenodd" clip-rule="evenodd" d="M78.0472 31.6275L76.1218 14.2149L74.2613 31.6275H78.0472ZM78.8161 38.6541H73.5558L72.5935 47.5188H66.1125L71.9507 0.412842H80.5489L86.7731 47.5188H79.78L78.8161 38.6541Z" fill="#00AFFE"/>
<path fill-rule="evenodd" clip-rule="evenodd" d="M95.0325 19.7865H96.9501C98.9318 19.7865 99.5715 18.5202 99.5715 16.4309V9.84627C99.5715 7.82035 99.1237 6.80739 96.9501 6.80739H95.0325V19.7865ZM95.0325 47.5188H87.8081V0.412842H99.5083C104.302 0.412842 106.732 2.43876 106.732 7.69364V16.0507C106.732 19.9766 104.877 21.4957 103.6 22.0659C105.197 22.7621 106.732 24.0292 106.732 27.1941V43.7197C106.732 45.6189 107.115 46.5044 107.436 47.2006V47.5188H100.274C99.9546 47.012 99.5715 46.1891 99.5715 43.6563V29.4741C99.5715 27.3841 99.1884 26.4979 96.8862 26.4979H95.0325V47.5188Z" fill="#00AFFE"/>
<path fill-rule="evenodd" clip-rule="evenodd" d="M120.876 7.25014V47.5188H113.827V7.25014H107.847V0.412842H126.855V7.25014H120.876Z" fill="#00AFFE"/>
<path fill-rule="evenodd" clip-rule="evenodd" d="M143.335 31.6275L141.41 14.2149L139.549 31.6275H143.335ZM144.104 38.6541H138.843L137.881 47.5188H131.4L137.239 0.412842H145.836L152.061 47.5188H145.067L144.104 38.6541Z" fill="#00AFFE"/>
<path fill-rule="evenodd" clip-rule="evenodd" d="M159.722 0.412842L165.827 25.675V0.412842H172.309V47.5188H166.519L159.722 20.4194V47.5188H153.301V0.412842H159.722Z" fill="#00AFFE"/>
<path fill-rule="evenodd" clip-rule="evenodd" d="M182.362 40.6801H184.073C186.227 40.6801 186.861 39.5411 186.861 37.0091V10.4798C186.861 7.75699 186.164 6.80739 184.389 6.80739H182.362V40.6801ZM175.202 0.412842H186.164C192.309 0.412842 194.21 3.89448 194.21 9.46687V38.148C194.21 43.909 192.056 47.5188 186.164 47.5188H175.202V0.412842Z" fill="#00AFFE"/>
<path fill-rule="evenodd" clip-rule="evenodd" d="M7.15986 89.2333H8.8702C11.0244 89.2333 11.6584 88.0944 11.6584 85.5623V59.0326C11.6584 56.3105 10.9617 55.3601 9.18721 55.3601H7.15986V89.2333ZM0 48.9655H10.9617C17.1064 48.9655 19.0077 52.4479 19.0077 58.0189V86.702C19.0077 92.4623 16.8535 96.0715 10.9617 96.0715H0V48.9655Z" fill="#00AFFE"/>
<path fill-rule="evenodd" clip-rule="evenodd" d="M37.8442 48.9655V55.8036H28.795V68.1494H35.8962V75.3051H28.795V88.918H38.2215V96.0715H21.6931V48.9655H37.8442Z" fill="#00AFFE"/>
<path fill-rule="evenodd" clip-rule="evenodd" d="M49.8245 96.6905H48.428C42.7157 96.6905 39.6694 93.583 39.6694 87.7471V78.2975H46.7782V86.5428C46.7782 88.6991 47.476 89.8407 49.1258 89.8407C50.8399 89.8407 51.475 88.6991 51.475 85.7819V84.7038C51.475 81.3423 51.1574 80.1372 48.5557 76.7758L43.9852 70.9399C40.9389 67.0081 40.0505 63.9647 40.0505 59.272V57.7488C40.0505 51.4694 43.2231 48.5515 48.8725 48.5515H50.2055C56.1076 48.5515 58.3924 51.1536 58.3924 56.7333V64.4724H51.475V57.6853C51.475 56.0994 51.1574 54.8943 49.4434 54.8943C47.7301 54.8943 47.349 55.9725 47.349 58.1923V59.0808C47.349 61.7441 47.8571 63.2038 50.2683 66.3107L54.8381 72.2085C58.0749 76.395 59.0903 78.8052 59.0903 84.1333V85.6557C59.0903 92.5675 56.1076 96.6905 49.8245 96.6905Z" fill="#00AFFE"/>
<mask id="mask0_151_568" style="mask-type:alpha" maskUnits="userSpaceOnUse" x="60" y="48" width="30" height="49">
<path d="M60.9778 48.5721H89.9665V96.6472H60.9778V48.5721Z" fill="white"/>
</mask>
<g mask="url(#mask0_151_568)">
<path fill-rule="evenodd" clip-rule="evenodd" d="M60.9771 96.0586H68.2082V49.0157H60.9771V96.0586Z" fill="#00AFFE"/>
<path fill-rule="evenodd" clip-rule="evenodd" d="M77.6151 96.6916C73.392 96.6916 70.7048 92.9615 70.7048 88.0925V58.6893C70.7048 53.4421 72.7524 48.5724 79.5994 48.5724H81.0066C88.75 48.5724 89.6457 53.5679 89.6457 59.133V63.9387H82.6066V58.626C82.6066 56.5403 82.0944 55.4021 80.3037 55.4021C78.7677 55.4021 78.0633 56.5403 78.0633 58.626V86.1325C78.0633 88.3448 78.959 89.4837 80.431 89.4837C82.2872 89.4837 83.1182 88.219 83.1182 86.4481V74.6876H79.8547V67.479H89.9651V96.0589H85.8701C85.806 95.8058 85.2305 93.4669 84.6542 91.4437C84.1419 93.0248 81.7102 96.6916 78.0633 96.6916H77.6151Z" fill="#00AFFE"/>
</g>
<path fill-rule="evenodd" clip-rule="evenodd" d="M98.7724 48.9655L104.878 74.2273V48.9655H111.36V96.0715H105.57L98.7724 68.9723V96.0715H92.3525V48.9655H98.7724Z" fill="#00AFFE"/>
<path fill-rule="evenodd" clip-rule="evenodd" d="M130.193 96.6905H128.796C123.085 96.6905 120.038 93.583 120.038 87.7471V78.2975H127.146V86.5428C127.146 88.6991 127.844 89.8407 129.495 89.8407C131.208 89.8407 131.842 88.6991 131.842 85.7819V84.7038C131.842 81.3423 131.526 80.1372 128.922 76.7758L124.353 70.9399C121.307 67.0081 120.419 63.9647 120.419 59.272V57.7488C120.419 51.4694 123.592 48.5515 129.241 48.5515H130.574C136.476 48.5515 138.761 51.1536 138.761 56.7333V64.4724H131.842V57.6853C131.842 56.0994 131.526 54.8943 129.812 54.8943C128.098 54.8943 127.718 55.9725 127.718 58.1923V59.0808C127.718 61.7441 128.225 63.2038 130.636 66.3107L135.206 72.2085C138.443 76.395 139.458 78.8052 139.458 84.1333V85.6557C139.458 92.5675 136.476 96.6905 130.193 96.6905Z" fill="#00AFFE"/>
<path fill-rule="evenodd" clip-rule="evenodd" d="M153.138 86.5561V75.5985H160.118V86.4927C160.118 91.5611 158.483 96.6905 151.629 96.6905H150.057C142.888 96.6905 141.317 91.4969 141.317 86.747V57.9895C141.317 53.1769 143.391 48.5515 149.806 48.5515H151.441C159.238 48.5515 160.118 53.7466 160.118 58.3705V66.7936H153.138V58.4965C153.138 56.4698 152.51 55.393 150.75 55.393C148.988 55.393 148.548 56.4071 148.548 58.4965V86.4927C148.548 88.5829 149.24 89.723 150.812 89.723C152.51 89.723 153.138 88.4561 153.138 86.5561Z" fill="#00AFFE"/>
<path fill-rule="evenodd" clip-rule="evenodd" d="M174.311 75.3684H169.481V96.0715H162.392V48.9655H169.481V67.8333H174.311V48.9655H181.4V96.0715H174.311V75.3684Z" fill="#00AFFE"/>
<path fill-rule="evenodd" clip-rule="evenodd" d="M196.408 59.0036C196.408 56.5332 195.582 55.393 193.931 55.393C192.09 55.393 191.39 56.5973 191.39 59.0036V86.1132C191.39 88.1399 191.962 89.723 193.994 89.723C195.9 89.723 196.408 88.1399 196.408 86.1132V59.0036ZM203.713 85.6069C203.713 92.1934 201.489 96.6905 194.566 96.6905H193.359C186.499 96.6905 184.085 92.1934 184.085 85.6069V59.3831C184.085 52.8592 186.563 48.5515 193.295 48.5515H194.503C201.489 48.5515 203.713 52.8593 203.713 59.3197V85.6069Z" fill="#00AFFE"/>
<path fill-rule="evenodd" clip-rule="evenodd" d="M218.101 59.0036C218.101 56.5332 217.275 55.393 215.624 55.393C213.782 55.393 213.083 56.5973 213.083 59.0036V86.1132C213.083 88.1399 213.654 89.723 215.687 89.723C217.593 89.723 218.101 88.1399 218.101 86.1132V59.0036ZM225.406 85.6069C225.406 92.1934 223.183 96.6905 216.259 96.6905H215.052C208.191 96.6905 205.778 92.1934 205.778 85.6069V59.3831C205.778 52.8592 208.255 48.5515 214.988 48.5515H216.196C223.183 48.5515 225.406 52.8593 225.406 59.3197V85.6069Z" fill="#00AFFE"/>
<path fill-rule="evenodd" clip-rule="evenodd" d="M235.254 48.9655V88.7905H244V96.0715H228.091V48.9655H235.254Z" fill="#00AFFE"/>
</svg>
