<svg width="178" height="285" viewBox="0 0 178 285" fill="none" xmlns="http://www.w3.org/2000/svg">
<path d="M7.818 176.142C6.44609 163.521 4.52543 133.339 7.818 113.583" stroke="#00AFFE" stroke-width="10.2766"/>
<path d="M98 7C102.39 14.6827 117.097 29.7187 140.803 28.4017C164.51 27.0847 178.668 13.5851 182.784 7C196.503 11.6645 226.41 24.4506 236.288 38.2794" stroke="#00AFFE" stroke-width="10.2766"/>
<path d="M188 278C182.444 269.158 165.833 251.663 143.833 252.421C121.833 253.179 106.333 269.789 101.333 278C89.1111 272.632 61.3333 257.916 48 242" stroke="#00AFFE" stroke-width="10.2766"/>
<path d="M48.5661 248C52.7451 236.273 57.7002 209.545 44.0886 196.455C27.074 180.091 12.746 176 2 176" stroke="#00AFFE" stroke-width="10.2766"/>
<path d="M2 117C12.6435 117 36.5913 111.587 47.2348 89.9365C57.8783 68.2857 53.4435 47.1587 49.8956 39.3016C62.9043 29.4074 91.9374 9.09524 104 7" stroke="#00AFFE" stroke-width="10.2766"/>
<circle cx="144.829" cy="145.594" r="64.8288" stroke="#00AFFE" stroke-width="10.2766"/>
<circle cx="144.005" cy="146.416" r="12.9708" stroke="#00AFFE" stroke-width="10.2766"/>
</svg>
