<svg width="889" height="881" viewBox="0 0 889 881" fill="none" xmlns="http://www.w3.org/2000/svg">
<circle cx="443.838" cy="439.838" r="331.634" stroke="#00AFFE" stroke-width="4.40802"/>
<circle cx="444" cy="440" r="364.796" stroke="#00AFFE" stroke-width="4.40802"/>
<path d="M885.818 440.059C885.818 681.666 688.115 877.567 444.185 877.567C200.255 877.567 2.55121 681.666 2.55121 440.059C2.55121 198.453 200.255 2.55121 444.185 2.55121C688.115 2.55121 885.818 198.453 885.818 440.059Z" stroke="#00AFFE" stroke-width="5.10241"/>
<path d="M674.449 440C674.449 565.591 571.523 667.449 444.5 667.449C317.477 667.449 214.551 565.591 214.551 440C214.551 314.409 317.477 212.551 444.5 212.551C571.523 212.551 674.449 314.409 674.449 440Z" stroke="#00AFFE" stroke-width="5.10241"/>
<path d="M79.9695 444.842L80.0915 446.474L64.5526 447.636L64.4305 446.003L79.9695 444.842ZM103.879 443.055L104.001 444.687L88.4623 445.848L88.3403 444.216L103.879 443.055ZM127.789 441.267L127.911 442.9L112.372 444.061L112.25 442.429L127.789 441.267Z" fill="#00AFFE"/>
<path d="M79.9695 444.842L80.919 444.771L80.848 443.821L79.8985 443.892L79.9695 444.842ZM80.0915 446.474L80.1625 447.424L81.112 447.353L81.041 446.403L80.0915 446.474ZM64.5526 447.636L63.603 447.707L63.674 448.656L64.6235 448.585L64.5526 447.636ZM64.4305 446.003L64.3596 445.054L63.4101 445.125L63.481 446.074L64.4305 446.003ZM79.02 444.913L79.142 446.545L81.041 446.403L80.919 444.771L79.02 444.913ZM80.0205 445.525L64.4816 446.686L64.6235 448.585L80.1625 447.424L80.0205 445.525ZM65.5021 447.565L65.3801 445.932L63.481 446.074L63.603 447.707L65.5021 447.565ZM64.5015 446.953L80.0404 445.791L79.8985 443.892L64.3596 445.054L64.5015 446.953ZM103.879 443.055L104.829 442.984L104.758 442.034L103.808 442.105L103.879 443.055ZM104.001 444.687L104.072 445.636L105.022 445.565L104.951 444.616L104.001 444.687ZM88.4623 445.848L87.5128 445.919L87.5838 446.869L88.5333 446.798L88.4623 445.848ZM88.3403 444.216L88.2693 443.267L87.3198 443.338L87.3908 444.287L88.3403 444.216ZM102.93 443.126L103.052 444.758L104.951 444.616L104.829 442.984L102.93 443.126ZM103.93 443.737L88.3913 444.899L88.5333 446.798L104.072 445.636L103.93 443.737ZM89.4118 445.777L89.2898 444.145L87.3908 444.287L87.5128 445.919L89.4118 445.777ZM88.4113 445.166L103.95 444.004L103.808 442.105L88.2693 443.267L88.4113 445.166ZM127.789 441.267L128.738 441.196L128.668 440.247L127.718 440.318L127.789 441.267ZM127.911 442.9L127.982 443.849L128.931 443.778L128.861 442.829L127.911 442.9ZM112.372 444.061L111.423 444.132L111.494 445.082L112.443 445.011L112.372 444.061ZM112.25 442.429L112.179 441.479L111.23 441.55L111.301 442.5L112.25 442.429ZM126.839 441.338L126.961 442.971L128.861 442.829L128.738 441.196L126.839 441.338ZM127.84 441.95L112.301 443.112L112.443 445.011L127.982 443.849L127.84 441.95ZM113.322 443.99L113.2 442.358L111.301 442.5L111.423 444.132L113.322 443.99ZM112.321 443.378L127.86 442.217L127.718 440.318L112.179 441.479L112.321 443.378Z" fill="#00AFFE"/>
<path d="M98.6768 561.455L99.2378 562.993L84.5994 568.334L84.0384 566.796L98.6768 561.455ZM121.201 553.237L121.762 554.775L107.124 560.116L106.563 558.578L121.201 553.237ZM143.725 545.019L144.286 546.557L129.648 551.898L129.087 550.36L143.725 545.019Z" fill="#00AFFE"/>
<path d="M98.6768 561.455L99.5713 561.129L99.245 560.234L98.3505 560.561L98.6768 561.455ZM99.2378 562.993L99.5642 563.887L100.459 563.561L100.132 562.666L99.2378 562.993ZM84.5994 568.334L83.7049 568.66L84.0313 569.554L84.9258 569.228L84.5994 568.334ZM84.0384 566.796L83.7121 565.901L82.8176 566.228L83.1439 567.122L84.0384 566.796ZM97.7823 561.781L98.3433 563.319L100.132 562.666L99.5713 561.129L97.7823 561.781ZM98.9115 562.098L84.2731 567.439L84.9258 569.228L99.5642 563.887L98.9115 562.098ZM85.4939 568.007L84.9329 566.47L83.1439 567.122L83.7049 568.66L85.4939 568.007ZM84.3648 567.69L99.0032 562.35L98.3505 560.561L83.7121 565.901L84.3648 567.69ZM121.201 553.237L122.095 552.911L121.769 552.016L120.875 552.343L121.201 553.237ZM121.762 554.775L122.088 555.669L122.983 555.343L122.656 554.449L121.762 554.775ZM107.124 560.116L106.229 560.442L106.555 561.336L107.45 561.01L107.124 560.116ZM106.563 558.578L106.236 557.684L105.342 558.01L105.668 558.904L106.563 558.578ZM120.306 553.564L120.867 555.101L122.656 554.449L122.095 552.911L120.306 553.564ZM121.436 553.88L106.797 559.221L107.45 561.01L122.088 555.669L121.436 553.88ZM108.018 559.789L107.457 558.252L105.668 558.904L106.229 560.442L108.018 559.789ZM106.889 559.472L121.527 554.132L120.875 552.343L106.236 557.684L106.889 559.472ZM143.725 545.019L144.62 544.693L144.293 543.799L143.399 544.125L143.725 545.019ZM144.286 546.557L144.612 547.451L145.507 547.125L145.181 546.231L144.286 546.557ZM129.648 551.898L128.753 552.224L129.08 553.119L129.974 552.792L129.648 551.898ZM129.087 550.36L128.76 549.466L127.866 549.792L128.192 550.686L129.087 550.36ZM142.831 545.346L143.392 546.883L145.181 546.231L144.62 544.693L142.831 545.346ZM143.96 545.663L129.321 551.003L129.974 552.792L144.612 547.451L143.96 545.663ZM130.542 551.571L129.981 550.034L128.192 550.686L128.753 552.224L130.542 551.571ZM129.413 551.255L144.051 545.914L143.399 544.125L128.76 549.466L129.413 551.255Z" fill="#00AFFE"/>
<path d="M167.91 675.922L168.984 677.158L157.221 687.377L156.147 686.142L167.91 675.922ZM186.01 660.197L187.084 661.433L175.321 671.652L174.247 670.417L186.01 660.197ZM204.11 644.472L205.183 645.708L193.42 655.927L192.347 654.692L204.11 644.472Z" fill="#00AFFE"/>
<path d="M167.91 675.922L168.629 675.298L168.005 674.579L167.286 675.203L167.91 675.922ZM168.984 677.158L169.608 677.876L170.327 677.252L169.703 676.533L168.984 677.158ZM157.221 687.377L156.502 688.002L157.126 688.72L157.845 688.096L157.221 687.377ZM156.147 686.142L155.523 685.423L154.804 686.047L155.429 686.766L156.147 686.142ZM167.192 676.546L168.265 677.782L169.703 676.533L168.629 675.298L167.192 676.546ZM168.359 676.439L156.596 686.658L157.845 688.096L169.608 677.876L168.359 676.439ZM157.94 686.753L156.866 685.517L155.429 686.766L156.502 688.002L157.94 686.753ZM156.772 686.86L168.535 676.641L167.286 675.203L155.523 685.423L156.772 686.86ZM186.01 660.197L186.729 659.573L186.104 658.854L185.386 659.478L186.01 660.197ZM187.084 661.433L187.708 662.152L188.427 661.527L187.802 660.808L187.084 661.433ZM175.321 671.652L174.602 672.277L175.226 672.996L175.945 672.371L175.321 671.652ZM174.247 670.417L173.623 669.698L172.904 670.322L173.528 671.041L174.247 670.417ZM185.291 660.822L186.365 662.057L187.802 660.808L186.729 659.573L185.291 660.822ZM186.459 660.714L174.696 670.934L175.945 672.371L187.708 662.152L186.459 660.714ZM176.039 671.028L174.966 669.792L173.528 671.041L174.602 672.277L176.039 671.028ZM174.872 671.135L186.635 660.916L185.386 659.478L173.623 669.698L174.872 671.135ZM204.11 644.472L204.829 643.848L204.204 643.129L203.485 643.754L204.11 644.472ZM205.183 645.708L205.808 646.427L206.527 645.802L205.902 645.083L205.183 645.708ZM193.42 655.927L192.701 656.552L193.326 657.271L194.045 656.646L193.42 655.927ZM192.347 654.692L191.722 653.973L191.004 654.598L191.628 655.316L192.347 654.692ZM203.391 645.097L204.464 646.332L205.902 645.083L204.829 643.848L203.391 645.097ZM204.559 644.989L192.796 655.209L194.045 656.646L205.808 646.427L204.559 644.989ZM194.139 655.303L193.066 654.067L191.628 655.316L192.701 656.552L194.139 655.303ZM192.971 655.411L204.734 645.191L203.485 643.754L191.722 653.973L192.971 655.411Z" fill="#00AFFE"/>
<path d="M263.397 753.845L264.789 754.705L256.604 767.964L255.211 767.104L263.397 753.845ZM275.992 733.443L277.384 734.303L269.199 747.562L267.806 746.703L275.992 733.443ZM288.587 713.041L289.979 713.901L281.794 727.16L280.401 726.301L288.587 713.041Z" fill="#00AFFE"/>
<path d="M263.397 753.845L263.897 753.035L263.087 752.535L262.586 753.345L263.397 753.845ZM264.789 754.705L265.6 755.205L266.1 754.395L265.29 753.895L264.789 754.705ZM256.604 767.964L256.104 768.774L256.914 769.275L257.414 768.464L256.604 767.964ZM255.211 767.104L254.401 766.604L253.901 767.414L254.711 767.915L255.211 767.104ZM262.897 754.655L264.289 755.515L265.29 753.895L263.897 753.035L262.897 754.655ZM263.979 754.205L255.794 767.464L257.414 768.464L265.6 755.205L263.979 754.205ZM257.104 767.154L255.711 766.294L254.711 767.915L256.104 768.774L257.104 767.154ZM256.021 767.605L264.207 754.345L262.586 753.345L254.401 766.604L256.021 767.605ZM275.992 733.443L276.492 732.633L275.682 732.133L275.181 732.943L275.992 733.443ZM277.384 734.303L278.195 734.803L278.695 733.993L277.885 733.493L277.384 734.303ZM269.199 747.562L268.699 748.373L269.509 748.873L270.009 748.063L269.199 747.562ZM267.806 746.703L266.996 746.202L266.496 747.013L267.306 747.513L267.806 746.703ZM275.491 734.254L276.884 735.113L277.885 733.493L276.492 732.633L275.491 734.254ZM276.574 733.803L268.389 747.062L270.009 748.063L278.195 734.803L276.574 733.803ZM269.699 746.752L268.306 745.892L267.306 747.513L268.699 748.373L269.699 746.752ZM268.616 747.203L276.802 733.944L275.181 732.943L266.996 746.202L268.616 747.203ZM288.587 713.041L289.087 712.231L288.277 711.731L287.776 712.541L288.587 713.041ZM289.979 713.901L290.79 714.401L291.29 713.591L290.48 713.091L289.979 713.901ZM281.794 727.16L281.294 727.971L282.104 728.471L282.604 727.661L281.794 727.16ZM280.401 726.301L279.591 725.8L279.091 726.611L279.901 727.111L280.401 726.301ZM288.086 713.852L289.479 714.711L290.48 713.091L289.087 712.231L288.086 713.852ZM289.169 713.401L280.984 726.66L282.604 727.661L290.79 714.401L289.169 713.401ZM282.294 726.35L280.901 725.49L279.901 727.111L281.294 727.971L282.294 726.35ZM281.211 726.801L289.397 713.542L287.776 712.541L279.591 725.8L281.211 726.801Z" fill="#00AFFE"/>
<path d="M373.381 797.804L375.014 797.915L373.966 813.462L372.333 813.351L373.381 797.804ZM374.995 773.882L376.628 773.992L375.579 789.539L373.946 789.429L374.995 773.882ZM376.608 749.96L378.241 750.07L377.192 765.617L375.559 765.507L376.608 749.96Z" fill="#00AFFE"/>
<path d="M373.381 797.804L373.445 796.854L372.495 796.79L372.431 797.74L373.381 797.804ZM375.014 797.915L375.964 797.979L376.028 797.029L375.078 796.965L375.014 797.915ZM373.966 813.462L373.902 814.412L374.852 814.476L374.916 813.526L373.966 813.462ZM372.333 813.351L371.383 813.287L371.319 814.237L372.269 814.301L372.333 813.351ZM373.317 798.754L374.95 798.865L375.078 796.965L373.445 796.854L373.317 798.754ZM374.064 797.85L373.016 813.397L374.916 813.526L375.964 797.979L374.064 797.85ZM374.03 812.511L372.397 812.401L372.269 814.301L373.902 814.412L374.03 812.511ZM373.283 813.415L374.331 797.868L372.431 797.74L371.383 813.287L373.283 813.415ZM374.995 773.882L375.059 772.932L374.109 772.868L374.045 773.818L374.995 773.882ZM376.628 773.992L377.578 774.056L377.642 773.106L376.692 773.042L376.628 773.992ZM375.579 789.539L375.515 790.489L376.465 790.553L376.529 789.603L375.579 789.539ZM373.946 789.429L372.996 789.365L372.932 790.315L373.882 790.379L373.946 789.429ZM374.93 774.832L376.564 774.942L376.692 773.042L375.059 772.932L374.93 774.832ZM375.678 773.928L374.629 789.475L376.529 789.603L377.578 774.056L375.678 773.928ZM375.643 788.589L374.01 788.479L373.882 790.379L375.515 790.489L375.643 788.589ZM374.896 789.493L375.945 773.946L374.045 773.818L372.996 789.365L374.896 789.493ZM376.608 749.96L376.672 749.01L375.722 748.946L375.658 749.896L376.608 749.96ZM378.241 750.07L379.191 750.134L379.255 749.184L378.305 749.12L378.241 750.07ZM377.192 765.617L377.128 766.567L378.078 766.631L378.142 765.681L377.192 765.617ZM375.559 765.507L374.609 765.443L374.545 766.393L375.495 766.457L375.559 765.507ZM376.544 750.91L378.177 751.02L378.305 749.12L376.672 749.01L376.544 750.91ZM377.291 750.006L376.242 765.553L378.142 765.681L379.191 750.134L377.291 750.006ZM377.257 764.667L375.623 764.557L375.495 766.457L377.128 766.567L377.257 764.667ZM376.509 765.571L377.558 750.024L375.658 749.896L374.609 765.443L376.509 765.571Z" fill="#00AFFE"/>
<path d="M511.038 799.271L512.589 798.749L517.551 813.52L516 814.042L511.038 799.271ZM503.402 776.542L504.954 776.021L509.916 790.792L508.364 791.313L503.402 776.542ZM495.767 753.814L497.318 753.293L502.281 768.064L500.729 768.585L495.767 753.814Z" fill="#00AFFE"/>
<path d="M511.038 799.271L510.734 798.368L509.832 798.671L510.135 799.574L511.038 799.271ZM512.589 798.749L513.492 798.446L513.188 797.544L512.286 797.847L512.589 798.749ZM517.551 813.52L517.855 814.423L518.757 814.12L518.454 813.217L517.551 813.52ZM516 814.042L515.097 814.345L515.4 815.247L516.303 814.944L516 814.042ZM511.341 800.173L512.892 799.652L512.286 797.847L510.734 798.368L511.341 800.173ZM511.687 799.053L516.649 813.824L518.454 813.217L513.492 798.446L511.687 799.053ZM517.248 812.618L515.697 813.139L516.303 814.944L517.855 814.423L517.248 812.618ZM516.902 813.738L511.94 798.967L510.135 799.574L515.097 814.345L516.902 813.738ZM503.402 776.542L503.099 775.64L502.196 775.943L502.5 776.846L503.402 776.542ZM504.954 776.021L505.856 775.718L505.553 774.815L504.65 775.119L504.954 776.021ZM509.916 790.792L510.219 791.695L511.122 791.392L510.819 790.489L509.916 790.792ZM508.364 791.313L507.462 791.617L507.765 792.519L508.668 792.216L508.364 791.313ZM503.705 777.445L505.257 776.924L504.65 775.119L503.099 775.64L503.705 777.445ZM504.051 776.324L509.013 791.095L510.819 790.489L505.856 775.718L504.051 776.324ZM509.613 789.89L508.061 790.411L508.668 792.216L510.219 791.695L509.613 789.89ZM509.267 791.01L504.305 776.239L502.5 776.846L507.462 791.617L509.267 791.01ZM495.767 753.814L495.464 752.912L494.561 753.215L494.864 754.117L495.767 753.814ZM497.318 753.293L498.221 752.99L497.918 752.087L497.015 752.39L497.318 753.293ZM502.281 768.064L502.584 768.967L503.486 768.663L503.183 767.761L502.281 768.064ZM500.729 768.585L499.826 768.888L500.13 769.791L501.032 769.488L500.729 768.585ZM496.07 754.717L497.622 754.196L497.015 752.39L495.464 752.912L496.07 754.717ZM496.416 753.596L501.378 768.367L503.183 767.761L498.221 752.99L496.416 753.596ZM501.977 767.161L500.426 767.683L501.032 769.488L502.584 768.967L501.977 767.161ZM501.632 768.282L496.669 753.511L494.864 754.117L499.826 768.888L501.632 768.282Z" fill="#00AFFE"/>
<path d="M618.324 756.089L619.501 754.952L630.332 766.155L629.155 767.292L618.324 756.089ZM601.659 738.851L602.836 737.714L613.667 748.917L612.49 750.054L601.659 738.851ZM584.995 721.613L586.171 720.476L597.002 731.679L595.825 732.816L584.995 721.613Z" fill="#00AFFE"/>
<path d="M618.324 756.089L617.663 755.405L616.978 756.067L617.64 756.751L618.324 756.089ZM619.501 754.952L620.186 754.29L619.524 753.605L618.839 754.267L619.501 754.952ZM630.332 766.155L630.993 766.839L631.678 766.178L631.016 765.493L630.332 766.155ZM629.155 767.292L628.47 767.954L629.132 768.639L629.817 767.977L629.155 767.292ZM618.986 756.774L620.163 755.636L618.839 754.267L617.663 755.405L618.986 756.774ZM618.817 755.614L629.647 766.817L631.016 765.493L620.186 754.29L618.817 755.614ZM629.67 765.47L628.493 766.608L629.817 767.977L630.993 766.839L629.67 765.47ZM629.839 766.631L619.009 755.428L617.64 756.751L628.47 767.954L629.839 766.631ZM601.659 738.851L600.998 738.167L600.313 738.829L600.975 739.513L601.659 738.851ZM602.836 737.714L603.521 737.052L602.859 736.367L602.174 737.029L602.836 737.714ZM613.667 748.917L614.329 749.601L615.013 748.939L614.351 748.255L613.667 748.917ZM612.49 750.054L611.805 750.716L612.467 751.401L613.152 750.739L612.49 750.054ZM602.321 739.536L603.498 738.398L602.174 737.029L600.998 738.167L602.321 739.536ZM602.152 738.375L612.982 749.578L614.351 748.255L603.521 737.052L602.152 738.375ZM613.005 748.232L611.828 749.37L613.152 750.739L614.329 749.601L613.005 748.232ZM613.175 749.393L602.344 738.19L600.975 739.513L611.805 750.716L613.175 749.393ZM584.995 721.613L584.333 720.929L583.648 721.59L584.31 722.275L584.995 721.613ZM586.171 720.476L586.856 719.814L586.194 719.129L585.51 719.791L586.171 720.476ZM597.002 731.679L597.664 732.363L598.348 731.701L597.686 731.017L597.002 731.679ZM595.825 732.816L595.141 733.478L595.802 734.163L596.487 733.501L595.825 732.816ZM585.656 722.298L586.833 721.16L585.51 719.791L584.333 720.929L585.656 722.298ZM585.487 721.137L596.317 732.34L597.686 731.017L586.856 719.814L585.487 721.137ZM596.34 730.994L595.163 732.132L596.487 733.501L597.664 732.363L596.34 730.994ZM596.51 732.154L585.679 720.951L584.31 722.275L595.141 733.478L596.51 732.154Z" fill="#00AFFE"/>
<path d="M712.64 681.844L713.392 680.39L727.232 687.55L726.48 689.004L712.64 681.844ZM691.345 670.826L692.097 669.373L705.936 676.533L705.184 677.987L691.345 670.826ZM670.049 659.809L670.802 658.355L684.641 665.515L683.889 666.969L670.049 659.809Z" fill="#00AFFE"/>
<path d="M712.64 681.844L711.794 681.406L711.357 682.252L712.202 682.69L712.64 681.844ZM713.392 680.39L713.829 679.544L712.984 679.107L712.546 679.953L713.392 680.39ZM727.232 687.55L728.077 687.988L728.515 687.142L727.669 686.705L727.232 687.55ZM726.48 689.004L726.042 689.85L726.888 690.287L727.325 689.442L726.48 689.004ZM713.485 682.281L714.238 680.828L712.546 679.953L711.794 681.406L713.485 682.281ZM712.954 681.236L726.794 688.396L727.669 686.705L713.829 679.544L712.954 681.236ZM726.386 687.113L725.634 688.567L727.325 689.442L728.077 687.988L726.386 687.113ZM726.917 688.158L713.077 680.998L712.202 682.69L726.042 689.85L726.917 688.158ZM691.345 670.826L690.499 670.389L690.061 671.235L690.907 671.672L691.345 670.826ZM692.097 669.373L692.534 668.527L691.689 668.089L691.251 668.935L692.097 669.373ZM705.936 676.533L706.782 676.97L707.22 676.125L706.374 675.687L705.936 676.533ZM705.184 677.987L704.747 678.832L705.592 679.27L706.03 678.424L705.184 677.987ZM692.19 671.264L692.942 669.81L691.251 668.935L690.499 670.389L692.19 671.264ZM691.659 670.218L705.499 677.379L706.374 675.687L692.534 668.527L691.659 670.218ZM705.091 676.095L704.339 677.549L706.03 678.424L706.782 676.97L705.091 676.095ZM705.622 677.141L691.782 669.981L690.907 671.672L704.747 678.832L705.622 677.141ZM670.049 659.809L669.204 659.371L668.766 660.217L669.612 660.655L670.049 659.809ZM670.802 658.355L671.239 657.51L670.393 657.072L669.956 657.918L670.802 658.355ZM684.641 665.515L685.487 665.953L685.924 665.107L685.079 664.67L684.641 665.515ZM683.889 666.969L683.452 667.815L684.297 668.252L684.735 667.407L683.889 666.969ZM670.895 660.247L671.647 658.793L669.956 657.918L669.204 659.371L670.895 660.247ZM670.364 659.201L684.204 666.361L685.079 664.67L671.239 657.51L670.364 659.201ZM683.796 665.078L683.043 666.532L684.735 667.407L685.487 665.953L683.796 665.078ZM684.327 666.124L670.487 658.963L669.612 660.655L683.452 667.815L684.327 666.124Z" fill="#00AFFE"/>
<path d="M807.262 463.227L807.312 461.591L822.887 462.073L822.836 463.709L807.262 463.227ZM783.297 462.486L783.347 460.85L798.922 461.331L798.871 462.968L783.297 462.486ZM759.332 461.744L759.382 460.108L774.957 460.59L774.906 462.226L759.332 461.744Z" fill="#00AFFE"/>
<path d="M807.262 463.227L806.31 463.198L806.28 464.149L807.232 464.179L807.262 463.227ZM807.312 461.591L807.342 460.639L806.39 460.61L806.361 461.562L807.312 461.591ZM822.887 462.073L823.839 462.102L823.868 461.151L822.916 461.121L822.887 462.073ZM822.836 463.709L822.807 464.661L823.759 464.69L823.788 463.738L822.836 463.709ZM808.213 463.256L808.264 461.62L806.361 461.562L806.31 463.198L808.213 463.256ZM807.283 462.543L822.858 463.025L822.916 461.121L807.342 460.639L807.283 462.543ZM821.935 462.043L821.885 463.679L823.788 463.738L823.839 462.102L821.935 462.043ZM822.866 462.757L807.291 462.275L807.232 464.179L822.807 464.661L822.866 462.757ZM783.297 462.486L782.345 462.456L782.315 463.408L783.267 463.437L783.297 462.486ZM783.347 460.85L783.377 459.898L782.425 459.869L782.396 460.82L783.347 460.85ZM798.922 461.331L799.874 461.361L799.903 460.409L798.951 460.38L798.922 461.331ZM798.871 462.968L798.842 463.919L799.794 463.949L799.823 462.997L798.871 462.968ZM784.248 462.515L784.299 460.879L782.396 460.82L782.345 462.456L784.248 462.515ZM783.318 461.801L798.893 462.283L798.951 460.38L783.377 459.898L783.318 461.801ZM797.97 461.302L797.92 462.938L799.823 462.997L799.874 461.361L797.97 461.302ZM798.901 462.016L783.326 461.534L783.267 463.437L798.842 463.919L798.901 462.016ZM759.332 461.744L758.38 461.715L758.35 462.667L759.302 462.696L759.332 461.744ZM759.382 460.108L759.412 459.157L758.46 459.127L758.431 460.079L759.382 460.108ZM774.957 460.59L775.909 460.62L775.938 459.668L774.987 459.638L774.957 460.59ZM774.906 462.226L774.877 463.178L775.829 463.207L775.858 462.256L774.906 462.226ZM760.283 461.774L760.334 460.138L758.431 460.079L758.38 461.715L760.283 461.774ZM759.353 461.06L774.928 461.542L774.987 459.638L759.412 459.157L759.353 461.06ZM774.005 460.561L773.955 462.197L775.858 462.256L775.909 460.62L774.005 460.561ZM774.936 461.274L759.361 460.793L759.302 462.696L774.877 463.178L774.936 461.274Z" fill="#00AFFE"/>
<path d="M826.944 588.963L827.458 587.409L842.252 592.304L841.737 593.858L826.944 588.963ZM804.182 581.43L804.696 579.876L819.489 584.771L818.975 586.325L804.182 581.43ZM781.419 573.897L781.934 572.343L796.727 577.239L796.213 578.792L781.419 573.897ZM758.657 566.364L759.171 564.81L773.964 569.706L773.45 571.26L758.657 566.364ZM735.895 558.831L736.409 557.277L751.202 562.173L750.688 563.727L735.895 558.831Z" fill="#00AFFE"/>
<path d="M826.944 588.963L826.04 588.663L825.741 589.567L826.645 589.866L826.944 588.963ZM827.458 587.409L827.758 586.505L826.854 586.206L826.555 587.109L827.458 587.409ZM842.252 592.304L843.156 592.603L843.455 591.699L842.551 591.4L842.252 592.304ZM841.737 593.858L841.438 594.762L842.342 595.061L842.641 594.157L841.737 593.858ZM827.848 589.262L828.362 587.708L826.555 587.109L826.04 588.663L827.848 589.262ZM827.159 588.313L841.953 593.208L842.551 591.4L827.758 586.505L827.159 588.313ZM841.348 592.005L840.834 593.559L842.641 594.157L843.156 592.603L841.348 592.005ZM842.037 592.954L827.243 588.059L826.645 589.866L841.438 594.762L842.037 592.954ZM804.182 581.43L803.278 581.131L802.979 582.035L803.883 582.334L804.182 581.43ZM804.696 579.876L804.995 578.972L804.091 578.673L803.792 579.577L804.696 579.876ZM819.489 584.771L820.393 585.071L820.692 584.167L819.788 583.867L819.489 584.771ZM818.975 586.325L818.676 587.229L819.58 587.528L819.879 586.624L818.975 586.325ZM805.086 581.729L805.6 580.175L803.792 579.577L803.278 581.131L805.086 581.729ZM804.397 580.78L819.19 585.675L819.788 583.867L804.995 578.972L804.397 580.78ZM818.585 584.472L818.071 586.026L819.879 586.624L820.393 585.071L818.585 584.472ZM819.274 585.421L804.481 580.526L803.883 582.334L818.676 587.229L819.274 585.421ZM781.419 573.897L780.515 573.598L780.216 574.502L781.12 574.801L781.419 573.897ZM781.934 572.343L782.233 571.439L781.329 571.14L781.03 572.044L781.934 572.343ZM796.727 577.239L797.631 577.538L797.93 576.634L797.026 576.335L796.727 577.239ZM796.213 578.792L795.914 579.696L796.817 579.996L797.117 579.092L796.213 578.792ZM782.323 574.196L782.838 572.642L781.03 572.044L780.515 573.598L782.323 574.196ZM781.635 573.247L796.428 578.143L797.026 576.335L782.233 571.439L781.635 573.247ZM795.823 576.939L795.309 578.493L797.117 579.092L797.631 577.538L795.823 576.939ZM796.512 577.889L781.719 572.993L781.12 574.801L795.914 579.696L796.512 577.889ZM758.657 566.364L757.753 566.065L757.454 566.969L758.358 567.268L758.657 566.364ZM759.171 564.81L759.47 563.906L758.566 563.607L758.267 564.511L759.171 564.81ZM773.964 569.706L774.868 570.005L775.168 569.101L774.264 568.802L773.964 569.706ZM773.45 571.26L773.151 572.164L774.055 572.463L774.354 571.559L773.45 571.26ZM759.561 566.663L760.075 565.109L758.267 564.511L757.753 566.065L759.561 566.663ZM758.872 565.714L773.665 570.61L774.264 568.802L759.47 563.906L758.872 565.714ZM773.061 569.407L772.546 570.961L774.354 571.559L774.868 570.005L773.061 569.407ZM773.749 570.356L758.956 565.46L758.358 567.268L773.151 572.164L773.749 570.356ZM735.895 558.831L734.991 558.532L734.691 559.436L735.595 559.735L735.895 558.831ZM736.409 557.277L736.708 556.373L735.804 556.074L735.505 556.978L736.409 557.277ZM751.202 562.173L752.106 562.472L752.405 561.568L751.501 561.269L751.202 562.173ZM750.688 563.727L750.389 564.631L751.293 564.93L751.592 564.026L750.688 563.727ZM736.799 559.13L737.313 557.577L735.505 556.978L734.991 558.532L736.799 559.13ZM736.11 558.181L750.903 563.077L751.501 561.269L736.708 556.373L736.11 558.181ZM750.298 561.874L749.784 563.428L751.592 564.026L752.106 562.472L750.298 561.874ZM750.987 562.823L736.194 557.927L735.595 559.735L750.389 564.631L750.987 562.823Z" fill="#00AFFE"/>
<path d="M827.306 292.032L826.716 290.505L841.252 284.891L841.842 286.418L827.306 292.032ZM804.94 300.67L804.35 299.143L818.886 293.529L819.476 295.056L804.94 300.67ZM782.574 309.309L781.984 307.782L796.52 302.168L797.109 303.694L782.574 309.309ZM760.207 317.947L759.618 316.42L774.153 310.806L774.743 312.333L760.207 317.947ZM737.841 326.585L737.251 325.058L751.787 319.444L752.377 320.971L737.841 326.585Z" fill="#00AFFE"/>
<path d="M827.306 292.032L826.418 292.375L826.761 293.263L827.649 292.92L827.306 292.032ZM826.716 290.505L826.373 289.617L825.485 289.96L825.828 290.848L826.716 290.505ZM841.252 284.891L842.14 284.548L841.797 283.66L840.909 284.003L841.252 284.891ZM841.842 286.418L842.185 287.306L843.073 286.963L842.73 286.075L841.842 286.418ZM828.194 291.689L827.605 290.162L825.828 290.848L826.418 292.375L828.194 291.689ZM827.059 291.393L841.595 285.779L840.909 284.003L826.373 289.617L827.059 291.393ZM840.364 285.234L840.954 286.761L842.73 286.075L842.14 284.548L840.364 285.234ZM841.499 285.53L826.963 291.144L827.649 292.92L842.185 287.306L841.499 285.53ZM804.94 300.67L804.052 301.013L804.395 301.901L805.283 301.558L804.94 300.67ZM804.35 299.143L804.007 298.255L803.119 298.598L803.462 299.486L804.35 299.143ZM818.886 293.529L819.774 293.186L819.431 292.298L818.543 292.641L818.886 293.529ZM819.476 295.056L819.819 295.944L820.707 295.601L820.364 294.713L819.476 295.056ZM805.828 300.327L805.238 298.8L803.462 299.486L804.052 301.013L805.828 300.327ZM804.693 300.031L819.229 294.417L818.543 292.641L804.007 298.255L804.693 300.031ZM817.998 293.872L818.587 295.399L820.364 294.713L819.774 293.186L817.998 293.872ZM819.133 294.168L804.597 299.782L805.283 301.558L819.819 295.944L819.133 294.168ZM782.574 309.309L781.685 309.652L782.028 310.54L782.917 310.197L782.574 309.309ZM781.984 307.782L781.641 306.893L780.753 307.236L781.096 308.125L781.984 307.782ZM796.52 302.168L797.408 301.825L797.065 300.936L796.177 301.279L796.52 302.168ZM797.109 303.694L797.452 304.583L798.341 304.24L797.998 303.351L797.109 303.694ZM783.462 308.965L782.872 307.439L781.096 308.125L781.685 309.652L783.462 308.965ZM782.327 308.67L796.863 303.056L796.177 301.279L781.641 306.893L782.327 308.67ZM795.631 302.511L796.221 304.037L797.998 303.351L797.408 301.825L795.631 302.511ZM796.766 302.806L782.23 308.42L782.917 310.197L797.452 304.583L796.766 302.806ZM760.207 317.947L759.319 318.29L759.662 319.178L760.55 318.835L760.207 317.947ZM759.618 316.42L759.274 315.532L758.386 315.875L758.729 316.763L759.618 316.42ZM774.153 310.806L775.042 310.463L774.699 309.575L773.81 309.918L774.153 310.806ZM774.743 312.333L775.086 313.221L775.974 312.878L775.631 311.99L774.743 312.333ZM761.095 317.604L760.506 316.077L758.729 316.763L759.319 318.29L761.095 317.604ZM759.961 317.308L774.496 311.694L773.81 309.918L759.274 315.532L759.961 317.308ZM773.265 311.149L773.855 312.676L775.631 311.99L775.042 310.463L773.265 311.149ZM774.4 311.445L759.864 317.059L760.55 318.835L775.086 313.221L774.4 311.445ZM737.841 326.585L736.953 326.928L737.296 327.816L738.184 327.473L737.841 326.585ZM737.251 325.058L736.908 324.17L736.02 324.513L736.363 325.401L737.251 325.058ZM751.787 319.444L752.675 319.101L752.332 318.213L751.444 318.556L751.787 319.444ZM752.377 320.971L752.72 321.859L753.608 321.516L753.265 320.628L752.377 320.971ZM738.729 326.242L738.14 324.715L736.363 325.401L736.953 326.928L738.729 326.242ZM737.594 325.947L752.13 320.333L751.444 318.556L736.908 324.17L737.594 325.947ZM750.899 319.787L751.489 321.314L753.265 320.628L752.675 319.101L750.899 319.787ZM752.034 320.083L737.498 325.697L738.184 327.473L752.72 321.859L752.034 320.083Z" fill="#00AFFE"/>
<path d="M267.85 144.039L266.519 144.993L257.442 132.328L258.772 131.374L267.85 144.039ZM281.817 163.527L280.487 164.481L271.409 151.816L272.74 150.862L281.817 163.527Z" fill="#00AFFE"/>
<path d="M267.85 144.039L268.405 144.813L269.178 144.259L268.624 143.485L267.85 144.039ZM266.519 144.993L265.746 145.547L266.3 146.321L267.074 145.767L266.519 144.993ZM257.442 132.328L256.887 131.554L256.114 132.108L256.668 132.882L257.442 132.328ZM258.772 131.374L259.546 130.819L258.992 130.045L258.218 130.6L258.772 131.374ZM267.295 143.265L265.965 144.219L267.074 145.767L268.405 144.813L267.295 143.265ZM267.293 144.438L258.216 131.773L256.668 132.882L265.746 145.547L267.293 144.438ZM257.997 133.101L259.327 132.148L258.218 130.6L256.887 131.554L257.997 133.101ZM257.999 131.929L267.076 144.594L268.624 143.485L259.546 130.819L257.999 131.929ZM281.817 163.527L282.372 164.301L283.146 163.747L282.591 162.973L281.817 163.527ZM280.487 164.481L279.713 165.036L280.268 165.809L281.041 165.255L280.487 164.481ZM271.409 151.816L270.855 151.042L270.081 151.596L270.636 152.37L271.409 151.816ZM272.74 150.862L273.514 150.307L272.959 149.534L272.185 150.088L272.74 150.862ZM281.263 162.753L279.932 163.707L281.041 165.255L282.372 164.301L281.263 162.753ZM281.261 163.926L272.183 151.261L270.636 152.37L279.713 165.036L281.261 163.926ZM271.964 152.59L273.295 151.636L272.185 150.088L270.855 151.042L271.964 152.59ZM271.966 151.417L281.043 164.082L282.591 162.973L273.514 150.307L271.966 151.417Z" fill="#00AFFE"/>
<path d="M177.918 219.035L176.977 220.374L164.225 211.42L165.165 210.08L177.918 219.035ZM197.54 232.813L196.6 234.152L183.847 225.198L184.788 223.858L197.54 232.813Z" fill="#00AFFE"/>
<path d="M177.918 219.035L178.697 219.582L179.244 218.803L178.465 218.255L177.918 219.035ZM176.977 220.374L176.43 221.153L177.209 221.701L177.756 220.921L176.977 220.374ZM164.225 211.42L163.445 210.873L162.898 211.652L163.677 212.199L164.225 211.42ZM165.165 210.08L165.712 209.301L164.933 208.754L164.386 209.533L165.165 210.08ZM177.138 218.488L176.198 219.827L177.756 220.921L178.697 219.582L177.138 218.488ZM177.524 219.595L164.772 210.641L163.677 212.199L176.43 221.153L177.524 219.595ZM165.004 211.967L165.944 210.628L164.386 209.533L163.445 210.873L165.004 211.967ZM164.618 210.86L177.371 219.814L178.465 218.255L165.712 209.301L164.618 210.86ZM197.54 232.813L198.319 233.36L198.867 232.58L198.087 232.033L197.54 232.813ZM196.6 234.152L196.053 234.931L196.832 235.478L197.379 234.699L196.6 234.152ZM183.847 225.198L183.068 224.651L182.521 225.43L183.3 225.977L183.847 225.198ZM184.788 223.858L185.335 223.079L184.556 222.532L184.008 223.311L184.788 223.858ZM196.761 232.265L195.82 233.605L197.379 234.699L198.319 233.36L196.761 232.265ZM197.147 233.373L184.394 224.419L183.3 225.977L196.053 234.931L197.147 233.373ZM184.626 225.745L185.567 224.405L184.008 223.311L183.068 224.651L184.626 225.745ZM184.24 224.638L196.993 233.592L198.087 232.033L185.335 223.079L184.24 224.638Z" fill="#00AFFE"/>
<path d="M115.029 330.497L114.667 332.093L99.47 328.649L99.8318 327.053L115.029 330.497ZM138.412 335.797L138.05 337.393L122.853 333.949L123.215 332.352L138.412 335.797Z" fill="#00AFFE"/>
<path d="M115.029 330.497L115.957 330.707L116.168 329.779L115.239 329.568L115.029 330.497ZM114.667 332.093L114.456 333.022L115.385 333.232L115.595 332.304L114.667 332.093ZM99.47 328.649L98.5414 328.438L98.3309 329.367L99.2595 329.578L99.47 328.649ZM99.8318 327.053L100.042 326.124L99.1136 325.914L98.9032 326.842L99.8318 327.053ZM114.1 330.286L113.738 331.883L115.595 332.304L115.957 330.707L114.1 330.286ZM114.877 331.165L99.6804 327.72L99.2595 329.578L114.456 333.022L114.877 331.165ZM100.399 328.859L100.76 327.263L98.9032 326.842L98.5414 328.438L100.399 328.859ZM99.6213 327.981L114.818 331.426L115.239 329.568L100.042 326.124L99.6213 327.981ZM138.412 335.797L139.341 336.007L139.551 335.079L138.622 334.868L138.412 335.797ZM138.05 337.393L137.84 338.322L138.768 338.532L138.979 337.604L138.05 337.393ZM122.853 333.949L121.925 333.738L121.714 334.667L122.643 334.877L122.853 333.949ZM123.215 332.352L123.426 331.424L122.497 331.213L122.287 332.142L123.215 332.352ZM137.483 335.586L137.122 337.183L138.979 337.604L139.341 336.007L137.483 335.586ZM138.261 336.464L123.064 333.02L122.643 334.877L137.84 338.322L138.261 336.464ZM123.782 334.159L124.144 332.563L122.287 332.142L121.925 333.738L123.782 334.159ZM123.005 333.281L138.202 336.725L138.622 334.868L123.426 331.424L123.005 333.281Z" fill="#00AFFE"/>
<path d="M619.605 122.147L618.276 121.192L627.37 108.538L628.699 109.494L619.605 122.147ZM605.612 141.616L604.283 140.661L613.377 128.008L614.706 128.963L605.612 141.616ZM591.619 161.086L590.29 160.131L599.384 147.477L600.713 148.433L591.619 161.086Z" fill="#00AFFE"/>
<path d="M619.605 122.147L619.049 122.92L619.822 123.476L620.378 122.702L619.605 122.147ZM618.276 121.192L617.503 120.636L616.947 121.409L617.72 121.965L618.276 121.192ZM627.37 108.538L627.926 107.765L627.152 107.209L626.597 107.983L627.37 108.538ZM628.699 109.494L629.472 110.049L630.028 109.276L629.255 108.72L628.699 109.494ZM620.161 121.374L618.832 120.418L617.72 121.965L619.049 122.92L620.161 121.374ZM619.049 121.747L628.143 109.094L626.597 107.983L617.503 120.636L619.049 121.747ZM626.814 109.311L628.143 110.267L629.255 108.72L627.926 107.765L626.814 109.311ZM627.926 108.938L618.832 121.591L620.378 122.702L629.472 110.049L627.926 108.938ZM605.612 141.616L605.056 142.39L605.829 142.945L606.385 142.172L605.612 141.616ZM604.283 140.661L603.509 140.105L602.954 140.879L603.727 141.434L604.283 140.661ZM613.377 128.008L613.932 127.235L613.159 126.679L612.604 127.452L613.377 128.008ZM614.706 128.963L615.479 129.519L616.035 128.746L615.262 128.19L614.706 128.963ZM606.168 140.843L604.838 139.888L603.727 141.434L605.056 142.39L606.168 140.843ZM605.056 141.217L614.15 128.564L612.604 127.452L603.509 140.105L605.056 141.217ZM612.821 128.781L614.15 129.736L615.262 128.19L613.932 127.235L612.821 128.781ZM613.933 128.407L604.839 141.061L606.385 142.172L615.479 129.519L613.933 128.407ZM591.619 161.086L591.063 161.859L591.836 162.415L592.392 161.642L591.619 161.086ZM590.29 160.131L589.516 159.575L588.961 160.348L589.734 160.904L590.29 160.131ZM599.384 147.477L599.939 146.704L599.166 146.148L598.61 146.922L599.384 147.477ZM600.713 148.433L601.486 148.988L602.042 148.215L601.268 147.659L600.713 148.433ZM592.174 160.313L590.845 159.357L589.734 160.904L591.063 161.859L592.174 160.313ZM591.063 160.686L600.157 148.033L598.61 146.922L589.516 159.575L591.063 160.686ZM598.828 148.251L600.157 149.206L601.268 147.659L599.939 146.704L598.828 148.251ZM599.94 147.877L590.846 160.53L592.392 161.642L601.486 148.988L599.94 147.877Z" fill="#00AFFE"/>
<path d="M493.665 102.984L492.029 102.993L491.948 87.4108L493.585 87.4024L493.665 102.984ZM493.789 126.961L492.152 126.969L492.072 111.387L493.709 111.379L493.789 126.961Z" fill="#00AFFE"/>
<path d="M493.665 102.984L493.67 103.937L494.623 103.932L494.618 102.98L493.665 102.984ZM492.029 102.993L491.077 102.998L491.081 103.95L492.034 103.945L492.029 102.993ZM491.948 87.4108L491.943 86.4587L490.991 86.4636L490.996 87.4158L491.948 87.4108ZM493.585 87.4024L494.537 87.3975L494.532 86.4453L493.58 86.4503L493.585 87.4024ZM493.661 102.032L492.024 102.041L492.034 103.945L493.67 103.937L493.661 102.032ZM492.981 102.988L492.9 87.4059L490.996 87.4158L491.077 102.998L492.981 102.988ZM491.953 88.363L493.59 88.3546L493.58 86.4503L491.943 86.4587L491.953 88.363ZM492.633 87.4073L492.713 102.989L494.618 102.98L494.537 87.3975L492.633 87.4073ZM493.789 126.961L493.794 127.913L494.746 127.908L494.741 126.956L493.789 126.961ZM492.152 126.969L491.2 126.974L491.205 127.926L492.157 127.921L492.152 126.969ZM492.072 111.387L492.067 110.435L491.115 110.44L491.12 111.392L492.072 111.387ZM493.709 111.379L494.661 111.374L494.656 110.421L493.704 110.426L493.709 111.379ZM493.784 126.008L492.147 126.017L492.157 127.921L493.794 127.913L493.784 126.008ZM493.105 126.964L493.024 111.382L491.12 111.392L491.2 126.974L493.105 126.964ZM492.077 112.339L493.714 112.331L493.704 110.426L492.067 110.435L492.077 112.339ZM492.757 111.383L492.837 126.966L494.741 126.956L494.661 111.374L492.757 111.383Z" fill="#00AFFE"/>
<path d="M366.791 84.7934L365.238 85.3122L360.3 70.5333L361.852 70.0145L366.791 84.7934ZM374.39 107.534L372.837 108.053L367.899 93.2736L369.451 92.7549L374.39 107.534ZM381.989 130.274L380.437 130.793L375.498 116.014L377.05 115.495L381.989 130.274Z" fill="#00AFFE"/>
<path d="M366.791 84.7934L367.092 85.6965L367.996 85.3947L367.694 84.4917L366.791 84.7934ZM365.238 85.3122L364.335 85.614L364.637 86.5171L365.54 86.2153L365.238 85.3122ZM360.3 70.5333L359.998 69.6302L359.095 69.932L359.397 70.8351L360.3 70.5333ZM361.852 70.0145L362.755 69.7127L362.453 68.8097L361.55 69.1114L361.852 70.0145ZM366.489 83.8904L364.936 84.4091L365.54 86.2153L367.092 85.6965L366.489 83.8904ZM366.141 85.0104L361.203 70.2315L359.397 70.8351L364.335 85.614L366.141 85.0104ZM360.601 71.4364L362.154 70.9176L361.55 69.1114L359.998 69.6302L360.601 71.4364ZM360.949 70.3163L365.888 85.0952L367.694 84.4917L362.755 69.7127L360.949 70.3163ZM374.39 107.534L374.692 108.437L375.595 108.135L375.293 107.232L374.39 107.534ZM372.837 108.053L371.934 108.354L372.236 109.257L373.139 108.956L372.837 108.053ZM367.899 93.2736L367.597 92.3706L366.694 92.6723L366.996 93.5754L367.899 93.2736ZM369.451 92.7549L370.354 92.4531L370.052 91.55L369.149 91.8518L369.451 92.7549ZM374.088 106.631L372.536 107.149L373.139 108.956L374.692 108.437L374.088 106.631ZM373.741 107.751L368.802 92.9719L366.996 93.5754L371.934 108.354L373.741 107.751ZM368.201 94.1767L369.753 93.6579L369.149 91.8518L367.597 92.3706L368.201 94.1767ZM368.548 93.0566L373.487 107.836L375.293 107.232L370.354 92.4531L368.548 93.0566ZM381.989 130.274L382.291 131.177L383.194 130.875L382.892 129.972L381.989 130.274ZM380.437 130.793L379.534 131.095L379.835 131.998L380.738 131.696L380.437 130.793ZM375.498 116.014L375.196 115.111L374.293 115.413L374.595 116.316L375.498 116.014ZM377.05 115.495L377.953 115.193L377.652 114.29L376.749 114.592L377.05 115.495ZM381.687 129.371L380.135 129.89L380.738 131.696L382.291 131.177L381.687 129.371ZM381.34 130.491L376.401 115.712L374.595 116.316L379.534 131.095L381.34 130.491ZM375.8 116.917L377.352 116.398L376.749 114.592L375.196 115.111L375.8 116.917ZM376.147 115.797L381.086 130.576L382.892 129.972L377.953 115.193L376.147 115.797Z" fill="#00AFFE"/>
<path d="M714.473 200.037L713.322 198.873L724.403 187.917L725.554 189.081L714.473 200.037ZM697.423 216.894L696.272 215.73L707.353 204.774L708.504 205.938L697.423 216.894ZM680.373 233.751L679.222 232.587L690.303 221.632L691.454 222.796L680.373 233.751Z" fill="#00AFFE"/>
<path d="M714.473 200.037L713.796 200.706L714.465 201.383L715.143 200.714L714.473 200.037ZM713.322 198.873L712.653 198.196L711.976 198.865L712.645 199.542L713.322 198.873ZM724.403 187.917L725.08 187.248L724.411 186.571L723.734 187.24L724.403 187.917ZM725.554 189.081L726.223 189.758L726.9 189.089L726.231 188.412L725.554 189.081ZM715.15 199.367L713.999 198.203L712.645 199.542L713.796 200.706L715.15 199.367ZM713.992 199.55L725.073 188.594L723.734 187.24L712.653 198.196L713.992 199.55ZM723.726 188.587L724.877 189.751L726.231 188.412L725.08 187.248L723.726 188.587ZM724.884 188.404L713.804 199.36L715.143 200.714L726.223 189.758L724.884 188.404ZM697.423 216.894L696.746 217.563L697.415 218.24L698.092 217.571L697.423 216.894ZM696.272 215.73L695.603 215.053L694.926 215.722L695.595 216.399L696.272 215.73ZM707.353 204.774L708.03 204.105L707.361 203.428L706.684 204.097L707.353 204.774ZM708.504 205.938L709.173 206.616L709.85 205.946L709.181 205.269L708.504 205.938ZM698.1 216.224L696.949 215.06L695.595 216.399L696.746 217.563L698.1 216.224ZM696.942 216.407L708.022 205.452L706.684 204.097L695.603 215.053L696.942 216.407ZM706.676 205.444L707.827 206.608L709.181 205.269L708.03 204.105L706.676 205.444ZM707.834 205.261L696.754 216.217L698.092 217.571L709.173 206.616L707.834 205.261ZM680.373 233.751L679.696 234.42L680.365 235.098L681.042 234.428L680.373 233.751ZM679.222 232.587L678.553 231.91L677.876 232.579L678.545 233.257L679.222 232.587ZM690.303 221.632L690.98 220.962L690.311 220.285L689.633 220.955L690.303 221.632ZM691.454 222.796L692.123 223.473L692.8 222.803L692.131 222.126L691.454 222.796ZM681.05 233.082L679.899 231.918L678.545 233.257L679.696 234.42L681.05 233.082ZM679.892 233.264L690.972 222.309L689.633 220.955L678.553 231.91L679.892 233.264ZM689.626 222.301L690.777 223.465L692.131 222.126L690.98 220.962L689.626 222.301ZM690.784 222.118L679.703 233.074L681.042 234.428L692.123 223.473L690.784 222.118Z" fill="#00AFFE"/>
</svg>
