<svg width="154" height="202" viewBox="0 0 154 202" fill="none" xmlns="http://www.w3.org/2000/svg">
<path fill-rule="evenodd" clip-rule="evenodd" d="M-41.6611 68.4603L-38.4916 58.1067C-34.8996 59.8675 -26.8703 61.6988 -23.4895 54.9372C-20.1088 48.1757 -23.3487 40.7099 -25.3912 37.8222L-17.9958 29.7929C-14.3333 31.6241 -5.95189 34.1879 -1.72594 29.7929C2.5 25.3979 1.86611 18.3828 1.02092 15.4247L10.1067 10.1423C12.0788 12.6778 17.9247 17.2841 25.5314 15.4247C33.1381 13.5653 34.1946 5.63459 33.772 1.90167L43.9142 0C44.8298 3.73291 48.3092 11.3678 54.9017 12.0439C61.4941 12.7201 66.6639 5.56416 68.4247 1.90167L78.9895 4.01464C78.1443 7.60669 78.3556 15.5092 85.9623 18.3828C93.569 21.2565 99.4149 15.7768 101.387 12.6778L110.895 18.3828C108.782 21.9749 106.12 30.2155 112.374 34.4414C118.629 38.6674 125.827 36.2022 128.644 34.4414L135.617 43.1046C132.166 45.5697 126.7 52.3594 132.448 59.7971C138.195 67.2347 144.28 65.8543 146.605 64.2343L149.985 74.5879C146.534 76.2078 139.97 81.4339 141.322 89.3787C142.674 97.3234 150.338 98.6053 154 98.2532L153.366 110.508C150.69 109.593 144.28 109.917 140.054 118.538C135.828 127.159 143.928 132.272 148.506 133.751L144.069 143.682C141.393 142.133 134.476 140.893 128.222 148.331C121.967 155.768 127.87 162.276 131.603 164.6L124.418 172.841C121.742 170.235 114.445 166.46 106.669 172.207C98.8937 177.954 102.584 184.885 105.402 187.632L95.8933 192.914C95.7524 189.674 92.7238 183.533 81.7364 184.885C70.7489 186.237 70.9603 195.732 72.4393 200.31L61.6632 201.366C61.4519 197.915 58.8318 190.801 50.0418 189.956C41.2519 189.111 38.0683 196.506 37.5753 200.31L27.4331 197.985C28.1374 194.112 27.7711 186.068 20.6715 184.885C13.572 183.702 7.00767 187.773 4.61297 189.956L-4.8954 184.885C-2.99372 180.096 -0.584938 169.841 -6.16318 167.136C-11.7414 164.431 -19.7566 166.573 -23.0669 167.981L-29.8285 159.107C-26.3773 157.064 -20.7427 150.697 -25.8138 141.569C-30.8849 132.441 -38.069 135.089 -41.0272 137.554L-44.6192 127.623C-39.9707 126.919 -31.5611 122.848 -35.1109 112.199C-38.6607 101.549 -45.1827 102.127 -48 103.747V91.9142C-44.6897 91.9847 -37.4774 90.3929 -35.1109 83.4623C-32.7444 76.5318 -38.4916 70.5732 -41.6611 68.4603ZM-0.459351 58.9518L35.4612 81.7719L46.4486 75.2217L48.3503 33.8075C39.0532 33.8075 16.2754 38.8364 -0.459351 58.9518ZM61.2474 76.2811L63.1774 33.7686C88.9519 38.2808 104.644 55.5397 109.269 63.6051L72.395 82.5548L61.2474 76.2811ZM107.175 142.197L70.7455 120.198L59.9096 126.996L58.9482 168.443C68.2429 168.232 90.9007 162.687 107.175 142.197ZM78.8359 96.3132L116.103 75.7651C125.71 100.104 119.182 122.498 114.718 130.653L79.3048 109.096L78.8359 96.3132ZM43.132 167.507L44.4005 124.97L33.1566 118.87L-3.41776 138.391C1.33151 146.384 17.2904 163.396 43.132 167.507ZM28.1948 105.865L-8.52235 127.38C-18.7624 103.301 -12.822 80.7435 -8.57178 72.4748L27.3921 93.0989L28.1948 105.865ZM53.0007 113.044C59.8857 113.044 65.4672 107.462 65.4672 100.577C65.4672 93.6923 59.8857 88.1108 53.0007 88.1108C46.1156 88.1108 40.5341 93.6923 40.5341 100.577C40.5341 107.462 46.1156 113.044 53.0007 113.044Z" fill="#C1ECFF"/>
</svg>
