<svg width="288" height="390" viewBox="0 0 288 390" fill="none" xmlns="http://www.w3.org/2000/svg">
<path d="M208.636 113.032C209.482 116.551 211.874 119.784 212.964 120.961C219.58 124.591 223.909 124.421 225.246 123.881L241.25 114.959C247.318 103.478 260.352 79.1337 263.941 73.6052C267.53 68.0768 263.017 60.949 260.312 58.0762C259.124 57.0774 254.58 54.0981 245.905 50.1709C237.229 46.2437 231.903 51.8604 230.324 55.1596C222.924 68.2242 207.938 94.9455 207.194 97.3141C206.263 100.275 207.578 108.633 208.636 113.032Z" fill="white" stroke="white" stroke-width="3.04326"/>
<path d="M197.451 371.817L218.894 130.874C227.419 133.052 235.881 127.119 239.046 123.881L212.621 337.791L197.451 371.817Z" fill="white"/>
<path d="M195.978 388.365L197.451 371.817M197.451 371.817L218.894 130.874C227.419 133.052 235.881 127.119 239.046 123.881L212.621 337.791L197.451 371.817Z" stroke="white" stroke-width="3.04326"/>
<path d="M14.1667 272.313L205.874 124.795C199.458 118.775 199.916 108.45 200.947 104.04L34.7175 241.24L14.1667 272.313Z" fill="white"/>
<path d="M1.00001 282.445L14.1667 272.313M14.1667 272.313L205.874 124.795C199.458 118.775 199.916 108.45 200.947 104.04L34.7175 241.24L14.1667 272.313Z" stroke="white" stroke-width="3.04326"/>
<path fill-rule="evenodd" clip-rule="evenodd" d="M234.92 87.7357C239.13 89.0755 243.836 87.2991 246.042 83.2792C248.248 79.2593 247.218 74.3357 243.826 71.5039L234.92 87.7357ZM241.206 69.9531C236.855 68.2462 231.808 69.9962 229.5 74.2027C227.192 78.4092 228.427 83.6054 232.204 86.3586L241.206 69.9531Z" fill="#00AFFE"/>
<ellipse cx="228.103" cy="274.033" rx="6.39083" ry="6.15557" transform="rotate(78.2998 228.103 274.033)" fill="white"/>
<ellipse cx="223.818" cy="302.087" rx="6.39083" ry="6.15557" transform="rotate(78.2998 223.818 302.087)" fill="white"/>
<rect x="222.103" y="272.939" width="12.3164" height="28.6066" transform="rotate(8.74512 222.103 272.939)" fill="white"/>
<rect x="268.304" y="11.8018" width="13.9945" height="37.5052" transform="rotate(28.7537 268.304 11.8018)" fill="white"/>
<circle cx="274.843" cy="14.4311" r="6.99724" transform="rotate(28.7537 274.843 14.4311)" fill="white"/>
</svg>
