<svg width="1323" height="1362" viewBox="0 0 1323 1362" fill="none" xmlns="http://www.w3.org/2000/svg">
<rect x="2.5" y="2.5" width="260" height="270" stroke="#C1ECFF" stroke-width="5"/>
<rect x="2.5" y="2.5" width="66.3608" height="66.3608" stroke="#C1ECFF" stroke-width="5"/>
<rect x="2.5" y="70.7805" width="66.3608" height="66.3608" stroke="#C1ECFF" stroke-width="5"/>
<rect x="2.5" y="138.548" width="66.3608" height="66.3608" stroke="#C1ECFF" stroke-width="5"/>
<rect x="2.5" y="206.315" width="66.3608" height="66.3608" stroke="#C1ECFF" stroke-width="5"/>
<rect x="70.2676" y="2.5" width="66.3608" height="66.3608" stroke="#C1ECFF" stroke-width="5"/>
<rect x="70.2676" y="70.7805" width="66.3608" height="66.3608" stroke="#C1ECFF" stroke-width="5"/>
<rect x="70.2676" y="138.548" width="66.3608" height="66.3608" stroke="#C1ECFF" stroke-width="5"/>
<rect x="70.2676" y="206.315" width="66.3608" height="66.3608" stroke="#C1ECFF" stroke-width="5"/>
<rect x="132.835" y="2.5" width="66.3608" height="66.3608" stroke="#C1ECFF" stroke-width="5"/>
<rect x="132.835" y="70.7805" width="66.3608" height="66.3608" stroke="#C1ECFF" stroke-width="5"/>
<rect x="132.835" y="138.548" width="66.3608" height="66.3608" stroke="#C1ECFF" stroke-width="5"/>
<rect x="132.835" y="206.315" width="66.3608" height="66.3608" stroke="#C1ECFF" stroke-width="5"/>
<rect x="195.841" y="2.5" width="66.3608" height="66.3608" stroke="#C1ECFF" stroke-width="5"/>
<rect x="195.841" y="70.7805" width="66.3608" height="66.3608" stroke="#C1ECFF" stroke-width="5"/>
<rect x="195.841" y="138.548" width="66.3608" height="66.3608" stroke="#C1ECFF" stroke-width="5"/>
<rect x="195.841" y="206.315" width="66.3608" height="66.3608" stroke="#C1ECFF" stroke-width="5"/>
<rect x="2.5" y="274.5" width="260" height="270" stroke="#C1ECFF" stroke-width="5"/>
<rect x="2.5" y="274.5" width="66.3608" height="66.3608" stroke="#C1ECFF" stroke-width="5"/>
<rect x="2.5" y="342.781" width="66.3608" height="66.3608" stroke="#C1ECFF" stroke-width="5"/>
<rect x="2.5" y="410.548" width="66.3608" height="66.3608" stroke="#C1ECFF" stroke-width="5"/>
<rect x="2.5" y="478.315" width="66.3608" height="66.3608" stroke="#C1ECFF" stroke-width="5"/>
<rect x="70.2676" y="274.5" width="66.3608" height="66.3608" stroke="#C1ECFF" stroke-width="5"/>
<rect x="70.2676" y="342.781" width="66.3608" height="66.3608" stroke="#C1ECFF" stroke-width="5"/>
<rect x="70.2676" y="410.548" width="66.3608" height="66.3608" stroke="#C1ECFF" stroke-width="5"/>
<rect x="70.2676" y="478.315" width="66.3608" height="66.3608" stroke="#C1ECFF" stroke-width="5"/>
<rect x="132.835" y="274.5" width="66.3608" height="66.3608" stroke="#C1ECFF" stroke-width="5"/>
<rect x="132.835" y="342.781" width="66.3608" height="66.3608" stroke="#C1ECFF" stroke-width="5"/>
<rect x="132.835" y="410.548" width="66.3608" height="66.3608" stroke="#C1ECFF" stroke-width="5"/>
<rect x="132.835" y="478.315" width="66.3608" height="66.3608" stroke="#C1ECFF" stroke-width="5"/>
<rect x="195.841" y="274.5" width="66.3608" height="66.3608" stroke="#C1ECFF" stroke-width="5"/>
<rect x="195.841" y="342.781" width="66.3608" height="66.3608" stroke="#C1ECFF" stroke-width="5"/>
<rect x="195.841" y="410.548" width="66.3608" height="66.3608" stroke="#C1ECFF" stroke-width="5"/>
<rect x="195.841" y="478.315" width="66.3608" height="66.3608" stroke="#C1ECFF" stroke-width="5"/>
<rect x="2.5" y="546.5" width="260" height="270" stroke="#C1ECFF" stroke-width="5"/>
<rect x="2.5" y="546.5" width="66.3608" height="66.3608" stroke="#C1ECFF" stroke-width="5"/>
<rect x="2.5" y="614.781" width="66.3608" height="66.3608" stroke="#C1ECFF" stroke-width="5"/>
<rect x="2.5" y="682.548" width="66.3608" height="66.3608" stroke="#C1ECFF" stroke-width="5"/>
<rect x="2.5" y="750.315" width="66.3608" height="66.3608" stroke="#C1ECFF" stroke-width="5"/>
<rect x="70.2676" y="546.5" width="66.3608" height="66.3608" stroke="#C1ECFF" stroke-width="5"/>
<rect x="70.2676" y="614.781" width="66.3608" height="66.3608" stroke="#C1ECFF" stroke-width="5"/>
<rect x="70.2676" y="682.548" width="66.3608" height="66.3608" stroke="#C1ECFF" stroke-width="5"/>
<rect x="70.2676" y="750.315" width="66.3608" height="66.3608" stroke="#C1ECFF" stroke-width="5"/>
<rect x="132.835" y="546.5" width="66.3608" height="66.3608" stroke="#C1ECFF" stroke-width="5"/>
<rect x="132.835" y="614.781" width="66.3608" height="66.3608" stroke="#C1ECFF" stroke-width="5"/>
<rect x="132.835" y="682.548" width="66.3608" height="66.3608" stroke="#C1ECFF" stroke-width="5"/>
<rect x="132.835" y="750.315" width="66.3608" height="66.3608" stroke="#C1ECFF" stroke-width="5"/>
<rect x="195.841" y="546.5" width="66.3608" height="66.3608" stroke="#C1ECFF" stroke-width="5"/>
<rect x="195.841" y="614.781" width="66.3608" height="66.3608" stroke="#C1ECFF" stroke-width="5"/>
<rect x="195.841" y="682.548" width="66.3608" height="66.3608" stroke="#C1ECFF" stroke-width="5"/>
<rect x="195.841" y="750.315" width="66.3608" height="66.3608" stroke="#C1ECFF" stroke-width="5"/>
<rect x="2.5" y="818.5" width="260" height="270" stroke="#C1ECFF" stroke-width="5"/>
<rect x="2.5" y="818.5" width="66.3608" height="66.3608" stroke="#C1ECFF" stroke-width="5"/>
<rect x="2.5" y="886.781" width="66.3608" height="66.3608" stroke="#C1ECFF" stroke-width="5"/>
<rect x="2.5" y="954.548" width="66.3608" height="66.3608" stroke="#C1ECFF" stroke-width="5"/>
<rect x="2.5" y="1022.31" width="66.3608" height="66.3608" stroke="#C1ECFF" stroke-width="5"/>
<rect x="70.2676" y="818.5" width="66.3608" height="66.3608" stroke="#C1ECFF" stroke-width="5"/>
<rect x="70.2676" y="886.781" width="66.3608" height="66.3608" stroke="#C1ECFF" stroke-width="5"/>
<rect x="70.2676" y="954.548" width="66.3608" height="66.3608" stroke="#C1ECFF" stroke-width="5"/>
<rect x="70.2676" y="1022.31" width="66.3608" height="66.3608" stroke="#C1ECFF" stroke-width="5"/>
<rect x="132.835" y="818.5" width="66.3608" height="66.3608" stroke="#C1ECFF" stroke-width="5"/>
<rect x="132.835" y="886.781" width="66.3608" height="66.3608" stroke="#C1ECFF" stroke-width="5"/>
<rect x="132.835" y="954.548" width="66.3608" height="66.3608" stroke="#C1ECFF" stroke-width="5"/>
<rect x="132.835" y="1022.31" width="66.3608" height="66.3608" stroke="#C1ECFF" stroke-width="5"/>
<rect x="195.841" y="818.5" width="66.3608" height="66.3608" stroke="#C1ECFF" stroke-width="5"/>
<rect x="195.841" y="886.781" width="66.3608" height="66.3608" stroke="#C1ECFF" stroke-width="5"/>
<rect x="195.841" y="954.548" width="66.3608" height="66.3608" stroke="#C1ECFF" stroke-width="5"/>
<rect x="195.841" y="1022.31" width="66.3608" height="66.3608" stroke="#C1ECFF" stroke-width="5"/>
<rect x="2.5" y="1088.5" width="260" height="270" stroke="#C1ECFF" stroke-width="5"/>
<rect x="2.5" y="1088.5" width="66.3608" height="66.3608" stroke="#C1ECFF" stroke-width="5"/>
<rect x="2.5" y="1156.78" width="66.3608" height="66.3608" stroke="#C1ECFF" stroke-width="5"/>
<rect x="2.5" y="1224.55" width="66.3608" height="66.3608" stroke="#C1ECFF" stroke-width="5"/>
<rect x="2.5" y="1292.31" width="66.3608" height="66.3608" stroke="#C1ECFF" stroke-width="5"/>
<rect x="70.2676" y="1088.5" width="66.3608" height="66.3608" stroke="#C1ECFF" stroke-width="5"/>
<rect x="70.2676" y="1156.78" width="66.3608" height="66.3608" stroke="#C1ECFF" stroke-width="5"/>
<rect x="70.2676" y="1224.55" width="66.3608" height="66.3608" stroke="#C1ECFF" stroke-width="5"/>
<rect x="70.2676" y="1292.31" width="66.3608" height="66.3608" stroke="#C1ECFF" stroke-width="5"/>
<rect x="132.835" y="1088.5" width="66.3608" height="66.3608" stroke="#C1ECFF" stroke-width="5"/>
<rect x="132.835" y="1156.78" width="66.3608" height="66.3608" stroke="#C1ECFF" stroke-width="5"/>
<rect x="132.835" y="1224.55" width="66.3608" height="66.3608" stroke="#C1ECFF" stroke-width="5"/>
<rect x="132.835" y="1292.31" width="66.3608" height="66.3608" stroke="#C1ECFF" stroke-width="5"/>
<rect x="195.841" y="1088.5" width="66.3608" height="66.3608" stroke="#C1ECFF" stroke-width="5"/>
<rect x="195.841" y="1156.78" width="66.3608" height="66.3608" stroke="#C1ECFF" stroke-width="5"/>
<rect x="195.841" y="1224.55" width="66.3608" height="66.3608" stroke="#C1ECFF" stroke-width="5"/>
<rect x="195.841" y="1292.31" width="66.3608" height="66.3608" stroke="#C1ECFF" stroke-width="5"/>
<rect x="267.5" y="2.5" width="260" height="270" stroke="#C1ECFF" stroke-width="5"/>
<rect x="267.5" y="2.5" width="66.3608" height="66.3608" stroke="#C1ECFF" stroke-width="5"/>
<rect x="267.5" y="70.7805" width="66.3608" height="66.3608" stroke="#C1ECFF" stroke-width="5"/>
<rect x="267.5" y="138.548" width="66.3608" height="66.3608" stroke="#C1ECFF" stroke-width="5"/>
<rect x="267.5" y="206.315" width="66.3608" height="66.3608" stroke="#C1ECFF" stroke-width="5"/>
<rect x="335.268" y="2.5" width="66.3608" height="66.3608" stroke="#C1ECFF" stroke-width="5"/>
<rect x="335.268" y="70.7805" width="66.3608" height="66.3608" stroke="#C1ECFF" stroke-width="5"/>
<rect x="335.268" y="138.548" width="66.3608" height="66.3608" stroke="#C1ECFF" stroke-width="5"/>
<rect x="335.268" y="206.315" width="66.3608" height="66.3608" stroke="#C1ECFF" stroke-width="5"/>
<rect x="397.835" y="2.5" width="66.3608" height="66.3608" stroke="#C1ECFF" stroke-width="5"/>
<rect x="397.835" y="70.7805" width="66.3608" height="66.3608" stroke="#C1ECFF" stroke-width="5"/>
<rect x="397.835" y="138.548" width="66.3608" height="66.3608" stroke="#C1ECFF" stroke-width="5"/>
<rect x="397.835" y="206.315" width="66.3608" height="66.3608" stroke="#C1ECFF" stroke-width="5"/>
<rect x="460.841" y="2.5" width="66.3608" height="66.3608" stroke="#C1ECFF" stroke-width="5"/>
<rect x="460.841" y="70.7805" width="66.3608" height="66.3608" stroke="#C1ECFF" stroke-width="5"/>
<rect x="460.841" y="138.548" width="66.3608" height="66.3608" stroke="#C1ECFF" stroke-width="5"/>
<rect x="460.841" y="206.315" width="66.3608" height="66.3608" stroke="#C1ECFF" stroke-width="5"/>
<rect x="267.5" y="274.5" width="260" height="270" stroke="#C1ECFF" stroke-width="5"/>
<rect x="267.5" y="274.5" width="66.3608" height="66.3608" stroke="#C1ECFF" stroke-width="5"/>
<rect x="267.5" y="342.781" width="66.3608" height="66.3608" stroke="#C1ECFF" stroke-width="5"/>
<rect x="267.5" y="410.548" width="66.3608" height="66.3608" stroke="#C1ECFF" stroke-width="5"/>
<rect x="267.5" y="478.315" width="66.3608" height="66.3608" stroke="#C1ECFF" stroke-width="5"/>
<rect x="335.268" y="274.5" width="66.3608" height="66.3608" stroke="#C1ECFF" stroke-width="5"/>
<rect x="335.268" y="342.781" width="66.3608" height="66.3608" stroke="#C1ECFF" stroke-width="5"/>
<rect x="335.268" y="410.548" width="66.3608" height="66.3608" stroke="#C1ECFF" stroke-width="5"/>
<rect x="335.268" y="478.315" width="66.3608" height="66.3608" stroke="#C1ECFF" stroke-width="5"/>
<rect x="397.835" y="274.5" width="66.3608" height="66.3608" stroke="#C1ECFF" stroke-width="5"/>
<rect x="397.835" y="342.781" width="66.3608" height="66.3608" stroke="#C1ECFF" stroke-width="5"/>
<rect x="397.835" y="410.548" width="66.3608" height="66.3608" stroke="#C1ECFF" stroke-width="5"/>
<rect x="397.835" y="478.315" width="66.3608" height="66.3608" stroke="#C1ECFF" stroke-width="5"/>
<rect x="460.841" y="274.5" width="66.3608" height="66.3608" stroke="#C1ECFF" stroke-width="5"/>
<rect x="460.841" y="342.781" width="66.3608" height="66.3608" stroke="#C1ECFF" stroke-width="5"/>
<rect x="460.841" y="410.548" width="66.3608" height="66.3608" stroke="#C1ECFF" stroke-width="5"/>
<rect x="460.841" y="478.315" width="66.3608" height="66.3608" stroke="#C1ECFF" stroke-width="5"/>
<rect x="267.5" y="546.5" width="260" height="270" stroke="#C1ECFF" stroke-width="5"/>
<rect x="267.5" y="546.5" width="66.3608" height="66.3608" stroke="#C1ECFF" stroke-width="5"/>
<rect x="267.5" y="614.781" width="66.3608" height="66.3608" stroke="#C1ECFF" stroke-width="5"/>
<rect x="267.5" y="682.548" width="66.3608" height="66.3608" stroke="#C1ECFF" stroke-width="5"/>
<rect x="267.5" y="750.315" width="66.3608" height="66.3608" stroke="#C1ECFF" stroke-width="5"/>
<rect x="335.268" y="546.5" width="66.3608" height="66.3608" stroke="#C1ECFF" stroke-width="5"/>
<rect x="335.268" y="614.781" width="66.3608" height="66.3608" stroke="#C1ECFF" stroke-width="5"/>
<rect x="335.268" y="682.548" width="66.3608" height="66.3608" stroke="#C1ECFF" stroke-width="5"/>
<rect x="335.268" y="750.315" width="66.3608" height="66.3608" stroke="#C1ECFF" stroke-width="5"/>
<rect x="397.835" y="546.5" width="66.3608" height="66.3608" stroke="#C1ECFF" stroke-width="5"/>
<rect x="397.835" y="614.781" width="66.3608" height="66.3608" stroke="#C1ECFF" stroke-width="5"/>
<rect x="397.835" y="682.548" width="66.3608" height="66.3608" stroke="#C1ECFF" stroke-width="5"/>
<rect x="397.835" y="750.315" width="66.3608" height="66.3608" stroke="#C1ECFF" stroke-width="5"/>
<rect x="460.841" y="546.5" width="66.3608" height="66.3608" stroke="#C1ECFF" stroke-width="5"/>
<rect x="460.841" y="614.781" width="66.3608" height="66.3608" stroke="#C1ECFF" stroke-width="5"/>
<rect x="460.841" y="682.548" width="66.3608" height="66.3608" stroke="#C1ECFF" stroke-width="5"/>
<rect x="460.841" y="750.315" width="66.3608" height="66.3608" stroke="#C1ECFF" stroke-width="5"/>
<rect x="267.5" y="818.5" width="260" height="270" stroke="#C1ECFF" stroke-width="5"/>
<rect x="267.5" y="818.5" width="66.3608" height="66.3608" stroke="#C1ECFF" stroke-width="5"/>
<rect x="267.5" y="886.781" width="66.3608" height="66.3608" stroke="#C1ECFF" stroke-width="5"/>
<rect x="267.5" y="954.548" width="66.3608" height="66.3608" stroke="#C1ECFF" stroke-width="5"/>
<rect x="267.5" y="1022.31" width="66.3608" height="66.3608" stroke="#C1ECFF" stroke-width="5"/>
<rect x="335.268" y="818.5" width="66.3608" height="66.3608" stroke="#C1ECFF" stroke-width="5"/>
<rect x="335.268" y="886.781" width="66.3608" height="66.3608" stroke="#C1ECFF" stroke-width="5"/>
<rect x="335.268" y="954.548" width="66.3608" height="66.3608" stroke="#C1ECFF" stroke-width="5"/>
<rect x="335.268" y="1022.31" width="66.3608" height="66.3608" stroke="#C1ECFF" stroke-width="5"/>
<rect x="397.835" y="818.5" width="66.3608" height="66.3608" stroke="#C1ECFF" stroke-width="5"/>
<rect x="397.835" y="886.781" width="66.3608" height="66.3608" stroke="#C1ECFF" stroke-width="5"/>
<rect x="397.835" y="954.548" width="66.3608" height="66.3608" stroke="#C1ECFF" stroke-width="5"/>
<rect x="397.835" y="1022.31" width="66.3608" height="66.3608" stroke="#C1ECFF" stroke-width="5"/>
<rect x="460.841" y="818.5" width="66.3608" height="66.3608" stroke="#C1ECFF" stroke-width="5"/>
<rect x="460.841" y="886.781" width="66.3608" height="66.3608" stroke="#C1ECFF" stroke-width="5"/>
<rect x="460.841" y="954.548" width="66.3608" height="66.3608" stroke="#C1ECFF" stroke-width="5"/>
<rect x="460.841" y="1022.31" width="66.3608" height="66.3608" stroke="#C1ECFF" stroke-width="5"/>
<rect x="267.5" y="1088.5" width="260" height="270" stroke="#C1ECFF" stroke-width="5"/>
<rect x="267.5" y="1088.5" width="66.3608" height="66.3608" stroke="#C1ECFF" stroke-width="5"/>
<rect x="267.5" y="1156.78" width="66.3608" height="66.3608" stroke="#C1ECFF" stroke-width="5"/>
<rect x="267.5" y="1224.55" width="66.3608" height="66.3608" stroke="#C1ECFF" stroke-width="5"/>
<rect x="267.5" y="1292.31" width="66.3608" height="66.3608" stroke="#C1ECFF" stroke-width="5"/>
<rect x="335.268" y="1088.5" width="66.3608" height="66.3608" stroke="#C1ECFF" stroke-width="5"/>
<rect x="335.268" y="1156.78" width="66.3608" height="66.3608" stroke="#C1ECFF" stroke-width="5"/>
<rect x="335.268" y="1224.55" width="66.3608" height="66.3608" stroke="#C1ECFF" stroke-width="5"/>
<rect x="335.268" y="1292.31" width="66.3608" height="66.3608" stroke="#C1ECFF" stroke-width="5"/>
<rect x="397.835" y="1088.5" width="66.3608" height="66.3608" stroke="#C1ECFF" stroke-width="5"/>
<rect x="397.835" y="1156.78" width="66.3608" height="66.3608" stroke="#C1ECFF" stroke-width="5"/>
<rect x="397.835" y="1224.55" width="66.3608" height="66.3608" stroke="#C1ECFF" stroke-width="5"/>
<rect x="397.835" y="1292.31" width="66.3608" height="66.3608" stroke="#C1ECFF" stroke-width="5"/>
<rect x="460.841" y="1088.5" width="66.3608" height="66.3608" stroke="#C1ECFF" stroke-width="5"/>
<rect x="460.841" y="1156.78" width="66.3608" height="66.3608" stroke="#C1ECFF" stroke-width="5"/>
<rect x="460.841" y="1224.55" width="66.3608" height="66.3608" stroke="#C1ECFF" stroke-width="5"/>
<rect x="460.841" y="1292.31" width="66.3608" height="66.3608" stroke="#C1ECFF" stroke-width="5"/>
<rect x="531.5" y="2.5" width="260" height="270" stroke="#C1ECFF" stroke-width="5"/>
<rect x="531.5" y="2.5" width="66.3608" height="66.3608" stroke="#C1ECFF" stroke-width="5"/>
<rect x="531.5" y="70.7805" width="66.3608" height="66.3608" stroke="#C1ECFF" stroke-width="5"/>
<rect x="531.5" y="138.548" width="66.3608" height="66.3608" stroke="#C1ECFF" stroke-width="5"/>
<rect x="531.5" y="206.315" width="66.3608" height="66.3608" stroke="#C1ECFF" stroke-width="5"/>
<rect x="599.268" y="2.5" width="66.3608" height="66.3608" stroke="#C1ECFF" stroke-width="5"/>
<rect x="599.268" y="70.7805" width="66.3608" height="66.3608" stroke="#C1ECFF" stroke-width="5"/>
<rect x="599.268" y="138.548" width="66.3608" height="66.3608" stroke="#C1ECFF" stroke-width="5"/>
<rect x="599.268" y="206.315" width="66.3608" height="66.3608" stroke="#C1ECFF" stroke-width="5"/>
<rect x="661.835" y="2.5" width="66.3608" height="66.3608" stroke="#C1ECFF" stroke-width="5"/>
<rect x="661.835" y="70.7805" width="66.3608" height="66.3608" stroke="#C1ECFF" stroke-width="5"/>
<rect x="661.835" y="138.548" width="66.3608" height="66.3608" stroke="#C1ECFF" stroke-width="5"/>
<rect x="661.835" y="206.315" width="66.3608" height="66.3608" stroke="#C1ECFF" stroke-width="5"/>
<rect x="724.841" y="2.5" width="66.3608" height="66.3608" stroke="#C1ECFF" stroke-width="5"/>
<rect x="724.841" y="70.7805" width="66.3608" height="66.3608" stroke="#C1ECFF" stroke-width="5"/>
<rect x="724.841" y="138.548" width="66.3608" height="66.3608" stroke="#C1ECFF" stroke-width="5"/>
<rect x="724.841" y="206.315" width="66.3608" height="66.3608" stroke="#C1ECFF" stroke-width="5"/>
<rect x="531.5" y="274.5" width="260" height="270" stroke="#C1ECFF" stroke-width="5"/>
<rect x="531.5" y="274.5" width="66.3608" height="66.3608" stroke="#C1ECFF" stroke-width="5"/>
<rect x="531.5" y="342.781" width="66.3608" height="66.3608" stroke="#C1ECFF" stroke-width="5"/>
<rect x="531.5" y="410.548" width="66.3608" height="66.3608" stroke="#C1ECFF" stroke-width="5"/>
<rect x="531.5" y="478.315" width="66.3608" height="66.3608" stroke="#C1ECFF" stroke-width="5"/>
<rect x="599.268" y="274.5" width="66.3608" height="66.3608" stroke="#C1ECFF" stroke-width="5"/>
<rect x="599.268" y="342.781" width="66.3608" height="66.3608" stroke="#C1ECFF" stroke-width="5"/>
<rect x="599.268" y="410.548" width="66.3608" height="66.3608" stroke="#C1ECFF" stroke-width="5"/>
<rect x="599.268" y="478.315" width="66.3608" height="66.3608" stroke="#C1ECFF" stroke-width="5"/>
<rect x="661.835" y="274.5" width="66.3608" height="66.3608" stroke="#C1ECFF" stroke-width="5"/>
<rect x="661.835" y="342.781" width="66.3608" height="66.3608" stroke="#C1ECFF" stroke-width="5"/>
<rect x="661.835" y="410.548" width="66.3608" height="66.3608" stroke="#C1ECFF" stroke-width="5"/>
<rect x="661.835" y="478.315" width="66.3608" height="66.3608" stroke="#C1ECFF" stroke-width="5"/>
<rect x="724.841" y="274.5" width="66.3608" height="66.3608" stroke="#C1ECFF" stroke-width="5"/>
<rect x="724.841" y="342.781" width="66.3608" height="66.3608" stroke="#C1ECFF" stroke-width="5"/>
<rect x="724.841" y="410.548" width="66.3608" height="66.3608" stroke="#C1ECFF" stroke-width="5"/>
<rect x="724.841" y="478.315" width="66.3608" height="66.3608" stroke="#C1ECFF" stroke-width="5"/>
<rect x="531.5" y="546.5" width="260" height="270" stroke="#C1ECFF" stroke-width="5"/>
<rect x="531.5" y="546.5" width="66.3608" height="66.3608" stroke="#C1ECFF" stroke-width="5"/>
<rect x="531.5" y="614.781" width="66.3608" height="66.3608" stroke="#C1ECFF" stroke-width="5"/>
<rect x="531.5" y="682.548" width="66.3608" height="66.3608" stroke="#C1ECFF" stroke-width="5"/>
<rect x="531.5" y="750.315" width="66.3608" height="66.3608" stroke="#C1ECFF" stroke-width="5"/>
<rect x="599.268" y="546.5" width="66.3608" height="66.3608" stroke="#C1ECFF" stroke-width="5"/>
<rect x="599.268" y="614.781" width="66.3608" height="66.3608" stroke="#C1ECFF" stroke-width="5"/>
<rect x="599.268" y="682.548" width="66.3608" height="66.3608" stroke="#C1ECFF" stroke-width="5"/>
<rect x="599.268" y="750.315" width="66.3608" height="66.3608" stroke="#C1ECFF" stroke-width="5"/>
<rect x="661.835" y="546.5" width="66.3608" height="66.3608" stroke="#C1ECFF" stroke-width="5"/>
<rect x="661.835" y="614.781" width="66.3608" height="66.3608" stroke="#C1ECFF" stroke-width="5"/>
<rect x="661.835" y="682.548" width="66.3608" height="66.3608" stroke="#C1ECFF" stroke-width="5"/>
<rect x="661.835" y="750.315" width="66.3608" height="66.3608" stroke="#C1ECFF" stroke-width="5"/>
<rect x="724.841" y="546.5" width="66.3608" height="66.3608" stroke="#C1ECFF" stroke-width="5"/>
<rect x="724.841" y="614.781" width="66.3608" height="66.3608" stroke="#C1ECFF" stroke-width="5"/>
<rect x="724.841" y="682.548" width="66.3608" height="66.3608" stroke="#C1ECFF" stroke-width="5"/>
<rect x="724.841" y="750.315" width="66.3608" height="66.3608" stroke="#C1ECFF" stroke-width="5"/>
<rect x="531.5" y="818.5" width="260" height="270" stroke="#C1ECFF" stroke-width="5"/>
<rect x="531.5" y="818.5" width="66.3608" height="66.3608" stroke="#C1ECFF" stroke-width="5"/>
<rect x="531.5" y="886.781" width="66.3608" height="66.3608" stroke="#C1ECFF" stroke-width="5"/>
<rect x="531.5" y="954.548" width="66.3608" height="66.3608" stroke="#C1ECFF" stroke-width="5"/>
<rect x="531.5" y="1022.31" width="66.3608" height="66.3608" stroke="#C1ECFF" stroke-width="5"/>
<rect x="599.268" y="818.5" width="66.3608" height="66.3608" stroke="#C1ECFF" stroke-width="5"/>
<rect x="599.268" y="886.781" width="66.3608" height="66.3608" stroke="#C1ECFF" stroke-width="5"/>
<rect x="599.268" y="954.548" width="66.3608" height="66.3608" stroke="#C1ECFF" stroke-width="5"/>
<rect x="599.268" y="1022.31" width="66.3608" height="66.3608" stroke="#C1ECFF" stroke-width="5"/>
<rect x="661.835" y="818.5" width="66.3608" height="66.3608" stroke="#C1ECFF" stroke-width="5"/>
<rect x="661.835" y="886.781" width="66.3608" height="66.3608" stroke="#C1ECFF" stroke-width="5"/>
<rect x="661.835" y="954.548" width="66.3608" height="66.3608" stroke="#C1ECFF" stroke-width="5"/>
<rect x="661.835" y="1022.31" width="66.3608" height="66.3608" stroke="#C1ECFF" stroke-width="5"/>
<rect x="724.841" y="818.5" width="66.3608" height="66.3608" stroke="#C1ECFF" stroke-width="5"/>
<rect x="724.841" y="886.781" width="66.3608" height="66.3608" stroke="#C1ECFF" stroke-width="5"/>
<rect x="724.841" y="954.548" width="66.3608" height="66.3608" stroke="#C1ECFF" stroke-width="5"/>
<rect x="724.841" y="1022.31" width="66.3608" height="66.3608" stroke="#C1ECFF" stroke-width="5"/>
<rect x="531.5" y="1088.5" width="260" height="270" stroke="#C1ECFF" stroke-width="5"/>
<rect x="531.5" y="1088.5" width="66.3608" height="66.3608" stroke="#C1ECFF" stroke-width="5"/>
<rect x="531.5" y="1156.78" width="66.3608" height="66.3608" stroke="#C1ECFF" stroke-width="5"/>
<rect x="531.5" y="1224.55" width="66.3608" height="66.3608" stroke="#C1ECFF" stroke-width="5"/>
<rect x="531.5" y="1292.31" width="66.3608" height="66.3608" stroke="#C1ECFF" stroke-width="5"/>
<rect x="599.268" y="1088.5" width="66.3608" height="66.3608" stroke="#C1ECFF" stroke-width="5"/>
<rect x="599.268" y="1156.78" width="66.3608" height="66.3608" stroke="#C1ECFF" stroke-width="5"/>
<rect x="599.268" y="1224.55" width="66.3608" height="66.3608" stroke="#C1ECFF" stroke-width="5"/>
<rect x="599.268" y="1292.31" width="66.3608" height="66.3608" stroke="#C1ECFF" stroke-width="5"/>
<rect x="661.835" y="1088.5" width="66.3608" height="66.3608" stroke="#C1ECFF" stroke-width="5"/>
<rect x="661.835" y="1156.78" width="66.3608" height="66.3608" stroke="#C1ECFF" stroke-width="5"/>
<rect x="661.835" y="1224.55" width="66.3608" height="66.3608" stroke="#C1ECFF" stroke-width="5"/>
<rect x="661.835" y="1292.31" width="66.3608" height="66.3608" stroke="#C1ECFF" stroke-width="5"/>
<rect x="724.841" y="1088.5" width="66.3608" height="66.3608" stroke="#C1ECFF" stroke-width="5"/>
<rect x="724.841" y="1156.78" width="66.3608" height="66.3608" stroke="#C1ECFF" stroke-width="5"/>
<rect x="724.841" y="1224.55" width="66.3608" height="66.3608" stroke="#C1ECFF" stroke-width="5"/>
<rect x="724.841" y="1292.31" width="66.3608" height="66.3608" stroke="#C1ECFF" stroke-width="5"/>
<rect x="795.5" y="2.5" width="260" height="270" stroke="#C1ECFF" stroke-width="5"/>
<rect x="795.5" y="2.5" width="66.3608" height="66.3608" stroke="#C1ECFF" stroke-width="5"/>
<rect x="795.5" y="70.7805" width="66.3608" height="66.3608" stroke="#C1ECFF" stroke-width="5"/>
<rect x="795.5" y="138.548" width="66.3608" height="66.3608" stroke="#C1ECFF" stroke-width="5"/>
<rect x="795.5" y="206.315" width="66.3608" height="66.3608" stroke="#C1ECFF" stroke-width="5"/>
<rect x="863.268" y="2.5" width="66.3608" height="66.3608" stroke="#C1ECFF" stroke-width="5"/>
<rect x="863.268" y="70.7805" width="66.3608" height="66.3608" stroke="#C1ECFF" stroke-width="5"/>
<rect x="863.268" y="138.548" width="66.3608" height="66.3608" stroke="#C1ECFF" stroke-width="5"/>
<rect x="863.268" y="206.315" width="66.3608" height="66.3608" stroke="#C1ECFF" stroke-width="5"/>
<rect x="925.835" y="2.5" width="66.3608" height="66.3608" stroke="#C1ECFF" stroke-width="5"/>
<rect x="925.835" y="70.7805" width="66.3608" height="66.3608" stroke="#C1ECFF" stroke-width="5"/>
<rect x="925.835" y="138.548" width="66.3608" height="66.3608" stroke="#C1ECFF" stroke-width="5"/>
<rect x="925.835" y="206.315" width="66.3608" height="66.3608" stroke="#C1ECFF" stroke-width="5"/>
<rect x="988.841" y="2.5" width="66.3608" height="66.3608" stroke="#C1ECFF" stroke-width="5"/>
<rect x="988.841" y="70.7805" width="66.3608" height="66.3608" stroke="#C1ECFF" stroke-width="5"/>
<rect x="988.841" y="138.548" width="66.3608" height="66.3608" stroke="#C1ECFF" stroke-width="5"/>
<rect x="988.841" y="206.315" width="66.3608" height="66.3608" stroke="#C1ECFF" stroke-width="5"/>
<rect x="795.5" y="274.5" width="260" height="270" stroke="#C1ECFF" stroke-width="5"/>
<rect x="795.5" y="274.5" width="66.3608" height="66.3608" stroke="#C1ECFF" stroke-width="5"/>
<rect x="795.5" y="342.781" width="66.3608" height="66.3608" stroke="#C1ECFF" stroke-width="5"/>
<rect x="795.5" y="410.548" width="66.3608" height="66.3608" stroke="#C1ECFF" stroke-width="5"/>
<rect x="795.5" y="478.315" width="66.3608" height="66.3608" stroke="#C1ECFF" stroke-width="5"/>
<rect x="863.268" y="274.5" width="66.3608" height="66.3608" stroke="#C1ECFF" stroke-width="5"/>
<rect x="863.268" y="342.781" width="66.3608" height="66.3608" stroke="#C1ECFF" stroke-width="5"/>
<rect x="863.268" y="410.548" width="66.3608" height="66.3608" stroke="#C1ECFF" stroke-width="5"/>
<rect x="863.268" y="478.315" width="66.3608" height="66.3608" stroke="#C1ECFF" stroke-width="5"/>
<rect x="925.835" y="274.5" width="66.3608" height="66.3608" stroke="#C1ECFF" stroke-width="5"/>
<rect x="925.835" y="342.781" width="66.3608" height="66.3608" stroke="#C1ECFF" stroke-width="5"/>
<rect x="925.835" y="410.548" width="66.3608" height="66.3608" stroke="#C1ECFF" stroke-width="5"/>
<rect x="925.835" y="478.315" width="66.3608" height="66.3608" stroke="#C1ECFF" stroke-width="5"/>
<rect x="988.841" y="274.5" width="66.3608" height="66.3608" stroke="#C1ECFF" stroke-width="5"/>
<rect x="988.841" y="342.781" width="66.3608" height="66.3608" stroke="#C1ECFF" stroke-width="5"/>
<rect x="988.841" y="410.548" width="66.3608" height="66.3608" stroke="#C1ECFF" stroke-width="5"/>
<rect x="988.841" y="478.315" width="66.3608" height="66.3608" stroke="#C1ECFF" stroke-width="5"/>
<rect x="795.5" y="546.5" width="260" height="270" stroke="#C1ECFF" stroke-width="5"/>
<rect x="795.5" y="546.5" width="66.3608" height="66.3608" stroke="#C1ECFF" stroke-width="5"/>
<rect x="795.5" y="614.781" width="66.3608" height="66.3608" stroke="#C1ECFF" stroke-width="5"/>
<rect x="795.5" y="682.548" width="66.3608" height="66.3608" stroke="#C1ECFF" stroke-width="5"/>
<rect x="795.5" y="750.315" width="66.3608" height="66.3608" stroke="#C1ECFF" stroke-width="5"/>
<rect x="863.268" y="546.5" width="66.3608" height="66.3608" stroke="#C1ECFF" stroke-width="5"/>
<rect x="863.268" y="614.781" width="66.3608" height="66.3608" stroke="#C1ECFF" stroke-width="5"/>
<rect x="863.268" y="682.548" width="66.3608" height="66.3608" stroke="#C1ECFF" stroke-width="5"/>
<rect x="863.268" y="750.315" width="66.3608" height="66.3608" stroke="#C1ECFF" stroke-width="5"/>
<rect x="925.835" y="546.5" width="66.3608" height="66.3608" stroke="#C1ECFF" stroke-width="5"/>
<rect x="925.835" y="614.781" width="66.3608" height="66.3608" stroke="#C1ECFF" stroke-width="5"/>
<rect x="925.835" y="682.548" width="66.3608" height="66.3608" stroke="#C1ECFF" stroke-width="5"/>
<rect x="925.835" y="750.315" width="66.3608" height="66.3608" stroke="#C1ECFF" stroke-width="5"/>
<rect x="988.841" y="546.5" width="66.3608" height="66.3608" stroke="#C1ECFF" stroke-width="5"/>
<rect x="988.841" y="614.781" width="66.3608" height="66.3608" stroke="#C1ECFF" stroke-width="5"/>
<rect x="988.841" y="682.548" width="66.3608" height="66.3608" stroke="#C1ECFF" stroke-width="5"/>
<rect x="988.841" y="750.315" width="66.3608" height="66.3608" stroke="#C1ECFF" stroke-width="5"/>
<rect x="795.5" y="818.5" width="260" height="270" stroke="#C1ECFF" stroke-width="5"/>
<rect x="795.5" y="818.5" width="66.3608" height="66.3608" stroke="#C1ECFF" stroke-width="5"/>
<rect x="795.5" y="886.781" width="66.3608" height="66.3608" stroke="#C1ECFF" stroke-width="5"/>
<rect x="795.5" y="954.548" width="66.3608" height="66.3608" stroke="#C1ECFF" stroke-width="5"/>
<rect x="795.5" y="1022.31" width="66.3608" height="66.3608" stroke="#C1ECFF" stroke-width="5"/>
<rect x="863.268" y="818.5" width="66.3608" height="66.3608" stroke="#C1ECFF" stroke-width="5"/>
<rect x="863.268" y="886.781" width="66.3608" height="66.3608" stroke="#C1ECFF" stroke-width="5"/>
<rect x="863.268" y="954.548" width="66.3608" height="66.3608" stroke="#C1ECFF" stroke-width="5"/>
<rect x="863.268" y="1022.31" width="66.3608" height="66.3608" stroke="#C1ECFF" stroke-width="5"/>
<rect x="925.835" y="818.5" width="66.3608" height="66.3608" stroke="#C1ECFF" stroke-width="5"/>
<rect x="925.835" y="886.781" width="66.3608" height="66.3608" stroke="#C1ECFF" stroke-width="5"/>
<rect x="925.835" y="954.548" width="66.3608" height="66.3608" stroke="#C1ECFF" stroke-width="5"/>
<rect x="925.835" y="1022.31" width="66.3608" height="66.3608" stroke="#C1ECFF" stroke-width="5"/>
<rect x="988.841" y="818.5" width="66.3608" height="66.3608" stroke="#C1ECFF" stroke-width="5"/>
<rect x="988.841" y="886.781" width="66.3608" height="66.3608" stroke="#C1ECFF" stroke-width="5"/>
<rect x="988.841" y="954.548" width="66.3608" height="66.3608" stroke="#C1ECFF" stroke-width="5"/>
<rect x="988.841" y="1022.31" width="66.3608" height="66.3608" stroke="#C1ECFF" stroke-width="5"/>
<rect x="795.5" y="1088.5" width="260" height="270" stroke="#C1ECFF" stroke-width="5"/>
<rect x="795.5" y="1088.5" width="66.3608" height="66.3608" stroke="#C1ECFF" stroke-width="5"/>
<rect x="795.5" y="1156.78" width="66.3608" height="66.3608" stroke="#C1ECFF" stroke-width="5"/>
<rect x="795.5" y="1224.55" width="66.3608" height="66.3608" stroke="#C1ECFF" stroke-width="5"/>
<rect x="795.5" y="1292.31" width="66.3608" height="66.3608" stroke="#C1ECFF" stroke-width="5"/>
<rect x="863.268" y="1088.5" width="66.3608" height="66.3608" stroke="#C1ECFF" stroke-width="5"/>
<rect x="863.268" y="1156.78" width="66.3608" height="66.3608" stroke="#C1ECFF" stroke-width="5"/>
<rect x="863.268" y="1224.55" width="66.3608" height="66.3608" stroke="#C1ECFF" stroke-width="5"/>
<rect x="863.268" y="1292.31" width="66.3608" height="66.3608" stroke="#C1ECFF" stroke-width="5"/>
<rect x="925.835" y="1088.5" width="66.3608" height="66.3608" stroke="#C1ECFF" stroke-width="5"/>
<rect x="925.835" y="1156.78" width="66.3608" height="66.3608" stroke="#C1ECFF" stroke-width="5"/>
<rect x="925.835" y="1224.55" width="66.3608" height="66.3608" stroke="#C1ECFF" stroke-width="5"/>
<rect x="925.835" y="1292.31" width="66.3608" height="66.3608" stroke="#C1ECFF" stroke-width="5"/>
<rect x="988.841" y="1088.5" width="66.3608" height="66.3608" stroke="#C1ECFF" stroke-width="5"/>
<rect x="988.841" y="1156.78" width="66.3608" height="66.3608" stroke="#C1ECFF" stroke-width="5"/>
<rect x="988.841" y="1224.55" width="66.3608" height="66.3608" stroke="#C1ECFF" stroke-width="5"/>
<rect x="988.841" y="1292.31" width="66.3608" height="66.3608" stroke="#C1ECFF" stroke-width="5"/>
<rect x="1060.5" y="2.5" width="260" height="270" stroke="#C1ECFF" stroke-width="5"/>
<rect x="1060.5" y="2.5" width="66.3608" height="66.3608" stroke="#C1ECFF" stroke-width="5"/>
<rect x="1060.5" y="70.7805" width="66.3608" height="66.3608" stroke="#C1ECFF" stroke-width="5"/>
<rect x="1060.5" y="138.548" width="66.3608" height="66.3608" stroke="#C1ECFF" stroke-width="5"/>
<rect x="1060.5" y="206.315" width="66.3608" height="66.3608" stroke="#C1ECFF" stroke-width="5"/>
<rect x="1128.27" y="2.5" width="66.3608" height="66.3608" stroke="#C1ECFF" stroke-width="5"/>
<rect x="1128.27" y="70.7805" width="66.3608" height="66.3608" stroke="#C1ECFF" stroke-width="5"/>
<rect x="1128.27" y="138.548" width="66.3608" height="66.3608" stroke="#C1ECFF" stroke-width="5"/>
<rect x="1128.27" y="206.315" width="66.3608" height="66.3608" stroke="#C1ECFF" stroke-width="5"/>
<rect x="1190.84" y="2.5" width="66.3608" height="66.3608" stroke="#C1ECFF" stroke-width="5"/>
<rect x="1190.84" y="70.7805" width="66.3608" height="66.3608" stroke="#C1ECFF" stroke-width="5"/>
<rect x="1190.84" y="138.548" width="66.3608" height="66.3608" stroke="#C1ECFF" stroke-width="5"/>
<rect x="1190.84" y="206.315" width="66.3608" height="66.3608" stroke="#C1ECFF" stroke-width="5"/>
<rect x="1253.84" y="2.5" width="66.3608" height="66.3608" stroke="#C1ECFF" stroke-width="5"/>
<rect x="1253.84" y="70.7805" width="66.3608" height="66.3608" stroke="#C1ECFF" stroke-width="5"/>
<rect x="1253.84" y="138.548" width="66.3608" height="66.3608" stroke="#C1ECFF" stroke-width="5"/>
<rect x="1253.84" y="206.315" width="66.3608" height="66.3608" stroke="#C1ECFF" stroke-width="5"/>
<rect x="1060.5" y="274.5" width="260" height="270" stroke="#C1ECFF" stroke-width="5"/>
<rect x="1060.5" y="274.5" width="66.3608" height="66.3608" stroke="#C1ECFF" stroke-width="5"/>
<rect x="1060.5" y="342.781" width="66.3608" height="66.3608" stroke="#C1ECFF" stroke-width="5"/>
<rect x="1060.5" y="410.548" width="66.3608" height="66.3608" stroke="#C1ECFF" stroke-width="5"/>
<rect x="1060.5" y="478.315" width="66.3608" height="66.3608" stroke="#C1ECFF" stroke-width="5"/>
<rect x="1128.27" y="274.5" width="66.3608" height="66.3608" stroke="#C1ECFF" stroke-width="5"/>
<rect x="1128.27" y="342.781" width="66.3608" height="66.3608" stroke="#C1ECFF" stroke-width="5"/>
<rect x="1128.27" y="410.548" width="66.3608" height="66.3608" stroke="#C1ECFF" stroke-width="5"/>
<rect x="1128.27" y="478.315" width="66.3608" height="66.3608" stroke="#C1ECFF" stroke-width="5"/>
<rect x="1190.84" y="274.5" width="66.3608" height="66.3608" stroke="#C1ECFF" stroke-width="5"/>
<rect x="1190.84" y="342.781" width="66.3608" height="66.3608" stroke="#C1ECFF" stroke-width="5"/>
<rect x="1190.84" y="410.548" width="66.3608" height="66.3608" stroke="#C1ECFF" stroke-width="5"/>
<rect x="1190.84" y="478.315" width="66.3608" height="66.3608" stroke="#C1ECFF" stroke-width="5"/>
<rect x="1253.84" y="274.5" width="66.3608" height="66.3608" stroke="#C1ECFF" stroke-width="5"/>
<rect x="1253.84" y="342.781" width="66.3608" height="66.3608" stroke="#C1ECFF" stroke-width="5"/>
<rect x="1253.84" y="410.548" width="66.3608" height="66.3608" stroke="#C1ECFF" stroke-width="5"/>
<rect x="1253.84" y="478.315" width="66.3608" height="66.3608" stroke="#C1ECFF" stroke-width="5"/>
<rect x="1060.5" y="546.5" width="260" height="270" stroke="#C1ECFF" stroke-width="5"/>
<rect x="1060.5" y="546.5" width="66.3608" height="66.3608" stroke="#C1ECFF" stroke-width="5"/>
<rect x="1060.5" y="614.781" width="66.3608" height="66.3608" stroke="#C1ECFF" stroke-width="5"/>
<rect x="1060.5" y="682.548" width="66.3608" height="66.3608" stroke="#C1ECFF" stroke-width="5"/>
<rect x="1060.5" y="750.315" width="66.3608" height="66.3608" stroke="#C1ECFF" stroke-width="5"/>
<rect x="1128.27" y="546.5" width="66.3608" height="66.3608" stroke="#C1ECFF" stroke-width="5"/>
<rect x="1128.27" y="614.781" width="66.3608" height="66.3608" stroke="#C1ECFF" stroke-width="5"/>
<rect x="1128.27" y="682.548" width="66.3608" height="66.3608" stroke="#C1ECFF" stroke-width="5"/>
<rect x="1128.27" y="750.315" width="66.3608" height="66.3608" stroke="#C1ECFF" stroke-width="5"/>
<rect x="1190.84" y="546.5" width="66.3608" height="66.3608" stroke="#C1ECFF" stroke-width="5"/>
<rect x="1190.84" y="614.781" width="66.3608" height="66.3608" stroke="#C1ECFF" stroke-width="5"/>
<rect x="1190.84" y="682.548" width="66.3608" height="66.3608" stroke="#C1ECFF" stroke-width="5"/>
<rect x="1190.84" y="750.315" width="66.3608" height="66.3608" stroke="#C1ECFF" stroke-width="5"/>
<rect x="1253.84" y="546.5" width="66.3608" height="66.3608" stroke="#C1ECFF" stroke-width="5"/>
<rect x="1253.84" y="614.781" width="66.3608" height="66.3608" stroke="#C1ECFF" stroke-width="5"/>
<rect x="1253.84" y="682.548" width="66.3608" height="66.3608" stroke="#C1ECFF" stroke-width="5"/>
<rect x="1253.84" y="750.315" width="66.3608" height="66.3608" stroke="#C1ECFF" stroke-width="5"/>
<rect x="1060.5" y="818.5" width="260" height="270" stroke="#C1ECFF" stroke-width="5"/>
<rect x="1060.5" y="818.5" width="66.3608" height="66.3608" stroke="#C1ECFF" stroke-width="5"/>
<rect x="1060.5" y="886.781" width="66.3608" height="66.3608" stroke="#C1ECFF" stroke-width="5"/>
<rect x="1060.5" y="954.548" width="66.3608" height="66.3608" stroke="#C1ECFF" stroke-width="5"/>
<rect x="1060.5" y="1022.31" width="66.3608" height="66.3608" stroke="#C1ECFF" stroke-width="5"/>
<rect x="1128.27" y="818.5" width="66.3608" height="66.3608" stroke="#C1ECFF" stroke-width="5"/>
<rect x="1128.27" y="886.781" width="66.3608" height="66.3608" stroke="#C1ECFF" stroke-width="5"/>
<rect x="1128.27" y="954.548" width="66.3608" height="66.3608" stroke="#C1ECFF" stroke-width="5"/>
<rect x="1128.27" y="1022.31" width="66.3608" height="66.3608" stroke="#C1ECFF" stroke-width="5"/>
<rect x="1190.84" y="818.5" width="66.3608" height="66.3608" stroke="#C1ECFF" stroke-width="5"/>
<rect x="1190.84" y="886.781" width="66.3608" height="66.3608" stroke="#C1ECFF" stroke-width="5"/>
<rect x="1190.84" y="954.548" width="66.3608" height="66.3608" stroke="#C1ECFF" stroke-width="5"/>
<rect x="1190.84" y="1022.31" width="66.3608" height="66.3608" stroke="#C1ECFF" stroke-width="5"/>
<rect x="1253.84" y="818.5" width="66.3608" height="66.3608" stroke="#C1ECFF" stroke-width="5"/>
<rect x="1253.84" y="886.781" width="66.3608" height="66.3608" stroke="#C1ECFF" stroke-width="5"/>
<rect x="1253.84" y="954.548" width="66.3608" height="66.3608" stroke="#C1ECFF" stroke-width="5"/>
<rect x="1253.84" y="1022.31" width="66.3608" height="66.3608" stroke="#C1ECFF" stroke-width="5"/>
<rect x="1060.5" y="1088.5" width="260" height="270" stroke="#C1ECFF" stroke-width="5"/>
<rect x="1060.5" y="1088.5" width="66.3608" height="66.3608" stroke="#C1ECFF" stroke-width="5"/>
<rect x="1060.5" y="1156.78" width="66.3608" height="66.3608" stroke="#C1ECFF" stroke-width="5"/>
<rect x="1060.5" y="1224.55" width="66.3608" height="66.3608" stroke="#C1ECFF" stroke-width="5"/>
<rect x="1060.5" y="1292.31" width="66.3608" height="66.3608" stroke="#C1ECFF" stroke-width="5"/>
<rect x="1128.27" y="1088.5" width="66.3608" height="66.3608" stroke="#C1ECFF" stroke-width="5"/>
<rect x="1128.27" y="1156.78" width="66.3608" height="66.3608" stroke="#C1ECFF" stroke-width="5"/>
<rect x="1128.27" y="1224.55" width="66.3608" height="66.3608" stroke="#C1ECFF" stroke-width="5"/>
<rect x="1128.27" y="1292.31" width="66.3608" height="66.3608" stroke="#C1ECFF" stroke-width="5"/>
<rect x="1190.84" y="1088.5" width="66.3608" height="66.3608" stroke="#C1ECFF" stroke-width="5"/>
<rect x="1190.84" y="1156.78" width="66.3608" height="66.3608" stroke="#C1ECFF" stroke-width="5"/>
<rect x="1190.84" y="1224.55" width="66.3608" height="66.3608" stroke="#C1ECFF" stroke-width="5"/>
<rect x="1190.84" y="1292.31" width="66.3608" height="66.3608" stroke="#C1ECFF" stroke-width="5"/>
<rect x="1253.84" y="1088.5" width="66.3608" height="66.3608" stroke="#C1ECFF" stroke-width="5"/>
<rect x="1253.84" y="1156.78" width="66.3608" height="66.3608" stroke="#C1ECFF" stroke-width="5"/>
<rect x="1253.84" y="1224.55" width="66.3608" height="66.3608" stroke="#C1ECFF" stroke-width="5"/>
<rect x="1253.84" y="1292.31" width="66.3608" height="66.3608" stroke="#C1ECFF" stroke-width="5"/>
</svg>
