<svg width="336" height="432" viewBox="0 0 336 432" fill="none" xmlns="http://www.w3.org/2000/svg">
<path fill-rule="evenodd" clip-rule="evenodd" d="M5.8418 0L63.6032 432L335.462 390.495L5.8418 0ZM84.7017 168.442L112.718 366.975L234.466 348.644L84.7017 168.442Z" fill="#C1ECFF"/>
<path d="M59.1074 413.669L85.7399 410.21" stroke="white" stroke-width="3.45877"/>
<path d="M55.6484 373.547L82.2809 370.088" stroke="white" stroke-width="3.45877"/>
<path d="M49.4219 338.267L76.0544 334.809" stroke="white" stroke-width="3.45877"/>
<path d="M42.5059 298.145L69.1384 294.687" stroke="white" stroke-width="3.45877"/>
<path d="M36.2793 262.866L62.9118 259.407" stroke="white" stroke-width="3.45877"/>
<path d="M32.8203 227.587L59.4528 224.128" stroke="white" stroke-width="3.45877"/>
<path d="M29.3613 192.307L55.9938 188.849" stroke="white" stroke-width="3.45877"/>
<path d="M23.1367 157.028L49.7692 153.569" stroke="white" stroke-width="3.45877"/>
<path d="M19.6777 121.749L46.3102 118.29" stroke="white" stroke-width="3.45877"/>
<path d="M14.1426 84.3943L40.7751 80.9355" stroke="white" stroke-width="3.45877"/>
<path d="M6.5332 49.114L33.1657 45.6553" stroke="white" stroke-width="3.45877"/>
<path d="M1 13.8347L27.6325 10.376" stroke="white" stroke-width="3.45877"/>
</svg>
