<svg width="306" height="287" viewBox="0 0 306 287" fill="none" xmlns="http://www.w3.org/2000/svg">
<path fill-rule="evenodd" clip-rule="evenodd" d="M31.6926 283.166L299.605 204.751L247.193 3.35449L31.6926 283.166ZM130.737 210.159L253.72 173.015L230.41 82.8013L130.737 210.159Z" fill="#00AFFE"/>
<path d="M288.433 209.619L283.683 189.84" stroke="white" stroke-width="2.88148"/>
<path d="M263.367 215.466L258.617 195.688" stroke="white" stroke-width="2.88148"/>
<path d="M241.632 223.006L236.882 203.227" stroke="white" stroke-width="2.88148"/>
<path d="M216.901 231.459L212.151 211.68" stroke="white" stroke-width="2.88148"/>
<path d="M195.166 238.998L190.415 219.219" stroke="white" stroke-width="2.88148"/>
<path d="M173.167 244.456L168.417 224.677" stroke="white" stroke-width="2.88148"/>
<path d="M151.165 249.91L146.414 230.132" stroke="white" stroke-width="2.88148"/>
<path d="M129.431 257.45L124.681 237.672" stroke="white" stroke-width="2.88148"/>
<path d="M107.432 262.907L102.682 243.128" stroke="white" stroke-width="2.88148"/>
<path d="M84.3169 270.093L79.5668 250.314" stroke="white" stroke-width="2.88148"/>
<path d="M62.7151 278.676L57.965 258.897" stroke="white" stroke-width="2.88148"/>
<path d="M40.9163 285.694L36.1661 265.916" stroke="white" stroke-width="2.88148"/>
</svg>
