<svg width="236" height="236" viewBox="0 0 236 236" fill="none" xmlns="http://www.w3.org/2000/svg">
<mask id="path-1-inside-1_3_858" fill="white">
<path fill-rule="evenodd" clip-rule="evenodd" d="M133.192 28.3961L108.229 116.257L202.355 84.845C220.484 131.28 197.738 183.705 151.35 202.146C104.784 220.657 52.029 197.915 33.5177 151.349C15.0064 104.784 37.7488 52.0288 84.3143 33.5175C100.424 27.1133 117.275 25.6467 133.192 28.3961Z"/>
</mask>
<path d="M108.229 116.257L101.552 114.36L97.96 127.002L110.426 122.841L108.229 116.257ZM133.192 28.3961L139.869 30.2932L141.979 22.8697L134.374 21.5561L133.192 28.3961ZM202.355 84.845L208.821 82.3206L206.42 76.1709L200.158 78.2607L202.355 84.845ZM114.906 118.154L139.869 30.2932L126.515 26.499L101.552 114.36L114.906 118.154ZM200.158 78.2607L106.031 109.673L110.426 122.841L204.553 91.4293L200.158 78.2607ZM195.889 87.3695C212.631 130.251 191.625 178.666 148.785 195.696L153.914 208.596C203.851 188.744 228.338 132.309 208.821 82.3206L195.889 87.3695ZM148.785 195.696C105.782 212.791 57.0631 191.788 39.9679 148.785L27.0674 153.914C46.9948 204.042 103.786 228.524 153.914 208.596L148.785 195.696ZM39.9679 148.785C22.8728 105.782 43.8754 57.0629 86.8785 39.9678L81.7501 27.0672C31.6222 46.9947 7.13993 103.786 27.0674 153.914L39.9679 148.785ZM86.8785 39.9678C101.766 34.0494 117.318 32.6982 132.011 35.2361L134.374 21.5561C117.232 18.5952 99.0823 20.1771 81.7501 27.0672L86.8785 39.9678Z" fill="#00AFFE" mask="url(#path-1-inside-1_3_858)"/>
<path d="M122.13 58.8838C133.467 61.063 157.68 72.151 163.84 99.0696" stroke="#00AFFE" stroke-width="6.94126" stroke-dasharray="7.93 7.93"/>
</svg>
