<svg width="223" height="287" viewBox="0 0 223 287" fill="none" xmlns="http://www.w3.org/2000/svg">
<path d="M91.0781 107.277C93.1899 108.43 95.8504 108.694 96.9166 108.682C101.659 107.042 103.506 104.832 103.837 103.933L106.582 92.0647C103.632 83.9507 97.4518 66.6638 96.329 62.4281C95.2062 58.1923 89.6798 57.2353 87.057 57.2863C86.0348 57.4258 82.5388 58.3356 76.7319 60.8583C70.9251 63.3811 71.316 68.5124 72.2373 70.7628C75.3731 80.2397 81.8537 99.5494 82.6888 100.973C83.7327 102.753 88.4384 105.835 91.0781 107.277Z" fill="#00AFFE" stroke="#00AFFE" stroke-width="2.02324"/>
<path d="M214.253 230.514L105.086 112.424C109.963 109.195 110.816 102.377 110.633 99.372L204.254 207.854L214.253 230.514Z" fill="#00AFFE"/>
<path d="M221.75 238.625L214.253 230.514M214.253 230.514L105.086 112.424C109.963 109.195 110.816 102.377 110.633 99.372L204.254 207.854L214.253 230.514Z" stroke="#00AFFE" stroke-width="2.02324"/>
<path d="M83.436 275.77L96.2903 115.465C90.4603 115.941 85.5769 111.107 83.8639 108.631L77.2941 251.775L83.436 275.77Z" fill="#00AFFE"/>
<path d="M82.5531 286.78L83.436 275.77M83.436 275.77L96.2903 115.465C90.4603 115.941 85.5769 111.107 83.8639 108.631L77.2941 251.775L83.436 275.77Z" stroke="#00AFFE" stroke-width="2.02324"/>
<path fill-rule="evenodd" clip-rule="evenodd" d="M89.2855 77.8904C91.8259 76.4138 93.0513 73.3012 92.0544 70.4197C91.0575 67.5382 88.1707 65.8483 85.2609 66.2571L89.2855 77.8904ZM83.3275 66.8569C80.5456 68.24 79.1569 71.5069 80.1997 74.5209C81.2424 77.535 84.353 79.2453 87.3948 78.6136L83.3275 66.8569Z" fill="white"/>
<rect x="66.479" y="31.1519" width="10.1162" height="27.1115" transform="rotate(-19.0834 66.479 31.1519)" fill="#00AFFE"/>
<circle cx="71.0603" cy="28.9243" r="5.05811" transform="rotate(-19.0834 71.0603 28.9243)" fill="#00AFFE"/>
<ellipse cx="177.652" cy="169.172" rx="4.24881" ry="4.0924" transform="rotate(30.4626 177.652 169.172)" fill="#00AFFE"/>
<ellipse cx="189.564" cy="183.803" rx="4.24881" ry="4.0924" transform="rotate(30.4626 189.564 183.803)" fill="#00AFFE"/>
<rect x="174.435" y="171.641" width="8.18832" height="19.0185" transform="rotate(-39.0921 174.435 171.641)" fill="#00AFFE"/>
</svg>
