<svg width="305" height="310" viewBox="0 0 305 310" fill="none" xmlns="http://www.w3.org/2000/svg">
<mask id="path-1-inside-1_3_1252" fill="white">
<path fill-rule="evenodd" clip-rule="evenodd" d="M35.6624 110.642L149.458 159.379L122.221 31.3342C186.93 15.7053 253.124 55.8736 271.123 122.378C289.421 189.99 250.975 259.219 185.253 277.006C119.53 294.793 51.4177 254.402 33.1197 186.79C26.0385 160.624 27.4553 134.217 35.6624 110.642Z"/>
</mask>
<path d="M149.458 159.379L147.328 164.353L156.922 168.461L154.75 158.253L149.458 159.379ZM35.6624 110.642L37.7925 105.669L32.4599 103.385L30.5527 108.863L35.6624 110.642ZM122.221 31.3342L120.951 26.0749L115.833 27.3108L116.929 32.46L122.221 31.3342ZM151.588 154.406L37.7925 105.669L33.5323 115.616L147.328 164.353L151.588 154.406ZM116.929 32.46L144.166 160.505L154.75 158.253L127.513 30.2085L116.929 32.46ZM123.491 36.5935C185.226 21.6832 248.633 59.9887 265.9 123.792L276.345 120.965C257.616 51.7585 188.635 9.72753 120.951 26.0749L123.491 36.5935ZM265.9 123.792C283.455 188.66 246.539 254.815 183.839 271.784L186.666 282.229C255.412 263.624 295.386 191.321 276.345 120.965L265.9 123.792ZM183.839 271.784C121.139 288.752 55.8978 250.244 38.3423 185.376L27.897 188.203C46.9377 258.559 117.92 300.834 186.666 282.229L183.839 271.784ZM38.3423 185.376C31.552 160.286 32.915 134.99 40.7721 112.421L30.5527 108.863C21.9956 133.443 20.525 160.963 27.897 188.203L38.3423 185.376Z" fill="#00AFFE" mask="url(#path-1-inside-1_3_1252)"/>
<path d="M69.1726 130.454C73.7684 115.121 92.2935 83.4561 129.627 79.4635" stroke="#00AFFE" stroke-width="5.41051" stroke-dasharray="6.18 6.18"/>
</svg>
