<svg width="431" height="67" viewBox="0 0 431 67" fill="none" xmlns="http://www.w3.org/2000/svg">
<rect y="-1" width="622" height="67.176" fill="white"/>
<path d="M12.4399 -1V15.8587" stroke="#00AFFE" stroke-width="1.64475"/>
<path d="M74.6399 -1V15.8587" stroke="#00AFFE" stroke-width="1.64475"/>
<path d="M136.84 -1V15.8587" stroke="#00AFFE" stroke-width="1.64475"/>
<path d="M199.04 -1V15.8587" stroke="#00AFFE" stroke-width="1.64475"/>
<path d="M261.24 -1V15.8587" stroke="#00AFFE" stroke-width="1.64475"/>
<path d="M323.44 -1V15.8587" stroke="#00AFFE" stroke-width="1.64475"/>
<path d="M385.64 -1V15.8587" stroke="#00AFFE" stroke-width="1.64475"/>
<path d="M24.8799 -1V15.8587" stroke="#00AFFE" stroke-width="1.64475"/>
<path d="M87.0801 -1V15.8587" stroke="#00AFFE" stroke-width="1.64475"/>
<path d="M149.28 -1V15.8587" stroke="#00AFFE" stroke-width="1.64475"/>
<path d="M211.48 -1V15.8587" stroke="#00AFFE" stroke-width="1.64475"/>
<path d="M273.68 -1V15.8587" stroke="#00AFFE" stroke-width="1.64475"/>
<path d="M335.88 -1V15.8587" stroke="#00AFFE" stroke-width="1.64475"/>
<path d="M398.08 -1V15.8587" stroke="#00AFFE" stroke-width="1.64475"/>
<path d="M37.3201 -1V15.8587" stroke="#00AFFE" stroke-width="1.64475"/>
<path d="M99.52 -1V15.8587" stroke="#00AFFE" stroke-width="1.64475"/>
<path d="M161.72 -1V15.8587" stroke="#00AFFE" stroke-width="1.64475"/>
<path d="M223.92 -1V15.8587" stroke="#00AFFE" stroke-width="1.64475"/>
<path d="M286.12 -1V15.8587" stroke="#00AFFE" stroke-width="1.64475"/>
<path d="M348.32 -1V15.8587" stroke="#00AFFE" stroke-width="1.64475"/>
<path d="M410.52 -1V15.8587" stroke="#00AFFE" stroke-width="1.64475"/>
<path d="M49.76 -1V15.8587" stroke="#00AFFE" stroke-width="1.64475"/>
<path d="M111.96 -1V15.8587" stroke="#00AFFE" stroke-width="1.64475"/>
<path d="M174.16 -1V15.8587" stroke="#00AFFE" stroke-width="1.64475"/>
<path d="M236.36 -1V15.8587" stroke="#00AFFE" stroke-width="1.64475"/>
<path d="M298.56 -1V15.8587" stroke="#00AFFE" stroke-width="1.64475"/>
<path d="M360.76 -1V15.8587" stroke="#00AFFE" stroke-width="1.64475"/>
<path d="M422.96 -1V15.8587" stroke="#00AFFE" stroke-width="1.64475"/>
<path d="M62.2 -1L62.1999 30.2502" stroke="#00AFFE" stroke-width="1.64475"/>
<path d="M124.4 -1L124.4 30.2502" stroke="#00AFFE" stroke-width="1.64475"/>
<path d="M186.6 -1L186.6 30.2502" stroke="#00AFFE" stroke-width="1.64475"/>
<path d="M248.8 -1L248.8 30.2502" stroke="#00AFFE" stroke-width="1.64475"/>
<path d="M311 -1L311 30.2502" stroke="#00AFFE" stroke-width="1.64475"/>
<path d="M62.2 -1L62.1999 30.2502" stroke="#00AFFE" stroke-width="1.64475"/>
<path d="M124.4 -1L124.4 30.2502" stroke="#00AFFE" stroke-width="1.64475"/>
<path d="M186.6 -1L186.6 30.2502" stroke="#00AFFE" stroke-width="1.64475"/>
<path d="M248.8 -1L248.8 30.2502" stroke="#00AFFE" stroke-width="1.64475"/>
<path d="M311 -1L311 30.2502" stroke="#00AFFE" stroke-width="1.64475"/>
<path d="M373.2 -1L373.2 30.2502" stroke="#00AFFE" stroke-width="1.64475"/>
<path d="M373.2 -1L373.2 30.2502" stroke="#00AFFE" stroke-width="1.64475"/>
</svg>
